<svg width="35" height="29" viewBox="0 0 35 29" fill="none" xmlns="http://www.w3.org/2000/svg">
<path d="M2.356 1H32.188C32.9338 1 33.544 1.6102 33.544 2.356V26.764C33.544 27.5098 32.9338 28.12 32.188 28.12H2.356C1.6102 28.12 1 27.5098 1 26.764V2.356C1 1.6102 1.6102 1 2.356 1Z" stroke="black" stroke-miterlimit="3" stroke-linecap="round" stroke-linejoin="round"/>
<path d="M7.10236 9.13441C8.22571 9.13441 9.13636 8.22375 9.13636 7.10041C9.13636 5.97706 8.22571 5.06641 7.10236 5.06641C5.97901 5.06641 5.06836 5.97706 5.06836 7.10041C5.06836 8.22375 5.97901 9.13441 7.10236 9.13441Z" fill="black"/>
<path d="M13.8817 9.13441C15.005 9.13441 15.9157 8.22375 15.9157 7.10041C15.9157 5.97706 15.005 5.06641 13.8817 5.06641C12.7583 5.06641 11.8477 5.97706 11.8477 7.10041C11.8477 8.22375 12.7583 9.13441 13.8817 9.13441Z" fill="black"/>
</svg>
