<?xml version="1.0" encoding="utf-8"?>
<!-- Generator: Adobe Illustrator 26.2.1, SVG Export Plug-In . SVG Version: 6.00 Build 0)  -->
<svg version="1.1" id="Слой_1" xmlns="http://www.w3.org/2000/svg" xmlns:xlink="http://www.w3.org/1999/xlink" x="0px" y="0px"
	 viewBox="0 0 18 22" style="enable-background:new 0 0 18 22;" xml:space="preserve">
<path d="M14.4,22H2.7L1.5,5h14.2L14.4,22z M4.6,20h8l1-13H3.6L4.6,20z"/>
<path d="M17.1,7H0V2.1h17.1V7z M2,5h13.1V4.1H2V5z"/>
<path d="M12.1,4.1H5V2.2C5,1,6,0,7.2,0h2.7c1.2,0,2.1,0.9,2.2,2.1L12.1,4.1z M7.1,2.1h3C10,2,10,2,9.9,2H7.2C7.1,2,7.1,2,7.1,2.1z"
	/>
</svg>
