<svg width="35" height="48" viewBox="0 0 35 48" fill="none" xmlns="http://www.w3.org/2000/svg">
<path d="M1 38.6803C1 36.0185 3.16266 33.7727 5.90758 33.7727H33.7727V1H5.90758C3.24584 1 1 3.16266 1 5.90758V38.6803Z" stroke="#020203" stroke-miterlimit="10" stroke-linecap="square"/>
<path d="M10.6484 40.2617H33.7723" stroke="#020203" stroke-miterlimit="10" stroke-linecap="square"/>
<path d="M1 38.6797V40.2601H6.40666" stroke="#020203" stroke-miterlimit="10" stroke-linecap="square"/>
<path d="M18.551 11.2305C18.551 11.8959 17.9688 12.4782 17.3034 12.4782C16.6379 12.4782 16.0557 11.8959 16.0557 11.2305" stroke="black" stroke-miterlimit="8" stroke-linecap="square"/>
<path d="M22.7094 10.8973C23.0769 10.8973 23.3748 10.5994 23.3748 10.2318C23.3748 9.86433 23.0769 9.56641 22.7094 9.56641C22.3419 9.56641 22.0439 9.86433 22.0439 10.2318C22.0439 10.5994 22.3419 10.8973 22.7094 10.8973Z" fill="black"/>
<path d="M12.0629 10.8973C12.4304 10.8973 12.7283 10.5994 12.7283 10.2318C12.7283 9.86433 12.4304 9.56641 12.0629 9.56641C11.6954 9.56641 11.3975 9.86433 11.3975 10.2318C11.3975 10.5994 11.6954 10.8973 12.0629 10.8973Z" fill="black"/>
<path d="M10.6484 45.9981L8.48573 44.4177L6.40625 45.9981V36.5156H10.6484V45.9981Z" stroke="#020203" stroke-miterlimit="10" stroke-linecap="square"/>
</svg>
