<svg width="47" height="46" viewBox="0 0 47 46" fill="none" xmlns="http://www.w3.org/2000/svg">
<path d="M16.9661 44.6022C18.833 44.6022 20.3463 43.0888 20.3463 41.222C20.3463 39.3552 18.833 37.8418 16.9661 37.8418C15.0993 37.8418 13.5859 39.3552 13.5859 41.222C13.5859 43.0888 15.0993 44.6022 16.9661 44.6022Z" stroke="black" stroke-width="2"/>
<path d="M37.5013 44.6022C39.3681 44.6022 40.8815 43.0888 40.8815 41.222C40.8815 39.3552 39.3681 37.8418 37.5013 37.8418C35.6345 37.8418 34.1211 39.3552 34.1211 41.222C34.1211 43.0888 35.6345 44.6022 37.5013 44.6022Z" stroke="black" stroke-width="2"/>
<path d="M2.29409 0.690705L1.33831 0.39662L0.750135 2.30818L1.70591 2.60226L2.29409 0.690705ZM10 4.64648H9V6.64648H10V4.64648ZM40 35.1465H41V33.1465H40V35.1465ZM45.1717 6.89984L44.2044 6.64648L45.1717 6.89984ZM40.1955 25.8998L41.1629 26.1532L40.1955 25.8998ZM14.6835 27.963L15.3906 28.6701L14.6835 27.963ZM8.66083 4.13968L7.7101 4.4497L8.66083 4.13968ZM1.70591 2.60226L7.7101 4.4497L8.29827 2.53815L2.29409 0.690705L1.70591 2.60226ZM7.7101 4.4497L15.0493 26.9565L16.9507 26.3365L9.61156 3.82966L7.7101 4.4497ZM16 27.6465H39.2282V25.6465H16V27.6465ZM41.1629 26.1532L46.1391 7.1532L44.2044 6.64648L39.2282 25.6465L41.1629 26.1532ZM44.2044 4.64648H10V6.64648H44.2044V4.64648ZM15.2929 25.9394L13.9764 27.2559L15.3906 28.6701L16.7071 27.3536L15.2929 25.9394ZM21 35.1465H40V33.1465H21V35.1465ZM17.4121 35.1465H21V33.1465H17.4121V35.1465ZM13.5528 33.2168C14.4638 34.4316 15.8936 35.1465 17.4121 35.1465V33.1465C16.5232 33.1465 15.6861 32.728 15.1528 32.0168L13.5528 33.2168ZM46.1391 7.1532C46.4711 5.88558 45.5147 4.64648 44.2044 4.64648V6.64648V6.64648L46.1391 7.1532ZM39.2282 27.6465C40.1376 27.6465 40.9325 27.0329 41.1629 26.1532L39.2282 25.6465V27.6465ZM13.9764 27.2559C12.3716 28.8607 12.1911 31.4012 13.5528 33.2168L15.1528 32.0168C14.3882 30.9975 14.4896 29.5711 15.3906 28.6701L13.9764 27.2559ZM7.7101 4.4497L9.61156 3.82966C9.40988 3.2112 8.92002 2.72945 8.29827 2.53815L7.7101 4.4497Z" fill="black"/>
<line x1="12" y1="12.6465" x2="43" y2="12.6465" stroke="black" stroke-width="2"/>
</svg>
