<svg width="24" height="24" viewBox="0 0 24 24" fill="none" xmlns="http://www.w3.org/2000/svg">
<path d="M9.43776 23.6157C10.3203 23.6157 11.0357 22.9003 11.0357 22.0178C11.0357 21.1353 10.3203 20.4199 9.43776 20.4199C8.55525 20.4199 7.83984 21.1353 7.83984 22.0178C7.83984 22.9003 8.55525 23.6157 9.43776 23.6157Z" fill="black"/>
<path d="M19.1448 23.6157C20.0273 23.6157 20.7427 22.9003 20.7427 22.0178C20.7427 21.1353 20.0273 20.4199 19.1448 20.4199C18.2623 20.4199 17.5469 21.1353 17.5469 22.0178C17.5469 22.9003 18.2623 23.6157 19.1448 23.6157Z" fill="black"/>
<path d="M6.72037 6.19815C6.399 6.19815 6.1713 6.51191 6.27093 6.81744L8.98006 15.1254H19.9636C20.1771 15.1254 20.3642 14.9822 20.4199 14.776L22.5763 6.79418C22.6575 6.49371 22.4312 6.19815 22.12 6.19815H6.72037Z" fill="black"/>
<path d="M2.21987 1.095L1.26409 0.800916L0.675916 2.71247L1.6317 3.00656L2.21987 1.095ZM20.3255 19.6709H21.3255V17.6709H20.3255V19.6709ZM6.27093 6.81744L5.3202 7.12746L6.27093 6.81744ZM22.5763 6.79418L21.611 6.53336L22.5763 6.79418ZM20.4199 14.776L19.4545 14.5152L20.4199 14.776ZM8.35771 15.7478L7.6506 15.0407L8.35771 15.7478ZM5.07481 3.22867L4.12469 3.54056L5.07481 3.22867ZM1.6317 3.00656L4.4706 3.88007L5.05877 1.96851L2.21987 1.095L1.6317 3.00656ZM4.12469 3.54056L8.02994 15.4373L9.93018 14.8135L6.02493 2.91679L4.12469 3.54056ZM8.98006 16.1254H19.9636V14.1254H8.98006V16.1254ZM21.3853 15.0368L23.5417 7.05499L21.611 6.53336L19.4545 14.5152L21.3853 15.0368ZM22.12 5.19815H6.72037V7.19815H22.12V5.19815ZM8.27295 14.4183L7.6506 15.0407L9.06482 16.4549L9.68717 15.8325L8.27295 14.4183ZM11.3437 19.6709H20.3255V17.6709H11.3437V19.6709ZM9.64757 19.6709H11.3437V17.6709H9.64757V19.6709ZM5.3202 7.12746L8.02933 15.4354L9.93079 14.8154L7.22166 6.50742L5.3202 7.12746ZM7.40137 18.5478C7.93163 19.2548 8.76381 19.6709 9.64757 19.6709V17.6709C9.39333 17.6709 9.15391 17.5512 9.00136 17.3478L7.40137 18.5478ZM6.72037 5.19815C5.71919 5.19815 5.00982 6.17561 5.3202 7.12746L7.22166 6.50742C7.33279 6.8482 7.07881 7.19815 6.72037 7.19815V5.19815ZM23.5417 7.05499C23.7946 6.11893 23.0896 5.19815 22.12 5.19815V7.19815C21.7728 7.19815 21.5204 6.86849 21.611 6.53336L23.5417 7.05499ZM19.9636 16.1254C20.629 16.1254 21.2118 15.6792 21.3853 15.0368L19.4545 14.5152C19.5167 14.2852 19.7253 14.1254 19.9636 14.1254V16.1254ZM7.6506 15.0407C6.70644 15.9848 6.60022 17.4796 7.40137 18.5478L9.00136 17.3478C8.7974 17.0758 8.82444 16.6953 9.06482 16.4549L7.6506 15.0407ZM4.4706 3.88007C4.30703 3.82974 4.17807 3.70316 4.12469 3.54056L6.02493 2.91679C5.87585 2.46263 5.51563 2.10908 5.05877 1.96851L4.4706 3.88007Z" fill="black"/>
<line x1="7.08984" y1="8.50774" x2="21.7444" y2="8.50774" stroke="black" stroke-width="0.945455"/>
</svg>
