<svg width="26" height="23" viewBox="0 0 26 23" fill="none" xmlns="http://www.w3.org/2000/svg">
<path fill-rule="evenodd" clip-rule="evenodd" d="M7.04819 0.663849C6.7067 0.663849 6.38889 0.838058 6.20517 1.12589L1.08927 9.14233C0.840853 9.53165 0.891329 10.0405 1.2114 10.3734L12.7184 22.3419C13.112 22.7513 13.7671 22.7512 14.1604 22.3416L25.6541 10.3757C25.9749 10.0417 26.0244 9.53104 25.7737 9.14162L20.61 1.12247C20.4259 0.836609 20.1092 0.663864 19.7693 0.663864L7.04819 0.663849ZM9.81571 10.6655L13.4212 19.226L17.0266 10.6655H9.81571ZM13.4211 3.57074L16.6891 8.66962H10.1532L13.4211 3.57074ZM11.5937 2.67578H8.19919L8.88278 6.93359L11.5937 2.67578ZM15.2405 2.67578H18.635L17.9514 6.93359L15.2405 2.67578ZM6.457 4.4375L7.15653 8.66757H3.74967L6.457 4.4375ZM19.6781 8.66757L20.3776 4.4375L23.0849 8.66757H19.6781ZM7.65018 10.6708L10.3808 17.0799L4.25882 10.6708H7.65018ZM16.438 17.0799L19.1686 10.6708H22.56L16.438 17.0799Z" fill="#00BAC6"/>
</svg>
