<svg width="20" height="23" viewBox="0 0 20 23" fill="none" xmlns="http://www.w3.org/2000/svg">
<path d="M10.959 1V8H18.4279" stroke="black" stroke-width="2" stroke-miterlimit="8" stroke-linecap="round"/>
<path d="M10.9586 1L18.4276 8V22H1V1H10.9586Z" stroke="black" stroke-width="2" stroke-miterlimit="8" stroke-linecap="square"/>
<path d="M3.42773 16.2833V11.6167C3.86342 11.5583 4.36135 11.5 4.98377 11.5C5.66842 11.5 6.16635 11.6167 6.5398 11.9083C6.91325 12.1417 7.09997 12.55 7.09997 13.0167C7.09997 13.4833 6.97549 13.8917 6.66429 14.125C6.29084 14.475 5.73066 14.65 5.04601 14.65C4.85929 14.65 4.7348 14.65 4.67256 14.65V16.3417H3.42773V16.2833ZM4.54808 12.375V13.775C4.61032 13.775 4.7348 13.775 4.92153 13.775C5.23273 13.775 5.4817 13.7167 5.66842 13.6C5.85515 13.4833 5.91739 13.25 5.91739 13.0167C5.91739 12.7833 5.85515 12.6083 5.66842 12.4917C5.4817 12.375 5.29498 12.3167 4.98377 12.3167C4.79704 12.3167 4.61032 12.375 4.54808 12.375Z" fill="black"/>
<path d="M7.72266 16.2836V11.6753C8.15835 11.6169 8.65628 11.5586 9.27869 11.5586C10.1501 11.5586 10.897 11.7336 11.3327 12.0836C11.8928 12.4919 12.204 13.0753 12.204 13.8336C12.204 14.6503 11.9551 15.2919 11.3949 15.7586C10.897 16.1669 10.0878 16.3419 9.09197 16.3419C8.53179 16.3419 8.0961 16.2836 7.72266 16.2836ZM8.90524 12.3753V15.4669C8.96748 15.4669 9.09197 15.4669 9.27869 15.4669C9.83886 15.4669 10.2123 15.3503 10.5235 15.0586C10.8347 14.7669 10.9592 14.3586 10.9592 13.8336C10.9592 13.3669 10.8347 12.9586 10.5235 12.7253C10.2123 12.4919 9.83886 12.3169 9.34093 12.3169C9.15421 12.3753 9.02972 12.3753 8.90524 12.3753Z" fill="black"/>
<path d="M12.9502 16.2836V11.5586H16V12.4336H14.0705V13.4836H15.8755V14.4169H14.0705V16.3419H12.9502V16.2836Z" fill="black"/>
</svg>