<svg width="20" height="23" viewBox="0 0 20 23" fill="none" xmlns="http://www.w3.org/2000/svg">
<path d="M10.959 1V8H18.4279" stroke="black" stroke-width="2" stroke-miterlimit="8" stroke-linecap="round"/>
<path d="M10.9586 1L18.4276 8V22H1V1H10.9586Z" stroke="black" stroke-width="2" stroke-miterlimit="8" stroke-linecap="square"/>
<path d="M8.03268 16.2836H6.72561L6.28992 15.4086C6.22768 15.2919 6.10319 15.0003 5.85423 14.5336C5.79199 14.7086 5.6675 14.9419 5.48078 15.4086L5.04509 16.2836H3.67578L5.10733 13.8919L3.67578 11.5586H4.98285L5.41854 12.4336C5.54302 12.7253 5.6675 12.9586 5.79199 13.1919C5.85423 12.9586 5.97871 12.7253 6.16544 12.4336L6.60112 11.5586H7.90819L6.47664 13.8336L8.03268 16.2836Z" fill="black"/>
<path d="M8.65527 16.2836V11.5586H9.77562V15.4086H11.7673V16.2836H8.65527V16.2836Z" fill="black"/>
<path d="M12.2646 16.0503L12.5136 15.1753C12.8871 15.3503 13.3228 15.4669 13.7584 15.4669C14.0074 15.4669 14.1941 15.4086 14.3809 15.3503C14.5053 15.2336 14.5676 15.1169 14.5676 15.0003C14.5676 14.8836 14.5053 14.7086 14.3809 14.6503C14.2564 14.5919 14.0074 14.4753 13.7584 14.3586C12.8248 14.0669 12.3891 13.6003 12.3891 12.9586C12.3891 12.5503 12.5759 12.2003 12.8871 11.9669C13.2605 11.6753 13.6962 11.5586 14.2564 11.5586C14.7543 11.5586 15.19 11.6169 15.5634 11.7919L15.3145 12.6669C15.0033 12.4919 14.6298 12.4336 14.2564 12.4336C14.0074 12.4336 13.8207 12.4919 13.6962 12.5503C13.5717 12.6669 13.5095 12.7253 13.5095 12.9003C13.5095 13.0169 13.5717 13.1336 13.6962 13.2503C13.8207 13.3669 14.0696 13.4253 14.4431 13.6003C14.8788 13.7753 15.19 13.9503 15.439 14.1836C15.6257 14.4169 15.7502 14.7086 15.7502 15.0003C15.7502 15.4086 15.5634 15.7586 15.2522 16.0503C14.8788 16.3419 14.3809 16.4586 13.7584 16.4586C13.5095 16.4586 13.1983 16.4586 12.9493 16.3419C12.6381 16.2253 12.4514 16.1669 12.2646 16.0503Z" fill="black"/>
</svg>