<svg width="20" height="23" viewBox="0 0 20 23" fill="none" xmlns="http://www.w3.org/2000/svg">
<path d="M10.959 1V8H18.4279" stroke="black" stroke-width="2" stroke-miterlimit="8" stroke-linecap="round"/>
<path d="M10.9586 1L18.4276 8V22H1V1H10.9586Z" stroke="black" stroke-width="2" stroke-miterlimit="8" stroke-linecap="square"/>
<path d="M2.55566 16.2836V11.6753C2.99135 11.5586 3.48928 11.5586 4.1117 11.5586C4.98308 11.5586 5.72997 11.7336 6.16566 12.0836C6.72584 12.4919 7.03704 13.0753 7.03704 13.8336C7.03704 14.6503 6.78808 15.2919 6.2279 15.7586C5.72997 16.1669 4.92084 16.3419 3.92497 16.3419C3.3648 16.3419 2.92911 16.2836 2.55566 16.2836ZM3.67601 12.3753V15.4669C3.73825 15.4669 3.86273 15.4669 4.04946 15.4669C4.60963 15.4669 4.98308 15.3503 5.29428 15.0586C5.66773 14.8253 5.79221 14.4169 5.79221 13.8336C5.79221 13.3669 5.66773 12.9586 5.35653 12.7253C5.04532 12.4919 4.67187 12.3169 4.17394 12.3169C3.98722 12.3753 3.80049 12.3753 3.67601 12.3753Z" fill="black"/>
<path d="M9.90033 16.3417C9.15343 16.3417 8.59326 16.1083 8.15757 15.6417C7.72188 15.175 7.53516 14.5917 7.53516 13.95C7.53516 13.25 7.78412 12.6667 8.21981 12.2C8.6555 11.7333 9.27791 11.5 10.0248 11.5C10.7717 11.5 11.3319 11.7333 11.7676 12.2C12.2033 12.6667 12.39 13.25 12.39 13.8917C12.39 14.65 12.141 15.2917 11.7053 15.7C11.2074 16.1667 10.6472 16.3417 9.90033 16.3417ZM9.96257 15.525C10.336 15.525 10.6472 15.35 10.8339 15.0583C11.0207 14.7667 11.1452 14.3583 11.1452 13.8917C11.1452 13.425 11.0207 13.075 10.8339 12.7833C10.6472 12.4917 10.336 12.3167 9.96257 12.3167C9.58912 12.3167 9.27791 12.4917 9.09119 12.7833C8.84222 13.075 8.77998 13.4833 8.77998 13.95C8.77998 14.4167 8.90447 14.7667 9.09119 15.0583C9.27791 15.35 9.58912 15.525 9.96257 15.525Z" fill="black"/>
<path d="M16.6222 15.2917L16.8089 16.1083C16.4977 16.225 16.062 16.2833 15.5018 16.2833C14.6305 16.2833 14.008 16.05 13.5724 15.6417C13.1367 15.175 12.8877 14.65 12.8877 13.95C12.8877 13.1917 13.1367 12.55 13.6968 12.1417C14.1948 11.675 14.8794 11.5 15.6886 11.5C16.1865 11.5 16.6222 11.5583 16.9334 11.675L16.6844 12.55C16.3732 12.4333 16.062 12.375 15.7508 12.375C15.2529 12.375 14.8794 12.4917 14.5682 12.7833C14.257 13.075 14.1325 13.425 14.1325 13.95C14.1325 14.4167 14.257 14.7667 14.5682 15.0583C14.8794 15.35 15.2529 15.4667 15.7508 15.4667C16.062 15.4667 16.3732 15.4083 16.6222 15.2917Z" fill="black"/>
</svg>