<?xml version="1.0" encoding="utf-8"?>
<!-- Generator: Adobe Illustrator 26.2.1, SVG Export Plug-In . SVG Version: 6.00 Build 0)  -->
<svg version="1.1" id="Слой_1" xmlns="http://www.w3.org/2000/svg" xmlns:xlink="http://www.w3.org/1999/xlink" x="0px" y="0px"
	 viewBox="0 0 40 35" style="enable-background:new 0 0 40 35;" xml:space="preserve">
<path d="M19.6,34.1c-0.3,0-0.5-0.1-0.7-0.3L3.1,18.3c-1.9-1.7-3-4.1-3.1-6.7c-0.1-2.9,1-5.8,3.1-8c1.9-2,4.4-3.1,7.1-3.2
	c2.8-0.1,5.6,1.1,7.7,3.1l1.7,1.4l1.7-1.4c1.9-2,4.4-3.1,7.1-3.1c2.9-0.1,5.6,1.1,7.7,3.1c1.9,1.9,3,4.5,3,7.3c0,2.8-1.1,5.5-3,7.3
	L20.3,33.8C20.1,34,19.9,34.1,19.6,34.1z M10.4,2.5c-0.1,0-0.1,0-0.2,0C8.1,2.6,6,3.5,4.5,5.1C2.8,6.9,1.9,9.3,2,11.6
	c0.1,2.1,0.9,3.9,2.5,5.3l15.1,14.8l15.1-14.8c1.5-1.5,2.4-3.6,2.4-5.9s-0.9-4.4-2.4-5.9c0,0,0,0,0,0c-1.7-1.7-4-2.6-6.3-2.6
	c-2.2,0-4.2,0.9-5.7,2.5c0,0-0.1,0.1-0.1,0.1l-2.4,2c-0.4,0.3-0.9,0.3-1.3,0l-2.4-2C14.8,3.5,12.6,2.5,10.4,2.5z"/>
<path d="M15.2,23.6c-0.1,0-0.1,0-0.2,0c-0.4-0.1-0.8-0.4-0.8-0.8L12.7,14l-1.9,2c-0.2,0.2-0.5,0.3-0.7,0.3H3.4v-2h6.3l3-3.2
	c0.3-0.3,0.7-0.4,1-0.3c0.4,0.1,0.6,0.4,0.7,0.8l1.3,7.9l4.3-8.2c0.2-0.4,0.6-0.6,1-0.5c0.4,0,0.7,0.3,0.9,0.7l1.7,6.1l1.5-2.8
	c0.2-0.3,0.5-0.5,0.9-0.5h9.6v2h-9l-2.4,4.5c-0.2,0.4-0.6,0.6-1,0.5c-0.4,0-0.7-0.3-0.9-0.7l-1.7-6.1l-4.5,8.6
	C15.9,23.4,15.6,23.6,15.2,23.6z"/>
</svg>
