<svg width="47" height="44" viewBox="0 0 47 44" fill="none" xmlns="http://www.w3.org/2000/svg">
<path fill-rule="evenodd" clip-rule="evenodd" d="M11.4129 0.699311C8.27651 1.0617 5.35224 2.6132 3.63662 4.82524C1.28344 7.85923 0.466742 12.2463 1.3428 17.1469C1.52334 18.1571 1.72894 18.4555 2.24436 18.4555C2.48259 18.4555 2.72126 18.2512 4.02022 16.9358C4.84562 16.0999 5.64755 15.3509 5.80232 15.2714C6.64989 14.8355 7.72583 15.3946 7.90479 16.3637C8.04197 17.1059 8.00574 17.1563 5.42541 19.8133C3.14029 22.1662 3.01463 22.3129 3.01463 22.6288C3.01463 23.0842 3.32804 23.4037 3.77478 23.4037C4.09013 23.4037 4.25282 23.2512 7.84596 19.587C11.8877 15.4656 11.769 15.5634 12.5692 15.6962C12.9469 15.7589 13.4326 16.1224 13.6115 16.4764C13.7648 16.7796 13.784 17.4332 13.6503 17.7974C13.5992 17.9366 11.6602 19.9953 9.34129 22.3721C6.26198 25.5285 5.12518 26.7486 5.12518 26.8975C5.12518 27.169 5.34758 27.5967 5.52487 27.6663C5.60314 27.697 5.79106 27.7222 5.94241 27.7222C6.18759 27.7222 6.62157 27.3102 9.91448 23.9514C13.0525 20.7507 13.6666 20.1641 13.9767 20.0712C14.6337 19.8742 15.3594 20.1701 15.7053 20.776C15.9119 21.1379 15.9277 21.8297 15.7379 22.1961C15.6628 22.3406 13.9145 24.1797 11.8526 26.2827C9.79066 28.3857 8.0469 30.2156 7.97751 30.3492C7.90813 30.4829 7.85132 30.6729 7.85132 30.7716C7.85132 31.0408 8.20915 31.4036 8.53857 31.4683C8.82508 31.5247 8.88409 31.4708 11.9243 28.3745C13.6261 26.6414 15.1569 25.1511 15.3262 25.0627C16.4738 24.4637 17.7682 25.5537 17.4339 26.8374C17.3445 27.1806 16.9543 27.6157 14.1747 30.4713C10.8222 33.9156 10.8459 33.8848 11.1715 34.3954C11.548 34.9856 15.8533 38.5325 18.5324 40.4596C20.7503 42.0549 23.2336 43.6465 23.5046 43.6465C23.7757 43.6465 26.2589 42.0549 28.4768 40.4596C31.1559 38.5325 35.4613 34.9856 35.8378 34.3954C36.1634 33.8848 36.1871 33.9156 32.8345 30.4713C30.0549 27.6157 29.6647 27.1806 29.5754 26.8374C29.2708 25.668 30.2559 24.6601 31.4192 24.9509C31.7788 25.0407 32.1023 25.3421 34.9583 28.2483C37.9346 31.2769 38.1186 31.4468 38.4213 31.4468C38.6612 31.4468 38.7931 31.3849 38.9495 31.1989C39.1891 30.914 39.2104 30.6933 39.0317 30.3492C38.9624 30.2156 37.2186 28.3857 35.1567 26.2827C33.0947 24.1797 31.3464 22.3406 31.2714 22.1961C31.0815 21.8297 31.0974 21.1379 31.3039 20.776C31.6499 20.1701 32.3756 19.8742 33.0326 20.0712C33.3426 20.1641 33.9567 20.7507 37.0948 23.9514C40.553 27.4788 40.8113 27.722 41.096 27.7193C41.5924 27.7146 41.9501 27.2916 41.8425 26.8366C41.8059 26.682 40.3141 25.0883 37.6185 22.3241C35.3266 19.9737 33.4096 17.9366 33.3586 17.7974C33.0208 16.8738 33.5452 15.8448 34.4283 15.6981C35.2421 15.563 35.1142 15.458 39.1633 19.587C42.7564 23.2512 42.9191 23.4037 43.2345 23.4037C43.6818 23.4037 43.9946 23.0843 43.9946 22.6275C43.9946 22.3098 43.8742 22.1691 41.6254 19.8568C40.3224 18.517 39.2144 17.3068 39.1631 17.1676C38.9049 16.4655 39.2076 15.6651 39.8585 15.3291C40.7707 14.858 41.1321 15.0429 42.989 16.9302C44.3591 18.3228 44.5166 18.4555 44.7984 18.4555C45.2952 18.4555 45.4838 18.1686 45.6692 17.1319C46.414 12.965 45.8859 8.8899 44.2385 6.09478C43.3793 4.63685 42.4322 3.6346 41.0047 2.6724C38.2114 0.789818 34.9468 0.209705 31.6391 1.00799C28.6541 1.72836 25.7251 3.7557 24.012 6.28731C23.7692 6.6461 23.5409 6.93957 23.5046 6.93957C23.4683 6.93957 23.24 6.64601 22.9973 6.28731C21.5901 4.20788 19.212 2.34752 16.8212 1.45585C15.0982 0.81321 12.9849 0.517575 11.4129 0.699311ZM14.5846 2.39844C17.8837 3.08679 20.6207 5.13356 22.4913 8.31096C22.9367 9.06741 23.158 9.27874 23.5046 9.27874C23.8513 9.27874 24.0725 9.06741 24.518 8.31096C26.0964 5.62973 28.3714 3.68553 30.961 2.80456C32.2818 2.35526 33.0184 2.23245 34.4092 2.22975C36.4998 2.22571 38.1175 2.68031 39.9054 3.77441C42.4897 5.35578 43.9634 7.93003 44.3955 11.6179C44.5468 12.9089 44.5521 13.6157 44.4209 15.0143L44.3174 16.1164L43.324 15.1233C42.0651 13.8648 41.6494 13.6418 40.565 13.6431C39.9765 13.6437 39.7255 13.6872 39.3848 13.8472C38.7222 14.1585 38.2464 14.6072 37.9622 15.1888C37.8218 15.4763 37.6987 15.7267 37.6885 15.7453C37.6784 15.7639 37.4014 15.5254 37.073 15.2153C36.2115 14.4021 35.7098 14.182 34.717 14.182C34.0307 14.182 33.8597 14.215 33.4308 14.4305C32.784 14.7555 32.1992 15.4019 31.9597 16.0567C31.7373 16.6649 31.7131 17.5944 31.9054 18.1406C31.9751 18.3385 32.0328 18.5041 32.0335 18.5087C32.0342 18.5132 31.8703 18.5674 31.6691 18.629C29.9159 19.1664 29.0954 21.3294 30.0096 23.0035L30.2579 23.458L29.8151 23.6189C29.3096 23.8025 28.6313 24.4415 28.3564 24.9931C28.0903 25.5266 27.971 26.3382 28.0757 26.9029C28.2629 27.9124 28.3646 28.0433 31.331 31.0916L34.1407 33.9786L32.9375 35.0115C31.3123 36.4064 29.2769 38.0108 27.6818 39.1543C26.18 40.2308 23.6188 41.9371 23.5046 41.9371C23.3905 41.9371 20.8292 40.2308 19.3275 39.1543C17.7323 38.0108 15.697 36.4064 14.0718 35.0115L12.8686 33.9786L15.6782 31.0916C18.6446 28.0433 18.7464 27.9124 18.9335 26.9029C19.0382 26.3382 18.919 25.5266 18.6529 24.9931C18.3779 24.4415 17.6996 23.8025 17.1941 23.6189L16.7514 23.458L16.9996 23.0035C17.9148 21.3276 17.0934 19.1665 15.3365 18.6279C15.0552 18.5417 14.9808 18.4808 15.0243 18.3726C15.1993 17.9376 15.2543 17.53 15.22 16.9231C15.1557 15.787 14.5629 14.93 13.49 14.4222C13.091 14.2334 12.8603 14.1877 12.2923 14.1851C11.6847 14.1824 11.5106 14.2199 11.0154 14.46C10.6999 14.6129 10.1945 14.9724 9.89144 15.2594C9.58866 15.5463 9.33223 15.7652 9.32159 15.7462C9.31104 15.7271 9.18854 15.4783 9.04933 15.1935C8.76238 14.6058 8.40147 14.2469 7.73814 13.8899C7.3316 13.671 7.18518 13.6431 6.44428 13.6431C5.69521 13.6431 5.55934 13.6696 5.12984 13.9005C4.84466 14.0539 4.25475 14.554 3.67136 15.1372L2.69189 16.1164L2.58838 15.0143C2.45717 13.6157 2.46245 12.9089 2.61371 11.6179C3.25778 6.12186 6.29593 2.97226 11.6767 2.22247C12.1877 2.15121 13.8951 2.25459 14.5846 2.39844Z" fill="black" stroke="black" stroke-width="0.5"/>
</svg>
