<?xml version="1.0" encoding="utf-8"?>
<!-- Generator: Adobe Illustrator 26.2.1, SVG Export Plug-In . SVG Version: 6.00 Build 0)  -->
<svg version="1.1" id="Слой_1" xmlns="http://www.w3.org/2000/svg" xmlns:xlink="http://www.w3.org/1999/xlink" x="0px" y="0px"
	 viewBox="0 0 39 37" style="enable-background:new 0 0 39 37;" xml:space="preserve">
<path d="M12,17.4c-4.6,0-8.3-3.7-8.3-8.3S7.4,0.7,12,0.7s8.3,3.7,8.3,8.3S16.6,17.4,12,17.4z M12,2.7C8.5,2.7,5.7,5.5,5.7,9
	s2.8,6.3,6.3,6.3c3.5,0,6.3-2.8,6.3-6.3S15.5,2.7,12,2.7z"/>
<path d="M23,36.9H0.4v-7.5c0-6.2,5.1-11.3,11.3-11.3S23,23.1,23,29.4V36.9z M2.4,34.9H21v-5.5c0-5.1-4.2-9.3-9.3-9.3
	s-9.3,4.2-9.3,9.3V34.9z"/>
<rect x="34.3" y="19.5" transform="matrix(0.7075 -0.7067 0.7067 0.7075 -6.1199 31.7793)" width="2" height="7.6"/>
<path d="M28.4,23.1c-3.7,0-6.8-3-6.8-6.8s3-6.8,6.8-6.8s6.8,3,6.8,6.8S32.1,23.1,28.4,23.1z M28.4,11.5c-2.6,0-4.8,2.1-4.8,4.8
	s2.1,4.8,4.8,4.8s4.8-2.1,4.8-4.8S31,11.5,28.4,11.5z"/>
</svg>
