<?xml version="1.0" encoding="utf-8"?>
<!-- Generator: Adobe Illustrator 26.2.1, SVG Export Plug-In . SVG Version: 6.00 Build 0)  -->
<svg version="1.1" id="Слой_1" xmlns="http://www.w3.org/2000/svg" xmlns:xlink="http://www.w3.org/1999/xlink" x="0px" y="0px"
	 viewBox="0 0 75 73" style="enable-background:new 0 0 75 73;" xml:space="preserve">
<polygon points="39.9,27.5 29,27.5 29,16.6 31,16.6 31,25.5 39.9,25.5 "/>
<path d="M40.5,72.1H0V16h31l9.5,9.6V72.1z M2,70.1h36.5V26.4L30.2,18H2V70.1z"/>
<rect x="9.2" y="36.5" width="22.2" height="2"/>
<rect x="9.2" y="46.1" width="22.2" height="2"/>
<rect x="9.2" y="55.7" width="22.2" height="2"/>
<path d="M74.6,23.6h-5.7v-5.7h5.7V23.6z M70.9,21.6h1.7v-1.7h-1.7V21.6z M65.6,23.6H60v-5.7h5.7V23.6z M62,21.6h1.7v-1.7H62V21.6z
	 M56.7,23.6H51v-5.7h5.7V23.6z M53,21.6h1.7v-1.7H53V21.6z M74.6,14.6h-5.7V9h5.7V14.6z M70.9,12.6h1.7V11h-1.7V12.6z M65.6,14.6H60
	V9h5.7V14.6z M62,12.6h1.7V11H62V12.6z M56.7,14.6H51V9h5.7V14.6z M53,12.6h1.7V11H53V12.6z M74.6,5.7h-5.7V0h5.7V5.7z M70.9,3.7
	h1.7V2h-1.7V3.7z M65.6,5.7H60V0h5.7V5.7z M62,3.7h1.7V2H62V3.7z M56.7,5.7H51V0h5.7V5.7z M53,3.7h1.7V2H53V3.7z"/>
</svg>
