<?xml version="1.0" encoding="utf-8"?>
<!-- Generator: Adobe Illustrator 26.2.1, SVG Export Plug-In . SVG Version: 6.00 Build 0)  -->
<svg version="1.1" id="Слой_1" xmlns="http://www.w3.org/2000/svg" xmlns:xlink="http://www.w3.org/1999/xlink" x="0px" y="0px"
	 viewBox="0 0 77 78" style="enable-background:new 0 0 77 78;" xml:space="preserve">
<polygon points="39.9,32.5 29,32.5 29,21.6 31,21.6 31,30.5 39.9,30.5 "/>
<path d="M40.5,77.1H0V21h31l9.5,9.6V77.1z M2,75.1h36.5V31.4L30.2,23H2V75.1z"/>
<rect x="9.2" y="41.5" width="22.2" height="2"/>
<rect x="9.2" y="51.1" width="22.2" height="2"/>
<rect x="9.2" y="60.7" width="22.2" height="2"/>
<polygon points="66.1,23 64.1,23 64.1,12.8 53.8,12.8 53.8,10.8 64.1,10.8 64.1,0.6 66.1,0.6 66.1,10.8 76.3,10.8 76.3,12.8 
	66.1,12.8 "/>
</svg>
