<?xml version="1.0" encoding="utf-8"?>
<!-- Generator: Adobe Illustrator 26.2.1, SVG Export Plug-In . SVG Version: 6.00 Build 0)  -->
<svg version="1.1" id="Слой_1" xmlns="http://www.w3.org/2000/svg" xmlns:xlink="http://www.w3.org/1999/xlink" x="0px" y="0px"
	 viewBox="0 0 75 79" style="enable-background:new 0 0 75 79;" xml:space="preserve">
<style type="text/css">
	.st0{fill:#FFFFFF;filter:url(#Adobe_OpacityMaskFilter);}
	.st1{mask:url(#path-9-inside-1_0_1_00000086659916537686780060000012479336288926282394_);}
</style>
<path d="M40.5,78.1H0V22h31l9.5,9.6V78.1z M2,76.1h36.5V32.4L30.2,24H2V76.1z"/>
<rect x="9.2" y="42.5" width="22.2" height="2"/>
<rect x="9.2" y="52.1" width="22.2" height="2"/>
<rect x="9.2" y="61.7" width="22.2" height="2"/>
<path d="M67.9,11c-0.5,0-0.9-0.1-1.3-0.2l-1.2-0.2l0.5-1.1c0.2-0.4,0.3-0.9,0.3-1.3c0-1.6-1.1-2.9-2.6-3.3l-1.1-0.3l0.4-1.1
	c0.8-2,2.8-3.3,5-3.3c3,0,5.4,2.4,5.4,5.4S70.9,11,67.9,11z M65.3,3.4c1.8,0.9,2.9,2.8,2.9,4.8c0,0.3,0,0.6-0.1,0.9
	c1.8-0.1,3.2-1.6,3.2-3.4c0-1.9-1.5-3.4-3.4-3.4C66.9,2.1,65.9,2.6,65.3,3.4z"/>
<path d="M62.8,13.6c-3,0-5.4-2.4-5.4-5.4s2.4-5.4,5.4-5.4c0.5,0,0.9,0.1,1.3,0.2l0.1,0c2.4,0.6,4.1,2.8,4.1,5.3
	c0,0.7-0.2,1.5-0.4,2.1C67,12.3,65,13.6,62.8,13.6z M62.8,4.7c-1.9,0-3.4,1.5-3.4,3.4c0,1.9,1.5,3.4,3.4,3.4c1.4,0,2.6-0.8,3.1-2.1
	c0.2-0.4,0.3-0.9,0.3-1.3c0-1.5-1.1-2.9-2.6-3.3C63.3,4.8,63,4.7,62.8,4.7z"/>
<path d="M75,23h-7.1v-2.7c0-2.7-2.2-5-4.9-5.1l-1.8,0l1-1.5c1.3-1.9,3.4-3,5.8-3c3.9,0,7.1,3.2,7.1,7.1V23z M69.9,21H73v-3.3
	c0-2.8-2.3-5.1-5.1-5.1c-1.1,0-2.1,0.3-2.9,0.9c2.8,0.9,4.8,3.6,4.8,6.7V21z"/>
<path d="M69.8,25.6H55.7v-5.3c0-3.9,3.2-7.1,7.1-7.1l0.3,0c3.8,0.2,6.8,3.4,6.7,7.1V25.6z M57.7,23.6h10.1v-3.3
	c0.1-2.7-2.1-4.9-4.8-5.1h-0.2c-2.8,0-5.1,2.3-5.1,5.1V23.6z"/>
<defs>
	<filter id="Adobe_OpacityMaskFilter" filterUnits="userSpaceOnUse" x="42.4" y="28.3" width="17.7" height="17.7">
		<feColorMatrix  type="matrix" values="1 0 0 0 0  0 1 0 0 0  0 0 1 0 0  0 0 0 1 0"/>
	</filter>
</defs>
<mask maskUnits="userSpaceOnUse" x="42.4" y="28.3" width="17.7" height="17.7" id="path-9-inside-1_0_1_00000086659916537686780060000012479336288926282394_">
	<path class="st0" d="M42.4,44c8.7,0,15.7-7.1,15.7-15.7L42.4,44z"/>
</mask>
<path class="st1" d="M42.4,46c9.8,0,17.7-8,17.7-17.7h-4C56.1,35.8,50,42,42.4,42V46z"/>
</svg>
