<?xml version="1.0" encoding="utf-8"?>
<!-- Generator: Adobe Illustrator 26.2.1, SVG Export Plug-In . SVG Version: 6.00 Build 0)  -->
<svg version="1.1" id="Слой_1" xmlns="http://www.w3.org/2000/svg" xmlns:xlink="http://www.w3.org/1999/xlink" x="0px" y="0px"
	 viewBox="0 0 71 81" style="enable-background:new 0 0 71 81;" xml:space="preserve">
<polygon points="39.9,35.5 29,35.5 29,24.6 31,24.6 31,33.5 39.9,33.5 "/>
<path d="M40.5,80.1H0V24h31l9.5,9.6V80.1z M2,78.1h36.5V34.4L30.2,26H2V78.1z"/>
<rect x="9.2" y="44.5" width="22.2" height="2"/>
<rect x="9.2" y="54.1" width="22.2" height="2"/>
<rect x="9.2" y="63.7" width="22.2" height="2"/>
<path d="M64.9,14.9c-2.4,0-4.4-2-4.4-4.4s2-4.4,4.4-4.4c0.3,0,0.6,0.1,1,0.1c2,0.5,3.4,2.3,3.4,4.3c0,0.6-0.1,1.2-0.4,1.7l0,0.1
	C68.3,13.8,66.7,14.9,64.9,14.9z M64.9,8c-1.3,0-2.4,1.1-2.4,2.4s1.1,2.4,2.4,2.4c1,0,1.9-0.6,2.2-1.5l0,0c0.1-0.3,0.2-0.6,0.2-0.9
	c0-1.1-0.8-2.1-1.8-2.3C65.3,8,65.1,8,64.9,8z"/>
<path d="M70.9,26.9H58.9v-4.3c0-3.3,2.7-6.1,6.1-6.1l0.2,0c3.2,0.2,5.8,2.9,5.8,6.1V26.9z M60.9,24.9h8.1v-2.3c0-2.2-1.7-4-3.9-4.1
	l-0.1-1l0,1c-2.3,0-4.1,1.8-4.1,4.1V24.9z"/>
<path d="M34.5,17l-1.9-0.6C35.2,7.6,44.2,2.4,53,4.5l-0.5,1.9C44.7,4.6,36.8,9.2,34.5,17z"/>
<polygon points="48.6,9.3 47.5,7.6 51.5,5.2 49.4,1.5 51.1,0.5 54.2,6 "/>
</svg>
