<svg width="117" height="84" viewBox="0 0 117 84" fill="none" xmlns="http://www.w3.org/2000/svg">
<path d="M82.1847 82.8302H17.5553V41.3811H16.4531V83.9279H83.2868V74.356H82.1847V82.8302Z" fill="black"/>
<path d="M82.1849 26.8915H83.2871V17.3635H43.0811V18.4612H82.1849V26.8915Z" fill="black"/>
<path d="M5.82866 5.42017L5.03516 6.21051L8.60607 9.76705L8.78242 9.63533C8.95877 9.5036 9.09101 9.32797 9.26735 9.19625L9.44371 9.02062L5.82866 5.42017Z" fill="black"/>
<path d="M26.9891 26.8028C26.8568 26.9785 26.6805 27.1102 26.5482 27.2858L26.416 27.4614L29.2816 30.3155L30.0751 29.5251L27.1654 26.6272L26.9891 26.8028Z" fill="black"/>
<path d="M26.2843 9.59163L26.4607 9.72335L30.0316 6.16681L29.238 5.37646L25.623 8.97692L25.7994 9.15255C25.9757 9.32818 26.1521 9.4599 26.2843 9.59163Z" fill="black"/>
<path d="M8.12114 26.8028L7.94479 26.6272L5.03516 29.5251L5.82866 30.3155L8.69422 27.4614L8.562 27.2858C8.38565 27.1102 8.2534 26.9785 8.12114 26.8028Z" fill="black"/>
<path d="M30.0753 18.1968V18.4163H34.6602V17.3186H30.0312V17.5381C30.0753 17.7577 30.0753 17.9772 30.0753 18.1968Z" fill="black"/>
<path d="M0.40625 17.3186V18.4163H4.9911V18.1968C4.9911 17.9772 4.99114 17.7577 5.03523 17.5381V17.3186H0.40625Z" fill="black"/>
<path d="M17.7319 6.07852H18.0846V0.80957H16.9824V6.07852H17.3351C17.4673 6.07852 17.5996 6.07852 17.7319 6.07852Z" fill="black"/>
<path d="M17.644 33.3014C18.9225 33.3014 19.9805 32.2477 19.9805 30.9743V29.1741C20.4214 28.8667 20.73 28.3838 20.73 27.769V27.1543C20.73 26.4079 21.1268 25.7054 21.7881 25.3102C24.2569 23.8173 25.7116 21.2268 25.7116 18.3727C25.7116 16.1334 24.7859 13.9819 23.1106 12.4452C21.4354 10.9084 19.2752 10.118 16.9827 10.2498C12.9269 10.5132 9.53229 13.8941 9.31186 17.9337C9.13552 20.9633 10.6344 23.7734 13.2355 25.3541C13.8968 25.7493 14.2935 26.4518 14.2935 27.1982V27.813C14.2935 28.3838 14.6021 28.9106 15.043 29.218V31.0182C15.043 32.2916 16.101 33.3454 17.3795 33.3454H17.644V33.3014ZM15.4398 27.813V27.1982C15.4398 26.0566 14.8667 25.0468 13.8527 24.432C11.6043 23.0709 10.3258 20.612 10.4581 18.0215C10.6344 14.5088 13.5441 11.6109 17.0709 11.3914C17.2032 11.3914 17.3795 11.3914 17.5118 11.3914C19.3193 11.3914 21.0386 12.05 22.3612 13.3233C23.816 14.6845 24.6095 16.4847 24.6095 18.4606C24.6095 20.9194 23.331 23.2026 21.2149 24.4759C20.201 25.0907 19.6279 26.1005 19.6279 27.2421V27.8569C19.6279 28.1642 19.3633 28.4277 19.0547 28.4277H16.0128C15.7042 28.3838 15.4398 28.1203 15.4398 27.813ZM16.1892 29.4815H18.9225V30.9743C18.9225 31.6768 18.3494 32.2037 17.6881 32.2037H17.4236C16.7182 32.2037 16.1892 31.6329 16.1892 30.9743V29.4815Z" fill="black"/>
<path d="M64.3738 37.2974V36.1997H58.5986V47.4401H59.7889V42.2151H64.0211V41.1174H59.7889V37.2974H64.3738Z" fill="black"/>
<path d="M68.9149 36.1997H67.7246V47.4401H68.9149V36.1997Z" fill="black"/>
<path d="M78.8786 46.3424H74.0733V42.0834H78.3936V40.9857H74.0733V37.2974H78.6141V36.1997H72.8389V47.4401H78.8786V46.3424Z" fill="black"/>
<path d="M88.0924 46.3424H83.243V36.1997H82.0527V47.4401H88.0924V46.3424Z" fill="black"/>
<path d="M99.9064 41.5562C99.9064 39.9316 99.4215 38.6143 98.4957 37.6484C97.5258 36.6385 95.9828 36.1116 93.9549 36.1116C93.0291 36.1116 92.0592 36.1994 91.1334 36.375L90.957 36.4189V47.4398H91.1775C91.8387 47.4837 92.6323 47.5276 93.6022 47.5276C95.7624 47.5276 97.3935 46.9568 98.4516 45.8152C99.4214 44.7175 99.9064 43.3125 99.9064 41.5562ZM93.6904 46.4299C93.0291 46.4299 92.5001 46.4299 92.1474 46.386V37.341C92.6764 37.2532 93.2495 37.2093 93.8667 37.2093C95.4979 37.2093 96.6882 37.6044 97.4817 38.3948C98.2752 39.1851 98.672 40.2389 98.6279 41.6001C98.6279 43.1368 98.1871 44.3224 97.3936 45.1566C96.6 45.9909 95.3215 46.4299 93.6904 46.4299Z" fill="black"/>
<path d="M62.3021 56.617V55.5632H60.0978V53.7629L58.9075 54.202V55.5632H57.585V56.617H58.9075V61.2273C58.9075 62.1494 59.0838 62.808 59.4365 63.2031C59.7892 63.5983 60.2742 63.8179 60.9354 63.8179C61.3763 63.8179 61.7731 63.774 62.0817 63.6422L62.258 63.5983L62.0817 62.5884L61.8172 62.6762C61.5967 62.7641 61.3322 62.7641 61.0237 62.7641C60.6269 62.7641 60.1419 62.6323 60.1419 61.4029V56.617H62.3021Z" fill="black"/>
<path d="M66.4902 63.6855V59.2069C66.4902 58.9435 66.4903 58.68 66.5343 58.5044C66.6225 57.9336 66.8429 57.4506 67.1956 57.0554C67.5042 56.7042 67.901 56.5285 68.3418 56.5285C68.5182 56.5285 68.6063 56.5285 68.6945 56.5285L68.9591 56.5724V55.4308L68.7827 55.3869C68.6504 55.343 68.5182 55.343 68.43 55.343C67.8569 55.343 67.3719 55.5187 66.9311 55.8699C66.7106 56.0455 66.5343 56.2651 66.4021 56.4846V55.5186H65.2559V55.7382C65.2999 56.3968 65.2999 57.1872 65.2999 58.0214V63.5977H66.4902V63.6855Z" fill="black"/>
<path d="M71.0752 61.534C71.0752 62.1488 71.2956 62.7196 71.7365 63.1586C72.1773 63.6416 72.7946 63.8612 73.5881 63.8612C74.2053 63.8612 74.7343 63.7294 75.1752 63.466C75.4397 63.2904 75.7042 63.1147 75.9246 62.8952L76.0128 63.6855H77.159L77.1149 63.4221C77.0268 62.983 77.0267 62.3683 77.0267 61.6219V58.5922C77.0267 55.9138 75.4397 55.343 74.1612 55.343C73.2795 55.343 72.4859 55.5626 71.7806 56.0455L71.6483 56.1334L72.0892 57.0993L72.3096 56.9237C72.7946 56.5724 73.4117 56.3968 74.1171 56.3968C74.1171 56.3968 74.1171 56.3968 74.1612 56.3968C74.6902 56.3968 75.087 56.5285 75.3956 56.792C75.7483 57.0993 75.8805 57.6701 75.8805 58.4166C74.4257 58.4166 73.2795 58.68 72.486 59.163C71.5161 59.7777 71.0752 60.5242 71.0752 61.534ZM75.7482 59.5582V61.0071C75.7482 61.1389 75.7483 61.2706 75.6601 61.4023C75.5278 61.7975 75.2634 62.1048 74.9107 62.3683C74.558 62.6317 74.1171 62.7635 73.5881 62.7635C73.1913 62.7635 72.8827 62.6317 72.6182 62.4122C72.3537 62.1927 72.2655 61.8414 72.2655 61.4023C72.2655 60.9632 72.3978 60.5681 72.7064 60.3046C73.2354 59.8216 74.1612 59.5582 75.5719 59.5582C75.6601 59.5582 75.7042 59.5582 75.7482 59.5582Z" fill="black"/>
<path d="M81.9646 52.9727C81.656 52.6214 81.0829 52.6214 80.7743 52.9727C80.5979 53.1483 80.5098 53.3678 80.5098 53.5874C80.5098 53.8069 80.5979 54.0265 80.7302 54.2021C80.8624 54.3777 81.0829 54.4655 81.3033 54.4655C81.5678 54.4655 81.7441 54.3777 81.9205 54.2021C82.0968 54.0265 82.1409 53.8069 82.1409 53.5874C82.185 53.3678 82.0969 53.1483 81.9646 52.9727Z" fill="black"/>
<path d="M81.9208 55.5627H80.7305V63.6857H81.9208V55.5627Z" fill="black"/>
<path d="M91.5751 56.3096C91.3547 56.09 91.0902 55.8705 90.8257 55.7388C90.5612 55.607 90.2966 55.4753 90.0762 55.4753C89.1945 55.2997 88.401 55.4753 87.7397 55.8705C87.4311 56.0461 87.2106 56.2657 86.9902 56.5291L86.9461 55.607H85.7559V55.8266C85.7999 56.3535 85.7999 56.9682 85.7999 57.6707V63.73H86.9902V58.7245C86.9902 58.5489 87.0343 58.3293 87.0784 58.1098C87.2107 57.6268 87.4752 57.2755 87.8719 56.9682C88.2687 56.6608 88.7096 56.5291 89.1945 56.5291C89.8558 56.5291 90.3407 56.7486 90.6493 57.1877C90.9579 57.6707 91.1343 58.2415 91.1343 58.9879V63.73H92.3246V58.9001C92.3246 58.3293 92.2364 57.8463 92.1042 57.4073C91.9719 56.8804 91.7956 56.573 91.5751 56.3096Z" fill="black"/>
<path d="M102.067 57.275C101.935 56.9237 101.758 56.6164 101.494 56.3529C101.273 56.0895 100.921 55.826 100.524 55.6504C100.127 55.4748 99.6862 55.387 99.1572 55.387C98.055 55.387 97.1733 55.7821 96.512 56.6164C95.8508 57.4067 95.498 58.4605 95.498 59.7778C95.498 60.9633 95.8507 61.9732 96.5561 62.7196C97.2615 63.466 98.1872 63.8612 99.3335 63.8612C100.392 63.8612 101.229 63.6856 101.846 63.3343L102.023 63.2465L101.714 62.2366L101.494 62.3244C100.921 62.5879 100.259 62.7196 99.4657 62.7196C98.6722 62.7196 98.0109 62.4561 97.526 61.9292C97.041 61.4463 96.7765 60.6998 96.7765 59.7338H102.419L102.464 59.5582C102.508 59.4265 102.508 59.2948 102.508 59.0313C102.508 58.7679 102.464 58.5044 102.419 58.1971C102.331 57.9775 102.199 57.6263 102.067 57.275ZM97.4819 57.1872C97.8787 56.7042 98.4077 56.4408 99.113 56.4408C99.5098 56.4408 99.8625 56.5286 100.127 56.6603C100.392 56.8359 100.612 57.0116 100.744 57.275C100.876 57.5385 101.009 57.8019 101.053 58.0653C101.097 58.2849 101.141 58.4605 101.141 58.6801H96.7765C96.9088 58.1532 97.1292 57.6263 97.4819 57.1872Z" fill="black"/>
<path d="M108.768 55.387C108.195 55.387 107.71 55.5626 107.269 55.9139C107.049 56.0895 106.872 56.309 106.74 56.5286V55.5626H105.594V55.7821C105.638 56.4408 105.638 57.2311 105.638 58.0653V63.6417H106.828V59.207C106.828 58.9435 106.828 58.6801 106.872 58.5044C106.96 57.9336 107.181 57.4506 107.534 57.0555C107.842 56.7042 108.239 56.5286 108.68 56.5286C108.856 56.5286 108.944 56.5286 109.032 56.5286L109.297 56.5725V55.4309L109.121 55.387C108.988 55.387 108.856 55.387 108.768 55.387Z" fill="black"/>
<path d="M115.954 59.9095C115.601 59.5143 115.072 59.207 114.367 58.9435C113.794 58.724 113.441 58.5044 113.221 58.2849C113.044 58.1093 112.912 57.8897 112.912 57.5384C112.912 57.2311 113 56.9676 113.221 56.7481C113.441 56.5286 113.75 56.4408 114.146 56.4408C114.675 56.4408 115.16 56.5725 115.557 56.8798L115.778 57.0116L116.262 56.0017L116.13 55.9139C115.645 55.5626 115.028 55.387 114.279 55.387C113.485 55.387 112.868 55.6065 112.383 56.0456C111.898 56.4847 111.678 57.0555 111.678 57.6702C111.678 58.6801 112.383 59.4265 113.794 59.9534C114.323 60.1729 114.719 60.3925 114.984 60.6559C115.204 60.8755 115.293 61.1389 115.293 61.4902C115.293 61.8414 115.16 62.1488 114.896 62.3683C114.631 62.5879 114.235 62.7196 113.706 62.7196C113.177 62.7196 112.647 62.544 112.074 62.2366L111.854 62.1049L111.413 63.1587L111.589 63.2465C112.207 63.5977 112.868 63.8173 113.661 63.8173C114.499 63.8173 115.16 63.5977 115.689 63.1587C116.218 62.7196 116.483 62.1049 116.483 61.4024C116.527 60.8315 116.351 60.3047 115.954 59.9095Z" fill="black"/>
</svg>
