<svg width="122" height="80" viewBox="0 0 122 80" fill="none" xmlns="http://www.w3.org/2000/svg">
<path d="M54.6384 36.3707C54.6384 34.7022 54.1534 33.2971 53.2717 32.2872C52.3459 31.2334 51.1556 30.7065 49.7008 30.7065C48.2459 30.7065 47.0116 31.2334 46.0418 32.3311C45.0719 33.3849 44.5869 34.8339 44.5869 36.6341C44.5869 38.3465 45.0718 39.7077 45.9976 40.7615C46.9234 41.8153 48.1138 42.3421 49.5686 42.3421C50.9793 42.3421 52.1696 41.8153 53.1395 40.8054C54.1534 39.7077 54.6384 38.2148 54.6384 36.3707ZM49.6126 41.2005C48.4664 41.2005 47.5406 40.7615 46.8793 39.8394C46.174 38.9173 45.8654 37.8196 45.8654 36.5902C45.8654 35.756 45.9977 34.9656 46.2622 34.2631C46.5267 33.5606 46.9675 32.9898 47.5406 32.5068C48.1137 32.0238 48.8191 31.8042 49.6567 31.8042C50.2739 31.8042 50.8029 31.936 51.2879 32.1994C51.7728 32.4629 52.1696 32.8141 52.4342 33.2971C52.7428 33.7362 52.9631 34.2631 53.1395 34.79C53.3158 35.3169 53.3599 35.8877 53.3599 36.4585C53.3599 37.8196 53.0072 38.9612 52.3459 39.8833C51.6846 40.7615 50.8029 41.2005 49.6126 41.2005Z" fill="black"/>
<path d="M61.9124 31.6729C62.5736 31.5412 63.0585 31.4095 63.4112 31.2778L63.5435 31.2339L63.5875 30.0483L63.279 30.1801C62.9704 30.3118 62.3973 30.4435 61.6478 30.6191C60.7661 30.7948 60.0607 31.0582 59.5317 31.3656C58.9586 31.6729 58.5178 32.1559 58.1651 32.8145C57.5479 33.8683 57.2393 35.2295 57.2393 36.9419C57.2393 37.6005 57.2833 38.2152 57.4156 38.786C57.5037 39.3568 57.6802 39.9276 57.9447 40.4545C58.2092 41.0253 58.5619 41.4644 59.0468 41.8157C59.5317 42.1669 60.1489 42.3426 60.8102 42.3426C62.0005 42.3426 62.8822 41.9474 63.4554 41.201C64.0285 40.4545 64.3371 39.4007 64.3371 38.0396C64.3371 36.7663 64.0284 35.7564 63.3671 35.0978C62.7499 34.3952 61.9123 34.044 60.8984 34.044C60.2812 34.044 59.7081 34.2196 59.135 34.5709C58.8704 34.7465 58.65 34.9221 58.4295 35.1856C58.5618 34.4391 58.7822 33.8244 59.0908 33.3414C59.6199 32.4633 60.5898 31.8925 61.9124 31.6729ZM60.8102 41.201C60.3253 41.201 59.9285 41.0253 59.5317 40.6302C59.1349 40.235 58.8704 39.7959 58.7381 39.3129C58.5618 38.8299 58.5177 38.303 58.5177 37.82C58.5177 37.2053 58.65 36.6784 58.8704 36.2394C59.2672 35.449 59.8844 35.0538 60.8102 35.0538C61.207 35.0538 61.6038 35.1417 61.9124 35.3173C62.221 35.4929 62.4413 35.7564 62.6177 36.0198C62.794 36.3272 62.9263 36.6784 62.9704 36.9858C63.0585 37.3371 63.1027 37.6883 63.1027 38.0396C63.1027 38.9177 62.9263 39.6642 62.5295 40.2789C62.1327 40.9375 61.5597 41.201 60.8102 41.201Z" fill="black"/>
<path d="M72.2723 34.0005L70.3325 39.1377C70.2884 39.2255 70.1562 39.6207 69.9357 40.2793C69.8035 39.9281 69.6712 39.5329 69.5389 39.1816L67.4669 34.0005H66.1885L69.1863 41.4209C69.2745 41.5966 69.2745 41.6844 69.2745 41.6844C69.2745 41.6844 69.2745 41.7283 69.1863 41.9478C68.8777 42.6943 68.4809 43.309 67.9519 43.792C67.5551 44.1432 67.1142 44.4067 66.6734 44.5823L66.4529 44.6701L66.8498 45.7239L67.0702 45.6361C67.5551 45.4605 68.04 45.197 68.4809 44.8018C68.9658 44.3628 69.4067 43.792 69.8035 43.0894C70.2002 42.3869 70.6411 41.377 71.126 40.0598L73.5507 34.0444H72.2723V34.0005Z" fill="black"/>
<path d="M78.7527 39.5768C79.4581 39.5768 80.1194 39.4012 80.7366 39.0938V42.1674H81.9269V34.0005H80.7366V37.9961C80.2076 38.3474 79.5903 38.5669 78.929 38.5669C77.7828 38.5669 77.2538 38.04 77.2538 36.9423V34.0005H76.0635V37.074C76.0635 37.9522 76.328 38.6108 76.8129 39.006C77.3419 39.4012 77.9592 39.5768 78.7527 39.5768Z" fill="black"/>
<path d="M91.7132 35.7118C91.581 35.3605 91.4046 35.0532 91.1401 34.7897C90.9197 34.5263 90.567 34.2628 90.1702 34.0872C89.7735 33.9115 89.3327 33.8237 88.8036 33.8237C87.7015 33.8237 86.8198 34.2189 86.1585 35.0532C85.4972 35.8435 85.1445 36.8973 85.1445 38.2145C85.1445 39.4 85.4972 40.4099 86.2025 41.1564C86.9079 41.9028 87.8337 42.298 88.9799 42.298C90.038 42.298 90.8756 42.1223 91.4928 41.7711L91.6692 41.6832L91.3605 40.6734L91.1401 40.7612C90.567 41.0246 89.9058 41.1564 89.1122 41.1564C88.3187 41.1564 87.6573 40.8929 87.1724 40.366C86.6875 39.883 86.423 39.1366 86.423 38.1706H92.0659L92.1101 37.995C92.1541 37.8633 92.1541 37.7315 92.1541 37.4681C92.1541 37.2046 92.11 36.9412 92.0659 36.6338C91.9337 36.3704 91.8455 36.063 91.7132 35.7118ZM87.0843 35.624C87.481 35.141 88.01 34.8775 88.7154 34.8775C89.1122 34.8775 89.4649 34.9653 89.7294 35.0971C89.9939 35.2727 90.2144 35.4483 90.3466 35.7118C90.4789 35.9752 90.6111 36.2387 90.6552 36.5021C90.6993 36.7217 90.7434 36.8973 90.7434 37.1168H86.3789C86.5112 36.5899 86.7316 36.063 87.0843 35.624Z" fill="black"/>
<path d="M100.442 37.2936H96.4305V34.0005H95.2402V42.0795H96.4305V38.3474H100.442V42.0795H101.633V34.0005H100.442V37.2936Z" fill="black"/>
<path d="M107.629 38.4791C107.32 38.9621 106.968 39.5329 106.571 40.2354C106.571 39.6207 106.615 38.8743 106.615 37.9961V34.0005H105.425V42.1235H106.571L106.615 42.0356C106.88 41.6405 107.365 40.9379 108.026 39.972C108.687 39.006 109.172 38.2596 109.525 37.7766C109.922 37.1619 110.318 36.5472 110.715 35.8885C110.671 36.5472 110.671 37.2936 110.671 38.0839V42.1235H111.861V34.0005H110.671L107.629 38.4791Z" fill="black"/>
<path d="M121.824 36.6777C121.78 36.3704 121.692 36.063 121.56 35.7118C121.428 35.3605 121.251 35.0532 120.987 34.7897C120.766 34.5263 120.414 34.2628 120.017 34.0872C119.62 33.9115 119.179 33.8237 118.65 33.8237C117.548 33.8237 116.666 34.2189 116.005 35.0532C115.344 35.8435 114.991 36.8973 114.991 38.2145C114.991 39.4 115.344 40.4099 116.049 41.1564C116.755 41.9028 117.68 42.298 118.827 42.298C119.885 42.298 120.722 42.1223 121.339 41.7711L121.516 41.6832L121.207 40.6734L120.987 40.7612C120.414 41.0246 119.752 41.1564 118.959 41.1564C118.165 41.1564 117.504 40.8929 117.019 40.366C116.534 39.883 116.27 39.1366 116.27 38.1706H121.913L121.957 37.995C122.001 37.8633 122.001 37.7315 122.001 37.4681C121.913 37.2485 121.869 36.9412 121.824 36.6777ZM116.975 35.624C117.372 35.141 117.901 34.8775 118.606 34.8775C119.003 34.8775 119.356 34.9653 119.62 35.0971C119.885 35.2727 120.105 35.4483 120.237 35.7118C120.37 35.9752 120.502 36.2387 120.546 36.5021C120.59 36.7217 120.634 36.8973 120.634 37.1168H116.27C116.402 36.5899 116.622 36.063 116.975 35.624Z" fill="black"/>
<path d="M48.5543 50.0701C47.4963 50.0701 46.5705 50.4652 45.8211 51.2117C45.0716 52.002 44.6748 53.0558 44.6748 54.3291C44.6748 55.5586 45.0274 56.5684 45.7328 57.3588C46.4382 58.1491 47.364 58.5004 48.4221 58.5004C48.907 58.5004 49.3479 58.4126 49.7888 58.2369C50.2296 58.0613 50.6704 57.7979 51.0231 57.4905C51.4198 57.1392 51.7285 56.7002 51.9489 56.1294C52.1693 55.5586 52.3016 54.8999 52.3016 54.1974C52.3016 52.968 51.9489 51.9581 51.2435 51.2117C50.6263 50.4652 49.7006 50.0701 48.5543 50.0701ZM48.5543 51.1239C48.9952 51.1239 49.392 51.2117 49.7446 51.4312C50.0973 51.6068 50.3619 51.8703 50.5382 52.1776C50.7586 52.485 50.8909 52.8363 50.9791 53.1875C51.0672 53.5388 51.1113 53.8901 51.1113 54.2413C51.1113 55.1634 50.8468 55.9537 50.3178 56.5245C49.7887 57.1392 49.1715 57.4027 48.4221 57.4027C47.6726 57.4027 47.0995 57.0953 46.6145 56.5245C46.1296 55.9098 45.8651 55.1634 45.8651 54.2852C45.8651 53.4071 46.0856 52.6606 46.5705 52.0459C47.0554 51.4312 47.6726 51.1239 48.5543 51.1239Z" fill="black"/>
<path d="M54.9463 54.3297C54.9463 55.5592 55.299 56.5251 56.0484 57.2716C56.7097 57.9741 57.6354 58.3693 58.7376 58.4571V61.4867H59.8838V58.4571C60.986 58.3254 61.8677 57.9302 62.529 57.2277C63.2343 56.4812 63.6311 55.4713 63.6311 54.1541C63.6311 52.9247 63.2785 51.9587 62.5731 51.2123C61.9118 50.5097 60.986 50.1146 59.8838 50.0268V46.4702H58.7376V50.0268C57.6354 50.1585 56.7538 50.5537 56.0484 51.2123C55.299 52.0026 54.9463 53.0564 54.9463 54.3297ZM58.6936 57.4472C57.9882 57.3594 57.4151 57.0081 56.9301 56.4812C56.4011 55.8665 56.1366 55.164 56.1366 54.2858C56.1366 53.4077 56.4011 52.6612 56.9301 52.0904C57.4151 51.5635 57.9882 51.2123 58.6936 51.1245V57.4472ZM61.6031 52.0465C62.1322 52.6173 62.3527 53.3638 62.3527 54.2419C62.3527 55.0762 62.0881 55.8226 61.5591 56.4373C61.0742 57.0081 60.5011 57.3155 59.7957 57.4472V51.1245C60.5892 51.2123 61.1623 51.5196 61.6031 52.0465Z" fill="black"/>
<path d="M72.0078 58.3246H73.1981V50.2017H72.0078L68.966 54.6803C68.6574 55.1633 68.3046 55.7341 67.9079 56.4366C67.9079 55.8219 67.952 55.0754 67.952 54.1973V50.2017H66.7617V58.3246H67.9079L67.952 58.2368C68.2165 57.8416 68.7014 57.1391 69.3627 56.1731C70.024 55.2072 70.5089 54.4607 70.8616 53.9777C71.2584 53.363 71.6552 52.7483 72.052 52.0897C72.0079 52.7483 72.0078 53.4948 72.0078 54.2851V58.3246Z" fill="black"/>
<path d="M80.516 51.1678C81.1773 51.1678 81.7503 51.2995 82.2353 51.5629L82.4557 51.6947L82.8966 50.6848L82.7643 50.597C82.2793 50.2457 81.574 50.0701 80.6041 50.0701C79.3697 50.0701 78.3998 50.4652 77.6063 51.2556C76.8128 52.0459 76.416 53.0997 76.416 54.373C76.416 55.6025 76.7687 56.6123 77.474 57.3588C78.1794 58.1491 79.1493 58.5004 80.2956 58.5004C81.1332 58.5004 81.9267 58.3248 82.6761 57.9735L82.8525 57.8857L82.4998 56.8758L82.2794 56.9636C81.6622 57.2271 81.045 57.4027 80.4278 57.4027C79.5902 57.4027 78.9289 57.1392 78.3999 56.5684C77.8708 55.9976 77.6063 55.2512 77.6063 54.2852C77.6063 53.3632 77.8708 52.6167 78.3557 52.002C78.8848 51.4312 79.5902 51.1678 80.516 51.1678Z" fill="black"/>
<path d="M91.1848 56.305V53.3193C91.1848 50.6409 89.5977 50.0701 88.3192 50.0701C87.4375 50.0701 86.644 50.2896 85.9386 50.7726L85.8063 50.8604L86.2472 51.8264L86.4676 51.6508C86.9526 51.2995 87.5697 51.1239 88.2751 51.1239C88.8041 51.1239 89.245 51.2556 89.5095 51.519C89.8622 51.8264 89.9945 52.3972 89.9945 53.1436C88.5396 53.1436 87.3934 53.4071 86.5999 53.8901C85.7182 54.417 85.2773 55.2073 85.2773 56.1733C85.2773 56.788 85.4978 57.3588 85.9386 57.7979C86.3795 58.2809 86.9967 58.5004 87.7902 58.5004C88.4074 58.5004 88.9364 58.3687 89.3772 58.1052C89.6417 57.9296 89.9063 57.754 90.1267 57.5344L90.2149 58.3248H91.3611L91.317 58.0613C91.1848 57.6661 91.1848 57.0514 91.1848 56.305ZM89.9503 54.2413V55.6903C89.9503 55.822 89.9504 55.9537 89.8622 56.0855C89.7299 56.4806 89.4654 56.788 89.1128 57.0514C88.7601 57.3149 88.3192 57.4466 87.7902 57.4466C87.3934 57.4466 87.0848 57.3149 86.8203 57.0953C86.5558 56.8758 86.4676 56.5245 86.4676 56.0855C86.4676 55.6464 86.5999 55.2512 86.9085 54.9878C87.3934 54.5048 88.3633 54.2413 89.774 54.2413C89.8622 54.2413 89.9063 54.2413 89.9503 54.2413Z" fill="black"/>
<path d="M9.0535 23.3742C9.0535 24.6037 10.0674 25.6574 11.3459 25.6574C12.0072 25.6574 12.6245 25.3501 13.0653 24.8671C13.5062 25.3501 14.1233 25.6574 14.7846 25.6574C16.019 25.6574 17.077 24.6476 17.077 23.3742V18.6322C17.2534 18.6761 17.4298 18.72 17.6062 18.72C18.4879 18.72 19.2373 17.9736 19.2373 17.0954V10.2458V10.0262L19.1932 9.76277C18.8846 8.00646 17.3416 6.68922 15.5341 6.68922H14.7846C15.8868 6.07451 16.6362 4.9329 16.6362 3.61566C16.6362 1.68371 15.0491 0.103027 13.1093 0.103027C11.1696 0.103027 9.58251 1.68371 9.58251 3.61566C9.58251 4.9329 10.332 6.11842 11.4342 6.68922H10.6846C10.332 6.68922 9.97936 6.73313 9.67077 6.82094L9.00948 3.96693H0.192383L2.17623 12.8802H5.65894C5.87937 13.6267 6.58474 14.1536 7.42236 14.1536H8.3482C8.61271 14.1536 8.83312 14.1097 9.09763 13.9779L9.0535 23.3742ZM13.0653 1.20073C14.3879 1.20073 15.49 2.29842 15.49 3.61566C15.49 4.9329 14.3879 6.0306 13.0653 6.0306C11.7428 6.0306 10.6406 4.9329 10.6406 3.61566C10.6406 2.29842 11.6987 1.20073 13.0653 1.20073ZM8.08364 5.10853L9.53849 11.5191H13.4621V11.9582H3.01381L1.51495 5.10853H8.08364ZM17.6062 17.6223C17.2976 17.6223 17.077 17.4028 17.077 17.0954V9.85059H15.9749V23.3742C15.9749 24.0329 15.4459 24.5598 14.7846 24.5598C14.1233 24.5598 13.5943 24.0329 13.5943 23.3742V16.7441H12.4922V23.3742C12.4922 24.0329 11.9632 24.5598 11.3019 24.5598C10.6406 24.5598 10.1116 24.0329 10.1116 23.3742V12.8802H14.5642V10.5531H10.4202L9.84706 7.91864C10.1116 7.83082 10.3761 7.78692 10.6406 7.78692H15.49C16.9008 7.78692 18.0469 8.88462 18.091 10.2897V17.0954C18.1351 17.3588 17.8707 17.6223 17.6062 17.6223ZM8.78906 12.9241C8.6568 13.0559 8.48041 13.0998 8.30407 13.0998H7.37823C7.20189 13.0998 7.02561 13.0559 6.89336 12.9241H8.78906Z" fill="black"/>
<path d="M29.7295 14.4615H74.2117V22.8918H75.3139V13.3638H29.7295V14.4615Z" fill="black"/>
<path d="M74.2121 78.8299H9.53866V35.3611H8.43652V79.9276H75.3142V70.3557H74.2121V78.8299Z" fill="black"/>
</svg>
