<svg width="134" height="80" viewBox="0 0 134 80" fill="none" xmlns="http://www.w3.org/2000/svg">
<path d="M74.6641 78.83H10.0348V33.7366H8.93262V79.9277H75.7662V65.965H74.6641V78.83Z" fill="black"/>
<path d="M50.0203 51.5634V40.323H48.83V45.0651H43.2753V40.323H42.085V51.5634H43.2753V46.1628H48.83V51.5634H50.0203Z" fill="black"/>
<path d="M53.2383 49.4112C53.2383 50.0259 53.4587 50.5968 53.8996 51.0358C54.3404 51.5188 54.9576 51.7384 55.7512 51.7384C56.3684 51.7384 56.8974 51.6066 57.3382 51.3432C57.6027 51.1676 57.8673 50.9919 58.0877 50.7724L58.1759 51.5627H59.3221L59.278 51.2993C59.1898 50.8602 59.1898 50.2455 59.1898 49.4991V46.4694C59.1898 43.791 57.6027 43.2202 56.3243 43.2202C55.4426 43.2202 54.649 43.4398 53.9437 43.9227L53.8114 44.0106L54.2522 44.9765L54.4727 44.8009C54.9576 44.4496 55.5748 44.274 56.2802 44.274C56.8533 44.274 57.2501 44.4057 57.5146 44.6692C57.8673 44.9765 57.9995 45.5473 57.9995 46.2938C56.5447 46.2938 55.3985 46.5572 54.6049 47.0402C53.6791 47.6549 53.2383 48.4014 53.2383 49.4112ZM57.9554 47.4354V48.8843C57.9554 49.0161 57.9554 49.1478 57.8673 49.2795C57.735 49.6747 57.4705 49.982 57.1178 50.2455C56.7651 50.5089 56.3243 50.6407 55.7952 50.6407C55.3985 50.6407 55.0899 50.5089 54.8254 50.2894C54.5608 50.0699 54.4727 49.7186 54.4727 49.2795C54.4727 48.8404 54.6049 48.4453 54.9135 48.1818C55.3985 47.6988 56.3684 47.4354 57.7791 47.4354C57.8673 47.4354 57.9113 47.4354 57.9554 47.4354Z" fill="black"/>
<path d="M66.4203 44.3619C67.0815 44.3619 67.6547 44.4936 68.1396 44.757L68.36 44.8888L68.8009 43.8789L68.6686 43.7911C68.1837 43.4398 67.4783 43.2642 66.5084 43.2642C65.274 43.2642 64.3042 43.6593 63.5106 44.4497C62.7171 45.24 62.3203 46.2938 62.3203 47.5671C62.3203 48.7966 62.673 49.8064 63.3784 50.5529C64.0837 51.3432 65.0536 51.6945 66.1998 51.6945C67.0375 51.6945 67.831 51.5189 68.5805 51.1676L68.7568 51.0798L68.4041 50.0699L68.1837 50.1577C67.5665 50.4212 66.9493 50.5968 66.3321 50.5968C65.4945 50.5968 64.8332 50.3333 64.3042 49.7625C63.7751 49.1917 63.5106 48.4453 63.5106 47.4793C63.5106 46.5573 63.7751 45.8108 64.2601 45.1961C64.7891 44.6253 65.4945 44.3619 66.4203 44.3619Z" fill="black"/>
<path d="M70.9609 44.4937H73.4738V51.5629H74.6641V44.4937H77.177V43.4399H70.9609V44.4937Z" fill="black"/>
<path d="M84.9368 49.4991V46.4694C84.9368 43.791 83.3497 43.2202 82.0712 43.2202C81.1895 43.2202 80.3959 43.4398 79.6906 43.9227L79.5583 44.0106L79.9992 44.9765L80.2196 44.8009C80.7045 44.4496 81.3217 44.274 82.0271 44.274C82.6002 44.274 82.997 44.4057 83.2615 44.6692C83.6142 44.9765 83.7464 45.5473 83.7464 46.2938C82.2916 46.2938 81.1454 46.5572 80.3519 47.0402C79.4702 47.5671 79.0293 48.3574 79.0293 49.3234C79.0293 49.9381 79.2497 50.5089 79.6906 50.948C80.1314 51.431 80.7486 51.6505 81.5422 51.6505C82.1594 51.6505 82.6884 51.5188 83.1292 51.2554C83.3938 51.0797 83.6583 50.9041 83.8787 50.6846L83.9669 51.4749H85.1131L85.069 51.2115C84.9368 50.8602 84.9368 50.2455 84.9368 49.4991ZM83.7024 47.4354V48.8843C83.7024 49.0161 83.7024 49.1478 83.6142 49.2795C83.4819 49.6747 83.2174 49.982 82.8647 50.2455C82.512 50.5089 82.0712 50.6407 81.5422 50.6407C81.1454 50.6407 80.8368 50.5089 80.5723 50.2894C80.3078 50.0699 80.2196 49.7186 80.2196 49.2795C80.2196 48.8404 80.3519 48.4453 80.6605 48.1818C81.1454 47.6988 82.1153 47.4354 83.526 47.4354C83.6142 47.4354 83.6583 47.4354 83.7024 47.4354Z" fill="black"/>
<path d="M93.1806 47.216C93.401 47.0842 93.6215 46.9525 93.7978 46.7769C94.1505 46.4256 94.3268 45.9865 94.3268 45.4596C94.3268 44.0546 93.1806 43.3521 90.8882 43.3521C90.1387 43.3521 89.4333 43.396 88.772 43.5277L88.5957 43.5716V51.5628H88.8161C89.4774 51.6067 90.0946 51.6507 90.6677 51.6507C91.1086 51.6507 91.5494 51.6067 91.9462 51.5628C92.343 51.5189 92.7397 51.3872 93.1806 51.2555C93.6215 51.0798 93.9741 50.8603 94.2827 50.509C94.5472 50.1578 94.6795 49.7187 94.6795 49.2357C94.6795 48.621 94.4591 48.138 94.0623 47.7428C93.7978 47.5233 93.4892 47.3477 93.1806 47.216ZM89.786 47.8746H90.8C91.6376 47.8746 92.2989 47.9624 92.8279 48.1819C93.2688 48.3576 93.4892 48.7088 93.4892 49.2357C93.4892 49.4992 93.401 49.7187 93.2688 49.8943C93.0924 50.07 92.9161 50.2017 92.6075 50.2895C92.2989 50.3773 92.0344 50.4651 91.7699 50.509C91.1968 50.5969 90.4473 50.553 89.8301 50.509V47.8746H89.786ZM92.4752 46.4695C92.0344 46.6891 91.4613 46.7769 90.8441 46.7769H89.7419V44.4937C90.2269 44.4497 90.5796 44.4497 90.7559 44.4497C93.0043 44.4497 93.0043 45.284 93.0043 45.5914C93.0924 45.9865 92.872 46.2939 92.4752 46.4695Z" fill="black"/>
<path d="M103.056 46.733H99.0879V43.4399H97.8535V51.5629H99.0879V47.8307H103.056V51.5629H104.29V43.4399H103.056V46.733Z" fill="black"/>
<path d="M110.241 47.9186C109.933 48.4015 109.58 48.9723 109.183 49.6749C109.183 49.0602 109.227 48.3137 109.227 47.4356V43.4399H108.037V51.5629H109.183L109.227 51.4751C109.492 51.0799 109.977 50.3774 110.638 49.4114C111.299 48.4454 111.784 47.699 112.137 47.216C112.534 46.6013 112.931 45.9866 113.327 45.328C113.283 45.9866 113.283 46.733 113.283 47.5234V51.5629H114.474V43.4399H113.283L110.241 47.9186Z" fill="black"/>
<path d="M123.07 43.4399L119.587 46.9525H119.499V43.4399H118.309V51.5629H119.499V47.9624H119.587C120.337 47.9624 120.954 48.0941 121.395 48.4015C121.835 48.7089 122.188 49.2358 122.497 49.9383C122.805 50.6408 123.07 51.1238 123.246 51.4751L123.29 51.5629H124.613L124.436 51.2116C124.26 50.9482 124.04 50.4213 123.687 49.587C123.334 48.7528 122.893 48.1381 122.409 47.699C122.012 47.3477 121.527 47.1282 120.954 47.0404L124.701 43.396H123.07V43.4399Z" fill="black"/>
<path d="M132.416 43.4399L129.374 47.9186C129.066 48.4015 128.713 48.9723 128.316 49.6749C128.316 49.0602 128.36 48.3137 128.36 47.4356V43.4399H127.17V51.5629H128.316L128.36 51.4751C128.625 51.0799 129.11 50.3774 129.771 49.4114C130.432 48.4454 130.917 47.699 131.27 47.216C131.667 46.6013 132.063 45.9866 132.46 45.328C132.416 45.9866 132.416 46.733 132.416 47.5234V51.5629H133.606V43.4399H132.416Z" fill="black"/>
<path d="M10.0348 24.8671C10.2993 25.1745 10.6519 25.4379 11.0046 25.5697C11.2691 25.6575 11.4896 25.7014 11.7541 25.7014C12.239 25.7014 12.6799 25.5697 13.0767 25.2623C13.2089 25.1745 13.3412 25.0428 13.4734 24.9111C13.6057 25.0428 13.7379 25.1745 13.8702 25.2623C14.4433 25.7014 15.2368 25.7892 15.9422 25.5697C16.868 25.2623 17.4852 24.3842 17.4852 23.3743V18.6322C17.8379 18.7639 18.1906 18.7639 18.5433 18.6322C19.2045 18.4127 19.6454 17.798 19.6454 17.0515V10.2897C19.6454 10.0263 19.6013 9.80672 19.5131 9.54327C19.8217 9.23592 20.0422 8.84074 20.0422 8.35776C20.0422 7.4796 19.2927 6.73316 18.411 6.73316H15.8981H15.6777H15.1487C16.2508 6.11845 17.0003 4.97685 17.0003 3.65961C17.0003 1.72766 15.4132 0.146973 13.4734 0.146973C11.7541 0.146973 10.3434 1.33249 10.0348 2.95708C9.72615 1.3764 8.27133 0.146973 6.59608 0.146973C4.65632 0.146973 3.06924 1.72766 3.06924 3.65961C3.06924 4.97685 3.8187 6.16236 4.92083 6.73316H4.34772H4.1273H1.65851C0.776797 6.73316 0.0273438 7.4796 0.0273438 8.35776C0.0273438 8.79684 0.203686 9.23592 0.55637 9.54327C0.468199 9.80672 0.424113 10.0702 0.424113 10.2897V17.0515C0.424113 17.798 0.864968 18.4127 1.52625 18.6322C1.87893 18.7639 2.23162 18.7639 2.5843 18.6322V23.3304C2.5843 24.3403 3.2015 25.2623 4.1273 25.5258C4.39181 25.6136 4.61224 25.6575 4.87675 25.6575C5.36169 25.6575 5.80254 25.5258 6.19931 25.2184C6.33157 25.1306 6.46383 24.9989 6.59608 24.8671C6.72834 24.9989 6.8606 25.1306 6.99285 25.2184C7.56596 25.6575 8.3595 25.7453 9.06487 25.5258C9.41755 25.438 9.77024 25.1745 10.0348 24.8671ZM6.552 1.20076C7.87456 1.20076 8.9767 2.29846 8.9767 3.6157C8.9767 4.93294 7.91865 6.03064 6.552 6.03064C5.18535 6.03064 4.1273 4.93294 4.1273 3.6157C4.1273 2.29846 5.22943 1.20076 6.552 1.20076ZM9.46164 23.3304C9.46164 23.8573 9.15304 24.3403 8.6681 24.5159C8.27133 24.6476 7.87456 24.5598 7.56596 24.3403C7.25737 24.1207 7.08102 23.7694 7.08102 23.3743V23.1547V16.8759H5.97889V23.1986V23.4182C5.97889 23.7694 5.80254 24.1646 5.49395 24.3842C5.18535 24.6037 4.78858 24.6476 4.39181 24.5598C3.95095 24.4281 3.59827 23.9451 3.59827 23.3743V17.315V16.8759V9.98235H2.5843V16.8759V17.0954C2.5843 17.2711 2.49613 17.4028 2.36388 17.5345C2.23162 17.6223 2.05528 17.6662 1.87893 17.6223C1.70259 17.5784 1.52625 17.315 1.52625 17.0954V10.3775C1.52625 10.1141 1.61442 9.85063 1.70259 9.58718C2.09936 8.5773 3.06924 7.91868 4.1273 7.91868H4.34772H6.552H6.77242C7.91865 7.91868 8.93261 8.62121 9.2853 9.7189C9.41755 10.0263 9.46164 10.3336 9.46164 10.641V23.3304ZM9.46164 7.83086H15.7218H15.8981C17.0003 7.83086 17.9261 8.48948 18.3228 9.49936C18.411 9.80672 18.4992 10.0263 18.4992 10.2897V17.0515C18.4992 17.315 18.3669 17.5345 18.1465 17.5784C17.9701 17.6223 17.7938 17.6223 17.6615 17.4906C17.5293 17.4028 17.4411 17.2272 17.4411 17.0515V16.832V9.98235H16.339V16.8759V17.315V23.3304C16.339 23.8573 16.0304 24.3403 15.5454 24.5159C15.1487 24.6476 14.7519 24.5598 14.4433 24.3403C14.1347 24.1207 13.9584 23.7694 13.9584 23.3743V23.1547V16.8759H12.8562V23.1986V23.4182C12.8562 23.7694 12.6799 24.1646 12.3713 24.3842C12.0627 24.6037 11.6659 24.6476 11.2691 24.5598C10.8283 24.4281 10.4756 23.9451 10.4756 23.3743V10.5092V10.2897V10.2458C10.4756 10.1141 10.4315 9.93844 10.4315 9.80672C10.4315 9.76281 10.4315 9.76281 10.4315 9.7189C10.3874 9.54327 10.3433 9.41155 10.2993 9.23592C10.2552 9.06028 10.167 8.92856 10.0788 8.75293C10.0788 8.70902 10.0348 8.66511 9.99067 8.62121C9.9025 8.48948 9.85841 8.35776 9.77024 8.26994C9.77024 8.22603 9.72615 8.22603 9.72615 8.18213C9.68207 8.0504 9.54981 7.91868 9.46164 7.83086ZM18.5873 7.87477C18.7637 7.91868 18.8959 8.09431 18.94 8.26994L18.8959 8.22603C18.8519 8.13822 18.8078 8.09431 18.7196 8.00649C18.6755 7.96259 18.6314 7.91868 18.5873 7.87477ZM1.17357 8.18213L1.12948 8.22603C1.17357 8.0504 1.30582 7.87477 1.48217 7.83086C1.43808 7.87477 1.39399 7.91868 1.34991 7.96259C1.30582 8.0504 1.26174 8.13822 1.17357 8.18213ZM13.4734 1.20076C14.796 1.20076 15.8981 2.29846 15.8981 3.6157C15.8981 4.93294 14.8401 6.03064 13.4734 6.03064C12.1068 6.03064 11.0487 4.97685 11.0487 3.6157C11.0487 2.25455 12.1509 1.20076 13.4734 1.20076ZM11.7982 6.73316H8.27133C9.15304 6.25018 9.81432 5.37202 10.0348 4.36214C10.2552 5.37202 10.9165 6.25018 11.7982 6.73316Z" fill="black"/>
<path d="M74.6637 27.2826H75.7658V13.3638H28.1094V14.4615H74.6637V27.2826Z" fill="black"/>
</svg>
