<svg width="125" height="82" viewBox="0 0 125 82" fill="none" xmlns="http://www.w3.org/2000/svg">
<path d="M77.3202 24.8915H78.4223V15.3635H32.8379V16.4612H77.3202V24.8915Z" fill="black"/>
<path d="M77.3203 80.8297H12.691V37.3608H11.5889V81.9274H78.4225V72.3555H77.3203V80.8297Z" fill="black"/>
<path d="M24.7261 23.4862C24.7261 20.3249 19.7003 17.8221 13.2198 17.6904V14.6168L25.2992 7.67936L12.1176 0.127197V0.873632V15.2754V17.6904C5.59298 17.8221 0.611328 20.3249 0.611328 23.4862C0.611328 26.7354 5.9016 29.2821 12.6908 29.2821C19.4799 29.2821 24.7261 26.7354 24.7261 23.4862ZM13.2198 23.7058V18.7881C18.8186 18.9198 23.624 21.0713 23.624 23.4862C23.624 25.989 18.51 28.1844 12.6467 28.1844C6.78329 28.1844 1.66939 25.989 1.66939 23.4862C1.66939 21.0713 6.4747 18.9198 12.0736 18.7881V23.7058H13.2198ZM23.0949 7.67936L13.2198 13.3435V2.01524L23.0949 7.67936Z" fill="black"/>
<path d="M48.4004 32.926V44.1665H49.5907V38.9414H49.8111C50.781 38.9414 51.4864 39.117 51.9272 39.5122C52.4122 39.9074 52.8089 40.5221 53.1175 41.3564C53.6906 42.8931 54.0433 43.7713 54.2197 44.0347L54.2638 44.1665H55.5863L55.41 43.8591C55.2777 43.5957 55.1455 43.3322 55.0573 43.0688C54.925 42.8053 54.7928 42.4101 54.6164 41.9711L54.2638 41.049C53.9111 40.1269 53.4702 39.4244 52.9412 38.9414C52.5003 38.5023 51.8831 38.2389 51.0896 38.1072L55.41 33.0138H53.9552L49.8552 37.8876H49.6348V32.926H48.4004Z" fill="black"/>
<path d="M57.79 41.9716C57.79 42.5863 58.0105 43.1571 58.4513 43.5962C58.8922 44.0792 59.5094 44.2987 60.3029 44.2987C60.9201 44.2987 61.4491 44.167 61.89 43.9035C62.1545 43.7279 62.419 43.5523 62.6394 43.3327L62.7276 44.1231H63.8738L63.8298 43.8596C63.7416 43.4205 63.7416 42.8058 63.7416 42.0594V39.0736C63.7416 36.3953 62.1545 35.8245 60.876 35.8245C59.9943 35.8245 59.2008 36.044 58.4954 36.527L58.3631 36.6148L58.804 37.5808L59.0244 37.4051C59.5094 37.0539 60.1266 36.8783 60.8319 36.8783C61.3609 36.8783 61.8018 37.01 62.0663 37.2734C62.419 37.5808 62.5513 38.1516 62.5513 38.898C61.0964 38.898 59.9502 39.1615 59.1567 39.6445C58.2309 40.2153 57.79 41.0056 57.79 41.9716ZM62.5072 39.9957V41.4447C62.5072 41.5764 62.5072 41.7081 62.419 41.8398C62.2868 42.235 62.0222 42.5424 61.6696 42.8058C61.3169 43.0693 60.876 43.201 60.347 43.201C59.9502 43.201 59.6416 43.0693 59.3771 42.8497C59.1126 42.6302 59.0244 42.2789 59.0244 41.8398C59.0244 41.4008 59.1567 41.0056 59.4653 40.7422C59.9502 40.2592 60.9201 39.9957 62.3308 39.9957C62.3749 39.9957 62.4631 39.9957 62.5072 39.9957Z" fill="black"/>
<path d="M73.9256 43.0695H73.1762V36.0442H68.1945V38.3274C68.1945 39.6007 68.0182 40.6984 67.7096 41.6644C67.5332 42.1474 67.3128 42.6304 67.0042 43.0695H66.2988L66.387 46.5382H67.445L67.4891 44.1232H72.7353L72.7794 46.5382H73.8374L73.9256 43.0695ZM71.9418 37.098V43.0695H68.3268C68.5472 42.6304 68.7235 42.1913 68.8558 41.84C69.1644 40.8302 69.3407 39.6446 69.3407 38.3713V37.098H71.9418Z" fill="black"/>
<path d="M80.9353 35.8245C79.7891 35.8245 78.9074 36.2196 78.2461 37.0539L78.202 36.0001H77.0117V36.2196C77.0558 36.8783 77.0558 37.6686 77.0558 38.6346V47.2405H78.2461V43.2449C78.8192 43.9035 79.6568 44.2548 80.6708 44.2548C81.7288 44.2548 82.6105 43.8596 83.3159 43.1132C84.0213 42.3667 84.374 41.269 84.374 39.9079C84.374 38.7224 84.0654 37.7564 83.4041 36.9661C82.8751 36.2196 81.9933 35.8245 80.9353 35.8245ZM80.759 36.9222C81.5084 36.9222 82.1256 37.2295 82.5665 37.8003C83.0073 38.415 83.2718 39.1176 83.2718 39.9957C83.2718 41.0056 83.0514 41.7959 82.5665 42.3667C82.1256 42.9375 81.5084 43.2449 80.7149 43.2449C80.1417 43.2449 79.7009 43.0693 79.2601 42.7619C78.8192 42.4546 78.5547 42.0155 78.3784 41.4447C78.3343 41.313 78.3343 41.0934 78.3343 40.8739V39.381C78.3343 39.3371 78.3343 39.1615 78.4224 38.7663C78.5547 38.1955 78.8633 37.7564 79.3041 37.4051C79.745 37.0978 80.23 36.9222 80.759 36.9222Z" fill="black"/>
<path d="M90.942 35.8245C89.884 35.8245 88.9582 36.2196 88.2087 36.9661C87.4593 37.7564 87.0625 38.8102 87.0625 40.0835C87.0625 41.313 87.4152 42.3228 88.1206 43.1132C88.8259 43.9035 89.7517 44.2548 90.8098 44.2548C91.2947 44.2548 91.7356 44.167 92.1764 43.9913C92.6173 43.8157 93.0581 43.5523 93.4108 43.2449C93.8076 42.8936 94.1162 42.4546 94.3366 41.8838C94.557 41.313 94.6893 40.6543 94.6893 39.9518C94.6893 38.7224 94.3366 37.7125 93.6312 36.9661C93.0141 36.2196 92.0883 35.8245 90.942 35.8245ZM90.942 36.9222C91.3829 36.9222 91.7796 37.01 92.1323 37.2295C92.485 37.4051 92.7496 37.6686 92.9259 37.9759C93.1463 38.2833 93.2786 38.6346 93.3667 38.9858C93.4549 39.3371 93.499 39.6884 93.499 40.0396C93.499 40.9617 93.2345 41.752 92.7055 42.3228C92.1764 42.9375 91.5592 43.201 90.8098 43.201C90.0603 43.201 89.4872 42.8936 89.0023 42.3228C88.5173 41.7081 88.2528 40.9617 88.2528 40.0835C88.2528 39.2054 88.4733 38.4589 88.9582 37.8442C89.4431 37.2295 90.0603 36.9222 90.942 36.9222Z" fill="black"/>
<path d="M102.493 39.8192C102.714 39.6875 102.934 39.5558 103.11 39.3801C103.463 39.0289 103.639 38.5898 103.639 38.0629C103.639 36.6579 102.493 35.9553 100.201 35.9553C99.4512 35.9553 98.7458 35.9992 98.0846 36.131L97.9082 36.1749V44.1661H98.1286C98.7899 44.21 99.4071 44.2539 99.9803 44.2539C100.421 44.2539 100.862 44.21 101.259 44.1661C101.656 44.1222 102.052 43.9905 102.493 43.8588C102.934 43.6831 103.287 43.4636 103.595 43.1123C103.86 42.7611 103.992 42.322 103.992 41.839C103.992 41.2243 103.772 40.7413 103.375 40.3461C103.11 40.0827 102.802 39.907 102.493 39.8192ZM99.0545 40.4339H100.068C100.906 40.4339 101.567 40.5217 102.096 40.7413C102.537 40.9169 102.758 41.2682 102.758 41.7951C102.758 42.0585 102.669 42.2781 102.537 42.4537C102.361 42.6293 102.184 42.7611 101.876 42.8489C101.567 42.9367 101.303 43.0245 101.038 43.0684C100.465 43.1562 99.7157 43.1123 99.0985 43.0684V40.4339H99.0545ZM101.788 39.0289C101.347 39.2484 100.774 39.3362 100.157 39.3362H99.0545V37.053C99.5394 37.0091 99.8921 37.0091 100.068 37.0091C102.317 37.0091 102.317 37.8434 102.317 38.1507C102.361 38.5459 102.185 38.8532 101.788 39.0289Z" fill="black"/>
<path d="M111.839 39.3804C111.178 38.9413 110.34 38.7218 109.414 38.7218C109.018 38.7218 108.709 38.7218 108.4 38.7657V35.9995H107.166V44.1225H107.386C107.431 44.1225 107.651 44.1225 108.092 44.1664C108.533 44.2103 108.885 44.2103 109.15 44.2103C110.472 44.2103 111.486 43.9029 112.192 43.2443C112.677 42.7613 112.897 42.1905 112.897 41.488C112.897 40.522 112.544 39.8195 111.839 39.3804ZM111.001 42.7174C110.517 43.0248 109.943 43.1565 109.282 43.1565C108.974 43.1565 108.665 43.1565 108.356 43.1126V39.8634C108.621 39.8195 108.974 39.8195 109.326 39.8195C109.987 39.8195 110.605 39.9512 111.046 40.2586C111.486 40.522 111.663 40.9611 111.663 41.5319C111.663 42.0588 111.442 42.454 111.001 42.7174Z" fill="black"/>
<path d="M114.705 35.9995H113.515V44.1225H114.705V35.9995Z" fill="black"/>
<path d="M123.742 35.9995L120.7 40.4781C120.392 40.9611 120.039 41.5319 119.642 42.2344C119.642 41.6197 119.686 40.8733 119.686 39.9951V35.9995H118.496V44.1225H119.642L119.686 44.0347C119.951 43.6395 120.436 42.937 121.097 41.971C121.758 41.005 122.243 40.2586 122.596 39.7756C122.993 39.1609 123.39 38.5462 123.786 37.8876C123.742 38.5462 123.742 39.2926 123.742 40.083V44.1225H124.933V35.9995H123.742Z" fill="black"/>
<path d="M121.67 35.1663C122.287 35.1663 122.816 34.9906 123.213 34.6394C123.61 34.2881 123.83 33.7612 123.874 33.1465V32.927H122.728L122.684 33.1026C122.64 33.41 122.552 33.6734 122.375 33.8929C122.199 34.0686 121.979 34.1564 121.626 34.1564C121.317 34.1564 121.097 34.0686 120.965 33.8929C120.788 33.6734 120.7 33.41 120.656 33.1026V32.8831H119.51V33.1026C119.642 34.4637 120.347 35.1663 121.67 35.1663Z" fill="black"/>
<path d="M49.5901 63.5305V59.5349C50.1633 60.1935 51.0009 60.5448 52.0148 60.5448C53.0729 60.5448 53.9546 60.1496 54.66 59.4032C55.3653 58.6567 55.718 57.559 55.718 56.1979C55.718 55.0124 55.4094 54.0464 54.7482 53.2561C54.0869 52.4657 53.2493 52.0706 52.1912 52.0706C51.045 52.0706 50.1633 52.4657 49.502 53.3L49.4579 52.2462H48.2676V52.4657C48.3117 53.1243 48.3117 53.9147 48.3117 54.8807V63.4866H49.5901V63.5305ZM52.0148 53.1683C52.7643 53.1683 53.3815 53.4756 53.8224 54.0464C54.2632 54.6611 54.5277 55.3637 54.5277 56.2418C54.5277 57.2517 54.3073 58.042 53.8224 58.6128C53.3815 59.1836 52.7643 59.491 51.9708 59.491C51.3977 59.491 50.9568 59.3154 50.516 59.008C50.0751 58.7007 49.8106 58.2616 49.6342 57.6908C49.5902 57.5591 49.5901 57.3395 49.5901 57.12V55.6271C49.5901 55.5832 49.5901 55.4076 49.6783 55.0124C49.8106 54.4416 50.1192 54.0025 50.56 53.6512C51.045 53.3439 51.4858 53.1683 52.0148 53.1683Z" fill="black"/>
<path d="M65.1967 56.2857C65.2407 56.154 65.2407 56.0223 65.2407 55.7588C65.2407 55.4954 65.1967 55.2319 65.1526 54.9246C65.1085 54.6172 65.0203 54.3099 64.8881 53.9586C64.7558 53.6073 64.5795 53.3 64.315 53.0365C64.0945 52.7731 63.7418 52.5096 63.3451 52.334C62.9483 52.1584 62.5075 52.0706 61.9784 52.0706C60.8763 52.0706 59.9946 52.4657 59.3333 53.3C58.672 54.0903 58.3193 55.1441 58.3193 56.4614C58.3193 57.6469 58.672 58.6567 59.3774 59.4032C60.0827 60.1496 61.0085 60.5448 62.1548 60.5448C63.2128 60.5448 64.0504 60.3692 64.6676 60.0179L64.844 59.9301L64.5354 58.9202L64.315 59.008C63.7418 59.2715 63.0806 59.4032 62.287 59.4032C61.4935 59.4032 60.8322 59.1397 60.3473 58.6128C59.8623 58.1298 59.5978 57.3834 59.5978 56.4174H65.2407L65.1967 56.2857ZM60.3032 53.8708C60.7 53.3878 61.229 53.1243 61.9343 53.1243C62.3311 53.1243 62.6838 53.2122 62.9483 53.3439C63.2128 53.5195 63.4332 53.6951 63.5655 53.9586C63.6978 54.222 63.83 54.4855 63.8741 54.7489C63.9182 54.9685 63.9623 55.1441 63.9623 55.3637H59.5978C59.7301 54.8368 59.9505 54.3538 60.3032 53.8708Z" fill="black"/>
<path d="M71.5447 59.0958C71.192 59.3593 70.7071 59.491 70.134 59.491C69.5168 59.491 68.8996 59.3154 68.3265 59.008L68.106 58.8763L67.6211 59.8862L67.7974 59.974C68.5028 60.3692 69.2963 60.5448 70.0899 60.5448C71.0157 60.5448 71.7651 60.3252 72.3823 59.9301C72.9995 59.491 73.3522 58.8763 73.3522 58.0859C73.3522 57.4712 73.1318 56.9443 72.6909 56.5492C72.4264 56.3296 72.1178 56.154 71.7651 56.0223C71.9856 55.8905 72.206 55.7588 72.3823 55.5832C72.7791 55.2319 72.9995 54.7489 72.9995 54.266C72.9995 53.5634 72.735 52.9926 72.206 52.5975C71.677 52.2462 71.1039 52.0706 70.4426 52.0706C69.605 52.0706 68.8555 52.2901 68.1501 52.7292L67.9738 52.817L68.4587 53.7391L68.6792 53.6073C69.2082 53.2561 69.7813 53.0804 70.3544 53.0804C70.7512 53.0804 71.1038 53.1683 71.3684 53.3878C71.6329 53.6073 71.7651 53.8708 71.7651 54.1781C71.7651 54.5294 71.5888 54.8368 71.192 55.1002C70.7952 55.3636 70.2662 55.4954 69.6931 55.4954H69.12L69.0759 56.5492H69.7372C72.1178 56.5492 72.1178 57.603 72.1178 57.9542C72.0296 58.4811 71.8974 58.8324 71.5447 59.0958Z" fill="black"/>
<path d="M82.5219 54.0025C82.3896 53.6513 82.2133 53.3439 81.9487 53.0805C81.7283 52.817 81.3757 52.5536 80.9789 52.3779C80.5821 52.2023 80.1412 52.1145 79.6122 52.1145C78.5101 52.1145 77.6283 52.5097 76.9671 53.3439C76.3058 54.1343 75.9531 55.1881 75.9531 56.5053C75.9531 57.6908 76.3058 58.7007 77.0112 59.4471C77.7166 60.1936 78.6423 60.5887 79.7885 60.5887C80.8466 60.5887 81.6843 60.4131 82.3014 60.0618L82.4777 59.974L82.1692 58.9641L81.9487 59.052C81.3756 59.3154 80.7144 59.4471 79.9208 59.4471C79.1273 59.4471 78.466 59.1837 77.981 58.6568C77.4961 58.1738 77.2316 57.4274 77.2316 56.4614H82.8745L82.9186 56.2858C82.9627 56.154 82.9627 56.0223 82.9627 55.7589C82.9627 55.4954 82.9186 55.232 82.8745 54.9246C82.7423 54.6612 82.6541 54.3538 82.5219 54.0025ZM77.8929 53.8708C78.2897 53.3878 78.8187 53.1244 79.524 53.1244C79.9208 53.1244 80.2735 53.2122 80.538 53.3439C80.8025 53.5196 81.0229 53.6952 81.1552 53.9586C81.2874 54.2221 81.4197 54.4855 81.4638 54.749C81.5079 54.9685 81.552 55.1442 81.552 55.3637H77.1875C77.3197 54.8368 77.5402 54.3538 77.8929 53.8708Z" fill="black"/>
<path d="M89.9285 52.0706C88.7823 52.0706 87.9006 52.4657 87.2393 53.3L87.1952 52.2462H86.0049V52.4657C86.049 53.1243 86.049 53.9147 86.049 54.8807V63.4866H87.2393V59.491C87.8124 60.1496 88.65 60.5009 89.664 60.5009C90.7221 60.5009 91.6038 60.1057 92.3091 59.3593C93.0145 58.6128 93.3672 57.5151 93.3672 56.154C93.3672 54.9685 93.0586 54.0025 92.3973 53.2122C91.8242 52.4657 90.9425 52.0706 89.9285 52.0706ZM89.7522 53.1683C90.5016 53.1683 91.1188 53.4756 91.5597 54.0464C92.0006 54.6611 92.2651 55.3637 92.2651 56.2418C92.2651 57.2517 92.0446 58.042 91.5597 58.6128C91.1188 59.1836 90.5016 59.491 89.7081 59.491C89.135 59.491 88.6941 59.3154 88.2533 59.008C87.8124 58.7007 87.5479 58.2616 87.3716 57.6908C87.3275 57.5591 87.3274 57.3395 87.3274 57.12V55.6271C87.3274 55.5832 87.3275 55.4076 87.4157 55.0124C87.5479 54.4416 87.8565 54.0025 88.2974 53.6512C88.7382 53.3439 89.179 53.1683 89.7522 53.1683Z" fill="black"/>
<path d="M101.171 56.0653C101.391 55.9336 101.612 55.8019 101.788 55.6262C102.141 55.275 102.317 54.8359 102.317 54.309C102.317 52.9039 101.171 52.2014 98.8784 52.2014C98.129 52.2014 97.4236 52.2453 96.7623 52.377L96.5859 52.421V60.4122H96.8064C97.4676 60.4561 98.0849 60.5 98.658 60.5C99.0988 60.5 99.5397 60.4561 99.9365 60.4122C100.333 60.3683 100.73 60.2366 101.171 60.1048C101.612 59.9292 101.964 59.7097 102.273 59.3584C102.537 59.0071 102.67 58.5681 102.67 58.0851C102.67 57.4704 102.449 56.9874 102.053 56.5922C101.788 56.3288 101.479 56.1531 101.171 56.0653ZM97.7763 56.68H98.7902C99.6278 56.68 100.289 56.7678 100.818 56.9874C101.259 57.163 101.479 57.5143 101.479 58.0412C101.479 58.3046 101.391 58.5242 101.259 58.6998C101.083 58.8754 100.906 59.0071 100.598 59.095C100.289 59.1828 100.025 59.2706 99.7601 59.3145C99.187 59.4023 98.4375 59.3584 97.8204 59.3145V56.68H97.7763ZM100.465 55.275C100.025 55.4945 99.4515 55.5823 98.8343 55.5823H97.7322V53.2991C98.2171 53.2552 98.5698 53.2552 98.7461 53.2552C100.994 53.2552 100.994 54.0895 100.994 54.3968C101.083 54.792 100.862 55.0993 100.465 55.275Z" fill="black"/>
</svg>
