<svg width="116" height="79" viewBox="0 0 116 79" fill="none" xmlns="http://www.w3.org/2000/svg">
<path d="M73.3924 21.8928H74.4946V12.3647H30.4531V13.4624H73.3924V21.8928Z" fill="black"/>
<path d="M73.3926 77.8309H8.76327V34.3621H7.66113V78.9286H74.4948V69.3567H73.3926V77.8309Z" fill="black"/>
<path d="M55.2738 40.7722H56.4641V29.5317H50.2481V34.186C50.2481 34.9763 50.2481 35.6349 50.204 36.1618C50.1599 36.6887 50.0717 37.2595 49.9395 37.9182C49.8072 38.5329 49.5868 39.0159 49.2782 39.2793C48.9696 39.5427 48.661 39.7184 48.3083 39.7623L48.0879 39.8062L48.2642 40.8161H48.4406C48.9255 40.8161 49.4545 40.6404 49.9395 40.2892C50.2922 40.0257 50.6008 39.6306 50.8212 39.1915C51.0416 38.7524 51.1739 38.1377 51.2621 37.4791C51.3502 36.8205 51.3943 36.2497 51.3943 35.8545C51.3943 35.4593 51.4384 34.8446 51.4384 34.0982V30.6294H55.2738V40.7722Z" fill="black"/>
<path d="M67.265 40.7722H68.4553V29.5317H67.3973L63.121 36.0301C62.4597 37.04 61.8866 37.9182 61.4898 38.6207C61.5339 37.6547 61.578 36.4692 61.578 35.108V29.5317H60.3877V40.7722H61.4017L65.5898 34.4055C66.3392 33.2639 66.9124 32.3418 67.3091 31.6832C67.265 32.6053 67.265 33.7908 67.265 35.108V40.7722Z" fill="black"/>
<path d="M72.3789 40.7722H73.5692V30.6294H78.0659V29.5317H72.3789V40.7722Z" fill="black"/>
<path d="M80.7994 36.9961H84.7671L86.1338 40.7722H87.3682L83.3123 29.5317H82.2542L78.1543 40.7722H79.4328L80.7994 36.9961ZM81.1962 35.8984L82.4306 32.5614C82.5629 32.1223 82.6951 31.7271 82.7833 31.3759C82.9155 31.8149 83.0478 32.254 83.136 32.5614L84.3263 35.8545H81.1962V35.8984Z" fill="black"/>
<path d="M52.8052 46.9631C52.8052 46.3045 52.4084 45.5142 50.5127 45.5142C50.0278 45.5142 49.5428 45.5581 49.1461 45.602L48.9697 45.6459V50.9587H49.1902C49.5869 51.0027 50.0278 51.0027 50.3805 51.0027C50.6891 51.0027 50.9536 51.0027 51.2181 50.9587C51.4826 50.9148 51.7471 50.8709 52.0116 50.7392C52.3202 50.6514 52.5848 50.4758 52.7611 50.2123C52.9374 49.9928 53.0256 49.6854 53.0256 49.3342C53.0256 48.8951 52.8933 48.5877 52.5847 48.3243C52.4525 48.1925 52.3202 48.1047 52.1439 48.0608C52.2321 48.0169 52.3202 47.9291 52.4084 47.8413C52.6729 47.5778 52.8052 47.2705 52.8052 46.9631ZM50.4686 46.3484C51.8353 46.3484 51.8353 46.8314 51.8353 47.007C51.8353 47.2266 51.7471 47.4022 51.4826 47.5339C51.174 47.6657 50.8654 47.7535 50.4686 47.7535H49.8514V46.4362C50.16 46.3923 50.3364 46.3484 50.4686 46.3484ZM49.8514 48.5438H50.4245C50.9536 48.5438 51.3944 48.5877 51.703 48.7194C51.9675 48.8073 52.0557 49.0268 52.0557 49.3342C52.0557 49.5098 52.0116 49.5976 51.9235 49.7293C51.8353 49.861 51.703 49.905 51.5267 49.9928C51.3503 50.0367 51.174 50.0806 50.9977 50.1245C50.645 50.1684 50.2041 50.1684 49.8074 50.1245V48.5438H49.8514Z" fill="black"/>
<path d="M59.9473 45.5581H59.0215V50.9588H59.9473V45.5581Z" fill="black"/>
<path d="M54.9209 45.5581V50.7392V50.9588H55.1413C55.1854 50.9588 55.3177 50.9588 55.5822 51.0027C55.8467 51.0027 56.1112 51.0466 56.2876 51.0466C57.1693 51.0466 57.8305 50.8271 58.3155 50.388C58.6241 50.0806 58.8004 49.6855 58.8004 49.2025C58.8004 48.5878 58.58 48.1048 58.0951 47.7974C57.6542 47.4901 57.1252 47.3583 56.4639 47.3583C56.2435 47.3583 56.0671 47.3583 55.8908 47.4022V45.6459H54.9209V45.5581ZM57.8306 49.1586C57.8306 49.5098 57.6983 49.7294 57.4338 49.905C57.1252 50.0806 56.7725 50.1684 56.3757 50.1684C56.1994 50.1684 56.023 50.1684 55.8908 50.1245V48.1487C56.0671 48.1487 56.2435 48.1048 56.4198 48.1048C56.8607 48.1048 57.2133 48.1926 57.4779 48.3682C57.7424 48.5438 57.8306 48.8073 57.8306 49.1586Z" fill="black"/>
<path d="M66.6032 50.0806H66.1182V45.5581H62.7236V47.0949C62.7236 47.8852 62.6355 48.6317 62.415 49.2464C62.3269 49.5537 62.1505 49.8172 61.9742 50.1245H61.4893L61.5333 52.5395H62.371L62.415 51.0027H65.6333L65.6774 52.5395H66.515L66.6032 50.0806ZM63.0323 50.0806C63.1645 49.8172 63.2527 49.5976 63.2968 49.3781C63.5172 48.7195 63.6054 47.9291 63.6054 47.0949V46.3484H65.1483V50.0367H63.0323V50.0806Z" fill="black"/>
<path d="M72.0704 50.6962C72.0263 50.4328 71.9822 50.0376 71.9822 49.5546V47.6227C71.9822 45.8225 70.9242 45.4712 70.0424 45.4712C69.4693 45.4712 68.9403 45.6468 68.4554 45.9103L68.3231 45.9981L68.6758 46.7884L68.8962 46.6128C69.2048 46.3933 69.6016 46.2615 70.0424 46.2615C70.3951 46.2615 70.6156 46.3494 70.7919 46.525C70.9682 46.7006 71.1005 47.008 71.1005 47.447C70.1747 47.447 69.4693 47.6227 68.9403 47.93C68.3672 48.2813 68.0586 48.8082 68.0586 49.4668C68.0586 49.9059 68.1909 50.2572 68.4994 50.5645C68.808 50.8719 69.2048 51.0475 69.7339 51.0475C70.1306 51.0475 70.4833 50.9597 70.7919 50.7841C70.9242 50.6962 71.0564 50.6084 71.1446 50.5206L71.1887 50.9597H72.1145L72.0704 50.6962ZM71.0564 48.2813V49.1156C71.0564 49.2034 71.0564 49.2912 71.0123 49.3351C70.9242 49.5546 70.7919 49.7742 70.5715 49.9498C70.351 50.1254 70.0865 50.2133 69.7339 50.2133C69.5134 50.2133 69.3371 50.1254 69.1607 49.9937C69.0285 49.862 68.9403 49.6424 68.9403 49.379C68.9403 49.1156 69.0285 48.896 69.2048 48.7204C69.5575 48.4569 70.1747 48.2813 71.0564 48.2813Z" fill="black"/>
<path d="M79.6971 50.2122C80.1379 49.6853 80.3584 48.9828 80.3584 48.1925C80.3584 47.3582 80.1379 46.6996 79.7412 46.2166C79.3003 45.6897 78.7713 45.4263 78.0659 45.4263C77.4487 45.4263 76.8756 45.6897 76.4347 46.1288C76.038 46.5679 75.8176 47.0948 75.7294 47.7534H75.1563V45.5141H74.2305V50.9148H75.1563V48.5876H75.7294C75.7735 49.2902 75.9939 49.861 76.3907 50.2561C76.8315 50.7391 77.3606 51.0026 78.0218 51.0026C78.6831 51.0465 79.2562 50.783 79.6971 50.2122ZM78.0218 50.2122C77.581 50.2122 77.2724 50.0366 77.052 49.6414C76.7874 49.2463 76.6552 48.7633 76.6552 48.2364C76.6552 47.6656 76.7874 47.1826 77.052 46.7874C77.3165 46.4362 77.6251 46.2166 78.0218 46.2166C78.4627 46.2166 78.7713 46.3922 78.9917 46.7435C79.2562 47.1387 79.3885 47.5778 79.3885 48.1047C79.3885 48.6315 79.2562 49.1145 78.9917 49.5536C78.7713 50.0366 78.4627 50.2122 78.0218 50.2122Z" fill="black"/>
<path d="M87.3237 45.5581V50.0806H85.7367V45.5581H84.7668V50.0806H83.1797V45.5581H82.2539V50.9588H87.8087L87.8528 52.4956H88.6904L88.7345 50.0806H88.2496V45.5581H87.3237Z" fill="black"/>
<path d="M93.4522 48.1047C93.6726 47.7974 93.8489 47.49 94.0694 47.1388C94.0694 47.49 94.0694 47.8413 94.0694 48.2365V50.9148H94.9952V45.5142H94.1135L92.1296 48.456C91.9533 48.7194 91.7769 48.9829 91.6006 49.3342C91.6006 48.9829 91.6006 48.6316 91.6006 48.1925V45.5142H90.6748V50.9148H91.5565L91.6006 50.827C91.7769 50.5636 92.0855 50.1245 92.5264 49.4659C92.8791 48.8512 93.2318 48.4121 93.4522 48.1047Z" fill="black"/>
<path d="M100.197 50.9588H101.299L99.3593 48.1926L101.255 45.5581H100.153L99.227 46.8753C99.0507 47.0949 98.9184 47.3144 98.8303 47.4461C98.698 47.2266 98.5657 47.0071 98.4335 46.8753L97.5077 45.5581H96.4056L98.3012 48.1926L96.3174 50.9588H97.4195L98.3453 49.5976C98.5216 49.3342 98.698 49.1146 98.7862 48.939L100.197 50.9588Z" fill="black"/>
<path d="M104.914 51.0475C105.487 51.0475 106.016 50.9158 106.457 50.6962L106.633 50.6084L106.368 49.8181L106.148 49.9059C105.751 50.0815 105.354 50.1693 105.002 50.1693C104.473 50.1693 104.076 49.9937 103.723 49.6424C103.415 49.2912 103.238 48.8082 103.238 48.2374C103.238 47.6666 103.415 47.1836 103.723 46.8323C104.032 46.4811 104.473 46.3054 105.046 46.3054C105.487 46.3054 105.839 46.3933 106.104 46.5689L106.324 46.7006L106.677 45.9103L106.545 45.8225C106.192 45.6029 105.751 45.4712 105.09 45.4712C104.296 45.4712 103.591 45.7346 103.106 46.2615C102.577 46.7884 102.312 47.491 102.312 48.3252C102.312 49.1156 102.533 49.7742 103.018 50.3011C103.503 50.7841 104.12 51.0475 104.914 51.0475Z" fill="black"/>
<path d="M112.1 50.9587V45.6459L111.924 45.602C111.439 45.5142 110.954 45.5142 110.469 45.5142C109.719 45.5142 109.146 45.6459 108.794 45.9093C108.353 46.1728 108.176 46.568 108.176 47.0948C108.176 47.5339 108.353 47.8413 108.661 48.1047C108.794 48.2365 108.97 48.3243 109.102 48.3682C108.926 48.4999 108.794 48.6755 108.661 48.8512C108.573 49.0268 108.441 49.2463 108.353 49.5098C108.265 49.7732 108.221 49.9489 108.176 49.9928C108.088 50.1684 108 50.344 107.868 50.5197L107.647 50.8709H108.705L108.75 50.7831C108.794 50.6953 108.882 50.5636 108.97 50.344C109.014 50.2562 109.058 50.0806 109.146 49.8171C109.235 49.5537 109.323 49.3342 109.411 49.2024C109.499 49.0707 109.587 48.9829 109.675 48.8951C109.852 48.7633 110.116 48.7194 110.425 48.7194H111.086V50.9587H112.1ZM109.323 47.5339C109.19 47.4022 109.102 47.2705 109.102 47.0948C109.102 46.8753 109.146 46.7436 109.323 46.6119C109.455 46.4801 109.631 46.3923 109.808 46.3484C110.028 46.3045 110.249 46.3045 110.513 46.3045C110.733 46.3045 110.954 46.3045 111.174 46.3484V47.8852H110.469C110.248 47.8852 110.072 47.8413 109.852 47.7974C109.631 47.7535 109.499 47.6657 109.323 47.5339Z" fill="black"/>
<path d="M49.3661 62.4189C49.1016 62.6384 48.8371 62.8141 48.5726 62.9019L48.3521 62.9897L48.6607 63.824L48.8811 63.7361C49.1897 63.6044 49.4984 63.4288 49.8069 63.1653C50.1155 62.9019 50.4241 62.5067 50.6887 62.0237C50.9532 61.5846 51.2177 60.926 51.5704 60.0479L53.2015 56.0522H52.1435L50.865 59.3893C50.865 59.4332 50.7768 59.6088 50.6887 59.9161C50.6446 59.7405 50.5564 59.6088 50.5123 59.4332L49.1457 56.0522H48.1758L50.1596 60.9699C50.2037 61.0577 50.2037 61.1017 50.2037 61.1017C50.2037 61.1017 50.2037 61.1456 50.1596 61.2334C49.9392 61.7164 49.6747 62.1115 49.3661 62.4189Z" fill="black"/>
<path d="M58.8884 61.4969V56.0962H54.6562V61.4969H55.582V56.9304H57.9627V61.4969H58.8884Z" fill="black"/>
<path d="M62.1067 63.5165V61.0577C62.5035 61.4089 62.9885 61.5846 63.6057 61.5846C64.311 61.5846 64.8841 61.3211 65.3691 60.7942C65.854 60.2673 66.0744 59.5648 66.0744 58.6866C66.0744 57.8963 65.854 57.2377 65.4131 56.7547C64.9723 56.2278 64.3992 55.9644 63.6938 55.9644C62.9885 55.9644 62.4594 56.1839 62.0186 56.623V56.0961H61.0928V56.3156C61.1369 56.7108 61.1369 57.2377 61.1369 57.8963V63.5165H62.1067ZM62.7239 57.1499C62.9885 56.9303 63.2971 56.8425 63.6057 56.8425C64.0906 56.8425 64.4433 57.0181 64.7078 57.3694C64.9723 57.7207 65.1486 58.2037 65.1486 58.7306C65.1486 59.3453 65.0164 59.8722 64.7078 60.2234C64.4433 60.5747 64.0465 60.7503 63.5616 60.7503C63.2089 60.7503 62.9444 60.6625 62.6799 60.443C62.4154 60.2234 62.239 59.96 62.1508 59.6526C62.1068 59.5648 62.1067 59.4331 62.1067 59.3014V58.3354C62.1067 58.2915 62.1068 58.2037 62.1508 57.9841C62.2831 57.6329 62.4594 57.3255 62.7239 57.1499Z" fill="black"/>
<path d="M67.5732 60.0039C67.5732 60.443 67.7055 60.7943 68.0141 61.1016C68.3227 61.409 68.7195 61.5846 69.2485 61.5846C69.6453 61.5846 69.998 61.4968 70.3065 61.3212C70.4388 61.2333 70.5711 61.1455 70.6592 61.0577L70.7033 61.4968H71.6291L71.585 61.2333C71.5409 60.9699 71.4969 60.5747 71.4969 60.0917V58.1598C71.4969 56.3596 70.4388 56.0083 69.5571 56.0083C68.984 56.0083 68.455 56.1839 67.97 56.4474L67.8377 56.5352L68.1905 57.3255L68.4109 57.1499C68.7195 56.9304 69.1162 56.7986 69.5571 56.7986C69.8657 56.7986 70.1302 56.8865 70.3065 57.0621C70.4829 57.2377 70.6152 57.5451 70.6152 57.9842C69.6894 57.9842 68.984 58.1598 68.455 58.4671C67.8818 58.8184 67.5732 59.3453 67.5732 60.0039ZM70.6152 58.8184L70.6592 59.6527C70.6592 59.7405 70.6592 59.8283 70.6152 59.8722C70.527 60.0917 70.3947 60.3113 70.1743 60.4869C69.9539 60.6625 69.6893 60.7504 69.3367 60.7504C69.1162 60.7504 68.9399 60.6625 68.7636 60.5308C68.6313 60.3991 68.5431 60.1796 68.5431 59.9161C68.5431 59.6527 68.6313 59.4331 68.8076 59.2575C69.1162 58.994 69.7334 58.8184 70.6152 58.8184Z" fill="black"/>
<path d="M77.0073 58.5989C77.0955 58.555 77.1837 58.4672 77.2718 58.3794C77.4923 58.1159 77.6245 57.8525 77.6245 57.5012C77.6245 56.8426 77.2277 56.0522 75.3321 56.0522C74.8471 56.0522 74.3622 56.0962 73.9654 56.1401L73.7891 56.184V61.4968H74.0095C74.4063 61.5407 74.8471 61.5407 75.1998 61.5407C75.5084 61.5407 75.7729 61.5407 76.0374 61.4968C76.302 61.4529 76.5665 61.409 76.831 61.2773C77.1396 61.1895 77.4041 61.0138 77.5804 60.7504C77.7568 60.5309 77.8449 60.2235 77.8449 59.8722C77.8449 59.4332 77.7127 59.1258 77.4041 58.8624C77.3159 58.7745 77.1396 58.6867 77.0073 58.5989ZM76.346 58.072C76.0374 58.2037 75.7288 58.2916 75.3321 58.2916H74.7149V56.9743C74.9794 56.9304 75.1998 56.9304 75.288 56.9304C76.6546 56.9304 76.6546 57.4134 76.6546 57.589C76.6987 57.7647 76.5665 57.9403 76.346 58.072ZM74.7149 59.0819H75.288C75.817 59.0819 76.2579 59.1258 76.5665 59.2575C76.831 59.3453 76.9191 59.5649 76.9191 59.8722C76.9191 60.0479 76.8751 60.1357 76.7869 60.2674C76.6987 60.3991 76.5665 60.443 76.3901 60.5309C76.2138 60.5748 76.0374 60.6187 75.8611 60.6626C75.5084 60.7065 75.0675 60.7065 74.6708 60.6626V59.0819H74.7149Z" fill="black"/>
<path d="M80.1822 58.2476C80.1822 58.9502 80.1381 59.521 80.05 59.8722C79.9618 60.1796 79.8296 60.3991 79.6532 60.5309C79.521 60.6187 79.4328 60.6626 79.3005 60.6626L79.0801 60.7065L79.1683 61.4968H79.3887C79.6532 61.4968 79.9177 61.409 80.1822 61.2773C80.579 61.0578 80.8435 60.7065 80.9758 60.1796C81.108 59.6966 81.1521 59.038 81.1521 58.2037V56.9304H82.8273V61.4529H83.7532V56.0522H80.2263V58.2476H80.1822Z" fill="black"/>
<path d="M90.0129 57.2377C89.9247 57.0181 89.7925 56.7986 89.6602 56.623C89.4839 56.4473 89.2634 56.2717 88.9989 56.14C88.7344 56.0083 88.4258 55.9644 88.0731 55.9644C87.3678 55.9644 86.7506 56.2278 86.3097 56.7547C85.8689 57.2816 85.6484 57.9841 85.6484 58.8623C85.6484 59.6526 85.8689 60.3112 86.3538 60.7942C86.8387 61.3211 87.4559 61.5407 88.2054 61.5407C88.9108 61.5407 89.4398 61.4089 89.8806 61.1894L90.057 61.1016L89.7925 60.3112L89.5721 60.3991C89.2194 60.5747 88.7785 60.6625 88.2936 60.6625C87.8086 60.6625 87.4119 60.4869 87.1033 60.1795C86.8387 59.9161 86.6624 59.477 86.6183 58.9062H90.2333L90.2774 58.7306C90.2774 58.6427 90.3215 58.5549 90.3215 58.3793C90.3215 58.2037 90.3215 58.028 90.2774 57.8524C90.1452 57.6768 90.1011 57.5011 90.0129 57.2377ZM88.9989 57.3255C89.0871 57.5011 89.1753 57.6768 89.1753 57.8085C89.1753 57.8963 89.2194 58.028 89.2194 58.1158H86.5742C86.6624 57.8085 86.7947 57.5011 86.971 57.2816C87.1914 56.9742 87.5441 56.8425 87.9409 56.8425C88.2054 56.8425 88.3817 56.8864 88.5581 56.9742C88.7785 57.0621 88.9108 57.1938 88.9989 57.3255Z" fill="black"/>
<path d="M95.4794 58.2038H93.0547V56.0962H92.1289V61.4969H93.0547V59.0819H95.4794V61.4969H96.4052V56.0962H95.4794V58.2038Z" fill="black"/>
<path d="M102.842 56.0962H101.917V60.6187H99.6242V56.0962H98.6543V61.4969H102.446V63.0336H103.283L103.371 60.6187H102.842V56.0962Z" fill="black"/>
<path d="M109.191 57.2377C109.102 57.0181 108.97 56.7986 108.838 56.623C108.662 56.4473 108.441 56.2717 108.177 56.14C107.912 56.0083 107.604 55.9644 107.251 55.9644C106.546 55.9644 105.928 56.2278 105.487 56.7547C105.047 57.2816 104.826 57.9841 104.826 58.8623C104.826 59.6526 105.047 60.3112 105.532 60.7942C106.016 61.3211 106.634 61.5407 107.383 61.5407C108.088 61.5407 108.618 61.4089 109.058 61.1894L109.235 61.1016L108.97 60.3112L108.75 60.3991C108.397 60.5747 107.956 60.6625 107.471 60.6625C106.986 60.6625 106.59 60.4869 106.281 60.1795C106.016 59.9161 105.84 59.477 105.796 58.9062H109.411L109.455 58.7306C109.455 58.6427 109.499 58.5549 109.499 58.3793C109.499 58.2037 109.499 58.028 109.455 57.8524C109.367 57.6768 109.279 57.5011 109.191 57.2377ZM108.221 57.3255C108.309 57.5011 108.397 57.6768 108.397 57.8085C108.397 57.8963 108.441 58.028 108.441 58.1158H105.796C105.884 57.8085 106.016 57.5011 106.193 57.2816C106.413 56.9742 106.766 56.8425 107.163 56.8425C107.427 56.8425 107.604 56.8864 107.78 56.9742C108 57.0621 108.133 57.1938 108.221 57.3255Z" fill="black"/>
<path d="M114.966 58.8624C114.833 58.7306 114.701 58.6428 114.525 58.5989C114.613 58.555 114.701 58.4672 114.789 58.3794C115.01 58.1159 115.142 57.8525 115.142 57.5012C115.142 56.8426 114.745 56.0522 112.85 56.0522C112.365 56.0522 111.88 56.0962 111.483 56.1401L111.307 56.184V61.4968H111.527C111.924 61.5407 112.365 61.5407 112.717 61.5407C113.026 61.5407 113.29 61.5407 113.555 61.4968C113.82 61.4529 114.084 61.409 114.349 61.2773C114.657 61.1895 114.922 61.0138 115.098 60.7504C115.274 60.5309 115.363 60.2235 115.363 59.8722C115.407 59.4771 115.23 59.1258 114.966 58.8624ZM113.864 58.072C113.555 58.2037 113.246 58.2916 112.85 58.2916H112.232V56.9743C112.497 56.9304 112.717 56.9304 112.806 56.9304C114.172 56.9304 114.172 57.4134 114.172 57.589C114.216 57.7647 114.084 57.9403 113.864 58.072ZM112.232 59.0819H112.806C113.335 59.0819 113.775 59.1258 114.084 59.2575C114.349 59.3453 114.437 59.5649 114.437 59.8722C114.437 60.0479 114.393 60.1357 114.304 60.2674C114.216 60.3991 114.084 60.443 113.908 60.5309C113.731 60.5748 113.555 60.6187 113.379 60.6626C113.026 60.7065 112.585 60.7065 112.188 60.6626V59.0819H112.232Z" fill="black"/>
<path d="M18.0216 16.2725C20.4022 16.2725 22.3419 14.3405 22.3419 11.9695C22.3419 9.59845 20.4022 7.6665 18.0216 7.6665C15.6409 7.6665 13.7012 9.59845 13.7012 11.9695C13.7012 14.3405 15.6409 16.2725 18.0216 16.2725ZM18.0216 8.7642C19.785 8.7642 21.2398 10.2132 21.2398 11.9695C21.2398 13.7258 19.785 15.1748 18.0216 15.1748C16.2581 15.1748 14.8033 13.7258 14.8033 11.9695C14.8033 10.2132 16.2581 8.7642 18.0216 8.7642Z" fill="black"/>
<path d="M19.7844 16.886C19.2113 16.7103 18.6382 16.5786 18.0651 16.5786H18.021C17.9769 16.5786 17.9328 16.5786 17.8888 16.5786C15.6845 16.5786 13.7006 17.7641 12.6867 19.6961C12.2458 20.5303 12.0254 21.4524 12.0254 22.4184V26.2823H23.7521V22.4184C23.7521 19.9156 22.121 17.6763 19.7844 16.886ZM17.8888 17.6763H18.021C18.506 17.6763 18.9909 17.7641 19.4317 17.9398C21.3715 18.5984 22.65 20.3986 22.65 22.4184V25.1846H13.1275V22.4184C13.1275 21.628 13.3039 20.9255 13.6566 20.223C14.4942 18.6423 16.1253 17.6763 17.8888 17.6763Z" fill="black"/>
<path d="M8.58718 20.5306V14.0322H12.4667V5.73365H14.3183L9.51296 0.859863L4.70764 5.73365H6.55924V8.28031L5.63344 7.35824L0.828125 12.232H2.67971V20.5306H8.58718ZM5.63344 8.93892L7.79363 11.1343H7.48504V19.4329H3.78185V11.1343H3.47325L5.63344 8.93892ZM8.58718 12.232H10.4388L7.66138 9.42191V4.63595H7.35277L9.51296 2.44055L11.6732 4.63595H11.3646V12.9345H8.58718V12.232Z" fill="black"/>
</svg>
