<svg width="23" height="22" viewBox="0 0 23 22" fill="none" xmlns="http://www.w3.org/2000/svg">
<path fill-rule="evenodd" clip-rule="evenodd" d="M11.002 21.9998C17.0771 21.9998 22.002 17.0749 22.002 10.9998C22.002 4.92462 17.0771 -0.000244141 11.002 -0.000244141C4.92682 -0.000244141 0.00195312 4.92462 0.00195312 10.9998C0.00195312 17.0749 4.92682 21.9998 11.002 21.9998ZM11.002 19.9998C15.9725 19.9998 20.002 15.9703 20.002 10.9998C20.002 6.02919 15.9725 1.99976 11.002 1.99976C6.03139 1.99976 2.00195 6.02919 2.00195 10.9998C2.00195 15.9703 6.03139 19.9998 11.002 19.9998Z" fill="#9D9D9C"/>
<path d="M6.8398 7.49877C7.1643 6.66242 8.02798 3.9685 10.9957 3.9685C14.0523 3.9685 15.0335 6.71091 15.0058 7.95083C14.9782 9.19075 14.4481 10.5413 13.1989 11.2511C11.9498 11.961 12.0021 12.7996 12.0021 12.7996V13.9773H9.98587C9.98587 13.9773 9.94847 12.7712 10.1092 11.9796C10.2699 11.188 10.6361 10.7948 11.1386 10.2786C11.641 9.76231 12.927 9.42121 13.0009 8.02734C13.0085 7.5589 12.6253 5.97936 11.0025 5.97936C9.29218 5.97936 8.9944 7.71308 8.67143 8.2835C8.45554 8.19048 6.9295 7.54097 6.8398 7.49877Z" fill="#9D9D9C"/>
<path d="M10.0056 14.9882H11.9959V17.3276H10.0056V14.9882Z" fill="#9D9D9C"/>
</svg>
