<svg width="24" height="13" viewBox="0 0 24 13" fill="none" xmlns="http://www.w3.org/2000/svg">
<path d="M7.28613 6.58203H16.7147" stroke="white" stroke-width="2" stroke-linejoin="round"/>
<path d="M9.64286 11.2958H5.71429C4.46398 11.2958 3.26488 10.7991 2.38078 9.91498C1.49668 9.03088 1 7.83178 1 6.58147C1 5.33117 1.49668 4.13207 2.38078 3.24797C3.26488 2.36387 4.46398 1.86719 5.71429 1.86719H9.64286" stroke="white" stroke-width="2" stroke-linejoin="round"/>
<path d="M14.3574 11.2958H18.286C19.5363 11.2958 20.7354 10.7991 21.6195 9.91498C22.5036 9.03088 23.0003 7.83178 23.0003 6.58147C23.0003 5.33117 22.5036 4.13207 21.6195 3.24797C20.7354 2.36387 19.5363 1.86719 18.286 1.86719H14.3574" stroke="white" stroke-width="2" stroke-linejoin="round"/>
</svg>
