<svg width="35" height="29" viewBox="0 0 35 29" fill="none" xmlns="http://www.w3.org/2000/svg">
<path fill-rule="evenodd" clip-rule="evenodd" d="M2.4788 0.47998C1.46097 0.47998 0.613281 1.29706 0.613281 2.31882V26.418C0.613281 27.4398 1.46097 28.2568 2.4788 28.2568H32.5202C33.538 28.2568 34.3857 27.4398 34.3857 26.418V2.31882C34.3857 1.29706 33.538 0.47998 32.5202 0.47998H2.4788ZM1.61328 2.31882C1.61328 1.86786 1.99456 1.47998 2.4788 1.47998H8.80664V5.83545H1.61328V2.31882ZM25.1934 1.47998H18V5.83545H25.1934V1.47998ZM26.1934 5.83545V1.47998H32.5202C33.0044 1.47998 33.3857 1.86786 33.3857 2.31882V5.83545H26.1934ZM9.80664 5.83545V1.47998H17V5.83545H9.80664ZM17 6.83545V21.9014H1.61328V6.83545H17ZM1.61328 22.9014H8.80664V27.2568H2.4788C1.99456 27.2568 1.61328 26.869 1.61328 26.418V22.9014ZM9.80664 22.9014V27.2568H17V22.9014H9.80664ZM33.3857 21.9014V6.83545H18V21.9014H33.3857ZM25.1934 22.9014H18V27.2568H25.1934V22.9014ZM26.1934 27.2568V22.9014H33.3857V26.418C33.3857 26.869 33.0044 27.2568 32.5202 27.2568H26.1934Z" fill="black"/>
</svg>
