<svg width="35" height="47" viewBox="0 0 35 47" fill="none" xmlns="http://www.w3.org/2000/svg">
<path d="M16.5554 10.5998V11.0998C16.5554 11.4891 16.9138 11.8475 17.3031 11.8475C17.6924 11.8475 18.0508 11.4891 18.0508 11.0998V10.5998H19.0508V11.0998C19.0508 12.0413 18.2447 12.8475 17.3031 12.8475C16.3616 12.8475 15.5554 12.0413 15.5554 11.0998V10.5998H16.5554Z" fill="#020203"/>
<path d="M23.3748 10.1015C23.3748 10.469 23.0769 10.7669 22.7094 10.7669C22.3419 10.7669 22.0439 10.469 22.0439 10.1015C22.0439 9.73396 22.3419 9.43604 22.7094 9.43604C23.0769 9.43604 23.3748 9.73396 23.3748 10.1015Z" fill="#020203"/>
<path d="M12.0629 10.767C12.4304 10.767 12.7283 10.4691 12.7283 10.1016C12.7283 9.73408 12.4304 9.43616 12.0629 9.43616C11.6953 9.43616 11.3974 9.73408 11.3974 10.1016C11.3974 10.4691 11.6953 10.767 12.0629 10.767Z" fill="#020203"/>
<path fill-rule="evenodd" clip-rule="evenodd" d="M0.500058 5.77624C0.500058 2.74968 2.97529 0.368652 5.90764 0.368652H34.2727V34.1413H5.90764C3.44436 34.1413 1.50006 36.1578 1.50006 38.5489L1.5 39.6294H5.90625V35.8862H11.1484V39.6294H34.2723V40.6294H11.1484V46.8533L8.49159 44.9118L5.90625 46.8767V40.6294H0.5L0.500058 5.77624ZM6.90625 44.8607L8.47988 43.6647L10.1484 44.884V36.8862H6.90625V44.8607ZM1.50006 35.423C2.47355 34.052 4.07184 33.1413 5.90764 33.1413H33.2727V1.36865H5.90764C3.51651 1.36865 1.50006 3.31296 1.50006 5.77624V35.423Z" fill="#020203"/>
</svg>
