<svg width="35" height="29" viewBox="0 0 35 29" fill="none" xmlns="http://www.w3.org/2000/svg">
<path d="M7.10236 9.00452C8.22571 9.00452 9.13636 8.09387 9.13636 6.97052C9.13636 5.84718 8.22571 4.93652 7.10236 4.93652C5.97901 4.93652 5.06836 5.84718 5.06836 6.97052C5.06836 8.09387 5.97901 9.00452 7.10236 9.00452Z" fill="black"/>
<path d="M15.9157 6.97052C15.9157 8.09387 15.005 9.00452 13.8817 9.00452C12.7583 9.00452 11.8477 8.09387 11.8477 6.97052C11.8477 5.84718 12.7583 4.93652 13.8817 4.93652C15.005 4.93652 15.9157 5.84718 15.9157 6.97052Z" fill="black"/>
<path fill-rule="evenodd" clip-rule="evenodd" d="M0.5 2.22465C0.5 1.20271 1.33406 0.368652 2.356 0.368652H32.188C33.2099 0.368652 34.044 1.20271 34.044 2.22465V26.6327C34.044 27.6546 33.2099 28.4887 32.188 28.4887H2.356C1.33406 28.4887 0.5 27.6546 0.5 26.6327V2.22465ZM2.356 1.36865C1.88634 1.36865 1.5 1.75499 1.5 2.22465V26.6327C1.5 27.1023 1.88634 27.4887 2.356 27.4887H32.188C32.6577 27.4887 33.044 27.1023 33.044 26.6327V2.22465C33.044 1.75499 32.6577 1.36865 32.188 1.36865H2.356Z" fill="black"/>
</svg>
