<?xml version="1.0" encoding="utf-8"?>
<!-- Generator: Adobe Illustrator 26.2.1, SVG Export Plug-In . SVG Version: 6.00 Build 0)  -->
<svg version="1.1" id="Слой_1" xmlns="http://www.w3.org/2000/svg" xmlns:xlink="http://www.w3.org/1999/xlink" x="0px" y="0px"
	 viewBox="0 0 40 36" style="enable-background:new 0 0 40 36;" xml:space="preserve">
<g>
	<path d="M39.2,35.2H15.7V17.7h-7v17.5H0.2V8.1h39.1V35.2z M17.7,33.2h19.5V10.1h-4.8V9.2v0.9H2.2v23.1h4.6V15.7h11V33.2z
		 M33.8,27.6h-11V15.7h11V27.6z M24.9,25.6h7v-7.9h-7V25.6z"/>
	<path d="M17.7,35.2h-11V15.7h11V35.2z M8.7,33.2h7V17.7h-7V33.2z"/>
	<path d="M33.8,27.6h-11V15.7h11V27.6z M24.9,25.6h7v-7.9h-7V25.6z"/>
	<path d="M39.2,10.1H0.2V0.3h39.1V10.1z M33.4,8.1h3.8V2.3h-3.8V8.1z M28.5,8.1h1.8V2.3h-1.8V8.1z M24.7,8.1h1.8V2.3h-1.8V8.1z
		 M20.9,8.1h1.8V2.3h-1.8V8.1z M17.2,8.1h1.7V2.3h-1.7V8.1z M13.4,8.1h1.8V2.3h-1.8V8.1z M9.7,8.1h1.8V2.3H9.7V8.1z M5.9,8.1h1.7
		V2.3H5.9V8.1z M2.2,8.1h1.8V2.3H2.2V8.1z"/>
	<polygon points="27.5,10.1 23.7,10.1 23.7,8.1 25.6,8.1 27.5,8.1 	"/>
	<polygon points="23.7,10.1 19.9,10.1 19.9,8.1 21.8,8.1 23.7,8.1 	"/>
	<polygon points="19.9,10.1 16.2,10.1 16.2,8.1 18.1,8.1 19.9,8.1 	"/>
	<polygon points="32.4,10.1 31.3,10.1 31.3,8.1 31.8,8.1 32.4,8.1 	"/>
	<polygon points="31.3,10.1 27.5,10.1 27.5,8.1 29.4,8.1 31.3,8.1 	"/>
	<polygon points="8.7,10.1 4.9,10.1 4.9,8.1 6.8,8.1 8.7,8.1 	"/>
	<polygon points="1.2,10.1 1.2,8.1 3,8.1 4.9,8.1 4.9,10.1 	"/>
	<polygon points="16.2,10.1 12.4,10.1 12.4,8.1 14.3,8.1 16.2,8.1 	"/>
	<rect x="32.4" y="8.1" width="5.8" height="2"/>
	<polygon points="12.4,10.1 8.7,10.1 8.7,8.1 10.6,8.1 12.4,8.1 	"/>
</g>
</svg>
