<?xml version="1.0" encoding="utf-8"?>
<!-- Generator: Adobe Illustrator 26.2.1, SVG Export Plug-In . SVG Version: 6.00 Build 0)  -->
<svg version="1.1" id="Слой_1" xmlns="http://www.w3.org/2000/svg" xmlns:xlink="http://www.w3.org/1999/xlink" x="0px" y="0px"
	 viewBox="0 0 36 35" style="enable-background:new 0 0 36 35;" xml:space="preserve">
<path d="M33.3,34.4H2.7V10.6h30.6V34.4z M4.7,32.4h26.6V12.6H4.7V32.4z"/>
<path d="M35,12.6H1V4.5H35V12.6z M3,10.6H33V6.5H3V10.6z"/>
<rect x="14.7" y="5.5" width="2" height="27.9"/>
<rect x="19.3" y="5.5" width="2" height="27.9"/>
<path d="M18,6.5H8.8v-6l9.6,4.1L18,6.5z M10.8,4.5h2.3l-2.3-1V4.5z"/>
<path d="M26.9,6.5h-9.2l-0.4-1.9l9.6-4.1V6.5z M22.7,4.5h2.3v-1L22.7,4.5z"/>
</svg>
