<svg width="35" height="49" viewBox="0 0 35 49" fill="none" xmlns="http://www.w3.org/2000/svg">
<path d="M34 2V1H33H2H1V2V47V48H2H33H34V47V2Z" stroke="black" stroke-width="2" stroke-linecap="round"/>
<line x1="8.22656" y1="7.09375" x2="16.0678" y2="7.09375" stroke="black" stroke-width="2" stroke-linecap="square"/>
<line x1="8.22656" y1="30.8828" x2="16.0678" y2="30.8828" stroke="black" stroke-width="2" stroke-linecap="square"/>
<line x1="8.22656" y1="13.1875" x2="27.3853" y2="13.1875" stroke="black" stroke-width="2" stroke-linecap="square"/>
<line x1="8.22656" y1="18.9297" x2="27.1393" y2="18.9297" stroke="black" stroke-width="2" stroke-linecap="square"/>
<line x1="8.22656" y1="24.9062" x2="27.1393" y2="24.9062" stroke="black" stroke-width="2" stroke-linecap="square"/>
<path d="M29.2298 37.8594C29.2298 40.0125 27.3831 41.8398 25.0016 41.8398C22.6202 41.8398 20.7734 40.0125 20.7734 37.8594C20.7734 35.7062 22.6202 33.8789 25.0016 33.8789C27.3831 33.8789 29.2298 35.7062 29.2298 37.8594Z" stroke="black" stroke-width="2"/>
</svg>
