<svg width="20" height="20" viewBox="0 0 20 20" fill="none" xmlns="http://www.w3.org/2000/svg">
<path d="M20 12.1809V7.82505H18.0601C17.8697 7.12288 17.596 6.46236 17.2389 5.8435L18.6135 4.46891L15.5311 1.38649L14.1565 2.76108C13.5436 2.41 12.8771 2.13032 12.1749 1.9399V0H7.8191V1.9399C7.11693 2.13032 6.45641 2.40405 5.83755 2.76108L4.46891 1.38649L1.38649 4.46891L2.76108 5.8435C2.41 6.45641 2.13032 7.12288 1.9399 7.82505H0V12.1809H1.9399C2.13032 12.8831 2.40405 13.5436 2.76108 14.1625L1.38649 15.5311L4.46891 18.6135L5.8435 17.2389C6.45641 17.59 7.12288 17.8697 7.82505 18.0601V20H12.1809V18.0601C12.8831 17.8697 13.5436 17.596 14.1625 17.2389L15.537 18.6135L18.6195 15.5311L17.2449 14.1565C17.596 13.5436 17.8756 12.8771 18.0661 12.1749H20V12.1809ZM10.003 13.133C8.27135 13.133 6.87295 11.7287 6.87295 10.003C6.87295 8.2773 8.2773 6.87295 10.003 6.87295C11.7346 6.87295 13.133 8.2773 13.133 10.003C13.133 11.7287 11.7287 13.133 10.003 13.133Z" fill="black"/>
</svg>