<?xml version="1.0" encoding="utf-8"?>
<!-- Generator: Adobe Illustrator 26.2.1, SVG Export Plug-In . SVG Version: 6.00 Build 0)  -->
<svg version="1.1" id="Слой_1" xmlns="http://www.w3.org/2000/svg" xmlns:xlink="http://www.w3.org/1999/xlink" x="0px" y="0px"
	 viewBox="0 0 41 41" style="enable-background:new 0 0 41 41;" xml:space="preserve">
<path d="M20.3,28.9c-2.7,0-5.1-2.3-5.1-5.1v-1h2v1c0,1.7,1.4,3.1,3.1,3.1s3.1-1.4,3.1-3.1v-1h2v1C25.3,26.5,23,28.9,20.3,28.9z"/>
<path d="M20.1,40.1c-11,0-20-9-20-20c0-11,9-20,20-20c11,0,20,9,20,20C40.1,31.1,31.2,40.1,20.1,40.1z M20.1,2.1
	c-9.9,0-18,8.1-18,18c0,9.9,8.1,18,18,18c9.9,0,18-8.1,18-18C38.1,10.2,30.1,2.1,20.1,2.1z"/>
<rect x="9.5" y="18.1" width="2" height="4"/>
<rect x="28" y="19.1" width="4" height="2"/>
</svg>
