<svg width="35" height="47" viewBox="0 0 35 47" fill="none" xmlns="http://www.w3.org/2000/svg">
<path fill-rule="evenodd" clip-rule="evenodd" d="M11.3665 1.73271C11.3947 1.56642 11.5248 1.35706 11.6861 1.2182C11.7882 1.13027 11.8689 1.05746 11.9631 1.02245C12.3704 0.871036 13.0285 1.42627 16.7465 4.52192C19.0249 6.41904 20.9532 7.98833 21.0313 8.00924C21.1096 8.03016 23.4753 7.38997 26.2886 6.58665C29.8525 5.56887 31.4712 5.14331 31.6263 5.18312C31.9157 5.25748 32.2778 5.70159 32.2778 5.98231C32.2778 6.10351 31.4023 8.56252 30.3322 11.4467C29.2621 14.331 28.3869 16.7304 28.3873 16.7787C28.3877 16.8271 29.6497 18.995 31.1917 21.5963C33.7143 25.8517 34.1567 26.5843 33.9582 26.9801C33.9129 27.0704 33.8342 27.1432 33.7392 27.2363C33.694 27.2806 33.6606 27.3189 33.622 27.3507C33.3835 27.5472 32.9488 27.4942 28.3272 27.0668C25.9418 26.8462 23.8613 26.656 23.704 26.6441L23.418 26.6225L22.1489 30.2699C21.4509 32.276 20.8529 34.2501 20.82 34.3568H20.7602H23.3489H26.3519V34.6035C26.3519 34.6035 26.3519 34.8919 26.3519 36.3393V37.8289H27.318C28.4715 37.8292 29.0142 37.8289 29.0142 37.8289C29.0688 38.0299 29.014 39.9161 29.0142 41.5419V44.2445H29.9771V46.0024H17.7206H5.19386V45.7558C5.19386 45.7558 5.20168 45.4373 5.19386 45.1323C5.1857 44.8114 5.19386 44.2445 5.19386 44.2445H6.42705V41.5419C6.42731 39.9161 6.37252 38.7061 6.42705 38.5051V37.8289H9.08942V36.3393C9.08942 34.8919 9.08942 34.6035 9.08942 34.6035V34.3568H12.1736C13.6422 34.3428 14.8436 34.3953 14.8436 34.3568C14.8436 34.2512 11.6795 24.1794 11.603 24.0446C11.5666 23.9803 10.2615 23.4152 8.70278 22.7889C1.3689 19.8416 1.27117 19.8002 1.13333 19.5849C0.932104 19.2706 0.962334 18.7825 1.19911 18.5247C1.38599 18.321 2.94313 17.2984 3.57686 16.9629C3.95509 16.7629 4.39636 16.9012 4.62987 17.2931C4.94875 17.8283 4.80318 18.2352 4.14214 18.6562L3.76357 18.8974L8.20861 20.6793C11.5601 22.0228 12.7075 22.5199 12.8728 22.7001C13.0312 22.8726 13.2936 23.5725 13.8175 25.2189C14.2165 26.4728 15.0284 29.0221 15.6216 30.8838L16.7002 34.3568H17.8086H18.917L20.4709 29.7865C21.6277 26.4493 22.0823 25.2423 22.2504 25.0624C22.5515 24.7401 22.65 24.7427 27.5327 25.2019C29.7174 25.4074 31.5048 25.567 31.5048 25.5567C31.5048 25.5463 30.3956 23.6659 29.04 21.378C27.6842 19.0901 26.5603 17.1174 26.5422 16.9942C26.5214 16.8527 27.1434 15.0589 28.232 12.1215C29.1795 9.56464 29.9387 7.45632 29.9192 7.43629C29.8997 7.41625 27.8484 7.98085 25.3608 8.69084C22.5193 9.50189 20.7631 9.96253 20.6368 9.93009C20.5263 9.90171 18.769 8.49053 16.732 6.79416C14.6949 5.09778 13.0118 3.7266 12.9918 3.74707C12.9717 3.76755 12.826 5.90444 12.668 8.49563C12.4355 12.3064 12.3543 13.2478 12.2433 13.4212C12.054 13.7169 10.8276 14.4496 10.5221 14.4496C10.1697 14.4496 9.6906 13.9449 9.6906 13.5737C9.6906 13.1759 9.80036 13.0145 10.2891 12.6936C10.629 12.4703 10.7212 12.3602 10.7214 12.1773C10.7217 11.7002 11.3207 2.00209 11.3665 1.73271ZM7.07281 16.5233C6.40627 16.3521 6.18066 15.4684 6.69132 15.0287C7.3983 14.4199 8.3747 15.1223 8.02207 15.986C7.87074 16.3567 7.41917 16.6122 7.07281 16.5233ZM24.6342 37.8289V36.9496V36.0707H17.7206H10.8071V36.9496V37.8289H17.7206H24.6342ZM10.0341 44.2445H11.8377H17.7206H21.886H25.4071H27.2107V41.9154V39.5863H25.4071H23.6036H17.7206H13.5553H10.0341H8.23059V41.9154V44.2445H10.0341Z" fill="black" stroke="black" stroke-width="0.3"/>
</svg>
