<svg width="16" height="25" viewBox="0 0 16 25" fill="none" xmlns="http://www.w3.org/2000/svg">
<path fill-rule="evenodd" clip-rule="evenodd" d="M8.23674 11.7333C1.17972 11.7333 0.807057 18.7753 0.807057 18.7753V24.7293H15.6625V18.7753C15.6625 18.7753 15.2938 11.7333 8.23674 11.7333ZM8.21513 13.6849C3.06126 13.6849 2.7891 18.593 2.7891 18.593V22.7427H13.6383V18.593C13.6383 18.593 13.369 13.6849 8.21513 13.6849Z" fill="black"/>
<path fill-rule="evenodd" clip-rule="evenodd" d="M8.25206 11.9078C11.3995 11.9078 13.951 9.35627 13.951 6.20884C13.951 3.06141 11.3995 0.509918 8.25206 0.509918C5.10463 0.509918 2.55314 3.06141 2.55314 6.20884C2.55314 9.35627 5.10463 11.9078 8.25206 11.9078ZM8.23673 9.93921C10.297 9.93921 11.9671 8.26907 11.9671 6.20884C11.9671 4.14861 10.297 2.47847 8.23673 2.47847C6.1765 2.47847 4.50636 4.14861 4.50636 6.20884C4.50636 8.26907 6.1765 9.93921 8.23673 9.93921Z" fill="black"/>
</svg>
