<svg width="86" height="68" viewBox="0 0 86 68" fill="none" xmlns="http://www.w3.org/2000/svg">
<path d="M76.6318 -63H42.9263H21.9632C10.3718 -63 1 -53.6282 1 -42.0368C1 -30.4454 10.3718 -21.0737 21.9632 -21.0737H42.9263H63.8895C75.4809 -21.0737 84.8527 -11.7019 84.8527 -0.1105C84.8527 11.4809 75.4809 20.8527 63.8895 20.8527H42.9263H21.9632C10.3718 20.8527 1 30.2244 1 41.8158C1 53.4072 10.3718 62.779 21.9632 62.779H42.9263H76.6318" stroke="black" stroke-width="2" stroke-miterlimit="3"/>
<path d="M80.7423 67.0001C83.0124 67.0001 84.8527 65.1598 84.8527 62.8897C84.8527 60.6196 83.0124 58.7793 80.7423 58.7793C78.4721 58.7793 76.6318 60.6196 76.6318 62.8897C76.6318 65.1598 78.4721 67.0001 80.7423 67.0001Z" stroke="black" stroke-width="2" stroke-miterlimit="3"/>
</svg>
