<svg width="326" height="469" viewBox="0 0 326 469" fill="none" xmlns="http://www.w3.org/2000/svg">
    <path d="M254.091 383.242H71.7591C68.4061 383.242 65.6312 380.456 65.6312 377.09V244.198C65.6312 240.832 68.4061 238.047 71.7591 238.047H254.091C257.444 238.047 260.219 240.832 260.219 244.198V377.206C260.219 380.572 257.56 383.242 254.091 383.242Z" stroke="black" stroke-miterlimit="10"/>
    <path d="M65.6312 250.35H260.219" stroke="black" stroke-miterlimit="10"/>
    <path d="M243.801 245.708C244.695 245.708 245.419 244.98 245.419 244.083C245.419 243.186 244.695 242.458 243.801 242.458C242.907 242.458 242.182 243.186 242.182 244.083C242.182 244.98 242.907 245.708 243.801 245.708Z" stroke="black" stroke-miterlimit="10"/>
    <path d="M235.361 245.708C236.255 245.708 236.979 244.98 236.979 244.083C236.979 243.186 236.255 242.458 235.361 242.458C234.467 242.458 233.742 243.186 233.742 244.083C233.742 244.98 234.467 245.708 235.361 245.708Z" stroke="black" stroke-miterlimit="10"/>
    <path d="M252.241 245.708C253.135 245.708 253.86 244.98 253.86 244.083C253.86 243.186 253.135 242.458 252.241 242.458C251.347 242.458 250.622 243.186 250.622 244.083C250.622 244.98 251.347 245.708 252.241 245.708Z" stroke="black" stroke-miterlimit="10"/>
    <path d="M79.7367 266.018V265.902C79.8523 265.902 79.8523 266.018 79.9679 266.018C80.0836 266.018 80.0836 266.018 80.0836 266.018L80.1992 265.902V265.786L80.0836 265.67C79.8523 265.554 79.8523 265.554 79.8523 265.322C79.8523 265.206 79.8523 265.206 79.9679 265.09C80.0836 265.09 80.0836 264.974 80.1992 264.974C80.3148 264.974 80.4304 264.974 80.4304 264.974V265.09C80.4304 265.09 80.3148 265.09 80.1992 265.09C80.0836 265.09 80.0836 265.09 80.0836 265.09V265.206V265.322L80.1992 265.438C80.3148 265.438 80.3148 265.554 80.4304 265.554C80.4304 265.554 80.546 265.67 80.546 265.786C80.546 265.902 80.546 265.902 80.4304 266.018C80.3148 266.134 80.3148 266.134 80.1992 266.134H80.0836C79.8523 266.018 79.8523 266.018 79.7367 266.018Z" fill="black"/>
    <path d="M80.7773 266.018V264.974C80.893 264.974 80.893 264.974 81.0086 264.974C81.1242 264.974 81.2398 264.974 81.3554 265.09C81.4711 265.09 81.4711 265.206 81.4711 265.322C81.4711 265.438 81.4711 265.438 81.3554 265.554C81.2398 265.67 81.1242 265.67 81.0086 265.67H80.893V266.134L80.7773 266.018ZM80.893 265.09V265.554H81.0086C81.1242 265.554 81.1242 265.554 81.2398 265.438L81.3554 265.322C81.3554 265.206 81.3554 265.206 81.2398 265.206C81.2398 265.206 81.1242 265.206 81.0086 265.206C81.0086 265.09 81.0086 265.09 80.893 265.09Z" fill="black"/>
    <path d="M82.2804 265.67H81.9335L81.8179 266.018H81.7023L82.0491 264.974H82.1647L82.5116 266.018H82.396L82.2804 265.67ZM81.9335 265.554H82.2804L82.1647 265.206C82.1647 265.206 82.1647 265.09 82.1647 264.974C82.1647 265.09 82.1647 265.09 82.1647 265.206L81.9335 265.554Z" fill="black"/>
    <path d="M83.5522 265.902C83.5522 266.018 83.4365 266.018 83.3209 266.018C83.2053 266.018 83.0897 266.018 82.9741 265.902C82.8585 265.786 82.8585 265.67 82.8585 265.554C82.8585 265.438 82.8585 265.206 82.9741 265.09C83.0897 264.974 83.2053 264.974 83.4366 264.974C83.5522 264.974 83.6678 264.974 83.6678 264.974V265.09C83.5522 265.09 83.5522 265.09 83.4366 265.09C83.3209 265.09 83.2053 265.09 83.0897 265.206C82.9741 265.322 82.9741 265.438 82.9741 265.554C82.9741 265.67 82.9741 265.786 83.0897 265.902C83.2053 266.018 83.2053 266.018 83.4366 266.018C83.4366 265.902 83.4366 265.902 83.5522 265.902Z" fill="black"/>
    <path d="M84.4771 265.438V265.554H84.0146V265.902H84.4771V266.018H83.899V264.974H84.4771V265.09H84.0146V265.438H84.4771Z" fill="black"/>
    <path d="M80.1992 263.698C80.3148 263.698 80.5461 263.698 80.6617 263.698C80.7773 263.698 81.0086 263.698 81.1242 263.698V260.332H79.8524C79.8524 260.448 79.8524 260.564 79.8524 260.68C79.8524 260.68 79.8524 260.796 79.8524 260.912C79.8524 261.028 79.8524 261.028 79.8524 261.144H80.1992V263.698Z" fill="black"/>
    <path d="M80.3149 259.867C80.4305 259.867 80.4305 259.867 80.5461 259.867C80.6617 259.867 80.6617 259.867 80.7773 259.867C80.893 259.867 80.8929 259.867 81.0086 259.867C81.0086 259.751 81.0086 259.751 81.0086 259.635C81.0086 259.519 81.0086 259.519 81.0086 259.403C81.0086 259.287 81.0086 259.287 81.0086 259.171C81.0086 259.055 81.0086 259.055 81.0086 258.938C80.8929 258.938 80.893 258.938 80.7773 258.938C80.6617 258.938 80.6617 258.938 80.5461 258.938C80.4305 258.938 80.4305 258.938 80.3149 258.938C80.1992 258.938 80.1992 258.938 80.0836 258.938C80.0836 259.055 80.0836 259.287 80.0836 259.403C80.0836 259.519 80.0836 259.635 80.0836 259.867C80.0836 259.867 80.1992 259.867 80.3149 259.867Z" fill="black"/>
    <path d="M82.5116 263.697V261.956C82.5116 261.724 82.5116 261.608 82.5116 261.492C82.5116 261.376 82.6272 261.26 82.6272 261.26C82.7428 261.144 82.7428 261.144 82.8585 261.144C82.9741 261.144 82.9741 261.144 83.0897 261.144C83.3209 261.144 83.4366 261.26 83.4366 261.376C83.5522 261.492 83.5522 261.724 83.5522 261.956V263.813C83.6678 263.813 83.899 263.813 84.0147 263.813C84.1303 263.813 84.3615 263.813 84.4771 263.813V261.724C84.4771 261.26 84.3615 260.912 84.2459 260.795C84.0147 260.563 83.7834 260.447 83.4366 260.447C83.3209 260.447 83.2053 260.447 83.0897 260.447C82.9741 260.447 82.8585 260.563 82.8585 260.563C82.7428 260.563 82.7428 260.679 82.6272 260.679C82.5116 260.795 82.5116 260.795 82.5116 260.912V260.795V260.679V260.563V260.447C82.396 260.447 82.396 260.447 82.396 260.447C82.396 260.447 82.2804 260.447 82.1647 260.447C82.0491 260.447 82.0491 260.447 81.9335 260.447C81.8179 260.447 81.8179 260.447 81.7023 260.447V263.813C81.8179 263.813 82.0491 263.813 82.1647 263.813C82.1647 263.813 82.396 263.697 82.5116 263.697Z" fill="black"/>
    <path d="M87.8301 256.733H76.4994V268.108H87.8301V256.733Z" stroke="black" stroke-miterlimit="10"/>
    <path d="M215.474 262.537C215.474 260.564 216.977 259.055 218.943 259.055H237.673C239.638 259.055 241.142 260.564 241.142 262.537C241.142 264.51 239.638 266.018 237.673 266.018H218.943C216.977 266.018 215.474 264.51 215.474 262.537Z" fill="black"/>
    <path d="M219.174 263.581V263.348C219.174 263.348 219.289 263.348 219.405 263.348C219.521 263.348 219.636 263.232 219.752 263.232C219.868 263.116 219.983 263 219.983 262.768C219.868 262.884 219.752 263 219.521 263C219.405 263 219.289 263 219.174 262.884C219.058 262.768 219.058 262.652 219.058 262.536C219.058 262.304 219.058 262.188 219.289 262.072C219.405 261.956 219.521 261.84 219.752 261.84C219.983 261.84 220.099 261.956 220.214 262.072C220.33 262.188 220.33 262.42 220.33 262.652C220.33 263 220.214 263.348 219.983 263.464C219.868 263.581 219.636 263.697 219.405 263.697C219.289 263.58 219.174 263.581 219.174 263.581ZM219.521 261.956C219.405 261.956 219.289 261.956 219.289 262.072C219.174 262.188 219.174 262.304 219.174 262.42C219.174 262.536 219.174 262.652 219.289 262.652C219.405 262.768 219.405 262.768 219.521 262.768C219.636 262.768 219.752 262.652 219.868 262.536C219.868 262.536 219.868 262.536 219.868 262.42C219.868 262.304 219.868 262.072 219.752 262.072C219.636 262.072 219.636 261.956 219.521 261.956ZM220.561 263.581V263.348C220.561 263.348 220.677 263.348 220.793 263.348C220.908 263.348 221.024 263.232 221.139 263.232C221.255 263.116 221.371 263 221.371 262.768C221.255 262.884 221.139 263 220.908 263C220.793 263 220.677 263 220.561 262.884C220.446 262.768 220.446 262.652 220.446 262.536C220.446 262.304 220.446 262.188 220.677 262.072C220.793 261.956 220.908 261.84 221.139 261.84C221.371 261.84 221.486 261.956 221.602 262.072C221.717 262.188 221.717 262.42 221.717 262.652C221.717 263 221.602 263.348 221.371 263.464C221.255 263.581 221.024 263.697 220.793 263.697C220.677 263.58 220.561 263.581 220.561 263.581ZM221.024 261.956C220.908 261.956 220.793 261.956 220.793 262.072C220.677 262.188 220.677 262.304 220.677 262.42C220.677 262.536 220.677 262.652 220.793 262.652C220.908 262.768 220.908 262.768 221.024 262.768C221.139 262.768 221.255 262.652 221.371 262.536C221.371 262.536 221.371 262.536 221.371 262.42C221.371 262.304 221.371 262.072 221.255 262.072C221.255 261.956 221.139 261.956 221.024 261.956ZM221.949 263.581V263.348C221.949 263.348 222.064 263.348 222.18 263.348C222.296 263.348 222.411 263.232 222.527 263.232C222.642 263.116 222.758 263 222.758 262.768C222.642 262.884 222.527 263 222.296 263C222.18 263 222.064 263 221.949 262.884C221.833 262.768 221.833 262.652 221.833 262.536C221.833 262.304 221.949 262.188 222.064 262.072C222.18 261.956 222.296 261.84 222.527 261.84C222.758 261.84 222.874 261.956 222.989 262.072C223.105 262.188 223.105 262.42 223.105 262.652C223.105 263 222.989 263.348 222.758 263.464C222.642 263.581 222.411 263.697 222.18 263.697C222.064 263.58 222.064 263.581 221.949 263.581ZM222.411 261.956C222.296 261.956 222.18 261.956 222.18 262.072C222.064 262.188 222.064 262.304 222.064 262.42C222.064 262.536 222.064 262.652 222.18 262.652C222.296 262.768 222.296 262.768 222.411 262.768C222.527 262.768 222.642 262.652 222.758 262.536C222.758 262.536 222.758 262.536 222.758 262.42C222.758 262.304 222.758 262.072 222.642 262.072C222.527 262.072 222.527 261.956 222.411 261.956ZM223.452 263.581V263.348C223.452 263.348 223.567 263.348 223.683 263.348C223.799 263.348 223.914 263.232 224.03 263.232C224.145 263.116 224.261 263 224.261 262.768C224.145 262.884 224.03 263 223.799 263C223.683 263 223.567 263 223.452 262.884C223.336 262.768 223.336 262.652 223.336 262.536C223.336 262.304 223.336 262.188 223.567 262.072C223.683 261.956 223.799 261.84 224.03 261.84C224.261 261.84 224.377 261.956 224.492 262.072C224.608 262.188 224.608 262.42 224.608 262.652C224.608 263 224.492 263.348 224.261 263.464C224.145 263.581 223.914 263.697 223.683 263.697C223.567 263.58 223.452 263.581 223.452 263.581ZM223.799 261.956C223.683 261.956 223.567 261.956 223.567 262.072C223.452 262.188 223.452 262.304 223.452 262.42C223.452 262.536 223.452 262.652 223.567 262.652C223.683 262.768 223.683 262.768 223.799 262.768C223.914 262.768 224.03 262.652 224.145 262.536C224.145 262.536 224.145 262.536 224.145 262.42C224.145 262.304 224.145 262.072 224.03 262.072C224.03 261.956 223.914 261.956 223.799 261.956ZM225.533 263.581H225.302V262.188H225.533V263.581ZM225.417 261.956C225.302 261.84 225.302 261.84 225.302 261.84V261.723H225.417H225.533V261.84C225.649 261.84 225.649 261.956 225.417 261.956C225.533 261.956 225.533 261.956 225.417 261.956ZM225.995 263.581V262.652C225.995 262.536 225.995 262.42 225.995 262.304H226.227V262.536C226.227 262.42 226.342 262.42 226.342 262.304C226.458 262.304 226.458 262.188 226.573 262.188H226.689C226.689 262.188 226.805 262.188 226.805 262.304C226.805 262.304 226.92 262.42 226.92 262.536C226.92 262.652 226.92 262.652 226.92 262.768V263.581H226.689V262.768C226.689 262.652 226.689 262.536 226.573 262.42C226.573 262.304 226.458 262.304 226.342 262.304C226.227 262.304 226.227 262.304 226.111 262.42C225.995 262.42 225.995 262.536 225.995 262.652V262.768V263.581ZM227.614 263.581H227.498V263.464V263.348H227.614H227.73V263.464V263.581C227.73 263.581 227.73 263.581 227.614 263.581ZM229.348 263.348V263.581C229.233 263.697 229.117 263.697 228.886 263.697C228.655 263.697 228.423 263.581 228.192 263.464C228.077 263.348 227.961 263.116 227.961 262.768C227.961 262.42 228.077 262.188 228.192 262.072C228.423 261.84 228.655 261.84 228.886 261.84C229.117 261.84 229.233 261.84 229.348 261.956L229.233 262.188C229.117 262.188 229.002 262.072 228.886 262.072C228.655 262.072 228.539 262.188 228.308 262.304C228.192 262.42 228.077 262.652 228.077 262.884C228.077 263.116 228.192 263.348 228.308 263.464C228.423 263.581 228.655 263.697 228.886 263.697C229.117 263.348 229.233 263.348 229.348 263.348ZM230.389 263.581C230.158 263.581 229.926 263.464 229.811 263.348C229.695 263.116 229.58 262.884 229.58 262.652C229.58 262.304 229.695 262.072 229.811 261.956C229.926 261.723 230.158 261.723 230.389 261.723C230.62 261.723 230.851 261.84 230.967 261.956C231.083 262.188 231.198 262.304 231.198 262.652C231.198 263 231.083 263.232 230.967 263.348C230.851 263.464 230.62 263.581 230.389 263.581ZM230.389 263.464C230.62 263.464 230.736 263.348 230.851 263.232C230.967 263.116 230.967 262.884 230.967 262.652C230.967 262.42 230.967 262.304 230.851 262.072C230.736 261.956 230.62 261.84 230.389 261.84C230.158 261.84 230.042 261.956 229.926 262.072C229.811 262.188 229.811 262.42 229.811 262.652C229.811 262.884 229.811 263 229.926 263.232C230.042 263.348 230.273 263.464 230.389 263.464ZM231.545 261.723H231.776V263.581H231.545V261.723ZM232.47 263.581H232.239V261.723H232.47L233.048 262.652C233.164 262.884 233.279 263.116 233.395 263.232C233.395 263 233.395 262.768 233.395 262.42V261.607H233.626V263.464H233.395L232.817 262.536C232.701 262.304 232.586 262.072 232.47 261.956C232.47 262.188 232.47 262.42 232.47 262.768V263.581Z" fill="white"/>
    <path d="M185.529 262.537C185.529 260.564 187.032 259.055 188.997 259.055H208.768C210.734 259.055 212.237 260.564 212.237 262.537C212.237 264.51 210.734 266.018 208.768 266.018H188.997C187.147 266.018 185.529 264.51 185.529 262.537Z" fill="#F1F1F1"/>
    <path d="M190.269 263.581H189.113V263.464L189.344 263.232C189.575 263 189.807 262.768 189.922 262.652C190.038 262.536 190.038 262.42 190.038 262.304C190.038 262.188 190.038 262.072 189.922 262.072C189.922 261.956 189.807 261.956 189.691 261.956C189.575 261.956 189.46 261.956 189.344 262.072L189.228 261.956C189.344 261.84 189.575 261.723 189.691 261.723C189.922 261.723 190.038 261.723 190.153 261.84C190.269 261.956 190.269 262.072 190.269 262.188C190.269 262.304 190.269 262.536 190.153 262.652C190.038 262.768 189.922 263 189.691 263.232L189.575 263.348H190.385V263.581H190.269ZM191.078 263.581C190.847 263.581 190.731 263.464 190.616 263.348C190.5 263.232 190.5 263 190.5 262.652C190.5 262.304 190.5 262.072 190.616 261.956C190.731 261.84 190.847 261.723 191.078 261.723C191.31 261.723 191.425 261.84 191.541 261.956C191.656 262.072 191.656 262.304 191.656 262.652C191.656 263 191.656 263.232 191.541 263.348C191.425 263.58 191.31 263.581 191.078 263.581ZM191.078 263.464C191.194 263.464 191.31 263.348 191.31 263.232C191.425 263.116 191.425 262.884 191.425 262.652C191.425 262.42 191.425 262.188 191.31 262.072C191.194 261.956 191.194 261.84 191.078 261.84C190.963 261.84 190.847 261.956 190.847 262.072C190.731 262.188 190.731 262.42 190.731 262.652C190.731 262.884 190.731 263.116 190.847 263.232C190.963 263.348 190.963 263.464 191.078 263.464ZM192.581 263.581C192.35 263.581 192.235 263.464 192.119 263.348C192.003 263.232 192.003 263 192.003 262.652C192.003 262.304 192.003 262.072 192.119 261.956C192.235 261.84 192.35 261.723 192.581 261.723C192.813 261.723 192.928 261.84 193.044 261.956C193.159 262.072 193.159 262.304 193.159 262.652C193.159 263 193.159 263.232 193.044 263.348C192.928 263.58 192.697 263.581 192.581 263.581ZM192.581 263.464C192.697 263.464 192.813 263.348 192.813 263.232C192.928 263.116 192.928 262.884 192.928 262.652C192.928 262.42 192.928 262.188 192.813 262.072C192.697 261.956 192.697 261.84 192.581 261.84C192.466 261.84 192.35 261.956 192.35 262.072C192.235 262.188 192.235 262.42 192.235 262.652C192.235 262.884 192.235 263.116 192.35 263.232C192.35 263.348 192.466 263.464 192.581 263.464ZM193.969 263.581C193.738 263.581 193.622 263.464 193.506 263.348C193.391 263.232 193.391 263 193.391 262.652C193.391 262.304 193.391 262.072 193.506 261.956C193.622 261.84 193.738 261.723 193.969 261.723C194.2 261.723 194.316 261.84 194.431 261.956C194.547 262.072 194.547 262.304 194.547 262.652C194.547 263 194.547 263.232 194.431 263.348C194.316 263.464 194.2 263.581 193.969 263.581ZM193.969 263.464C194.084 263.464 194.2 263.348 194.2 263.232C194.316 263.116 194.316 262.884 194.316 262.652C194.316 262.42 194.316 262.188 194.2 262.072C194.084 261.956 194.084 261.84 193.969 261.84C193.853 261.84 193.738 261.956 193.738 262.072C193.622 262.188 193.622 262.42 193.622 262.652C193.622 262.884 193.622 263.116 193.738 263.232C193.738 263.348 193.853 263.464 193.969 263.464ZM195.703 263.581H195.472V262.188H195.703V263.581ZM195.587 261.956C195.587 261.956 195.472 261.956 195.587 261.956C195.472 261.84 195.472 261.84 195.472 261.84V261.723H195.587H195.703V261.84C195.703 261.84 195.703 261.956 195.587 261.956C195.703 261.956 195.587 261.956 195.587 261.956ZM196.166 263.581V262.652C196.166 262.536 196.166 262.42 196.166 262.304H196.397V262.536C196.397 262.42 196.512 262.42 196.512 262.304C196.628 262.304 196.628 262.188 196.744 262.188H196.859C196.859 262.188 196.975 262.188 196.975 262.304C196.975 262.304 197.091 262.42 197.091 262.536C197.091 262.652 197.091 262.652 197.091 262.768V263.581H196.975V262.768C196.975 262.652 196.975 262.536 196.859 262.42C196.744 262.304 196.744 262.304 196.628 262.304C196.512 262.304 196.512 262.304 196.397 262.42C196.281 262.42 196.281 262.536 196.281 262.652V262.768V263.581H196.166ZM197.784 263.581H197.669V263.464V263.348H197.784H197.9V263.464V263.581H197.784ZM199.519 263.348V263.581C199.403 263.697 199.287 263.697 199.056 263.697C198.825 263.697 198.594 263.581 198.362 263.464C198.247 263.348 198.131 263.116 198.131 262.768C198.131 262.42 198.247 262.188 198.362 262.072C198.594 261.84 198.825 261.84 199.056 261.84C199.287 261.84 199.403 261.84 199.519 261.956L199.403 262.188C199.287 262.188 199.172 262.072 199.056 262.072C198.825 262.072 198.709 262.188 198.478 262.304C198.362 262.42 198.247 262.652 198.247 262.884C198.247 263.116 198.362 263.348 198.478 263.464C198.594 263.581 198.825 263.697 199.056 263.697C199.287 263.348 199.403 263.348 199.519 263.348ZM200.559 263.581C200.328 263.581 200.097 263.464 199.981 263.348C199.865 263.116 199.75 262.884 199.75 262.652C199.75 262.304 199.865 262.072 199.981 261.956C200.097 261.723 200.328 261.723 200.559 261.723C200.79 261.723 201.022 261.84 201.137 261.956C201.253 262.188 201.368 262.304 201.368 262.652C201.368 263 201.253 263.232 201.137 263.348C201.022 263.464 200.79 263.581 200.559 263.581ZM200.559 263.464C200.79 263.464 200.906 263.348 201.022 263.232C201.137 263.116 201.137 262.884 201.137 262.652C201.137 262.42 201.137 262.304 201.022 262.072C200.906 261.956 200.79 261.84 200.559 261.84C200.328 261.84 200.212 261.956 200.097 262.072C199.981 262.188 199.981 262.42 199.981 262.652C199.981 262.884 199.981 263 200.097 263.232C200.212 263.348 200.328 263.464 200.559 263.464ZM201.715 261.723H201.947V263.581H201.715V261.723ZM202.64 263.581H202.409V261.723H202.64L203.218 262.652C203.334 262.884 203.45 263.116 203.565 263.232C203.565 263 203.565 262.768 203.565 262.42V261.607H203.796V263.464H203.565L202.987 262.536C202.872 262.304 202.756 262.072 202.64 261.956C202.64 262.188 202.64 262.42 202.64 262.768V263.581Z" fill="black"/>
    <path fill-rule="evenodd" clip-rule="evenodd" d="M205.878 260.448C205.878 260.448 205.878 260.564 205.878 260.68V260.796H205.646H205.415C205.415 260.796 205.415 261.144 205.415 261.377C205.531 261.609 205.646 261.841 205.993 262.073C205.993 262.073 206.109 262.073 206.109 262.189C206.224 262.305 206.225 262.421 206.34 262.537C206.456 262.653 206.571 262.769 206.803 262.769C206.803 262.769 206.803 262.769 206.918 262.769C206.918 262.769 206.918 262.885 206.918 263.118V263.466H206.687C206.456 263.466 206.456 263.466 206.456 263.466C206.456 263.466 206.456 263.466 206.456 263.698V263.814H206.34C206.225 263.814 206.224 263.814 206.109 263.814C206.109 263.814 206.109 263.814 206.109 264.162V264.51H205.762C205.531 264.51 205.415 264.51 205.415 264.51V264.626C205.415 264.626 205.531 264.626 207.265 264.626C208.999 264.626 208.999 264.626 209.115 264.626V264.51C209.115 264.51 209.115 264.51 208.653 264.51H208.306V264.162C208.306 263.93 208.306 263.814 208.306 263.814H208.19H208.074V263.582C208.074 263.466 208.074 263.35 208.074 263.35C208.074 263.35 208.074 263.35 207.843 263.35H207.612V263.001V262.653H207.728C207.843 262.537 207.959 262.537 208.19 262.421C208.306 262.305 208.306 262.189 208.421 262.073C208.421 262.073 208.421 262.073 208.537 261.957C208.768 261.841 208.884 261.609 208.999 261.377C209.115 261.261 209.115 261.028 209.115 260.912C209.115 260.68 209.115 260.68 208.884 260.68H208.653V260.564C208.653 260.448 208.653 260.448 208.653 260.332H207.496C206.34 260.448 205.878 260.448 205.878 260.448ZM208.19 260.68C208.19 260.796 208.19 261.144 208.19 261.261C208.19 261.493 208.074 261.725 208.074 261.841C208.074 261.957 207.959 262.073 207.843 262.189C207.728 262.421 207.496 262.537 207.265 262.653C207.265 262.653 207.149 262.653 207.149 262.769C207.149 262.769 207.149 262.885 207.149 263.118V263.466H207.034H206.918V263.118C206.918 262.769 206.918 262.769 206.918 262.769C206.918 262.769 206.918 262.653 206.803 262.653C206.34 262.537 205.993 261.957 205.993 261.261C205.993 261.144 205.993 260.796 205.993 260.68H207.149H208.19ZM207.034 260.912C207.034 260.912 207.034 261.028 206.918 261.144C206.918 261.261 206.803 261.261 206.803 261.261C206.803 261.261 206.687 261.261 206.571 261.261C206.456 261.261 206.34 261.261 206.34 261.261C206.34 261.261 206.34 261.261 206.34 261.377C206.34 261.377 206.456 261.493 206.571 261.609V261.841C206.571 261.957 206.571 262.073 206.571 262.073C206.571 262.073 206.571 262.073 206.687 262.073C206.687 262.073 206.803 262.073 206.918 261.957C207.034 261.957 207.034 261.841 207.149 261.841C207.149 261.841 207.265 261.841 207.265 261.957C207.381 262.073 207.496 262.073 207.496 262.073C207.496 262.073 207.496 261.957 207.496 261.841V261.609C207.612 261.493 207.728 261.377 207.728 261.377V261.261C207.728 261.261 207.612 261.261 207.496 261.261C207.381 261.261 207.265 261.261 207.265 261.261C207.265 261.261 207.265 261.144 207.149 261.144C207.149 260.912 207.149 260.912 207.034 260.912C207.149 260.912 207.149 260.912 207.034 260.912ZM205.878 261.028C205.878 261.261 205.878 261.377 205.878 261.377C205.878 261.493 205.993 261.725 205.993 261.725V261.841L205.878 261.725C205.762 261.493 205.646 261.261 205.646 261.028V260.912H205.762L205.878 261.028ZM208.653 261.028C208.653 261.377 208.537 261.609 208.306 261.725L208.19 261.841C208.306 261.725 208.306 261.261 208.306 261.144V261.028H208.421H208.653ZM207.149 261.261C207.149 261.377 207.265 261.377 207.265 261.377H207.381H207.496L207.381 261.493C207.265 261.609 207.265 261.609 207.265 261.725C207.265 261.841 207.265 261.841 207.265 261.841C207.265 261.841 207.265 261.841 207.149 261.841C207.034 261.841 207.034 261.725 207.034 261.725C207.034 261.725 206.918 261.725 206.918 261.841C206.803 261.957 206.803 261.957 206.803 261.841C206.803 261.725 206.803 261.609 206.803 261.609C206.803 261.609 206.803 261.493 206.687 261.493L206.571 261.377H206.687C206.803 261.377 206.803 261.377 206.803 261.377C206.803 261.377 206.803 261.261 206.918 261.261C206.918 261.144 207.034 261.144 207.034 261.144C207.034 261.028 207.149 261.144 207.149 261.261ZM207.612 263.698V263.814H207.034H206.456V263.698V263.582H207.034H207.612V263.698ZM207.959 264.278V264.51H207.034H206.224V264.278V264.046H207.149H208.074V264.278H207.959Z" fill="black"/>
    <path d="M93.9579 266.018C95.8736 266.018 97.4265 264.46 97.4265 262.537C97.4265 260.614 95.8736 259.055 93.9579 259.055C92.0423 259.055 90.4893 260.614 90.4893 262.537C90.4893 264.46 92.0423 266.018 93.9579 266.018Z" fill="black"/>
    <path d="M94.3048 261.957C94.3048 262.073 94.3048 262.189 94.1892 262.189C94.3048 262.189 94.3048 262.189 94.4204 262.189C94.7673 262.189 95.1141 261.84 95.1141 261.492C95.1141 261.144 94.7673 260.796 94.4204 260.796C94.0736 260.796 93.8423 261.028 93.7267 261.26C93.9579 261.26 94.3048 261.608 94.3048 261.957Z" stroke="white" stroke-width="0.5" stroke-miterlimit="8" stroke-linecap="square"/>
    <path d="M93.7267 261.144C93.6111 261.144 93.6111 261.144 93.4955 261.144C93.1486 261.144 92.8018 261.492 92.8018 261.84C92.8018 262.188 93.1486 262.536 93.4955 262.536C93.8423 262.536 94.0736 262.304 94.1892 262.072C94.1892 261.956 94.3048 261.84 94.3048 261.84C94.3048 261.608 93.9579 261.26 93.7267 261.144Z" stroke="white" stroke-width="0.5" stroke-miterlimit="8" stroke-linecap="square"/>
    <path d="M94.4204 262.537C94.0736 262.537 93.8423 262.653 93.6111 263.001C94.1892 263.001 94.536 263.466 94.536 264.046V264.278H95.3454V263.466C95.3454 262.885 94.8829 262.537 94.4204 262.537Z" stroke="white" stroke-width="0.5" stroke-miterlimit="8" stroke-linecap="square"/>
    <path d="M93.6111 262.885C93.4955 262.885 93.4955 262.885 93.6111 262.885C93.033 262.885 92.5705 263.349 92.5705 263.929V264.626H94.536V264.161V263.929C94.536 263.349 94.0736 262.885 93.6111 262.885Z" stroke="white" stroke-width="0.5" stroke-miterlimit="8" stroke-linecap="square"/>
    <path d="M238.714 266.018C240.629 266.018 242.182 264.46 242.182 262.537C242.182 260.614 240.629 259.055 238.714 259.055C236.798 259.055 235.245 260.614 235.245 262.537C235.245 264.46 236.798 266.018 238.714 266.018Z" fill="#F1F1F1"/>
    <path d="M238.714 262.188C239.176 262.188 239.523 261.84 239.523 261.376C239.523 260.912 239.176 260.563 238.714 260.563C238.251 260.563 237.904 260.912 237.904 261.376C237.789 261.84 238.251 262.188 238.714 262.188Z" stroke="black" stroke-width="0.5" stroke-miterlimit="8" stroke-linecap="square"/>
    <path d="M238.714 262.537C238.135 262.537 237.557 263.001 237.557 263.698V264.51H239.754V263.698C239.754 263.001 239.292 262.537 238.714 262.537Z" stroke="black" stroke-width="0.5" stroke-miterlimit="8" stroke-linecap="square"/>
    <path d="M110.607 262.537C110.607 260.564 112.11 259.055 114.076 259.055H178.823C180.788 259.055 182.291 260.564 182.291 262.537C182.291 264.51 180.788 266.018 178.823 266.018H114.076C112.226 266.018 110.607 264.51 110.607 262.537Z" fill="#F1F1F1"/>
    <path d="M178.823 263.001L180.094 264.278" stroke="black" stroke-width="0.5" stroke-miterlimit="8" stroke-linecap="square"/>
    <path d="M177.782 263.349C178.591 263.349 179.17 262.769 179.17 261.956C179.17 261.144 178.591 260.563 177.782 260.563C176.973 260.563 176.395 261.144 176.395 261.956C176.395 262.769 176.973 263.349 177.782 263.349Z" stroke="black" stroke-width="0.5" stroke-miterlimit="8" stroke-linecap="square"/>
    <path d="M103.67 266.018C105.586 266.018 107.139 264.46 107.139 262.537C107.139 260.614 105.586 259.055 103.67 259.055C101.754 259.055 100.201 260.614 100.201 262.537C100.201 264.46 101.754 266.018 103.67 266.018Z" fill="#F1F1F1"/>
    <path d="M101.589 261.956C102.167 261.492 102.861 261.144 103.67 261.144C104.479 261.144 105.173 261.492 105.751 261.956" stroke="black" stroke-width="0.5"/>
    <path d="M102.283 262.654C102.629 262.305 103.207 262.073 103.786 262.073C104.364 262.073 104.826 262.305 105.289 262.654" stroke="black" stroke-width="0.5"/>
    <path d="M102.861 263.233C103.092 263.001 103.439 262.885 103.786 262.885C104.132 262.885 104.479 263.001 104.711 263.233" stroke="black" stroke-width="0.5"/>
    <path d="M103.67 264.044C103.798 264.044 103.901 263.94 103.901 263.812C103.901 263.684 103.798 263.58 103.67 263.58C103.542 263.58 103.439 263.684 103.439 263.812C103.439 263.94 103.542 264.044 103.67 264.044Z" fill="black"/>
    <path d="M76.7306 278.786H77.4243V279.598C77.4243 279.947 77.5399 280.063 77.8868 280.063C78.0024 280.063 78.118 280.063 78.3493 279.947V278.67H79.043V281.688H78.3493V280.411C78.118 280.527 77.8868 280.527 77.6556 280.527C77.4243 280.527 77.1931 280.411 76.9618 280.295C76.8462 280.179 76.7306 279.947 76.7306 279.598V278.786ZM80.6617 281.688V279.25H79.8523V278.67H82.0491V279.25H81.2398V281.688H80.6617ZM84.1302 281.804C83.6678 281.804 83.3209 281.688 83.0897 281.339C82.8584 281.107 82.7428 280.643 82.7428 280.295C82.7428 279.831 82.8584 279.482 83.0897 279.134C83.3209 278.786 83.6678 278.67 84.1302 278.67C84.5927 278.67 84.9396 278.786 85.1708 279.134C85.4021 279.366 85.5177 279.714 85.5177 280.179C85.5177 280.643 85.4021 280.991 85.1708 281.339C84.824 281.571 84.4771 281.804 84.1302 281.804ZM84.1302 281.223C84.3615 281.223 84.4771 281.107 84.7083 280.991C84.824 280.759 84.9396 280.527 84.9396 280.295C84.9396 280.063 84.824 279.831 84.7083 279.598C84.5927 279.366 84.3615 279.366 84.2459 279.366C84.0146 279.366 83.899 279.482 83.6678 279.598C83.5521 279.831 83.4365 280.063 83.4365 280.295C83.4365 280.527 83.5521 280.759 83.6678 280.991C83.6678 281.107 83.899 281.223 84.1302 281.223ZM87.9457 278.786H88.6394V279.947H89.68V278.786H90.3737V281.688H89.68V280.411H88.6394V281.688H87.9457V278.786ZM92.6861 281.804C92.2236 281.804 91.8767 281.688 91.6455 281.339C91.4143 281.107 91.2986 280.643 91.2986 280.295C91.2986 279.831 91.4143 279.482 91.6455 279.134C91.8767 278.786 92.2236 278.67 92.6861 278.67C93.1486 278.67 93.4954 278.786 93.7267 279.134C93.9579 279.366 94.0735 279.714 94.0735 280.179C94.0735 280.643 93.9579 280.991 93.7267 281.339C93.4954 281.571 93.1486 281.804 92.6861 281.804ZM92.6861 281.223C92.9173 281.223 93.0329 281.107 93.2642 280.991C93.3798 280.759 93.4954 280.527 93.4954 280.295C93.4954 280.063 93.3798 279.831 93.2642 279.598C93.1486 279.366 92.9173 279.366 92.8017 279.366C92.5705 279.366 92.4548 279.482 92.2236 279.598C92.108 279.831 91.9924 280.063 91.9924 280.295C91.9924 280.527 92.108 280.759 92.2236 280.991C92.3392 281.107 92.4548 281.223 92.6861 281.223ZM95.1141 281.688V278.786C95.3453 278.786 95.5766 278.67 95.9234 278.67C96.2703 278.67 96.6171 278.67 96.7328 278.786C96.964 278.902 97.0796 279.134 97.0796 279.366C97.0796 279.482 97.0796 279.598 96.964 279.714C96.8484 279.831 96.7328 279.947 96.6171 279.947C96.8484 279.947 96.964 280.063 97.0796 280.179C97.1952 280.295 97.1952 280.411 97.1952 280.643C97.1952 280.875 97.0796 281.107 96.8484 281.223C96.6171 281.455 96.2703 281.455 95.6922 281.455C95.5766 281.688 95.3453 281.688 95.1141 281.688ZM95.8078 279.25V279.947H96.039C96.2703 279.947 96.3859 279.947 96.3859 279.831C96.5015 279.714 96.5015 279.714 96.5015 279.598C96.5015 279.366 96.3859 279.25 96.039 279.25C95.9234 279.25 95.8078 279.25 95.8078 279.25ZM95.8078 280.411V281.223C95.8078 281.223 95.9234 281.223 96.039 281.223C96.1547 281.223 96.3859 281.223 96.3859 281.107C96.5015 280.991 96.5015 280.875 96.5015 280.759C96.5015 280.643 96.5015 280.527 96.3859 280.411C96.2703 280.295 96.1547 280.295 95.9234 280.295H95.8078V280.411ZM99.5076 281.804C99.0452 281.804 98.6983 281.688 98.4671 281.339C98.2358 281.107 98.1202 280.643 98.1202 280.295C98.1202 279.831 98.2358 279.482 98.4671 279.134C98.6983 278.786 99.0452 278.67 99.5076 278.67C99.9701 278.67 100.317 278.786 100.548 279.134C100.779 279.366 100.895 279.714 100.895 280.179C100.895 280.643 100.779 280.991 100.548 281.339C100.317 281.571 99.9701 281.804 99.5076 281.804ZM99.5076 281.223C99.7389 281.223 99.8545 281.107 100.086 280.991C100.201 280.759 100.317 280.527 100.317 280.295C100.317 280.063 100.201 279.831 100.086 279.598C99.9701 279.366 99.7389 279.366 99.6233 279.366C99.392 279.366 99.2764 279.482 99.0452 279.598C98.9295 279.831 98.8139 280.063 98.8139 280.295C98.8139 280.527 98.9295 280.759 99.0452 280.991C99.1608 281.107 99.2764 281.223 99.5076 281.223ZM101.936 278.786H103.67V279.366H102.514V281.804H101.82V278.786H101.936ZM105.635 281.804C105.173 281.804 104.826 281.688 104.595 281.339C104.364 281.107 104.248 280.643 104.248 280.295C104.248 279.831 104.364 279.482 104.595 279.134C104.826 278.786 105.173 278.67 105.635 278.67C106.098 278.67 106.445 278.786 106.676 279.134C106.907 279.366 107.023 279.714 107.023 280.179C107.023 280.643 106.907 280.991 106.676 281.339C106.445 281.571 106.098 281.804 105.635 281.804ZM105.751 281.223C105.982 281.223 106.098 281.107 106.329 280.991C106.445 280.759 106.56 280.527 106.56 280.295C106.56 280.063 106.445 279.831 106.329 279.598C106.214 279.366 105.982 279.366 105.867 279.366C105.635 279.366 105.52 279.482 105.289 279.598C105.173 279.831 105.057 280.063 105.057 280.295C105.057 280.527 105.173 280.759 105.289 280.991C105.289 281.107 105.52 281.223 105.751 281.223Z" fill="#C4C4C4"/>
    <path d="M118.585 281.107L118.7 281.688C118.469 281.804 118.238 281.804 118.007 281.804C117.544 281.804 117.082 281.688 116.851 281.339C116.619 281.107 116.504 280.759 116.504 280.295C116.504 279.831 116.619 279.482 116.966 279.134C117.313 278.902 117.66 278.67 118.122 278.67C118.469 278.67 118.7 278.67 118.816 278.786L118.7 279.366C118.585 279.25 118.354 279.25 118.122 279.25C117.891 279.25 117.66 279.366 117.429 279.482C117.313 279.598 117.197 279.831 117.197 280.179C117.197 280.527 117.313 280.759 117.429 280.875C117.544 280.991 117.776 281.107 118.122 281.107C118.238 281.223 118.354 281.223 118.585 281.107ZM121.36 279.947V280.527H120.319V281.223H121.475V281.804H119.625V278.902H121.475V279.482H120.319V280.063H121.36V279.947ZM122.516 281.688V278.786C122.747 278.786 123.094 278.67 123.441 278.67C123.788 278.67 124.135 278.786 124.366 278.902C124.597 279.018 124.713 279.25 124.713 279.598C124.713 279.947 124.597 280.179 124.481 280.295C124.25 280.527 123.903 280.643 123.557 280.643C123.441 280.643 123.441 280.643 123.325 280.643V281.688H122.516ZM123.21 279.25V280.063C123.21 280.063 123.325 280.063 123.441 280.063C123.672 280.063 123.788 280.063 123.903 279.947C124.019 279.831 124.019 279.714 124.019 279.598C124.019 279.482 124.019 279.366 123.903 279.25C123.788 279.134 123.672 279.134 123.557 279.134C123.325 279.25 123.21 279.25 123.21 279.25ZM125.522 281.688V278.786C125.753 278.786 125.985 278.67 126.331 278.67C126.678 278.67 127.025 278.67 127.141 278.786C127.372 278.902 127.488 279.134 127.488 279.366C127.488 279.482 127.488 279.598 127.372 279.714C127.256 279.831 127.141 279.947 127.025 279.947C127.256 279.947 127.372 280.063 127.488 280.179C127.603 280.295 127.603 280.411 127.603 280.643C127.603 280.875 127.488 281.107 127.256 281.223C127.025 281.455 126.678 281.455 126.1 281.455C125.985 281.688 125.753 281.688 125.522 281.688ZM126.216 279.25V279.947H126.447C126.678 279.947 126.794 279.947 126.794 279.831C126.909 279.714 126.909 279.714 126.909 279.598C126.909 279.366 126.794 279.25 126.447 279.25C126.331 279.25 126.331 279.25 126.216 279.25ZM126.216 280.411V281.223C126.216 281.223 126.331 281.223 126.447 281.223C126.563 281.223 126.794 281.223 126.794 281.107C126.909 280.991 126.909 280.875 126.909 280.759C126.909 280.643 126.909 280.527 126.794 280.411C126.678 280.295 126.563 280.295 126.331 280.295H126.216V280.411ZM128.759 278.786H129.337V279.714C129.337 280.179 129.337 280.643 129.337 280.991C129.453 280.643 129.684 280.295 129.916 279.947L130.494 278.786H131.187V281.688H130.609V280.875C130.609 280.411 130.609 279.947 130.609 279.598C130.494 279.947 130.262 280.295 130.147 280.643L129.569 281.688H128.759V278.786ZM134.309 281.107L134.425 281.688C134.194 281.804 133.962 281.804 133.731 281.804C133.269 281.804 132.806 281.688 132.575 281.339C132.344 281.107 132.228 280.759 132.228 280.295C132.228 279.831 132.344 279.482 132.69 279.134C133.037 278.902 133.384 278.67 133.847 278.67C134.194 278.67 134.425 278.67 134.54 278.786L134.425 279.366C134.309 279.25 134.078 279.25 133.847 279.25C133.615 279.25 133.384 279.366 133.153 279.482C133.037 279.598 132.922 279.831 132.922 280.179C132.922 280.527 133.037 280.759 133.153 280.875C133.269 280.991 133.5 281.107 133.847 281.107C133.962 281.223 134.194 281.223 134.309 281.107ZM135.35 278.786H136.043V279.831C136.159 279.831 136.275 279.831 136.39 279.831C136.737 279.831 136.968 279.947 137.2 280.063C137.431 280.179 137.546 280.411 137.546 280.759C137.546 280.991 137.431 281.223 137.315 281.339C137.084 281.571 136.622 281.688 136.159 281.688C135.928 281.688 135.697 281.688 135.465 281.688V278.786H135.35ZM136.043 280.295V281.223C136.043 281.223 136.159 281.223 136.275 281.223C136.39 281.223 136.622 281.223 136.622 281.107C136.737 280.991 136.737 280.875 136.737 280.759C136.737 280.643 136.622 280.527 136.506 280.411C136.39 280.295 136.275 280.295 136.159 280.295C136.275 280.295 136.159 280.295 136.043 280.295ZM137.778 278.786H138.471V281.688H137.778V278.786Z" fill="#C4C4C4"/>
    <path d="M148.183 278.786H148.877V280.063H148.993L149.802 278.786H150.611L149.571 280.063C149.802 280.063 149.918 280.179 150.033 280.295C150.149 280.411 150.265 280.527 150.265 280.759C150.38 281.223 150.496 281.571 150.611 281.688H149.918C149.918 281.571 149.802 281.339 149.687 280.991C149.571 280.759 149.571 280.643 149.455 280.527C149.34 280.411 149.224 280.411 149.108 280.411H148.993V281.688H148.299V278.786H148.183ZM152.461 281.804C151.999 281.804 151.652 281.688 151.421 281.339C151.19 281.107 151.074 280.643 151.074 280.295C151.074 279.831 151.19 279.482 151.421 279.134C151.652 278.786 151.999 278.67 152.461 278.67C152.924 278.67 153.271 278.786 153.502 279.134C153.733 279.366 153.849 279.714 153.849 280.179C153.849 280.643 153.733 280.991 153.502 281.339C153.271 281.571 152.924 281.804 152.461 281.804ZM152.461 281.223C152.693 281.223 152.808 281.107 153.039 280.991C153.155 280.759 153.271 280.527 153.271 280.295C153.271 280.063 153.155 279.831 153.039 279.598C152.924 279.366 152.693 279.366 152.577 279.366C152.346 279.366 152.23 279.482 151.999 279.598C151.883 279.831 151.768 280.063 151.768 280.295C151.768 280.527 151.883 280.759 151.999 280.991C152.115 281.107 152.23 281.223 152.461 281.223ZM157.433 281.688V280.527C157.433 280.063 157.433 279.598 157.433 279.366C157.317 279.714 157.202 280.179 157.086 280.527L156.739 281.688H156.277L155.93 280.527C155.814 280.179 155.699 279.831 155.699 279.366C155.699 279.831 155.699 280.179 155.699 280.527V281.688H155.121L155.352 278.786H156.277L156.508 279.714C156.624 280.063 156.739 280.411 156.739 280.759C156.855 280.411 156.971 280.063 156.971 279.714L157.317 278.786H158.242L158.358 281.688H157.433ZM159.052 278.786H161.364V281.688H160.67V279.25H159.63V281.688H158.936V278.786H159.052ZM164.023 280.991H163.214L162.983 281.688H162.289L163.214 278.786H164.023L164.948 281.688H164.255L164.023 280.991ZM163.33 280.411H164.023L163.792 279.831C163.792 279.714 163.792 279.598 163.676 279.482C163.676 279.366 163.676 279.25 163.561 279.25C163.445 279.598 163.445 279.714 163.445 279.831L163.33 280.411ZM165.989 278.786H166.683V279.947H167.723V278.786H168.417V281.688H167.723V280.411H166.683V281.688H165.989V278.786ZM169.457 278.786H170.036V279.714C170.036 280.179 170.036 280.643 170.036 280.991C170.151 280.643 170.382 280.295 170.614 279.947L171.192 278.786H171.885V281.688H171.307V280.875C171.307 280.411 171.307 279.947 171.307 279.598C171.192 279.947 170.961 280.295 170.845 280.643L170.267 281.688H169.573V278.786H169.457ZM173.504 281.688H172.81C172.81 281.571 172.926 281.455 172.926 281.339C172.926 281.339 172.926 281.223 173.042 281.107C173.042 280.991 173.157 280.875 173.157 280.875C173.157 280.759 173.157 280.759 173.273 280.643C173.273 280.527 173.389 280.527 173.389 280.411C173.504 280.295 173.504 280.295 173.62 280.295C173.389 280.295 173.273 280.179 173.157 280.063C173.042 279.947 172.926 279.831 172.926 279.598C172.926 279.366 173.042 279.134 173.273 279.018C173.504 278.902 173.851 278.786 174.198 278.786C174.545 278.786 174.776 278.786 175.007 278.902V281.804H174.313V280.643H174.198C174.082 280.643 173.967 280.643 173.851 280.759C173.851 280.759 173.735 280.875 173.735 280.991C173.735 281.107 173.62 281.223 173.62 281.339C173.62 281.455 173.504 281.571 173.504 281.571V281.688ZM174.429 280.063V279.25C174.313 279.25 174.313 279.25 174.198 279.25C174.082 279.25 173.967 279.25 173.851 279.366C173.735 279.482 173.735 279.482 173.735 279.714C173.735 279.831 173.735 279.947 173.851 280.063C173.967 280.179 174.082 280.179 174.198 280.179C174.313 280.063 174.313 280.063 174.429 280.063Z" fill="#C4C4C4"/>
    <path d="M123.672 333.564C126.418 333.564 128.644 331.33 128.644 328.574C128.644 325.817 126.418 323.583 123.672 323.583C120.926 323.583 118.701 325.817 118.701 328.574C118.701 331.33 120.926 333.564 123.672 333.564Z" fill="black"/>
    <path d="M206.224 333.564C208.97 333.564 211.196 331.33 211.196 328.574C211.196 325.817 208.97 323.583 206.224 323.583C203.479 323.583 201.253 325.817 201.253 328.574C201.253 331.33 203.479 333.564 206.224 333.564Z" fill="black"/>
    <path d="M207.959 328.69C208.917 328.69 209.693 327.91 209.693 326.949C209.693 325.987 208.917 325.208 207.959 325.208C207.001 325.208 206.224 325.987 206.224 326.949C206.224 327.91 207.001 328.69 207.959 328.69Z" fill="white"/>
    <path d="M204.028 332.056C204.794 332.056 205.415 331.432 205.415 330.663C205.415 329.894 204.794 329.271 204.028 329.271C203.261 329.271 202.64 329.894 202.64 330.663C202.64 331.432 203.261 332.056 204.028 332.056Z" fill="white"/>
    <path d="M125.522 328.69C126.48 328.69 127.256 327.91 127.256 326.949C127.256 325.987 126.48 325.208 125.522 325.208C124.564 325.208 123.788 325.987 123.788 326.949C123.788 327.91 124.564 328.69 125.522 328.69Z" fill="white"/>
    <path d="M121.591 332.056C122.357 332.056 122.978 331.432 122.978 330.663C122.978 329.894 122.357 329.271 121.591 329.271C120.825 329.271 120.204 329.894 120.204 330.663C120.204 331.432 120.825 332.056 121.591 332.056Z" fill="white"/>
    <path d="M156.624 340.528L164.601 332.52L173.273 341.224" stroke="black" stroke-miterlimit="10"/>
    <path d="M133.5 315.577C132.112 319.291 128.066 321.264 124.366 319.871" stroke="black" stroke-miterlimit="10"/>
    <path d="M196.397 315.577C197.784 319.291 201.831 321.264 205.531 319.871" stroke="black" stroke-miterlimit="10"/>
    <path d="M65.6312 328.576C40.0793 328.576 19.2678 349.351 19.2678 375.117" stroke="black" stroke-miterlimit="10"/>
    <path d="M306.582 375.117C306.582 349.468 285.886 328.576 260.219 328.576" stroke="black" stroke-miterlimit="10"/>
    <path d="M96.6172 383.242V432.105" stroke="black" stroke-miterlimit="10"/>
    <path d="M229.348 383.242V432.105" stroke="black" stroke-miterlimit="10"/>
    <path d="M324.966 87.9774H250.276V11.2598" stroke="black" stroke-miterlimit="10"/>
    <path d="M1 11.2598V468.316H324.85V87.3971L250.16 11.2598H1Z" stroke="black" stroke-miterlimit="10"/>
    <path d="M122.863 365.716C119.51 365.716 116.966 362.466 118.007 359.1L122.863 342.735L127.719 359.1C128.76 362.466 126.332 365.716 122.863 365.716Z" fill="#00BAC6"/>
    <path d="M206.571 356.895C204.49 356.895 202.987 354.922 203.565 352.833L206.571 342.735L209.578 352.833C210.156 354.806 208.653 356.895 206.571 356.895Z" fill="#00BAC6"/>
    <path d="M160.555 22.5162C166.749 22.5162 171.77 17.4758 171.77 11.2581C171.77 5.04043 166.749 0 160.555 0C154.361 0 149.34 5.04043 149.34 11.2581C149.34 17.4758 154.361 22.5162 160.555 22.5162Z" fill="#00BAC6"/>
    <path d="M160.555 11.2588L176.51 27.2755" stroke="#00BAC6" stroke-miterlimit="10"/>
    <path d="M66.9831 65.542H75.2961V77H73.8001V66.783H68.4791V77H66.9831V65.542ZM77.8576 77V65.695C78.6962 65.5363 79.6426 65.457 80.6966 65.457C82.1359 65.457 83.2069 65.7743 83.9096 66.409C84.5896 66.9983 84.9296 67.7917 84.9296 68.789C84.9296 69.8203 84.6292 70.6363 84.0286 71.237C83.2466 72.0757 82.0792 72.495 80.5266 72.495C80.0052 72.495 79.6086 72.461 79.3366 72.393V77H77.8576ZM79.3366 66.749V71.186C79.6426 71.2653 80.0506 71.305 80.5606 71.305C81.4559 71.305 82.1586 71.0953 82.6686 70.676C83.1786 70.2453 83.4336 69.6447 83.4336 68.874C83.4336 68.1373 83.1899 67.582 82.7026 67.208C82.2266 66.8227 81.5692 66.63 80.7306 66.63C80.0959 66.63 79.6312 66.6697 79.3366 66.749ZM91.2606 77.187H91.2436C89.7136 77.187 88.4726 76.6543 87.5206 75.589C86.5686 74.5123 86.0926 73.107 86.0926 71.373C86.0926 69.571 86.5856 68.1203 87.5716 67.021C88.5689 65.9103 89.8439 65.355 91.3966 65.355C92.9606 65.355 94.2129 65.8933 95.1536 66.97C96.0943 68.0467 96.5646 69.4407 96.5646 71.152C96.5646 73.0447 96.0603 74.5237 95.0516 75.589C94.0429 76.6543 92.7793 77.187 91.2606 77.187ZM91.3116 75.98H91.3286C92.4619 75.98 93.3573 75.5267 94.0146 74.62C94.6719 73.7133 95.0006 72.58 95.0006 71.22C95.0006 69.9733 94.6776 68.8853 94.0316 67.956C93.3969 67.0267 92.5016 66.562 91.3456 66.562C90.1783 66.562 89.2716 67.0267 88.6256 67.956C87.9796 68.8853 87.6566 70.013 87.6566 71.339C87.6566 72.6083 87.9853 73.702 88.6426 74.62C89.3113 75.5267 90.2009 75.98 91.3116 75.98ZM98.4763 65.542H106.789V77H105.293V66.783H99.9723V77H98.4763V65.542ZM115.267 73.396H111.204L110.014 77H108.484L112.377 65.542H114.162L118.072 77H116.491L115.267 73.396ZM111.51 72.24H114.961L113.822 68.942C113.674 68.4887 113.482 67.7917 113.244 66.851H113.193C113.023 67.599 112.836 68.2903 112.632 68.925L111.51 72.24ZM121.14 65.542H127.872V77H126.376V66.783H122.602V70.251C122.602 71.0103 122.585 71.6563 122.551 72.189C122.517 72.7103 122.449 73.2883 122.347 73.923C122.245 74.5463 122.069 75.0847 121.82 75.538C121.582 75.98 121.27 76.3313 120.885 76.592C120.318 76.9547 119.729 77.136 119.117 77.136L118.93 75.946C119.395 75.878 119.797 75.674 120.137 75.334C120.806 74.688 121.14 73.0333 121.14 70.37V65.542ZM136.351 73.396H132.288L131.098 77H129.568L133.461 65.542H135.246L139.156 77H137.575L136.351 73.396ZM132.594 72.24H136.045L134.906 68.942C134.758 68.4887 134.566 67.7917 134.328 66.851H134.277C134.107 67.599 133.92 68.2903 133.716 68.925L132.594 72.24ZM152.147 75.436L152.436 76.626C151.734 76.9887 150.725 77.17 149.41 77.17C147.744 77.17 146.384 76.66 145.33 75.64C144.288 74.62 143.766 73.1977 143.766 71.373C143.766 69.5823 144.316 68.1373 145.415 67.038C146.526 65.9273 147.971 65.372 149.75 65.372C150.872 65.372 151.779 65.5363 152.47 65.865L152.096 67.089C151.462 66.7717 150.697 66.613 149.801 66.613C148.441 66.613 147.353 67.0323 146.537 67.871C145.733 68.6983 145.33 69.8487 145.33 71.322C145.33 72.7387 145.716 73.8607 146.486 74.688C147.268 75.504 148.345 75.912 149.716 75.912C150.68 75.912 151.49 75.7533 152.147 75.436ZM157.081 77V66.8H153.596V65.542H162.079V66.8H158.577V77H157.081ZM163.356 77V65.695C164.194 65.5363 165.141 65.457 166.195 65.457C167.634 65.457 168.705 65.7743 169.408 66.409C170.088 66.9983 170.428 67.7917 170.428 68.789C170.428 69.8203 170.127 70.6363 169.527 71.237C168.745 72.0757 167.577 72.495 166.025 72.495C165.503 72.495 165.107 72.461 164.835 72.393V77H163.356ZM164.835 66.749V71.186C165.141 71.2653 165.549 71.305 166.059 71.305C166.954 71.305 167.657 71.0953 168.167 70.676C168.677 70.2453 168.932 69.6447 168.932 68.874C168.932 68.1373 168.688 67.582 168.201 67.208C167.725 66.8227 167.067 66.63 166.229 66.63C165.594 66.63 165.129 66.6697 164.835 66.749ZM176.892 73.396H172.829L171.639 77H170.109L174.002 65.542H175.787L179.697 77H178.116L176.892 73.396ZM173.135 72.24H176.586L175.447 68.942C175.299 68.4887 175.107 67.7917 174.869 66.851H174.818C174.648 67.599 174.461 68.2903 174.257 68.925L173.135 72.24ZM181.368 65.542H182.864V70.336H188.406V65.542H189.902V77H188.406V71.628H182.864V77H181.368V65.542ZM192.475 65.542H193.869V70.37C193.869 72.24 193.823 73.855 193.733 75.215L193.784 75.232C194.237 74.2687 194.94 73.005 195.892 71.441L199.598 65.542H201.077V77H199.683V72.121C199.683 70.115 199.728 68.5623 199.819 67.463L199.768 67.446C199.371 68.33 198.663 69.6163 197.643 71.305L194.056 77H192.475V65.542ZM203.647 65.542H205.143V75.776H210.396V65.542H211.892V75.793L212.895 75.827L212.793 79.754H211.62L211.535 77H203.647V65.542ZM220.67 73.396H216.607L215.417 77H213.887L217.78 65.542H219.565L223.475 77H221.894L220.67 73.396ZM216.913 72.24H220.364L219.225 68.942C219.078 68.4887 218.885 67.7917 218.647 66.851H218.596C218.426 67.599 218.239 68.2903 218.035 68.925L216.913 72.24ZM226.404 73.719H225.248L225.01 65.542H226.642L226.404 73.719ZM225.826 77.187H225.809C225.526 77.187 225.288 77.085 225.095 76.881C224.914 76.677 224.823 76.4277 224.823 76.133C224.823 75.827 224.914 75.5777 225.095 75.385C225.288 75.181 225.532 75.079 225.826 75.079C226.132 75.079 226.376 75.181 226.557 75.385C226.739 75.5777 226.829 75.827 226.829 76.133C226.829 76.439 226.739 76.694 226.557 76.898C226.376 77.0907 226.132 77.187 225.826 77.187ZM230.322 73.719H229.166L228.928 65.542H230.56L230.322 73.719ZM229.744 77.187H229.727C229.444 77.187 229.206 77.085 229.013 76.881C228.832 76.677 228.741 76.4277 228.741 76.133C228.741 75.827 228.832 75.5777 229.013 75.385C229.206 75.181 229.45 75.079 229.744 75.079C230.05 75.079 230.294 75.181 230.475 75.385C230.657 75.5777 230.747 75.827 230.747 76.133C230.747 76.439 230.657 76.694 230.475 76.898C230.294 77.0907 230.05 77.187 229.744 77.187ZM234.24 73.719H233.084L232.846 65.542H234.478L234.24 73.719ZM233.662 77.187H233.645C233.362 77.187 233.124 77.085 232.931 76.881C232.75 76.677 232.659 76.4277 232.659 76.133C232.659 75.827 232.75 75.5777 232.931 75.385C233.124 75.181 233.367 75.079 233.662 75.079C233.968 75.079 234.212 75.181 234.393 75.385C234.574 75.5777 234.665 75.827 234.665 76.133C234.665 76.439 234.574 76.694 234.393 76.898C234.212 77.0907 233.968 77.187 233.662 77.187Z" fill="black"/>
    <path d="M67.0001 118V106.695C67.8388 106.536 68.7851 106.457 69.8391 106.457C71.2785 106.457 72.3495 106.774 73.0521 107.409C73.7321 107.998 74.0721 108.792 74.0721 109.789C74.0721 110.82 73.7718 111.636 73.1711 112.237C72.3891 113.076 71.2218 113.495 69.6691 113.495C69.1478 113.495 68.7511 113.461 68.4791 113.393V118H67.0001ZM68.4791 107.749V112.186C68.7851 112.265 69.1931 112.305 69.7031 112.305C70.5985 112.305 71.3011 112.095 71.8111 111.676C72.3211 111.245 72.5761 110.645 72.5761 109.874C72.5761 109.137 72.3325 108.582 71.8451 108.208C71.3691 107.823 70.7118 107.63 69.8731 107.63C69.2385 107.63 68.7738 107.67 68.4791 107.749ZM78.8815 118.187H78.8645C77.7312 118.187 76.7905 117.802 76.0425 117.031C75.2945 116.249 74.9205 115.223 74.9205 113.954C74.9205 112.617 75.3059 111.557 76.0765 110.775C76.8585 109.982 77.8332 109.585 79.0005 109.585C80.1792 109.585 81.1312 109.976 81.8565 110.758C82.5932 111.54 82.9615 112.554 82.9615 113.801C82.9615 115.229 82.5535 116.317 81.7375 117.065C80.9215 117.813 79.9695 118.187 78.8815 118.187ZM78.9155 117.065H78.9325C79.6465 117.065 80.2415 116.765 80.7175 116.164C81.1935 115.552 81.4315 114.781 81.4315 113.852C81.4315 113.047 81.2219 112.322 80.8025 111.676C80.3945 111.03 79.7825 110.707 78.9665 110.707C78.1505 110.707 77.5272 111.024 77.0965 111.659C76.6659 112.294 76.4505 113.042 76.4505 113.903C76.4505 114.81 76.6829 115.563 77.1475 116.164C77.6122 116.765 78.2015 117.065 78.9155 117.065ZM90.4556 116.572L90.7106 117.694C90.0419 118.011 89.2543 118.17 88.3476 118.17C87.1123 118.17 86.1206 117.785 85.3726 117.014C84.6246 116.243 84.2506 115.229 84.2506 113.971C84.2506 112.69 84.6529 111.642 85.4576 110.826C86.2736 109.999 87.3446 109.585 88.6706 109.585C89.5093 109.585 90.2006 109.732 90.7446 110.027L90.4046 111.166C89.9059 110.905 89.3279 110.775 88.6706 110.775C87.7639 110.775 87.0499 111.075 86.5286 111.676C86.0186 112.265 85.7636 113.002 85.7636 113.886C85.7636 114.815 86.0299 115.563 86.5626 116.13C87.1066 116.685 87.7923 116.963 88.6196 116.963C89.2543 116.963 89.8663 116.833 90.4556 116.572ZM91.6604 109.772H98.2904V110.945H95.7234V118H94.2274V110.945H91.6604V109.772ZM100.384 112.186H100.367C100.083 112.186 99.8453 112.084 99.6526 111.88C99.4713 111.676 99.3806 111.427 99.3806 111.132C99.3806 110.815 99.4713 110.56 99.6526 110.367C99.8453 110.163 100.089 110.061 100.384 110.061C100.69 110.061 100.933 110.163 101.115 110.367C101.296 110.56 101.387 110.815 101.387 111.132C101.387 111.438 101.296 111.693 101.115 111.897C100.933 112.09 100.69 112.186 100.384 112.186ZM100.384 118.187H100.367C100.083 118.187 99.8453 118.085 99.6526 117.881C99.4713 117.677 99.3806 117.428 99.3806 117.133C99.3806 116.816 99.4713 116.561 99.6526 116.368C99.8453 116.164 100.089 116.062 100.384 116.062C100.69 116.062 100.933 116.164 101.115 116.368C101.296 116.561 101.387 116.816 101.387 117.133C101.387 117.439 101.296 117.694 101.115 117.898C100.933 118.091 100.69 118.187 100.384 118.187ZM109.614 118V108.344H109.58L107.659 109.381L107.37 108.242L109.784 106.95H111.059V118H109.614ZM118.619 118.187H118.602C117.502 118.187 116.618 117.688 115.95 116.691C115.281 115.694 114.941 114.3 114.93 112.509C114.93 110.696 115.281 109.285 115.984 108.276C116.698 107.267 117.633 106.763 118.789 106.763C119.945 106.763 120.84 107.256 121.475 108.242C122.121 109.228 122.444 110.599 122.444 112.356C122.444 114.226 122.109 115.665 121.441 116.674C120.772 117.683 119.831 118.187 118.619 118.187ZM118.67 117.031H118.687C119.423 117.031 119.979 116.629 120.353 115.824C120.738 115.008 120.931 113.875 120.931 112.424C120.931 111.007 120.744 109.902 120.37 109.109C120.007 108.316 119.446 107.919 118.687 107.919C118.007 107.919 117.463 108.327 117.055 109.143C116.647 109.948 116.443 111.041 116.443 112.424C116.431 113.852 116.624 114.98 117.021 115.807C117.429 116.623 117.978 117.031 118.67 117.031ZM127.487 106.763H127.504C128.524 106.763 129.318 107.029 129.884 107.562C130.451 108.095 130.734 108.735 130.734 109.483C130.734 110.639 130.122 111.5 128.898 112.067V112.118C130.383 112.707 131.125 113.659 131.125 114.974C131.125 115.926 130.768 116.702 130.054 117.303C129.34 117.892 128.445 118.187 127.368 118.187C126.246 118.187 125.345 117.904 124.665 117.337C123.997 116.759 123.662 116.051 123.662 115.212C123.662 113.852 124.388 112.86 125.838 112.237V112.186C125.249 111.914 124.807 111.557 124.512 111.115C124.218 110.673 124.07 110.203 124.07 109.704C124.07 108.843 124.393 108.14 125.039 107.596C125.685 107.041 126.501 106.763 127.487 106.763ZM127.385 117.099H127.402C128.071 117.099 128.604 116.918 129 116.555C129.408 116.181 129.612 115.705 129.612 115.127C129.612 114.492 129.403 113.988 128.983 113.614C128.575 113.24 127.975 112.94 127.181 112.713C126.547 112.894 126.054 113.189 125.702 113.597C125.362 114.005 125.192 114.475 125.192 115.008C125.17 115.586 125.357 116.079 125.753 116.487C126.161 116.895 126.705 117.099 127.385 117.099ZM127.436 107.834H127.419C126.819 107.834 126.348 108.004 126.008 108.344C125.668 108.684 125.498 109.103 125.498 109.602C125.487 110.123 125.663 110.548 126.025 110.877C126.399 111.206 126.926 111.461 127.606 111.642C128.116 111.472 128.524 111.217 128.83 110.877C129.136 110.526 129.289 110.112 129.289 109.636C129.289 109.137 129.131 108.712 128.813 108.361C128.507 108.01 128.048 107.834 127.436 107.834ZM136.05 118.187H136.033C134.934 118.187 134.05 117.688 133.381 116.691C132.712 115.694 132.372 114.3 132.361 112.509C132.361 110.696 132.712 109.285 133.415 108.276C134.129 107.267 135.064 106.763 136.22 106.763C137.376 106.763 138.271 107.256 138.906 108.242C139.552 109.228 139.875 110.599 139.875 112.356C139.875 114.226 139.541 115.665 138.872 116.674C138.203 117.683 137.263 118.187 136.05 118.187ZM136.101 117.031H136.118C136.855 117.031 137.41 116.629 137.784 115.824C138.169 115.008 138.362 113.875 138.362 112.424C138.362 111.007 138.175 109.902 137.801 109.109C137.438 108.316 136.877 107.919 136.118 107.919C135.438 107.919 134.894 108.327 134.486 109.143C134.078 109.948 133.874 111.041 133.874 112.424C133.863 113.852 134.055 114.98 134.452 115.807C134.86 116.623 135.41 117.031 136.101 117.031Z" fill="black"/>
    <path d="M66.9831 147.542H68.4791V157.776H73.7321V147.542H75.2281V157.793L76.2311 157.827L76.1291 161.754H74.9561L74.8711 159H66.9831V147.542ZM77.988 159V150.857C78.7133 150.732 79.586 150.67 80.606 150.67C83.054 150.67 84.278 151.361 84.278 152.744C84.278 153.231 84.1136 153.639 83.785 153.968C83.4676 154.285 83.0596 154.501 82.561 154.614V154.648C83.1956 154.739 83.7 154.954 84.074 155.294C84.4593 155.634 84.652 156.093 84.652 156.671C84.652 158.292 83.207 159.102 80.317 159.102C79.6483 159.102 78.872 159.068 77.988 159ZM79.433 151.775V154.24H80.555C81.1783 154.24 81.7053 154.138 82.136 153.934C82.578 153.719 82.799 153.384 82.799 152.931C82.799 152.115 82.0623 151.707 80.589 151.707C80.2716 151.707 79.8863 151.73 79.433 151.775ZM79.416 155.209V158.031C79.8353 158.065 80.232 158.082 80.606 158.082C81.2746 158.082 81.8583 157.98 82.357 157.776C82.867 157.561 83.122 157.187 83.122 156.654C83.122 156.11 82.8896 155.736 82.425 155.532C81.9603 155.317 81.32 155.209 80.504 155.209H79.416ZM93.152 155.158H87.389C87.4003 156.11 87.6666 156.824 88.188 157.3C88.7206 157.765 89.3893 157.997 90.194 157.997C91.0666 157.997 91.826 157.855 92.472 157.572L92.744 158.643C91.962 158.994 91.044 159.17 89.99 159.17C88.7433 159.17 87.7573 158.79 87.032 158.031C86.3066 157.272 85.944 156.269 85.944 155.022C85.944 153.753 86.2953 152.699 86.998 151.86C87.712 151.01 88.6526 150.585 89.82 150.585C90.4546 150.585 91.0043 150.715 91.469 150.976C91.9336 151.225 92.285 151.56 92.523 151.979C92.761 152.387 92.931 152.801 93.033 153.22C93.1463 153.628 93.203 154.042 93.203 154.461C93.203 154.756 93.186 154.988 93.152 155.158ZM87.406 154.087H91.758C91.758 153.826 91.7296 153.566 91.673 153.305C91.6163 153.044 91.5143 152.784 91.367 152.523C91.2196 152.262 91.0043 152.053 90.721 151.894C90.4376 151.735 90.0976 151.656 89.701 151.656C89.0096 151.656 88.4713 151.905 88.086 152.404C87.7006 152.903 87.474 153.464 87.406 154.087ZM93.9182 150.772H100.548V151.945H97.9812V159H96.4852V151.945H93.9182V150.772ZM102.641 153.186H102.624C102.341 153.186 102.103 153.084 101.91 152.88C101.729 152.676 101.638 152.427 101.638 152.132C101.638 151.815 101.729 151.56 101.91 151.367C102.103 151.163 102.347 151.061 102.641 151.061C102.947 151.061 103.191 151.163 103.372 151.367C103.554 151.56 103.644 151.815 103.644 152.132C103.644 152.438 103.554 152.693 103.372 152.897C103.191 153.09 102.947 153.186 102.641 153.186ZM102.641 159.187H102.624C102.341 159.187 102.103 159.085 101.91 158.881C101.729 158.677 101.638 158.428 101.638 158.133C101.638 157.816 101.729 157.561 101.91 157.368C102.103 157.164 102.347 157.062 102.641 157.062C102.947 157.062 103.191 157.164 103.372 157.368C103.554 157.561 103.644 157.816 103.644 158.133C103.644 158.439 103.554 158.694 103.372 158.898C103.191 159.091 102.947 159.187 102.641 159.187ZM115.39 146.743L115.322 147.984C115.005 148.109 114.433 148.233 113.605 148.358C112.211 148.573 111.231 149.089 110.664 149.905C110.177 150.608 109.877 151.514 109.763 152.625H109.814C110.075 152.036 110.466 151.582 110.987 151.265C111.52 150.936 112.087 150.772 112.687 150.772C113.73 150.772 114.574 151.129 115.22 151.843C115.866 152.557 116.189 153.554 116.189 154.835C116.189 156.184 115.855 157.249 115.186 158.031C114.518 158.802 113.583 159.187 112.381 159.187C111.69 159.187 111.084 159.034 110.562 158.728C110.052 158.411 109.656 157.986 109.372 157.453C109.089 156.909 108.879 156.325 108.743 155.702C108.607 155.079 108.539 154.404 108.539 153.679C108.539 151.764 108.959 150.245 109.797 149.123C110.183 148.568 110.659 148.143 111.225 147.848C111.803 147.542 112.512 147.321 113.35 147.185C114.348 147.015 115.028 146.868 115.39 146.743ZM114.676 154.954V154.937C114.676 154.438 114.614 153.974 114.489 153.543C114.365 153.112 114.121 152.727 113.758 152.387C113.396 152.047 112.937 151.877 112.381 151.877C111.543 151.877 110.919 152.251 110.511 152.999C110.239 153.486 110.103 154.064 110.103 154.733C110.103 155.232 110.177 155.725 110.324 156.212C110.472 156.699 110.727 157.13 111.089 157.504C111.463 157.878 111.905 158.065 112.415 158.065C113.186 158.065 113.753 157.759 114.115 157.147C114.489 156.535 114.676 155.804 114.676 154.954ZM124.695 155.158H118.932C118.943 156.11 119.21 156.824 119.731 157.3C120.264 157.765 120.932 157.997 121.737 157.997C122.61 157.997 123.369 157.855 124.015 157.572L124.287 158.643C123.505 158.994 122.587 159.17 121.533 159.17C120.286 159.17 119.3 158.79 118.575 158.031C117.85 157.272 117.487 156.269 117.487 155.022C117.487 153.753 117.838 152.699 118.541 151.86C119.255 151.01 120.196 150.585 121.363 150.585C121.998 150.585 122.547 150.715 123.012 150.976C123.477 151.225 123.828 151.56 124.066 151.979C124.304 152.387 124.474 152.801 124.576 153.22C124.689 153.628 124.746 154.042 124.746 154.461C124.746 154.756 124.729 154.988 124.695 155.158ZM118.949 154.087H123.301C123.301 153.826 123.273 153.566 123.216 153.305C123.159 153.044 123.057 152.784 122.91 152.523C122.763 152.262 122.547 152.053 122.264 151.894C121.981 151.735 121.641 151.656 121.244 151.656C120.553 151.656 120.014 151.905 119.629 152.404C119.244 152.903 119.017 153.464 118.949 154.087ZM127.141 150.772H132.87V159H131.374V151.945H128.552V154.053C128.552 155.322 128.461 156.32 128.28 157.045C128.098 157.759 127.758 158.28 127.26 158.609C126.829 158.949 126.285 159.119 125.628 159.119L125.475 157.946C125.815 157.889 126.087 157.776 126.291 157.606C126.642 157.345 126.869 156.949 126.971 156.416C127.084 155.872 127.141 155.079 127.141 154.036V150.772ZM135.264 150.772H136.76V153.56C137.168 153.492 137.61 153.458 138.086 153.458C139.072 153.458 139.91 153.685 140.602 154.138C141.293 154.58 141.639 155.271 141.639 156.212C141.639 157.005 141.35 157.646 140.772 158.133C140.024 158.768 138.924 159.085 137.474 159.085C136.975 159.085 136.238 159.045 135.264 158.966V150.772ZM136.743 154.631V157.946C137.003 157.991 137.349 158.014 137.78 158.014C138.426 158.014 138.981 157.872 139.446 157.589C139.91 157.306 140.143 156.864 140.143 156.263C140.143 155.651 139.916 155.209 139.463 154.937C139.021 154.665 138.482 154.529 137.848 154.529C137.417 154.529 137.049 154.563 136.743 154.631ZM142.676 150.772H144.155V158.983H142.676V150.772ZM146.552 150.772H147.98V154.24C147.98 155.26 147.946 156.365 147.878 157.555H147.929C148.643 156.172 149.091 155.328 149.272 155.022L151.839 150.772H153.59V159H152.162V155.498C152.162 154.58 152.196 153.458 152.264 152.132H152.23C151.709 153.163 151.25 154.019 150.853 154.699C150.559 155.186 150.1 155.951 149.476 156.994C148.864 158.025 148.468 158.694 148.286 159H146.552V150.772ZM147.878 147.423H148.966C148.989 147.808 149.091 148.12 149.272 148.358C149.465 148.596 149.726 148.715 150.054 148.715C150.723 148.715 151.108 148.284 151.21 147.423H152.281C152.247 148.103 152.026 148.624 151.618 148.987C151.222 149.35 150.689 149.531 150.02 149.531C149.318 149.531 148.791 149.338 148.439 148.953C148.099 148.568 147.912 148.058 147.878 147.423ZM156.102 160.989L155.048 161.108C155.501 159.861 155.841 158.501 156.068 157.028L157.734 156.858C157.53 157.583 157.263 158.354 156.935 159.17C156.617 159.986 156.34 160.592 156.102 160.989ZM168.749 157.572L169.004 158.694C168.335 159.011 167.547 159.17 166.641 159.17C165.405 159.17 164.414 158.785 163.666 158.014C162.918 157.243 162.544 156.229 162.544 154.971C162.544 153.69 162.946 152.642 163.751 151.826C164.567 150.999 165.638 150.585 166.964 150.585C167.802 150.585 168.494 150.732 169.038 151.027L168.698 152.166C168.199 151.905 167.621 151.775 166.964 151.775C166.057 151.775 165.343 152.075 164.822 152.676C164.312 153.265 164.057 154.002 164.057 154.886C164.057 155.815 164.323 156.563 164.856 157.13C165.4 157.685 166.085 157.963 166.913 157.963C167.547 157.963 168.159 157.833 168.749 157.572ZM177.272 155.158H171.509C171.52 156.11 171.787 156.824 172.308 157.3C172.841 157.765 173.509 157.997 174.314 157.997C175.187 157.997 175.946 157.855 176.592 157.572L176.864 158.643C176.082 158.994 175.164 159.17 174.11 159.17C172.863 159.17 171.877 158.79 171.152 158.031C170.427 157.272 170.064 156.269 170.064 155.022C170.064 153.753 170.415 152.699 171.118 151.86C171.832 151.01 172.773 150.585 173.94 150.585C174.575 150.585 175.124 150.715 175.589 150.976C176.054 151.225 176.405 151.56 176.643 151.979C176.881 152.387 177.051 152.801 177.153 153.22C177.266 153.628 177.323 154.042 177.323 154.461C177.323 154.756 177.306 154.988 177.272 155.158ZM171.526 154.087H175.878C175.878 153.826 175.85 153.566 175.793 153.305C175.736 153.044 175.634 152.784 175.487 152.523C175.34 152.262 175.124 152.053 174.841 151.894C174.558 151.735 174.218 151.656 173.821 151.656C173.13 151.656 172.591 151.905 172.206 152.404C171.821 152.903 171.594 153.464 171.526 154.087ZM179.176 162.366V153.458C179.176 152.359 179.153 151.463 179.108 150.772H180.451L180.536 152.183H180.57C181.193 151.118 182.162 150.585 183.477 150.585C184.485 150.585 185.318 150.976 185.976 151.758C186.644 152.529 186.979 153.532 186.979 154.767C186.979 156.172 186.61 157.26 185.874 158.031C185.148 158.802 184.27 159.187 183.239 159.187C182.071 159.187 181.227 158.756 180.706 157.895H180.672V162.366H179.176ZM180.672 154.223V155.651C180.672 155.889 180.694 156.093 180.74 156.263C180.864 156.784 181.131 157.209 181.539 157.538C181.958 157.855 182.434 158.014 182.967 158.014C183.749 158.014 184.361 157.725 184.803 157.147C185.245 156.569 185.466 155.798 185.466 154.835C185.466 153.974 185.25 153.248 184.82 152.659C184.389 152.07 183.794 151.775 183.035 151.775C182.513 151.775 182.037 151.945 181.607 152.285C181.187 152.625 180.904 153.073 180.757 153.628C180.7 153.945 180.672 154.144 180.672 154.223ZM188.82 150.772H190.316V153.56C190.724 153.492 191.166 153.458 191.642 153.458C192.628 153.458 193.467 153.685 194.158 154.138C194.85 154.58 195.195 155.271 195.195 156.212C195.195 157.005 194.906 157.646 194.328 158.133C193.58 158.768 192.481 159.085 191.03 159.085C190.532 159.085 189.795 159.045 188.82 158.966V150.772ZM190.299 154.631V157.946C190.56 157.991 190.906 158.014 191.336 158.014C191.982 158.014 192.538 157.872 193.002 157.589C193.467 157.306 193.699 156.864 193.699 156.263C193.699 155.651 193.473 155.209 193.019 154.937C192.577 154.665 192.039 154.529 191.404 154.529C190.974 154.529 190.605 154.563 190.299 154.631ZM196.232 150.772H197.711V158.983H196.232V150.772ZM200.109 150.772H201.537V154.24C201.537 155.26 201.503 156.365 201.435 157.555H201.486C202.2 156.172 202.648 155.328 202.829 155.022L205.396 150.772H207.147V159H205.719V155.498C205.719 154.58 205.753 153.458 205.821 152.132H205.787C205.266 153.163 204.807 154.019 204.41 154.699C204.115 155.186 203.656 155.951 203.033 156.994C202.421 158.025 202.024 158.694 201.843 159H200.109V150.772ZM201.435 147.423H202.523C202.546 147.808 202.648 148.12 202.829 148.358C203.022 148.596 203.282 148.715 203.611 148.715C204.28 148.715 204.665 148.284 204.767 147.423H205.838C205.804 148.103 205.583 148.624 205.175 148.987C204.778 149.35 204.246 149.531 203.577 149.531C202.874 149.531 202.347 149.338 201.996 148.953C201.656 148.568 201.469 148.058 201.435 147.423ZM213.125 150.772H214.553V154.24C214.553 155.26 214.519 156.365 214.451 157.555H214.502C215.216 156.172 215.663 155.328 215.845 155.022L218.412 150.772H220.163V159H218.735V155.498C218.735 154.58 218.769 153.458 218.837 152.132H218.803C218.281 153.163 217.822 154.019 217.426 154.699C217.131 155.186 216.672 155.951 216.049 156.994C215.437 158.025 215.04 158.694 214.859 159H213.125V150.772ZM66.8131 170.772H68.3091V173.56C68.3091 174.115 68.4338 174.546 68.6831 174.852C68.9438 175.147 69.3858 175.294 70.0091 175.294C70.7005 175.294 71.2898 175.107 71.7771 174.733V170.772H73.2731V179.102H71.7771V175.787H71.7601C71.1141 176.195 70.3661 176.399 69.5161 176.399C68.7001 176.399 68.0428 176.178 67.5441 175.736C67.0568 175.294 66.8131 174.625 66.8131 173.73V170.772ZM82.3112 175.158H76.5482C76.5595 176.11 76.8258 176.824 77.3472 177.3C77.8798 177.765 78.5485 177.997 79.3532 177.997C80.2258 177.997 80.9852 177.855 81.6312 177.572L81.9032 178.643C81.1212 178.994 80.2032 179.17 79.1492 179.17C77.9025 179.17 76.9165 178.79 76.1912 178.031C75.4658 177.272 75.1032 176.269 75.1032 175.022C75.1032 173.753 75.4545 172.699 76.1572 171.86C76.8712 171.01 77.8118 170.585 78.9792 170.585C79.6138 170.585 80.1635 170.715 80.6282 170.976C81.0928 171.225 81.4442 171.56 81.6822 171.979C81.9202 172.387 82.0902 172.801 82.1922 173.22C82.3055 173.628 82.3622 174.042 82.3622 174.461C82.3622 174.756 82.3452 174.988 82.3112 175.158ZM76.5652 174.087H80.9172C80.9172 173.826 80.8888 173.566 80.8322 173.305C80.7755 173.044 80.6735 172.784 80.5262 172.523C80.3788 172.262 80.1635 172.053 79.8802 171.894C79.5968 171.735 79.2568 171.656 78.8602 171.656C78.1688 171.656 77.6305 171.905 77.2452 172.404C76.8598 172.903 76.6332 173.464 76.5652 174.087ZM84.2148 182.366V173.458C84.2148 172.359 84.1921 171.463 84.1468 170.772H85.4898L85.5748 172.183H85.6088C86.2321 171.118 87.2011 170.585 88.5158 170.585C89.5244 170.585 90.3574 170.976 91.0148 171.758C91.6834 172.529 92.0178 173.532 92.0178 174.767C92.0178 176.172 91.6494 177.26 90.9128 178.031C90.1874 178.802 89.3091 179.187 88.2778 179.187C87.1104 179.187 86.2661 178.756 85.7448 177.895H85.7108V182.366H84.2148ZM85.7108 174.223V175.651C85.7108 175.889 85.7334 176.093 85.7788 176.263C85.9034 176.784 86.1698 177.209 86.5778 177.538C86.9971 177.855 87.4731 178.014 88.0058 178.014C88.7878 178.014 89.3998 177.725 89.8418 177.147C90.2838 176.569 90.5048 175.798 90.5048 174.835C90.5048 173.974 90.2894 173.248 89.8588 172.659C89.4281 172.07 88.8331 171.775 88.0738 171.775C87.5524 171.775 87.0764 171.945 86.6458 172.285C86.2264 172.625 85.9431 173.073 85.7958 173.628C85.7391 173.945 85.7108 174.144 85.7108 174.223ZM93.8425 170.772H95.3385V174.087H99.2315V170.772H100.727V179H99.2315V175.277H95.3385V179H93.8425V170.772ZM103.14 170.772H104.636V173.56C105.044 173.492 105.486 173.458 105.962 173.458C106.948 173.458 107.786 173.685 108.478 174.138C109.169 174.58 109.515 175.271 109.515 176.212C109.515 177.005 109.226 177.646 108.648 178.133C107.9 178.768 106.8 179.085 105.35 179.085C104.851 179.085 104.114 179.045 103.14 178.966V170.772ZM104.619 174.631V177.946C104.879 177.991 105.225 178.014 105.656 178.014C106.302 178.014 106.857 177.872 107.322 177.589C107.786 177.306 108.019 176.864 108.019 176.263C108.019 175.651 107.792 175.209 107.339 174.937C106.897 174.665 106.358 174.529 105.724 174.529C105.293 174.529 104.925 174.563 104.619 174.631ZM110.552 170.772H112.031V178.983H110.552V170.772ZM114.428 170.772H115.856V174.24C115.856 175.26 115.822 176.365 115.754 177.555H115.805C116.519 176.172 116.967 175.328 117.148 175.022L119.715 170.772H121.466V179H120.038V175.498C120.038 174.58 120.072 173.458 120.14 172.132H120.106C119.585 173.163 119.126 174.019 118.729 174.699C118.435 175.186 117.976 175.951 117.352 176.994C116.74 178.025 116.344 178.694 116.162 179H114.428V170.772ZM115.754 167.423H116.842C116.865 167.808 116.967 168.12 117.148 168.358C117.341 168.596 117.602 168.715 117.93 168.715C118.599 168.715 118.984 168.284 119.086 167.423H120.157C120.123 168.103 119.902 168.624 119.494 168.987C119.098 169.35 118.565 169.531 117.896 169.531C117.194 169.531 116.667 169.338 116.315 168.953C115.975 168.568 115.788 168.058 115.754 167.423ZM123.977 180.989L122.923 181.108C123.377 179.861 123.717 178.501 123.943 177.028L125.609 176.858C125.405 177.583 125.139 178.354 124.81 179.17C124.493 179.986 124.215 180.592 123.977 180.989ZM130.964 170.772H132.46V174.087H136.353V170.772H137.849V179H136.353V175.277H132.46V179H130.964V170.772ZM146.908 175.158H141.145C141.156 176.11 141.422 176.824 141.944 177.3C142.476 177.765 143.145 177.997 143.95 177.997C144.822 177.997 145.582 177.855 146.228 177.572L146.5 178.643C145.718 178.994 144.8 179.17 143.746 179.17C142.499 179.17 141.513 178.79 140.788 178.031C140.062 177.272 139.7 176.269 139.7 175.022C139.7 173.753 140.051 172.699 140.754 171.86C141.468 171.01 142.408 170.585 143.576 170.585C144.21 170.585 144.76 170.715 145.225 170.976C145.689 171.225 146.041 171.56 146.279 171.979C146.517 172.387 146.687 172.801 146.789 173.22C146.902 173.628 146.959 174.042 146.959 174.461C146.959 174.756 146.942 174.988 146.908 175.158ZM141.162 174.087H145.514C145.514 173.826 145.486 173.566 145.429 173.305C145.372 173.044 145.27 172.784 145.123 172.523C144.975 172.262 144.76 172.053 144.477 171.894C144.193 171.735 143.853 171.656 143.457 171.656C142.765 171.656 142.227 171.905 141.842 172.404C141.456 172.903 141.23 173.464 141.162 174.087ZM148.284 179L148.913 170.772H150.749L152.228 174.92C152.546 175.793 152.795 176.546 152.976 177.181H153.01C153.237 176.444 153.566 175.504 153.996 174.359L155.305 170.772H157.158L157.736 179H156.308L156.121 175.073C156.11 174.824 156.087 174.365 156.053 173.696C156.019 173.016 155.997 172.495 155.985 172.132H155.934C155.798 172.574 155.492 173.464 155.016 174.801L153.435 178.949H152.364L150.902 174.869C150.619 174.064 150.341 173.158 150.069 172.149H150.001C149.945 173.645 149.905 174.631 149.882 175.107L149.661 179H148.284ZM159.618 170.772H161.114V174.087H165.007V170.772H166.503V179H165.007V175.277H161.114V179H159.618V170.772ZM172.315 179.187H172.298C171.165 179.187 170.224 178.802 169.476 178.031C168.728 177.249 168.354 176.223 168.354 174.954C168.354 173.617 168.739 172.557 169.51 171.775C170.292 170.982 171.267 170.585 172.434 170.585C173.613 170.585 174.565 170.976 175.29 171.758C176.027 172.54 176.395 173.554 176.395 174.801C176.395 176.229 175.987 177.317 175.171 178.065C174.355 178.813 173.403 179.187 172.315 179.187ZM172.349 178.065H172.366C173.08 178.065 173.675 177.765 174.151 177.164C174.627 176.552 174.865 175.781 174.865 174.852C174.865 174.047 174.655 173.322 174.236 172.676C173.828 172.03 173.216 171.707 172.4 171.707C171.584 171.707 170.961 172.024 170.53 172.659C170.099 173.294 169.884 174.042 169.884 174.903C169.884 175.81 170.116 176.563 170.581 177.164C171.046 177.765 171.635 178.065 172.349 178.065ZM178.228 170.772H183.294V171.962H179.724V179H178.228V170.772ZM187.854 179.187H187.837C186.704 179.187 185.763 178.802 185.015 178.031C184.267 177.249 183.893 176.223 183.893 174.954C183.893 173.617 184.279 172.557 185.049 171.775C185.831 170.982 186.806 170.585 187.973 170.585C189.152 170.585 190.104 170.976 190.829 171.758C191.566 172.54 191.934 173.554 191.934 174.801C191.934 176.229 191.526 177.317 190.71 178.065C189.894 178.813 188.942 179.187 187.854 179.187ZM187.888 178.065H187.905C188.619 178.065 189.214 177.765 189.69 177.164C190.166 176.552 190.404 175.781 190.404 174.852C190.404 174.047 190.195 173.322 189.775 172.676C189.367 172.03 188.755 171.707 187.939 171.707C187.123 171.707 186.5 172.024 186.069 172.659C185.639 173.294 185.423 174.042 185.423 174.903C185.423 175.81 185.656 176.563 186.12 177.164C186.585 177.765 187.174 178.065 187.888 178.065ZM73.2391 186.743L73.1711 187.984C72.8538 188.109 72.2815 188.233 71.4541 188.358C70.0601 188.573 69.0798 189.089 68.5131 189.905C68.0258 190.608 67.7255 191.514 67.6121 192.625H67.6631C67.9238 192.036 68.3148 191.582 68.8361 191.265C69.3688 190.936 69.9355 190.772 70.5361 190.772C71.5788 190.772 72.4231 191.129 73.0691 191.843C73.7151 192.557 74.0381 193.554 74.0381 194.835C74.0381 196.184 73.7038 197.249 73.0351 198.031C72.3665 198.802 71.4315 199.187 70.2301 199.187C69.5388 199.187 68.9325 199.034 68.4111 198.728C67.9011 198.411 67.5045 197.986 67.2211 197.453C66.9378 196.909 66.7281 196.325 66.5921 195.702C66.4561 195.079 66.3881 194.404 66.3881 193.679C66.3881 191.764 66.8075 190.245 67.6461 189.123C68.0315 188.568 68.5075 188.143 69.0741 187.848C69.6521 187.542 70.3605 187.321 71.1991 187.185C72.1965 187.015 72.8765 186.868 73.2391 186.743ZM72.5251 194.954V194.937C72.5251 194.438 72.4628 193.974 72.3381 193.543C72.2135 193.112 71.9698 192.727 71.6071 192.387C71.2445 192.047 70.7855 191.877 70.2301 191.877C69.3915 191.877 68.7681 192.251 68.3601 192.999C68.0881 193.486 67.9521 194.064 67.9521 194.733C67.9521 195.232 68.0258 195.725 68.1731 196.212C68.3205 196.699 68.5755 197.13 68.9381 197.504C69.3121 197.878 69.7541 198.065 70.2641 198.065C71.0348 198.065 71.6015 197.759 71.9641 197.147C72.3381 196.535 72.5251 195.804 72.5251 194.954ZM75.8796 190.772H77.3076V194.24C77.3076 195.26 77.2736 196.365 77.2056 197.555H77.2566C77.9706 196.172 78.4182 195.328 78.5996 195.022L81.1666 190.772H82.9176V199H81.4896V195.498C81.4896 194.58 81.5236 193.458 81.5916 192.132H81.5576C81.0362 193.163 80.5772 194.019 80.1806 194.699C79.8859 195.186 79.4269 195.951 78.8036 196.994C78.1916 198.025 77.7949 198.694 77.6136 199H75.8796V190.772ZM85.3437 202.366V193.458C85.3437 192.359 85.321 191.463 85.2757 190.772H86.6187L86.7037 192.183H86.7377C87.361 191.118 88.33 190.585 89.6447 190.585C90.6533 190.585 91.4863 190.976 92.1437 191.758C92.8123 192.529 93.1467 193.532 93.1467 194.767C93.1467 196.172 92.7783 197.26 92.0417 198.031C91.3163 198.802 90.438 199.187 89.4067 199.187C88.2393 199.187 87.395 198.756 86.8737 197.895H86.8397V202.366H85.3437ZM86.8397 194.223V195.651C86.8397 195.889 86.8623 196.093 86.9077 196.263C87.0323 196.784 87.2987 197.209 87.7067 197.538C88.126 197.855 88.602 198.014 89.1347 198.014C89.9167 198.014 90.5287 197.725 90.9707 197.147C91.4127 196.569 91.6337 195.798 91.6337 194.835C91.6337 193.974 91.4183 193.248 90.9877 192.659C90.557 192.07 89.962 191.775 89.2027 191.775C88.6813 191.775 88.2053 191.945 87.7747 192.285C87.3553 192.625 87.072 193.073 86.9247 193.628C86.868 193.945 86.8397 194.144 86.8397 194.223ZM94.9884 190.772H96.4504V194.24H97.8614C97.986 193.141 98.377 192.257 99.0344 191.588C99.6917 190.919 100.513 190.585 101.499 190.585C102.576 190.585 103.449 190.976 104.117 191.758C104.786 192.529 105.12 193.549 105.12 194.818C105.12 196.121 104.769 197.175 104.066 197.98C103.364 198.785 102.48 199.187 101.414 199.187C100.417 199.187 99.5897 198.847 98.9324 198.167C98.275 197.476 97.9067 196.546 97.8274 195.379H96.4504V199H94.9884V190.772ZM101.431 198.082H101.448C102.151 198.082 102.689 197.759 103.063 197.113C103.437 196.467 103.624 195.713 103.624 194.852C103.624 194.002 103.437 193.265 103.063 192.642C102.689 192.019 102.157 191.707 101.465 191.707C100.774 191.707 100.23 192.024 99.8334 192.659C99.448 193.294 99.2554 194.053 99.2554 194.937C99.2554 195.798 99.448 196.541 99.8334 197.164C100.219 197.776 100.751 198.082 101.431 198.082ZM107.706 195.243L107.689 194.223H108.403C109.026 194.223 109.53 194.098 109.916 193.849C110.312 193.588 110.511 193.265 110.511 192.88C110.511 192.517 110.363 192.228 110.069 192.013C109.774 191.786 109.389 191.673 108.913 191.673C108.233 191.673 107.57 191.871 106.924 192.268L106.55 191.333C107.377 190.846 108.289 190.602 109.287 190.602C109.74 190.602 110.165 190.67 110.562 190.806C110.97 190.931 111.321 191.163 111.616 191.503C111.922 191.843 112.075 192.262 112.075 192.761C112.075 193.237 111.888 193.645 111.514 193.985C111.151 194.314 110.72 194.529 110.222 194.631V194.665C110.868 194.733 111.4 194.948 111.82 195.311C112.25 195.674 112.466 196.144 112.466 196.722C112.466 197.538 112.114 198.15 111.412 198.558C110.72 198.966 109.887 199.17 108.913 199.17C107.927 199.17 107.037 198.949 106.244 198.507L106.635 197.487C107.303 197.872 108.029 198.065 108.811 198.065C109.423 198.065 109.91 197.935 110.273 197.674C110.647 197.413 110.834 197.073 110.834 196.654C110.834 195.713 110.035 195.243 108.437 195.243H107.706ZM117.696 199.187H117.679C116.546 199.187 115.605 198.802 114.857 198.031C114.109 197.249 113.735 196.223 113.735 194.954C113.735 193.617 114.12 192.557 114.891 191.775C115.673 190.982 116.648 190.585 117.815 190.585C118.994 190.585 119.946 190.976 120.671 191.758C121.408 192.54 121.776 193.554 121.776 194.801C121.776 196.229 121.368 197.317 120.552 198.065C119.736 198.813 118.784 199.187 117.696 199.187ZM117.73 198.065H117.747C118.461 198.065 119.056 197.765 119.532 197.164C120.008 196.552 120.246 195.781 120.246 194.852C120.246 194.047 120.036 193.322 119.617 192.676C119.209 192.03 118.597 191.707 117.781 191.707C116.965 191.707 116.342 192.024 115.911 192.659C115.48 193.294 115.265 194.042 115.265 194.903C115.265 195.81 115.497 196.563 115.962 197.164C116.427 197.765 117.016 198.065 117.73 198.065ZM123.609 199V190.857C124.334 190.732 125.207 190.67 126.227 190.67C128.675 190.67 129.899 191.361 129.899 192.744C129.899 193.231 129.735 193.639 129.406 193.968C129.089 194.285 128.681 194.501 128.182 194.614V194.648C128.817 194.739 129.321 194.954 129.695 195.294C130.08 195.634 130.273 196.093 130.273 196.671C130.273 198.292 128.828 199.102 125.938 199.102C125.269 199.102 124.493 199.068 123.609 199ZM125.054 191.775V194.24H126.176C126.799 194.24 127.326 194.138 127.757 193.934C128.199 193.719 128.42 193.384 128.42 192.931C128.42 192.115 127.683 191.707 126.21 191.707C125.893 191.707 125.507 191.73 125.054 191.775ZM125.037 195.209V198.031C125.456 198.065 125.853 198.082 126.227 198.082C126.896 198.082 127.479 197.98 127.978 197.776C128.488 197.561 128.743 197.187 128.743 196.654C128.743 196.11 128.511 195.736 128.046 195.532C127.581 195.317 126.941 195.209 126.125 195.209H125.037ZM135.526 199.187H135.509C134.376 199.187 133.435 198.802 132.687 198.031C131.939 197.249 131.565 196.223 131.565 194.954C131.565 193.617 131.95 192.557 132.721 191.775C133.503 190.982 134.478 190.585 135.645 190.585C136.824 190.585 137.776 190.976 138.501 191.758C139.238 192.54 139.606 193.554 139.606 194.801C139.606 196.229 139.198 197.317 138.382 198.065C137.566 198.813 136.614 199.187 135.526 199.187ZM135.56 198.065H135.577C136.291 198.065 136.886 197.765 137.362 197.164C137.838 196.552 138.076 195.781 138.076 194.852C138.076 194.047 137.866 193.322 137.447 192.676C137.039 192.03 136.427 191.707 135.611 191.707C134.795 191.707 134.172 192.024 133.741 192.659C133.31 193.294 133.095 194.042 133.095 194.903C133.095 195.81 133.327 196.563 133.792 197.164C134.257 197.765 134.846 198.065 135.56 198.065ZM141.439 190.772H146.505V191.962H142.935V199H141.439V190.772ZM151.065 199.187H151.048C149.915 199.187 148.974 198.802 148.226 198.031C147.478 197.249 147.104 196.223 147.104 194.954C147.104 193.617 147.489 192.557 148.26 191.775C149.042 190.982 150.017 190.585 151.184 190.585C152.363 190.585 153.315 190.976 154.04 191.758C154.777 192.54 155.145 193.554 155.145 194.801C155.145 196.229 154.737 197.317 153.921 198.065C153.105 198.813 152.153 199.187 151.065 199.187ZM151.099 198.065H151.116C151.83 198.065 152.425 197.765 152.901 197.164C153.377 196.552 153.615 195.781 153.615 194.852C153.615 194.047 153.405 193.322 152.986 192.676C152.578 192.03 151.966 191.707 151.15 191.707C150.334 191.707 149.711 192.024 149.28 192.659C148.849 193.294 148.634 194.042 148.634 194.903C148.634 195.81 148.866 196.563 149.331 197.164C149.796 197.765 150.385 198.065 151.099 198.065Z" fill="black"/>
</svg>