<svg width="488" height="439" viewBox="0 0 488 439" fill="none" xmlns="http://www.w3.org/2000/svg">
    <path d="M383.468 359.838H86.4814C80.9455 359.838 76.5493 355.441 76.5493 349.905V134.167C76.5493 128.631 80.9455 124.234 86.4814 124.234H383.468C389.004 124.234 393.401 128.631 393.401 134.167V349.905C393.401 355.279 389.004 359.838 383.468 359.838Z" stroke="black" stroke-miterlimit="10"/>
    <path d="M76.3865 144.095H393.401" stroke="black" stroke-miterlimit="10"/>
    <path d="M366.698 136.766C368.226 136.766 369.466 135.527 369.466 133.998C369.466 132.47 368.226 131.23 366.698 131.23C365.169 131.23 363.93 132.47 363.93 133.998C363.93 135.527 365.169 136.766 366.698 136.766Z" stroke="black" stroke-miterlimit="10"/>
    <path d="M353.021 136.766C354.549 136.766 355.789 135.527 355.789 133.998C355.789 132.47 354.549 131.23 353.021 131.23C351.492 131.23 350.253 132.47 350.253 133.998C350.253 135.527 351.492 136.766 353.021 136.766Z" stroke="black" stroke-miterlimit="10"/>
    <path d="M380.375 136.766C381.903 136.766 383.143 135.527 383.143 133.998C383.143 132.47 381.903 131.23 380.375 131.23C378.846 131.23 377.607 132.47 377.607 133.998C377.607 135.527 378.846 136.766 380.375 136.766Z" stroke="black" stroke-miterlimit="10"/>
    <path d="M99.5073 169.503V169.34C99.6701 169.34 99.833 169.503 99.833 169.503C99.9958 169.503 99.9958 169.503 100.159 169.503L100.321 169.34V169.177C100.321 169.177 100.159 169.014 99.9958 169.014C99.6701 168.851 99.5073 168.688 99.5073 168.526C99.5073 168.363 99.5073 168.2 99.6701 168.2C99.833 168.037 99.833 168.037 100.159 168.037C100.321 168.037 100.484 168.037 100.484 168.2V168.363C100.321 168.363 100.321 168.2 100.159 168.2C99.9958 168.2 99.9958 168.2 99.833 168.2L99.6701 168.363V168.526C99.6701 168.526 99.833 168.688 99.9958 168.688C100.159 168.688 100.321 168.851 100.321 168.851C100.321 168.851 100.484 169.014 100.484 169.177C100.484 169.34 100.484 169.503 100.321 169.503C100.159 169.665 99.9958 169.665 99.833 169.665C99.6701 169.665 99.6701 169.665 99.5073 169.665C99.5073 169.503 99.5073 169.503 99.5073 169.503Z" fill="black"/>
    <path d="M101.135 169.498V167.707C101.298 167.707 101.461 167.707 101.624 167.707C101.787 167.707 101.949 167.707 102.112 167.87C102.275 168.033 102.275 168.033 102.275 168.196C102.275 168.358 102.275 168.521 102.112 168.521C101.949 168.684 101.787 168.684 101.624 168.684H101.461V169.335L101.135 169.498ZM101.298 168.033V168.684H101.461C101.624 168.684 101.624 168.684 101.787 168.521C101.787 168.521 101.949 168.358 101.949 168.196C101.949 168.033 101.949 168.033 101.787 167.87C101.787 167.87 101.624 167.707 101.461 167.707C101.461 168.033 101.461 168.033 101.298 168.033Z" fill="black"/>
    <path d="M103.415 169.01H102.764L102.601 169.498H102.438L103.089 167.707H103.415L104.066 169.498H103.903L103.415 169.01ZM102.926 168.847H103.415L103.252 168.358C103.252 168.358 103.252 168.195 103.089 168.033C103.089 168.195 103.089 168.195 102.926 168.358V168.847Z" fill="black"/>
    <path d="M105.532 169.334V169.496C105.369 169.496 105.206 169.659 105.043 169.659C104.717 169.659 104.555 169.659 104.392 169.496C104.229 169.334 104.229 169.171 104.229 168.845C104.229 168.519 104.392 168.357 104.555 168.194C104.717 168.031 104.88 167.868 105.206 167.868C105.369 167.868 105.532 167.868 105.694 167.868V168.031C105.532 168.031 105.532 168.031 105.369 168.031C105.206 168.031 105.043 168.031 104.88 168.194C104.717 168.357 104.717 168.519 104.717 168.682C104.717 168.845 104.717 169.008 104.88 169.171C105.043 169.334 105.206 169.334 105.369 169.334H105.532Z" fill="black"/>
    <path d="M106.997 168.521V168.684H106.346V169.335H107.16V169.498H106.183V167.707H107.16V167.87H106.509V168.358H106.997V168.521Z" fill="black"/>
    <path d="M100.159 165.752C100.484 165.752 100.647 165.752 100.81 165.752C100.973 165.752 101.298 165.752 101.461 165.752V160.379H99.5073C99.5073 160.542 99.5073 160.705 99.5073 160.867C99.5073 161.03 99.5073 161.03 99.5073 161.193C99.5073 161.356 99.5073 161.356 99.5073 161.519H100.159V165.752Z" fill="black"/>
    <path d="M100.321 159.568C100.484 159.568 100.647 159.568 100.647 159.568C100.81 159.568 100.81 159.568 100.973 159.568C101.135 159.568 101.298 159.568 101.298 159.568C101.298 159.405 101.298 159.405 101.298 159.243C101.298 159.08 101.298 159.08 101.298 158.917C101.298 158.754 101.298 158.754 101.298 158.591C101.298 158.428 101.298 158.428 101.298 158.266C101.135 158.266 100.973 158.266 100.973 158.266C100.81 158.266 100.647 158.266 100.647 158.266C100.484 158.266 100.484 158.266 100.321 158.266C100.158 158.266 99.9956 158.266 99.9956 158.266C99.9956 158.428 99.9956 158.754 99.9956 158.917C99.9956 159.08 99.9956 159.405 99.9956 159.568C99.9956 159.568 100.158 159.568 100.321 159.568Z" fill="black"/>
    <path d="M103.903 165.752V162.984C103.903 162.658 103.903 162.496 104.066 162.333C104.066 162.17 104.229 162.007 104.229 161.844C104.392 161.681 104.392 161.681 104.554 161.681C104.717 161.681 104.88 161.681 104.88 161.681C105.206 161.681 105.369 161.844 105.531 162.007C105.694 162.17 105.694 162.496 105.694 162.821V165.915C106.02 165.915 106.183 165.915 106.508 165.915C106.671 165.915 106.997 165.915 107.322 165.915V162.496C107.322 161.844 107.16 161.193 106.834 160.867C106.508 160.542 106.02 160.379 105.531 160.379C105.369 160.379 105.206 160.379 105.043 160.379C104.88 160.379 104.717 160.542 104.554 160.542C104.392 160.542 104.392 160.705 104.229 160.867C104.066 161.03 104.066 161.03 103.903 161.193V161.03V160.867V160.705V160.542C103.74 160.542 103.74 160.542 103.578 160.542C103.415 160.542 103.415 160.542 103.252 160.542C103.089 160.542 103.089 160.542 102.926 160.542C102.763 160.542 102.763 160.542 102.601 160.542V165.915C102.926 165.915 103.089 165.915 103.415 165.915C103.415 165.915 103.578 165.915 103.903 165.752Z" fill="black"/>
    <path d="M112.533 154.519H93.9712V173.08H112.533V154.519Z" stroke="black" stroke-miterlimit="10"/>
    <path d="M320.456 163.798C320.456 160.705 323.061 158.1 326.155 158.1H356.766C359.859 158.1 362.464 160.705 362.464 163.798C362.464 166.892 359.859 169.497 356.766 169.497H326.155C322.899 169.497 320.456 167.055 320.456 163.798Z" fill="black"/>
    <path d="M326.481 165.592V165.267C326.643 165.267 326.644 165.267 326.806 165.267C326.969 165.267 327.295 165.104 327.458 164.941C327.62 164.778 327.783 164.453 327.783 164.127C327.62 164.29 327.458 164.453 327.132 164.453C326.806 164.453 326.643 164.29 326.481 164.127C326.318 163.964 326.318 163.801 326.318 163.476C326.318 163.15 326.481 162.987 326.644 162.662C326.806 162.499 327.132 162.336 327.295 162.336C327.62 162.336 327.783 162.499 327.946 162.662C328.109 162.824 328.272 163.15 328.272 163.639C328.272 164.29 328.109 164.615 327.783 164.941C327.62 165.104 327.295 165.267 326.969 165.267C326.644 165.592 326.481 165.592 326.481 165.592ZM327.132 162.824C326.969 162.824 326.806 162.824 326.644 162.987C326.481 163.15 326.481 163.313 326.481 163.476C326.481 163.639 326.481 163.801 326.644 163.964C326.806 164.127 326.806 164.127 327.132 164.127C327.458 164.127 327.62 163.964 327.783 163.801V163.639C327.783 163.313 327.783 163.15 327.62 162.987C327.458 162.987 327.295 162.824 327.132 162.824ZM328.76 165.592V165.267C328.923 165.267 328.923 165.267 329.086 165.267C329.249 165.267 329.574 165.104 329.737 164.941C329.9 164.778 330.063 164.453 330.063 164.127C329.9 164.29 329.737 164.453 329.411 164.453C329.086 164.453 328.923 164.29 328.76 164.127C328.597 163.964 328.597 163.801 328.597 163.476C328.597 163.15 328.76 162.987 328.923 162.662C329.086 162.499 329.411 162.336 329.574 162.336C329.9 162.336 330.063 162.499 330.226 162.662C330.388 162.824 330.551 163.15 330.551 163.639C330.551 164.29 330.388 164.615 330.063 164.941C329.9 165.104 329.574 165.267 329.249 165.267C328.923 165.592 328.76 165.592 328.76 165.592ZM329.411 162.824C329.249 162.824 329.086 162.824 328.923 162.987C328.76 163.15 328.76 163.313 328.76 163.476C328.76 163.639 328.76 163.801 328.923 163.964C329.086 164.127 329.086 164.127 329.411 164.127C329.737 164.127 329.9 163.964 330.063 163.801V163.639C330.063 163.313 330.063 163.15 329.9 162.987C329.737 162.987 329.737 162.824 329.411 162.824ZM331.04 165.592V165.267C331.203 165.267 331.203 165.267 331.365 165.267C331.528 165.267 331.854 165.104 332.017 164.941C332.179 164.778 332.342 164.453 332.342 164.127C332.179 164.29 332.017 164.453 331.691 164.453C331.365 164.453 331.203 164.29 331.04 164.127C330.877 163.964 330.877 163.801 330.877 163.476C330.877 163.15 331.04 162.987 331.203 162.662C331.365 162.499 331.691 162.336 331.854 162.336C332.179 162.336 332.342 162.499 332.505 162.662C332.668 162.824 332.831 163.15 332.831 163.639C332.831 164.29 332.668 164.615 332.342 164.941C332.179 165.104 331.854 165.267 331.528 165.267C331.203 165.592 331.203 165.592 331.04 165.592ZM331.854 162.824C331.691 162.824 331.528 162.824 331.365 162.987C331.203 163.15 331.203 163.313 331.203 163.476C331.203 163.639 331.203 163.801 331.365 163.964C331.528 164.127 331.528 164.127 331.854 164.127C332.179 164.127 332.342 163.964 332.505 163.801V163.639C332.505 163.313 332.505 163.15 332.342 162.987C332.179 162.987 332.017 162.824 331.854 162.824ZM333.319 165.592V165.267C333.482 165.267 333.482 165.267 333.645 165.267C333.808 165.267 334.133 165.104 334.296 164.941C334.459 164.778 334.622 164.453 334.622 164.127C334.459 164.29 334.296 164.453 333.97 164.453C333.645 164.453 333.482 164.29 333.319 164.127C333.156 163.964 333.156 163.801 333.156 163.476C333.156 163.15 333.319 162.987 333.482 162.662C333.645 162.499 333.971 162.336 334.133 162.336C334.459 162.336 334.622 162.499 334.785 162.662C334.947 162.824 335.11 163.15 335.11 163.639C335.11 164.29 334.947 164.615 334.622 164.941C334.459 165.104 334.133 165.267 333.808 165.267C333.645 165.592 333.482 165.592 333.319 165.592ZM334.133 162.824C333.971 162.824 333.808 162.824 333.645 162.987C333.482 163.15 333.482 163.313 333.482 163.476C333.482 163.639 333.482 163.801 333.645 163.964C333.808 164.127 333.808 164.127 334.133 164.127C334.459 164.127 334.622 163.964 334.785 163.801V163.639C334.785 163.313 334.785 163.15 334.622 162.987C334.459 162.987 334.296 162.824 334.133 162.824ZM336.901 165.592H336.576V163.476H336.901V165.592ZM336.738 162.987H336.576V162.824V162.662H336.738H336.901V162.824V162.987C336.901 162.987 336.901 162.987 336.738 162.987ZM337.553 165.592V163.964C337.553 163.801 337.553 163.476 337.553 163.313H337.878V163.639C337.878 163.476 338.041 163.476 338.204 163.313C338.367 163.15 338.529 163.15 338.692 163.15C338.855 163.15 338.855 163.15 339.018 163.15C339.181 163.15 339.181 163.15 339.344 163.313C339.506 163.313 339.506 163.476 339.506 163.639C339.506 163.801 339.506 163.964 339.506 164.127V165.43H339.181V164.127C339.181 163.964 339.181 163.801 339.018 163.639C338.855 163.476 338.855 163.476 338.692 163.476C338.529 163.476 338.529 163.476 338.367 163.639C338.204 163.639 338.204 163.801 338.204 163.964V164.127V165.43H337.553V165.592ZM340.321 165.592C340.321 165.592 340.158 165.592 340.158 165.43V165.267C340.158 165.104 340.158 165.104 340.158 165.104L340.321 164.941C340.321 164.941 340.483 164.941 340.483 165.104V165.267C340.483 165.43 340.483 165.43 340.483 165.43C340.483 165.592 340.321 165.592 340.321 165.592ZM343.089 165.104V165.43C342.926 165.592 342.6 165.592 342.274 165.592C341.786 165.592 341.46 165.43 341.135 165.104C340.809 164.778 340.646 164.453 340.646 163.964C340.646 163.476 340.809 163.15 341.135 162.824C341.46 162.499 341.786 162.336 342.274 162.336C342.6 162.336 342.763 162.336 342.926 162.499L342.763 162.824C342.6 162.662 342.437 162.662 342.112 162.662C341.786 162.662 341.46 162.824 341.297 162.987C341.135 163.15 340.972 163.476 340.972 163.964C340.972 164.29 341.135 164.615 341.297 164.941C341.46 165.104 341.786 165.267 342.112 165.267C342.763 165.267 342.926 165.267 343.089 165.104ZM344.88 165.592C344.391 165.592 344.065 165.43 343.903 165.104C343.577 164.778 343.577 164.453 343.577 163.964C343.577 163.476 343.74 163.15 343.903 162.824C344.228 162.499 344.554 162.336 344.88 162.336C345.368 162.336 345.694 162.499 345.856 162.824C346.182 163.15 346.182 163.476 346.182 163.964C346.182 164.453 346.019 164.941 345.856 165.104C345.531 165.43 345.205 165.592 344.88 165.592ZM344.88 165.267C345.205 165.267 345.368 165.104 345.531 164.941C345.694 164.778 345.856 164.453 345.856 163.964C345.856 163.639 345.694 163.313 345.531 163.15C345.368 162.824 345.042 162.824 344.88 162.824C344.717 162.824 344.391 162.987 344.228 163.15C344.065 163.476 343.903 163.639 343.903 164.127C343.903 164.453 344.065 164.778 344.228 164.941C344.228 165.104 344.554 165.267 344.88 165.267ZM346.671 162.499H346.996V165.592H346.671V162.499ZM348.136 165.592H347.81V162.499H348.299L349.276 163.964C349.439 164.29 349.764 164.615 349.764 164.941C349.764 164.615 349.764 164.127 349.764 163.639V162.336H350.09V165.43H349.764L348.787 163.801C348.462 163.476 348.299 162.987 348.299 162.824C348.299 163.15 348.299 163.476 348.299 164.127V165.592H348.136Z" fill="white"/>
    <path d="M271.773 163.798C271.773 160.705 274.378 158.1 277.471 158.1H309.71C312.804 158.1 315.409 160.705 315.409 163.798C315.409 166.892 312.804 169.497 309.71 169.497H277.471C274.215 169.497 271.773 167.055 271.773 163.798Z" fill="#F1F1F1"/>
    <path d="M279.425 165.592H277.471V165.267L277.797 164.941C278.286 164.615 278.448 164.29 278.611 163.964C278.774 163.801 278.774 163.476 278.774 163.313C278.774 163.15 278.774 162.987 278.611 162.824C278.448 162.662 278.448 162.662 278.123 162.662C277.96 162.662 277.634 162.824 277.471 162.987L277.309 162.662C277.471 162.499 277.797 162.336 278.123 162.336C278.448 162.336 278.611 162.499 278.774 162.662C278.937 162.824 278.937 162.987 278.937 163.313C278.937 163.639 278.937 163.801 278.774 163.964C278.611 164.127 278.286 164.453 277.96 164.778L277.797 164.941H279.1V165.592H279.425ZM280.728 165.592C280.402 165.592 280.239 165.43 280.077 165.267C279.914 164.941 279.751 164.615 279.751 164.127C279.751 163.639 279.914 163.313 280.077 162.987C280.239 162.662 280.565 162.662 280.891 162.662C281.216 162.662 281.379 162.824 281.542 162.987C281.705 163.313 281.868 163.639 281.868 164.127C281.868 164.615 281.705 164.941 281.542 165.267C281.379 165.43 281.054 165.592 280.728 165.592ZM280.728 165.267C280.891 165.267 281.054 165.104 281.216 164.941C281.379 164.778 281.379 164.453 281.379 163.964C281.379 163.639 281.379 163.313 281.216 163.15C281.054 162.987 280.891 162.824 280.728 162.824C280.565 162.824 280.402 162.987 280.239 163.15C280.077 163.313 280.077 163.639 280.077 163.964C280.077 164.29 280.077 164.615 280.239 164.941C280.402 165.267 280.565 165.267 280.728 165.267ZM283.17 165.592C282.845 165.592 282.682 165.43 282.519 165.267C282.356 164.941 282.193 164.615 282.193 164.127C282.193 163.639 282.356 163.313 282.519 162.987C282.682 162.662 283.007 162.662 283.333 162.662C283.659 162.662 283.821 162.824 283.984 162.987C284.147 163.313 284.31 163.639 284.31 164.127C284.31 164.615 284.147 164.941 283.984 165.267C283.821 165.592 283.496 165.592 283.17 165.592ZM283.17 165.267C283.333 165.267 283.496 165.104 283.659 164.941C283.821 164.778 283.821 164.453 283.821 163.964C283.821 163.639 283.821 163.313 283.659 163.15C283.496 162.987 283.333 162.824 283.17 162.824C283.007 162.824 282.845 162.987 282.682 163.15C282.519 163.313 282.519 163.639 282.519 163.964C282.519 164.29 282.519 164.615 282.682 164.941C282.845 165.267 283.007 165.267 283.17 165.267ZM285.45 165.592C285.124 165.592 284.961 165.43 284.798 165.267C284.636 164.941 284.473 164.615 284.473 164.127C284.473 163.639 284.636 163.313 284.798 162.987C284.961 162.662 285.287 162.662 285.613 162.662C285.938 162.662 286.101 162.824 286.264 162.987C286.427 163.313 286.589 163.639 286.589 164.127C286.589 164.615 286.427 164.941 286.264 165.267C285.938 165.43 285.775 165.592 285.45 165.592ZM285.45 165.267C285.613 165.267 285.775 165.104 285.938 164.941C286.101 164.778 286.101 164.453 286.101 163.964C286.101 163.639 286.101 163.313 285.938 163.15C285.775 162.987 285.613 162.824 285.45 162.824C285.287 162.824 285.124 162.987 284.961 163.15C284.798 163.313 284.798 163.639 284.798 163.964C284.798 164.29 284.798 164.615 284.961 164.941C285.124 165.267 285.287 165.267 285.45 165.267ZM288.218 165.592H287.892V163.476H288.218V165.592ZM288.055 162.987H287.892V162.824V162.662H288.055H288.218V162.824V162.987C288.218 162.987 288.218 162.987 288.055 162.987ZM288.869 165.592V163.964C288.869 163.801 288.869 163.476 288.869 163.313H289.195V163.639C289.195 163.476 289.357 163.476 289.52 163.313C289.683 163.15 289.846 163.15 290.009 163.15C290.172 163.15 290.172 163.15 290.334 163.15C290.497 163.15 290.497 163.15 290.66 163.313C290.823 163.313 290.823 163.476 290.823 163.639C290.823 163.801 290.823 163.964 290.823 164.127V165.43H290.497V164.127C290.497 163.964 290.497 163.801 290.334 163.639C290.172 163.476 290.172 163.476 290.009 163.476C289.846 163.476 289.846 163.476 289.683 163.639C289.52 163.639 289.52 163.801 289.52 163.964V164.127V165.43H288.869V165.592ZM291.637 165.592C291.637 165.592 291.474 165.592 291.474 165.43V165.267C291.474 165.104 291.474 165.104 291.474 165.104L291.637 164.941C291.637 164.941 291.8 164.941 291.8 165.104V165.267C291.8 165.43 291.8 165.43 291.8 165.43C291.8 165.592 291.637 165.592 291.637 165.592ZM294.405 165.104V165.43C294.242 165.592 293.916 165.592 293.591 165.592C293.102 165.592 292.777 165.43 292.451 165.104C292.125 164.778 291.963 164.453 291.963 163.964C291.963 163.476 292.125 163.15 292.451 162.824C292.777 162.499 293.102 162.336 293.591 162.336C293.916 162.336 294.079 162.336 294.242 162.499L294.079 162.824C293.916 162.662 293.754 162.662 293.428 162.662C293.102 162.662 292.777 162.824 292.614 162.987C292.451 163.15 292.288 163.476 292.288 163.964C292.288 164.29 292.451 164.615 292.614 164.941C292.777 165.104 293.102 165.267 293.428 165.267C294.079 165.267 294.242 165.267 294.405 165.104ZM296.196 165.592C295.707 165.592 295.382 165.43 295.219 165.104C294.893 164.778 294.893 164.453 294.893 163.964C294.893 163.476 295.056 163.15 295.219 162.824C295.545 162.499 295.87 162.336 296.196 162.336C296.684 162.336 297.01 162.499 297.173 162.824C297.498 163.15 297.499 163.476 297.499 163.964C297.499 164.453 297.336 164.941 297.173 165.104C296.847 165.43 296.522 165.592 296.196 165.592ZM296.196 165.267C296.522 165.267 296.684 165.104 296.847 164.941C297.01 164.778 297.173 164.453 297.173 163.964C297.173 163.639 297.01 163.313 296.847 163.15C296.684 162.824 296.359 162.824 296.196 162.824C295.87 162.824 295.707 162.987 295.545 163.15C295.382 163.476 295.219 163.639 295.219 164.127C295.219 164.453 295.382 164.778 295.545 164.941C295.545 165.104 295.87 165.267 296.196 165.267ZM297.987 162.499H298.313V165.592H297.987V162.499ZM299.452 165.592H299.127V162.499H299.615L300.592 163.964C300.755 164.29 301.081 164.615 301.081 164.941C301.081 164.615 301.081 164.127 301.081 163.639V162.336H301.406V165.43H301.081L300.104 163.801C299.778 163.476 299.615 162.987 299.615 162.824C299.615 163.15 299.615 163.476 299.615 164.127V165.592H299.452Z" fill="black"/>
    <path fill-rule="evenodd" clip-rule="evenodd" d="M304.825 160.541C304.825 160.541 304.825 160.704 304.825 160.867V161.029H304.5H304.174C304.174 161.192 304.174 161.518 304.337 161.844C304.5 162.332 304.825 162.658 305.151 162.983C305.314 162.983 305.314 162.983 305.314 163.146C305.477 163.309 305.477 163.472 305.64 163.635C305.802 163.797 306.128 163.96 306.291 164.123H306.454C306.454 164.123 306.454 164.449 306.454 164.774V165.426H306.128C305.802 165.426 305.802 165.426 305.802 165.426C305.802 165.426 305.802 165.426 305.802 165.751V166.077H305.477C305.314 166.077 305.151 166.077 305.151 166.077C305.151 166.077 305.151 166.077 305.151 166.565V167.054H304.5C304.174 167.054 303.848 167.054 303.848 167.054C303.848 167.054 303.686 167.217 303.848 167.217C303.848 167.217 304.011 167.217 306.779 167.217C309.71 167.217 309.71 167.217 309.71 167.217V167.054C309.71 167.054 309.71 167.054 309.059 167.054H308.408V166.565C308.408 166.077 308.408 166.077 308.408 166.077H308.082H307.919V165.751C307.919 165.426 307.919 165.426 307.919 165.426C307.919 165.426 307.919 165.426 307.593 165.426H307.268V164.774V164.123H307.431C307.756 163.96 307.919 163.96 308.082 163.635C308.245 163.472 308.407 163.309 308.57 163.146C308.57 163.146 308.57 163.146 308.733 162.983C309.059 162.821 309.384 162.495 309.547 162.169C309.71 161.844 309.71 161.681 309.71 161.355C309.71 161.029 309.71 161.029 309.384 161.029H309.059V160.867C309.059 160.704 309.059 160.541 309.059 160.541H307.105C305.477 160.541 304.825 160.541 304.825 160.541ZM308.57 160.867C308.57 161.029 308.57 161.518 308.57 161.681C308.57 162.006 308.408 162.332 308.408 162.658C308.408 162.821 308.245 163.146 308.082 163.309C307.919 163.635 307.431 163.96 307.105 164.123C306.942 164.123 306.942 164.123 306.942 164.286C306.942 164.286 306.942 164.449 306.942 164.937V165.588H306.779H306.616V164.937C306.616 164.449 306.616 164.286 306.616 164.286L306.454 164.123C305.64 163.797 305.151 162.983 304.988 161.844C304.988 161.681 304.988 161.029 304.988 160.867V160.704H306.779L308.57 160.867ZM306.779 161.192C306.779 161.192 306.616 161.355 306.616 161.518C306.616 161.681 306.454 161.844 306.454 161.844C306.454 161.844 306.291 161.844 306.128 161.844C305.965 161.844 305.802 161.844 305.802 161.844C305.802 161.844 305.802 161.844 305.802 162.006C305.802 162.006 305.965 162.169 306.128 162.332L306.291 162.495V162.821C306.291 162.983 306.291 163.146 306.291 163.146C306.291 163.146 306.291 163.309 306.454 163.309C306.454 163.309 306.616 163.309 306.779 163.146C306.942 163.146 307.105 162.983 307.105 162.983C307.105 162.983 307.268 162.983 307.431 163.146C307.756 163.309 307.756 163.309 307.756 163.309C307.756 163.309 307.756 163.146 307.756 162.983V162.658C307.919 162.495 308.082 162.332 308.082 162.332V162.169C308.082 162.169 307.919 162.169 307.756 162.169C307.593 162.169 307.431 162.169 307.431 162.169C307.431 162.169 307.431 162.006 307.268 161.844C307.105 161.681 306.942 161.192 306.779 161.192C306.942 161.192 306.779 161.192 306.779 161.192ZM304.825 161.355C304.825 161.681 304.825 161.844 304.825 162.006C304.825 162.169 304.988 162.495 304.988 162.658V162.821C304.988 162.821 304.825 162.658 304.663 162.658C304.337 162.332 304.337 162.006 304.174 161.518V161.355H304.337H304.825ZM309.384 161.355C309.384 161.844 309.222 162.169 308.896 162.495L308.733 162.658C308.896 162.332 308.896 161.844 308.896 161.518V161.355H309.059H309.384ZM306.942 161.681C306.942 161.844 307.105 161.844 307.105 161.844H307.268C307.431 161.844 307.431 161.844 307.431 161.844L307.268 162.006C307.105 162.169 307.105 162.169 307.105 162.495C307.105 162.658 307.105 162.658 307.105 162.658C307.105 162.658 307.105 162.658 306.942 162.495C306.779 162.495 306.779 162.332 306.779 162.332C306.779 162.332 306.616 162.332 306.454 162.495C306.291 162.658 306.291 162.658 306.291 162.495C306.291 162.332 306.291 162.006 306.291 162.006L306.128 161.844C305.965 161.681 305.965 161.681 305.965 161.681H306.128C306.291 161.681 306.291 161.681 306.454 161.681C306.454 161.681 306.454 161.518 306.616 161.518C306.616 161.355 306.779 161.355 306.779 161.355C306.779 161.518 306.942 161.681 306.942 161.681ZM307.593 165.751V165.914H306.779H305.965V165.751V165.588H306.779H307.593V165.751ZM308.245 166.565V167.054H306.779H305.314V166.565V166.077H306.779H308.245V166.565Z" fill="black"/>
    <path d="M122.628 169.497C125.775 169.497 128.326 166.946 128.326 163.798C128.326 160.651 125.775 158.1 122.628 158.1C119.48 158.1 116.929 160.651 116.929 163.798C116.929 166.946 119.48 169.497 122.628 169.497Z" fill="black"/>
    <path d="M122.953 162.821C122.953 162.984 122.953 163.147 122.791 163.31C122.953 163.31 122.953 163.31 123.116 163.31C123.768 163.31 124.256 162.821 124.256 162.17C124.256 161.519 123.768 161.03 123.116 161.03C122.628 161.03 122.139 161.356 121.977 161.682C122.628 161.844 122.953 162.333 122.953 162.821Z" stroke="white" stroke-width="0.5" stroke-miterlimit="8" stroke-linecap="square"/>
    <path d="M122.139 161.683C121.977 161.683 121.977 161.683 121.814 161.683C121.163 161.683 120.674 162.171 120.674 162.822C120.674 163.474 121.163 163.962 121.814 163.962C122.302 163.962 122.791 163.636 122.954 163.311C122.954 163.148 123.116 162.985 123.116 162.822C122.954 162.334 122.628 161.845 122.139 161.683Z" stroke="white" stroke-width="0.5" stroke-miterlimit="8" stroke-linecap="square"/>
    <path d="M123.279 163.798C122.791 163.798 122.302 164.123 121.977 164.449C122.791 164.449 123.605 165.263 123.605 166.077V166.566H124.907V165.426C124.907 164.449 124.093 163.798 123.279 163.798Z" stroke="white" stroke-width="0.5" stroke-miterlimit="8" stroke-linecap="square"/>
    <path d="M121.814 164.449C120.837 164.449 120.185 165.101 120.185 166.077V167.217H123.442V166.566V166.077C123.442 165.263 122.79 164.449 121.814 164.449Z" stroke="white" stroke-width="0.5" stroke-miterlimit="8" stroke-linecap="square"/>
    <path d="M358.231 169.497C361.378 169.497 363.93 166.946 363.93 163.798C363.93 160.651 361.378 158.1 358.231 158.1C355.084 158.1 352.532 160.651 352.532 163.798C352.532 166.946 355.084 169.497 358.231 169.497Z" fill="#F1F1F1"/>
    <path d="M358.231 163.476C359.045 163.476 359.534 162.825 359.534 162.174C359.534 161.36 358.882 160.871 358.231 160.871C357.417 160.871 356.928 161.522 356.928 162.174C356.928 162.825 357.58 163.476 358.231 163.476Z" stroke="black" stroke-width="0.5" stroke-miterlimit="8" stroke-linecap="square"/>
    <path d="M358.231 163.967C357.254 163.967 356.44 164.781 356.44 165.758V167.06H360.022V165.758C360.022 164.781 359.208 163.967 358.231 163.967Z" stroke="black" stroke-width="0.5" stroke-miterlimit="8" stroke-linecap="square"/>
    <path d="M149.819 163.798C149.819 160.705 152.424 158.1 155.518 158.1H261.026C264.12 158.1 266.725 160.705 266.725 163.798C266.725 166.892 264.12 169.497 261.026 169.497H155.355C152.261 169.497 149.819 167.055 149.819 163.798Z" fill="#F1F1F1"/>
    <path d="M260.701 164.613L262.817 166.73" stroke="black" stroke-width="0.5" stroke-miterlimit="8" stroke-linecap="square"/>
    <path d="M259.072 165.266C260.375 165.266 261.352 164.289 261.352 162.987C261.352 161.684 260.375 160.707 259.072 160.707C257.77 160.707 256.793 161.684 256.793 162.987C256.793 164.289 257.77 165.266 259.072 165.266Z" stroke="black" stroke-width="0.5" stroke-miterlimit="8" stroke-linecap="square"/>
    <path d="M138.422 169.497C141.569 169.497 144.12 166.946 144.12 163.798C144.12 160.651 141.569 158.1 138.422 158.1C135.274 158.1 132.723 160.651 132.723 163.798C132.723 166.946 135.274 169.497 138.422 169.497Z" fill="#F1F1F1"/>
    <path d="M135.002 162.985C135.817 162.171 137.119 161.683 138.422 161.683C139.724 161.683 141.027 162.171 141.841 162.985" stroke="black" stroke-width="0.5"/>
    <path d="M135.979 163.962C136.631 163.311 137.445 162.985 138.422 162.985C139.399 162.985 140.213 163.311 140.864 163.962" stroke="black" stroke-width="0.5"/>
    <path d="M136.956 164.938C137.282 164.612 137.77 164.449 138.422 164.449C139.073 164.449 139.399 164.612 139.887 164.938" stroke="black" stroke-width="0.5"/>
    <path d="M138.422 166.242C138.601 166.242 138.747 166.096 138.747 165.916C138.747 165.737 138.601 165.591 138.422 165.591C138.242 165.591 138.096 165.737 138.096 165.916C138.096 166.096 138.242 166.242 138.422 166.242Z" fill="black"/>
    <path d="M94.4597 190.177H95.5995V191.643C95.5995 192.131 95.9251 192.457 96.4136 192.457C96.5764 192.457 96.902 192.457 97.0649 192.294V190.177H98.2046V195.062H97.0649V193.108C96.7392 193.271 96.4136 193.271 95.9251 193.271C95.4366 193.271 95.111 193.108 94.7854 192.945C94.4597 192.62 94.4597 192.294 94.4597 191.806V190.177ZM100.81 195.062V191.154H99.5072V190.177H103.252V191.154H101.95V195.062H100.81ZM106.509 195.062C105.857 195.062 105.206 194.899 104.88 194.411C104.555 193.922 104.229 193.434 104.229 192.62C104.229 191.969 104.392 191.317 104.88 190.829C105.369 190.34 105.857 190.177 106.509 190.177C107.16 190.177 107.811 190.34 108.137 190.829C108.462 191.317 108.788 191.806 108.788 192.62C108.788 193.434 108.625 194.085 108.137 194.411C107.648 194.899 107.16 195.062 106.509 195.062ZM106.509 194.248C106.834 194.248 107.16 194.085 107.323 193.76C107.485 193.434 107.648 193.108 107.648 192.62C107.648 192.131 107.485 191.806 107.323 191.48C107.16 191.154 106.834 190.992 106.509 190.992C106.183 190.992 105.857 191.154 105.694 191.48C105.532 191.806 105.369 192.131 105.369 192.62C105.369 193.108 105.532 193.434 105.694 193.76C105.857 194.085 106.183 194.248 106.509 194.248ZM112.696 190.177H113.836V191.969H115.627V190.177H116.766V194.899H115.627V192.945H113.836V194.899H112.696V190.177ZM120.511 195.062C119.86 195.062 119.209 194.899 118.883 194.411C118.557 193.922 118.232 193.434 118.232 192.62C118.232 191.969 118.395 191.317 118.883 190.829C119.371 190.34 119.86 190.177 120.511 190.177C121.162 190.177 121.814 190.34 122.139 190.829C122.465 191.317 122.791 191.806 122.791 192.62C122.791 193.434 122.628 194.085 122.139 194.411C121.814 194.899 121.162 195.062 120.511 195.062ZM120.511 194.248C120.837 194.248 121.162 194.085 121.325 193.76C121.488 193.434 121.651 193.108 121.651 192.62C121.651 192.131 121.488 191.806 121.325 191.48C121.162 191.154 120.837 190.992 120.511 190.992C120.186 190.992 119.86 191.154 119.697 191.48C119.534 191.806 119.371 192.131 119.371 192.62C119.371 193.108 119.534 193.434 119.697 193.76C119.86 194.085 120.186 194.248 120.511 194.248ZM124.419 194.899V190.177C124.745 190.177 125.233 190.015 125.884 190.015C126.536 190.015 127.024 190.177 127.35 190.34C127.675 190.503 127.838 190.829 127.838 191.317C127.838 191.48 127.838 191.806 127.675 191.969C127.513 192.131 127.35 192.294 127.024 192.457C127.35 192.457 127.513 192.62 127.675 192.945C127.838 193.108 128.001 193.434 128.001 193.76C128.001 194.248 127.838 194.574 127.513 194.736C127.187 195.062 126.536 195.225 125.559 195.225C125.07 195.062 124.745 195.062 124.419 194.899ZM125.559 190.992V192.131H125.884C126.21 192.131 126.373 192.131 126.536 191.969C126.698 191.806 126.698 191.643 126.698 191.48C126.698 191.154 126.373 190.992 125.884 190.992C125.721 190.992 125.559 190.992 125.559 190.992ZM125.559 192.945V194.248C125.559 194.248 125.722 194.248 126.047 194.248C126.373 194.248 126.536 194.248 126.698 194.085C126.861 193.922 127.024 193.76 127.024 193.597C127.024 193.434 126.861 193.271 126.698 193.108C126.536 192.945 126.21 192.945 126.047 192.945H125.559ZM131.583 195.062C130.932 195.062 130.281 194.899 129.955 194.411C129.629 193.922 129.304 193.434 129.304 192.62C129.304 191.969 129.466 191.317 129.955 190.829C130.443 190.34 130.932 190.177 131.583 190.177C132.234 190.177 132.886 190.34 133.211 190.829C133.537 191.317 133.863 191.806 133.863 192.62C133.863 193.434 133.7 194.085 133.211 194.411C132.886 194.899 132.234 195.062 131.583 195.062ZM131.583 194.248C131.909 194.248 132.234 194.085 132.397 193.76C132.56 193.434 132.723 193.108 132.723 192.62C132.723 192.131 132.56 191.806 132.397 191.48C132.234 191.154 131.909 190.992 131.583 190.992C131.257 190.992 130.932 191.154 130.769 191.48C130.606 191.806 130.443 192.131 130.443 192.62C130.443 193.108 130.606 193.434 130.769 193.76C130.932 194.085 131.257 194.248 131.583 194.248ZM135.491 190.177H138.422V190.992H136.631V194.899H135.491V190.177ZM141.678 195.062C141.027 195.062 140.375 194.899 140.05 194.411C139.724 193.922 139.399 193.434 139.399 192.62C139.399 191.969 139.561 191.317 140.05 190.829C140.538 190.34 141.027 190.177 141.678 190.177C142.329 190.177 142.981 190.34 143.306 190.829C143.632 191.317 143.958 191.806 143.958 192.62C143.958 193.434 143.795 194.085 143.306 194.411C142.818 194.899 142.329 195.062 141.678 195.062ZM141.678 194.248C142.004 194.248 142.329 194.085 142.492 193.76C142.655 193.434 142.818 193.108 142.818 192.62C142.818 192.131 142.655 191.806 142.492 191.48C142.329 191.154 142.004 190.992 141.678 190.992C141.352 190.992 141.027 191.154 140.864 191.48C140.701 191.806 140.538 192.131 140.538 192.62C140.538 193.108 140.701 193.434 140.864 193.76C141.027 194.085 141.352 194.248 141.678 194.248Z" fill="#C4C4C4"/>
    <path d="M162.682 194.085L162.845 194.899C162.519 195.062 162.193 195.062 161.705 195.062C160.891 195.062 160.24 194.899 159.914 194.411C159.426 193.922 159.263 193.434 159.263 192.62C159.263 191.806 159.588 191.154 160.077 190.829C160.565 190.34 161.217 190.177 161.868 190.177C162.356 190.177 162.682 190.177 163.008 190.34L162.845 191.154C162.519 190.992 162.193 190.992 161.868 190.992C161.379 190.992 161.054 191.154 160.728 191.48C160.402 191.806 160.24 192.131 160.24 192.62C160.24 193.108 160.402 193.434 160.565 193.76C160.891 194.085 161.217 194.248 161.705 194.248C162.031 194.248 162.356 194.085 162.682 194.085ZM167.241 192.131V192.945H165.45V194.085H167.404V194.899H164.31V190.177H167.241V190.992H165.45V191.969H167.241V192.131ZM169.032 195.062V190.34C169.358 190.34 169.846 190.177 170.497 190.177C171.149 190.177 171.637 190.34 171.963 190.503C172.288 190.829 172.451 191.154 172.451 191.643C172.451 192.131 172.288 192.457 171.963 192.783C171.637 193.108 171.149 193.271 170.335 193.271C170.172 193.271 170.009 193.271 170.009 193.271V195.062H169.032ZM170.172 190.992V192.457C170.172 192.457 170.335 192.457 170.497 192.457C170.823 192.457 170.986 192.457 171.149 192.294C171.312 192.131 171.474 191.969 171.474 191.806C171.474 191.643 171.474 191.48 171.312 191.317C171.149 191.154 170.986 191.154 170.66 191.154C170.335 190.992 170.172 190.992 170.172 190.992ZM174.079 194.899V190.177C174.405 190.177 174.894 190.015 175.545 190.015C176.196 190.015 176.685 190.177 177.01 190.34C177.336 190.503 177.499 190.829 177.499 191.317C177.499 191.48 177.499 191.806 177.336 191.969C177.173 192.131 177.01 192.294 176.685 192.457C177.01 192.457 177.173 192.62 177.336 192.945C177.499 193.108 177.662 193.434 177.662 193.76C177.662 194.248 177.499 194.574 177.173 194.736C176.847 195.062 176.196 195.225 175.219 195.225C174.731 195.062 174.405 195.062 174.079 194.899ZM175.056 190.992V192.131H175.382C175.708 192.131 175.871 192.131 176.033 191.969C176.196 191.806 176.196 191.643 176.196 191.48C176.196 191.154 175.871 190.992 175.382 190.992C175.382 190.992 175.219 190.992 175.056 190.992ZM175.056 192.945V194.248C175.056 194.248 175.219 194.248 175.545 194.248C175.871 194.248 176.033 194.248 176.196 194.085C176.359 193.922 176.522 193.76 176.522 193.597C176.522 193.434 176.359 193.271 176.196 193.108C176.033 192.945 175.708 192.945 175.545 192.945H175.056ZM179.127 190.177H180.104V191.643C180.104 192.457 180.104 193.108 180.104 193.76C180.43 193.108 180.592 192.62 180.918 192.131L181.895 190.177H183.035V194.899H182.058V193.434C182.058 192.62 182.058 191.969 182.058 191.48C181.895 191.969 181.569 192.62 181.244 193.108L180.267 194.899H178.964V190.177H179.127ZM188.245 194.085L188.408 194.899C188.082 195.062 187.757 195.062 187.268 195.062C186.454 195.062 185.803 194.899 185.477 194.411C184.989 193.922 184.826 193.434 184.826 192.62C184.826 191.806 185.151 191.154 185.64 190.829C186.128 190.34 186.78 190.177 187.431 190.177C187.919 190.177 188.245 190.177 188.571 190.34L188.408 191.154C188.082 190.992 187.757 190.992 187.431 190.992C186.942 190.992 186.617 191.154 186.291 191.48C185.965 191.806 185.803 192.131 185.803 192.62C185.803 193.108 185.965 193.434 186.128 193.76C186.454 194.085 186.78 194.248 187.268 194.248C187.757 194.248 188.082 194.085 188.245 194.085ZM190.036 190.177H191.176V191.806C191.339 191.806 191.501 191.806 191.664 191.806C192.153 191.806 192.641 191.969 192.967 192.131C193.292 192.457 193.455 192.783 193.455 193.271C193.455 193.76 193.292 194.085 193.13 194.248C192.804 194.574 192.153 194.899 191.176 194.899C190.687 194.899 190.362 194.899 190.036 194.899V190.177ZM191.176 192.783V194.248C191.176 194.248 191.339 194.248 191.501 194.248C191.827 194.248 191.99 194.248 192.153 194.085C192.316 193.922 192.478 193.76 192.478 193.434C192.478 193.108 192.316 192.945 192.153 192.945C191.99 192.783 191.827 192.783 191.501 192.783C191.339 192.62 191.339 192.62 191.176 192.783ZM193.944 190.177H195.083V194.899H193.944V190.177Z" fill="#C4C4C4"/>
    <path d="M210.714 190.177H211.854V192.131H212.017L213.319 190.177H214.622L212.994 192.293C213.319 192.293 213.482 192.456 213.645 192.619C213.808 192.782 213.971 193.108 214.134 193.433C214.459 194.247 214.622 194.736 214.622 194.899H213.482C213.482 194.736 213.32 194.41 213.157 193.922C212.994 193.596 212.994 193.433 212.831 193.27C212.668 193.108 212.505 193.108 212.18 193.108H211.854V195.061H210.714V190.177ZM217.879 195.061C217.227 195.061 216.576 194.899 216.25 194.41C215.925 193.922 215.599 193.433 215.599 192.619C215.599 191.968 215.762 191.317 216.25 190.828C216.739 190.34 217.227 190.177 217.879 190.177C218.53 190.177 219.181 190.34 219.507 190.828C219.832 191.317 220.158 191.805 220.158 192.619C220.158 193.433 219.995 194.084 219.507 194.41C219.181 194.899 218.53 195.061 217.879 195.061ZM217.879 194.247C218.204 194.247 218.53 194.084 218.693 193.759C218.855 193.433 219.018 193.108 219.018 192.619C219.018 192.131 218.855 191.805 218.693 191.479C218.53 191.154 218.204 190.991 217.879 190.991C217.553 190.991 217.227 191.154 217.064 191.479C216.902 191.805 216.739 192.131 216.739 192.619C216.739 193.108 216.902 193.433 217.064 193.759C217.227 194.084 217.553 194.247 217.879 194.247ZM225.857 195.061V193.27C225.857 192.456 225.857 191.805 225.857 191.317C225.694 191.968 225.531 192.619 225.368 193.108L224.717 194.899H223.903L223.414 193.108C223.252 192.456 223.089 191.968 222.926 191.317C222.926 192.131 222.926 192.782 222.926 193.27L222.763 195.061H221.623L221.949 190.34H223.414L223.903 191.968C224.066 192.619 224.229 193.108 224.229 193.596C224.391 192.945 224.554 192.456 224.717 191.805L225.205 190.177H226.671L226.997 194.899H225.857V195.061ZM228.625 190.177H232.532V194.899H231.393V190.991H229.765V194.899H228.625V190.177ZM236.766 193.759H235.463L235.138 195.061H233.998L235.463 190.34H236.929L238.394 195.061H237.254L236.766 193.759ZM235.626 192.945H236.603L236.277 191.968C236.277 191.805 236.277 191.642 236.115 191.479C236.115 191.317 235.952 191.154 235.952 191.154C235.789 191.642 235.789 191.968 235.789 192.131L235.626 192.945ZM239.859 190.177H240.999V191.968H242.79V190.177H243.93V194.899H242.79V192.945H240.999V194.899H239.859V190.177ZM245.558 190.177H246.535V191.642C246.535 192.456 246.535 193.108 246.535 193.759C246.861 193.108 247.024 192.619 247.349 192.131L248.326 190.177H249.466V194.899H248.489V193.433C248.489 192.619 248.489 191.968 248.489 191.479C248.326 191.968 248.001 192.619 247.675 193.108L246.698 194.899H245.395V190.177H245.558ZM252.071 195.061H250.931C251.094 194.899 251.094 194.736 251.094 194.573C251.094 194.573 251.094 194.41 251.257 194.247C251.257 194.084 251.42 193.922 251.42 193.759C251.42 193.596 251.583 193.596 251.583 193.433C251.583 193.27 251.745 193.27 251.745 193.108C251.908 192.945 252.071 192.945 252.071 192.945C251.745 192.945 251.583 192.782 251.42 192.619C251.257 192.456 251.094 192.131 251.094 191.805C251.094 191.317 251.257 190.991 251.583 190.828C251.908 190.502 252.397 190.502 253.211 190.502C253.699 190.502 254.188 190.502 254.513 190.665V195.387H253.374V193.433H253.048C252.885 193.433 252.722 193.433 252.56 193.596C252.397 193.759 252.397 193.759 252.397 193.922C252.397 194.084 252.234 194.247 252.234 194.41C252.234 194.573 252.071 194.736 252.071 194.736C252.234 194.736 252.071 194.899 252.071 195.061ZM253.537 192.293V190.991C253.374 190.991 253.211 190.991 253.048 190.991C252.722 190.991 252.56 190.991 252.397 191.154C252.234 191.317 252.234 191.479 252.234 191.642C252.234 191.805 252.397 191.968 252.56 192.131C252.722 192.293 252.885 192.293 253.211 192.293C253.374 192.293 253.537 192.293 253.537 192.293Z" fill="#C4C4C4"/>
    <path d="M126.861 359.837V438.968" stroke="black" stroke-miterlimit="10"/>
    <path d="M342.926 359.837V438.968" stroke="black" stroke-miterlimit="10"/>
    <path d="M253.862 292.752H222.438C222.438 284.285 229.276 277.446 237.743 277.446H238.394C247.024 277.446 253.862 284.285 253.862 292.752Z" fill="black"/>
    <path d="M184.012 271.1H157.96" stroke="black" stroke-miterlimit="10"/>
    <path d="M318.34 271.1H292.288" stroke="black" stroke-miterlimit="10"/>
    <path d="M415.87 299.593L374.188 257.748C371.42 254.98 367.024 254.98 364.256 257.748C361.488 260.516 361.488 264.912 364.256 267.68L405.938 309.525C405.124 313.596 406.264 317.829 409.357 320.923C414.242 325.807 422.22 325.807 427.268 320.923C432.152 316.038 432.152 308.06 427.268 303.012C424.174 299.919 419.941 298.779 415.87 299.593Z" fill="white" stroke="black" stroke-miterlimit="10"/>
    <path d="M423.848 317.341C420.918 320.272 416.033 320.272 413.102 317.341C411.311 315.55 410.497 312.945 410.986 310.34L411.474 307.734L400.728 296.988C399.914 296.174 399.914 294.871 400.728 294.22C401.542 293.569 402.844 293.406 403.496 294.22L414.242 304.966L416.847 304.478C419.289 303.989 421.895 304.804 423.848 306.595C426.779 309.525 426.779 314.41 423.848 317.341Z" fill="black"/>
    <path d="M76.3865 293.568C76.3865 293.568 198.666 311.153 241.651 311.479C282.682 311.967 393.238 297.476 393.238 297.476V345.997C393.238 345.997 286.101 355.766 224.066 355.766C196.549 355.766 76.2236 342.252 76.2236 342.252V293.568H76.3865Z" fill="#00BAC6" stroke="black" stroke-miterlimit="10"/>
    <path d="M205.179 417.8H164.31V351.369L205.179 354.788V417.8Z" fill="#00BAC6" stroke="black" stroke-miterlimit="10"/>
    <path d="M164.636 277.448L157.146 284.938" stroke="#00BAC6" stroke-miterlimit="10"/>
    <path d="M174.731 277.448L167.241 284.938" stroke="#00BAC6" stroke-miterlimit="10"/>
    <path d="M184.826 277.448L177.336 284.938" stroke="#00BAC6" stroke-miterlimit="10"/>
    <path d="M298.964 277.448L291.474 284.938" stroke="#00BAC6" stroke-miterlimit="10"/>
    <path d="M309.059 277.448L301.732 284.938" stroke="#00BAC6" stroke-miterlimit="10"/>
    <path d="M319.154 277.448L311.827 284.938" stroke="#00BAC6" stroke-miterlimit="10"/>
    <path d="M76.3865 270.604C34.7041 270.604 1 304.309 1 345.991" stroke="black" stroke-miterlimit="10"/>
    <path d="M369.303 324.499C436.874 324.499 435.083 270.442 393.4 270.442" stroke="black" stroke-miterlimit="10"/>
    <path d="M436.711 102.577C465.037 102.577 488 79.614 488 51.2879C488 22.9618 465.037 -0.000976562 436.711 -0.000976562C408.385 -0.000976562 385.422 22.9618 385.422 51.2879C385.422 79.614 408.385 102.577 436.711 102.577Z" fill="#00BAC6"/>
    <path d="M404.472 31.4238H413.265V33.8662H407.403V36.1457C407.892 36.1457 408.38 35.9828 409.031 35.9828C410.497 35.9828 411.799 36.3085 412.776 36.9598C413.753 37.6111 414.242 38.7508 414.242 40.0534C414.242 41.356 413.753 42.3329 412.939 42.9842C411.799 43.9611 410.008 44.4496 407.566 44.4496C406.263 44.4496 405.287 44.4496 404.31 44.2868V31.4238H404.472ZM407.403 38.2623V42.3329C407.729 42.3329 408.054 42.3329 408.543 42.3329C409.357 42.3329 410.008 42.1701 410.497 41.6816C410.985 41.356 411.148 40.7047 411.148 40.2162C411.148 39.5649 410.985 39.0765 410.497 38.7508C410.008 38.4252 409.357 38.0995 408.543 38.0995C408.217 38.2623 407.892 38.2623 407.403 38.2623Z" fill="white"/>
    <path d="M421.732 44.938C419.778 44.938 418.312 44.2868 417.173 42.9842C416.033 41.6816 415.544 40.0534 415.544 38.2623C415.544 36.3085 416.196 34.6803 417.335 33.3777C418.475 32.0751 420.103 31.4238 422.057 31.4238C424.011 31.4238 425.477 32.0751 426.616 33.3777C427.756 34.6803 428.245 36.3085 428.245 38.0995C428.245 40.2162 427.593 42.0072 426.453 43.147C425.314 44.2868 423.686 44.938 421.732 44.938ZM421.894 42.4957C422.871 42.4957 423.686 42.0072 424.174 41.1931C424.662 40.379 424.988 39.2393 424.988 37.9367C424.988 36.6341 424.662 35.6572 424.174 34.8431C423.686 34.029 422.871 33.5405 421.894 33.5405C420.918 33.5405 420.103 34.029 419.615 34.8431C418.964 35.6572 418.801 36.7969 418.801 38.0995C418.801 39.4021 419.127 40.379 419.615 41.1931C420.103 42.0072 420.918 42.4957 421.894 42.4957Z" fill="white"/>
    <path d="M431.012 31.4238H439.805V44.6124H436.874V33.8662H433.943V36.9598C433.943 38.9136 433.78 40.379 433.455 41.5188C433.129 42.6585 432.478 43.6355 431.501 44.1239C430.687 44.6124 429.873 44.7752 428.896 44.7752L428.57 42.3329C429.221 42.3329 429.71 42.0072 430.035 41.6816C430.687 41.0303 431.012 39.5649 431.012 37.1226V31.4238Z" fill="white"/>
    <path d="M450.388 36.6341V39.0765H445.503V42.1701H450.876V44.6124H442.573V31.4238H450.714V33.8662H445.503V36.6341H450.388Z" fill="white"/>
    <path d="M452.993 31.4245H455.924V36.6348H457.552C457.878 35.0066 458.529 33.704 459.506 32.7271C460.483 31.7502 461.786 31.2617 463.251 31.2617C465.042 31.2617 466.508 31.913 467.485 33.2156C468.461 34.5182 468.95 36.1464 468.95 37.9374C468.95 40.0541 468.461 41.6823 467.322 42.9849C466.182 44.2875 464.717 44.7759 463.088 44.7759C461.46 44.7759 460.158 44.2875 459.181 43.1477C458.204 42.1708 457.552 40.7054 457.39 38.9143H455.924V44.4503H452.993V31.4245ZM463.088 42.4964C464.065 42.4964 464.717 42.008 465.205 41.1938C465.694 40.3797 466.019 39.24 466.019 37.9374C466.019 36.6348 465.694 35.6579 465.205 34.8438C464.717 34.0297 464.065 33.5412 463.088 33.5412C462.111 33.5412 461.46 34.0297 460.972 34.8438C460.483 35.6579 460.158 36.7977 460.158 38.1002C460.158 39.4028 460.483 40.3797 460.972 41.3567C461.623 42.1708 462.274 42.4964 463.088 42.4964Z" fill="white"/>
    <path d="M411.311 54.8711H419.94V65.6173H421.243L421.08 71.1533H418.801L418.638 67.8968H410.985L410.822 71.1533H408.543L408.38 65.6173H409.52C410.008 64.6404 410.497 63.6635 410.822 62.6865C411.148 61.384 411.311 59.9186 411.311 58.2903V54.8711ZM414.079 57.3134V59.1045C414.079 60.7327 413.916 62.1981 413.428 63.5006C413.265 64.3148 412.939 64.966 412.451 65.7802H416.847V57.4762H414.079V57.3134Z" fill="white"/>
    <path d="M428.407 68.3853C426.454 68.3853 424.988 67.734 423.848 66.4314C422.709 65.1289 422.22 63.5007 422.22 61.7096C422.22 59.7557 422.871 58.1275 424.011 56.825C425.151 55.5224 426.779 54.8711 428.733 54.8711C430.687 54.8711 432.152 55.5224 433.292 56.825C434.432 58.1275 434.92 59.7557 434.92 61.5468C434.92 63.6635 434.269 65.4545 433.129 66.5943C431.827 67.734 430.198 68.3853 428.407 68.3853ZM428.407 65.943C429.384 65.943 430.198 65.4545 430.687 64.6404C431.175 63.8263 431.501 62.6865 431.501 61.384C431.501 60.0814 431.175 59.1045 430.687 58.2903C430.198 57.4762 429.384 56.9878 428.407 56.9878C427.43 56.9878 426.616 57.4762 426.128 58.2903C425.477 59.1045 425.314 60.2442 425.314 61.5468C425.314 62.8494 425.639 63.8263 426.128 64.6404C426.779 65.4545 427.43 65.943 428.407 65.943Z" fill="white"/>
    <path d="M447.946 68.0597L447.783 63.0122C447.783 60.8955 447.62 59.1045 447.62 57.6391C447.132 59.4301 446.644 61.0583 446.155 62.6865L444.527 67.8968H442.247L440.782 62.8494C440.293 61.2211 439.968 59.5929 439.642 57.6391C439.642 59.5929 439.479 61.5468 439.479 63.0122L439.154 68.0597H436.386L437.2 54.8711H441.108L442.41 59.2673C442.899 60.8955 443.224 62.3609 443.55 63.9891C443.876 62.1981 444.364 60.7327 444.852 59.2673L446.318 54.8711H450.226L450.877 68.0597H447.946Z" fill="white"/>
    <path d="M459.995 64.6404H456.25L455.273 68.0597H452.179L456.25 54.8711H460.158L464.228 68.0597H460.972L459.995 64.6404ZM456.576 62.5237H459.506L458.692 59.7557C458.692 59.4301 458.529 58.9416 458.367 58.2903C458.204 57.6391 458.041 57.3134 458.041 57.1506C457.715 58.4532 457.553 59.4301 457.39 59.7557L456.576 62.5237Z" fill="white"/>
</svg>