<svg width="190" height="194" viewBox="0 0 190 194" fill="none" xmlns="http://www.w3.org/2000/svg">
<path d="M62.05 5.74H63.31V8.8C63.31 9.7 63.28 10.675 63.22 11.725H63.265C63.895 10.505 64.29 9.76 64.45 9.49L66.715 5.74H68.26V13H67V9.91C67 9.1 67.03 8.11 67.09 6.94H67.06C66.6 7.85 66.195 8.605 65.845 9.205C65.585 9.635 65.18 10.31 64.63 11.23C64.09 12.14 63.74 12.73 63.58 13H62.05V5.74ZM70.3707 5.74H71.6607V8.8H72.9057C73.0157 7.83 73.3607 7.05 73.9407 6.46C74.5207 5.87 75.2457 5.575 76.1157 5.575C77.0657 5.575 77.8357 5.92 78.4257 6.61C79.0157 7.29 79.3107 8.19 79.3107 9.31C79.3107 10.46 79.0007 11.39 78.3807 12.1C77.7607 12.81 76.9807 13.165 76.0407 13.165C75.1607 13.165 74.4307 12.865 73.8507 12.265C73.2707 11.655 72.9457 10.835 72.8757 9.805H71.6607V13H70.3707V5.74ZM76.0557 12.19H76.0707C76.6907 12.19 77.1657 11.905 77.4957 11.335C77.8257 10.765 77.9907 10.1 77.9907 9.34C77.9907 8.59 77.8257 7.94 77.4957 7.39C77.1657 6.84 76.6957 6.565 76.0857 6.565C75.4757 6.565 74.9957 6.845 74.6457 7.405C74.3057 7.965 74.1357 8.635 74.1357 9.415C74.1357 10.175 74.3057 10.83 74.6457 11.38C74.9857 11.92 75.4557 12.19 76.0557 12.19ZM80.9318 5.74H82.2518V8.665H85.6868V5.74H87.0068V13H85.6868V9.715H82.2518V13H80.9318V5.74ZM89.1353 5.74H90.4553V8.185C90.7853 8.135 91.1803 8.11 91.6403 8.11C92.2403 8.11 92.7753 8.175 93.2453 8.305C93.7253 8.435 94.1353 8.695 94.4753 9.085C94.8253 9.465 95.0003 9.955 95.0003 10.555C95.0003 11.245 94.7453 11.805 94.2353 12.235C93.5753 12.795 92.5253 13.075 91.0853 13.075C90.6453 13.075 89.9953 13.04 89.1353 12.97V5.74ZM90.4403 9.145V12.07C90.7803 12.11 91.1053 12.13 91.4153 12.13C92.0153 12.13 92.5403 12.01 92.9903 11.77C93.4503 11.53 93.6803 11.14 93.6803 10.6C93.6803 10.21 93.5503 9.895 93.2903 9.655C93.0303 9.405 92.7403 9.245 92.4203 9.175C92.1103 9.095 91.7653 9.055 91.3853 9.055C91.0753 9.055 90.7603 9.085 90.4403 9.145ZM105.62 13H99.3947V12.19L100.43 11.185C101.79 9.895 102.735 8.895 103.265 8.185C103.795 7.475 104.06 6.775 104.06 6.085C104.06 5.525 103.91 5.07 103.61 4.72C103.31 4.36 102.82 4.18 102.14 4.18C101.42 4.18 100.73 4.455 100.07 5.005L99.6497 4.075C100.43 3.415 101.35 3.085 102.41 3.085C103.38 3.085 104.115 3.365 104.615 3.925C105.125 4.485 105.38 5.15 105.38 5.92C105.38 6.75 105.115 7.55 104.585 8.32C104.055 9.08 103.2 10.025 102.02 11.155L101.255 11.875V11.905H105.62V13ZM110.205 13.165H110.19C109.22 13.165 108.44 12.725 107.85 11.845C107.26 10.965 106.96 9.735 106.95 8.155C106.95 6.555 107.26 5.31 107.88 4.42C108.51 3.53 109.335 3.085 110.355 3.085C111.375 3.085 112.165 3.52 112.725 4.39C113.295 5.26 113.58 6.47 113.58 8.02C113.58 9.67 113.285 10.94 112.695 11.83C112.105 12.72 111.275 13.165 110.205 13.165ZM110.25 12.145H110.265C110.915 12.145 111.405 11.79 111.735 11.08C112.075 10.36 112.245 9.36 112.245 8.08C112.245 6.83 112.08 5.855 111.75 5.155C111.43 4.455 110.935 4.105 110.265 4.105C109.665 4.105 109.185 4.465 108.825 5.185C108.465 5.895 108.285 6.86 108.285 8.08C108.275 9.34 108.445 10.335 108.795 11.065C109.155 11.785 109.64 12.145 110.25 12.145ZM121.001 13H114.776V12.19L115.811 11.185C117.171 9.895 118.116 8.895 118.646 8.185C119.176 7.475 119.441 6.775 119.441 6.085C119.441 5.525 119.291 5.07 118.991 4.72C118.691 4.36 118.201 4.18 117.521 4.18C116.801 4.18 116.111 4.455 115.451 5.005L115.031 4.075C115.811 3.415 116.731 3.085 117.791 3.085C118.761 3.085 119.496 3.365 119.996 3.925C120.506 4.485 120.761 5.15 120.761 5.92C120.761 6.75 120.496 7.55 119.966 8.32C119.436 9.08 118.581 10.025 117.401 11.155L116.636 11.875V11.905H121.001V13ZM125.331 13V4.48H125.301L123.606 5.395L123.351 4.39L125.481 3.25H126.606V13H125.331Z" fill="black"/>
<path d="M190 9.5L185.5 15.1292L185.5 3.87083L190 9.5Z" fill="#C4C4C4"/>
<path d="M1 9.5L5.5 3.87083L5.5 15.1292L1 9.5Z" fill="#C4C4C4"/>
<line x1="23.8672" y1="30" x2="23.8672" y2="193.227" stroke="white" stroke-width="2"/>
<line x1="52.7646" y1="30" x2="52.7646" y2="193.227" stroke="white" stroke-width="2"/>
<line x1="81.6611" y1="30" x2="81.6611" y2="193.227" stroke="white" stroke-width="2"/>
<line x1="110.558" y1="30" x2="110.558" y2="193.227" stroke="white" stroke-width="2"/>
<line x1="139.454" y1="30" x2="139.454" y2="193.227" stroke="white" stroke-width="2"/>
<line x1="168.352" y1="30" x2="168.352" y2="193.227" stroke="white" stroke-width="2"/>
<path d="M4.09277 38.508H8.98277V45.248H8.10277V39.238H4.97277V45.248H4.09277V38.508ZM10.4295 40.408H11.3095V42.358H13.5995V40.408H14.4795V45.248H13.5995V43.058H11.3095V45.248H10.4295V40.408Z" fill="#C4C4C4"/>
<path d="M34.5618 45.228V38.608C34.9818 38.508 35.5118 38.458 36.1518 38.458C36.9851 38.458 37.5984 38.6214 37.9918 38.948C38.3718 39.228 38.5618 39.6247 38.5618 40.138C38.5618 40.4647 38.4584 40.7614 38.2518 41.028C38.0518 41.2947 37.7751 41.4914 37.4218 41.618V41.648C37.7951 41.7347 38.1184 41.9214 38.3918 42.208C38.6718 42.4947 38.8118 42.868 38.8118 43.328C38.8118 43.8614 38.6184 44.3114 38.2318 44.678C37.7851 45.098 37.0118 45.308 35.9118 45.308C35.3984 45.308 34.9484 45.2814 34.5618 45.228ZM35.4318 39.188V41.368H36.2218C36.6684 41.368 37.0218 41.2614 37.2818 41.048C37.5418 40.8347 37.6718 40.5614 37.6718 40.228C37.6718 39.4947 37.1818 39.128 36.2018 39.128C35.8751 39.128 35.6184 39.148 35.4318 39.188ZM35.4318 42.018V44.588C35.5918 44.6147 35.8351 44.628 36.1618 44.628C36.6618 44.628 37.0751 44.5247 37.4018 44.318C37.7284 44.1047 37.8918 43.7714 37.8918 43.318C37.8918 42.8847 37.7284 42.5614 37.4018 42.348C37.0751 42.128 36.6584 42.018 36.1518 42.018H35.4318ZM39.2631 40.408H43.1631V41.098H41.6531V45.248H40.7731V41.098H39.2631V40.408Z" fill="#C4C4C4"/>
<path d="M65.6455 44.328L65.8155 45.028C65.4021 45.2414 64.8088 45.348 64.0355 45.348C63.0555 45.348 62.2555 45.048 61.6355 44.448C61.0221 43.848 60.7155 43.0114 60.7155 41.938C60.7155 40.8847 61.0388 40.0347 61.6855 39.388C62.3388 38.7347 63.1888 38.408 64.2355 38.408C64.8955 38.408 65.4288 38.5047 65.8355 38.698L65.6155 39.418C65.2421 39.2314 64.7921 39.138 64.2655 39.138C63.4655 39.138 62.8255 39.3847 62.3455 39.878C61.8721 40.3647 61.6355 41.0414 61.6355 41.908C61.6355 42.7414 61.8621 43.4014 62.3155 43.888C62.7755 44.368 63.4088 44.608 64.2155 44.608C64.7821 44.608 65.2588 44.5147 65.6455 44.328ZM66.8863 47.228V41.988C66.8863 41.3414 66.8729 40.8147 66.8463 40.408H67.6363L67.6863 41.238H67.7063C68.0729 40.6114 68.6429 40.298 69.4163 40.298C70.0096 40.298 70.4996 40.528 70.8863 40.988C71.2796 41.4414 71.4763 42.0314 71.4763 42.758C71.4763 43.5847 71.2596 44.2247 70.8263 44.678C70.3996 45.1314 69.8829 45.358 69.2763 45.358C68.5896 45.358 68.0929 45.1047 67.7863 44.598H67.7663V47.228H66.8863ZM67.7663 42.438V43.278C67.7663 43.418 67.7796 43.538 67.8063 43.638C67.8796 43.9447 68.0363 44.1947 68.2763 44.388C68.5229 44.5747 68.8029 44.668 69.1163 44.668C69.5763 44.668 69.9363 44.498 70.1963 44.158C70.4563 43.818 70.5863 43.3647 70.5863 42.798C70.5863 42.2914 70.4596 41.8647 70.2063 41.518C69.9529 41.1714 69.6029 40.998 69.1563 40.998C68.8496 40.998 68.5696 41.098 68.3163 41.298C68.0696 41.498 67.9029 41.7614 67.8163 42.088C67.7829 42.2747 67.7663 42.3914 67.7663 42.438Z" fill="#C4C4C4"/>
<path d="M90.7332 38.508H91.6132V40.668C91.6132 41.1347 91.7332 41.4947 91.9732 41.748C92.2132 41.9947 92.5665 42.118 93.0332 42.118C93.5332 42.118 93.9799 41.988 94.3732 41.728V38.508H95.2532V45.288H94.3732V42.408H94.3532C93.8665 42.688 93.3265 42.828 92.7332 42.828C92.4865 42.828 92.2532 42.798 92.0332 42.738C91.8199 42.678 91.6099 42.578 91.4032 42.438C91.1965 42.298 91.0332 42.0914 90.9132 41.818C90.7932 41.538 90.7332 41.2014 90.7332 40.808V38.508ZM96.0609 40.408H99.9609V41.098H98.4509V45.248H97.5709V41.098H96.0609V40.408Z" fill="#C4C4C4"/>
<path d="M118.898 38.508H123.788V45.248H122.908V39.238H119.778V45.248H118.898V38.508ZM124.596 40.408H128.496V41.098H126.986V45.248H126.106V41.098H124.596V40.408Z" fill="#C4C4C4"/>
<path d="M151.555 44.328L151.725 45.028C151.311 45.2414 150.718 45.348 149.945 45.348C148.965 45.348 148.165 45.048 147.545 44.448C146.931 43.848 146.625 43.0114 146.625 41.938C146.625 40.8847 146.948 40.0347 147.595 39.388C148.248 38.7347 149.098 38.408 150.145 38.408C150.805 38.408 151.338 38.5047 151.745 38.698L151.525 39.418C151.151 39.2314 150.701 39.138 150.175 39.138C149.375 39.138 148.735 39.3847 148.255 39.878C147.781 40.3647 147.545 41.0414 147.545 41.908C147.545 42.7414 147.771 43.4014 148.225 43.888C148.685 44.368 149.318 44.608 150.125 44.608C150.691 44.608 151.168 44.5147 151.555 44.328ZM156.359 38.038L156.319 38.768C156.132 38.8414 155.795 38.9147 155.309 38.988C154.489 39.1147 153.912 39.418 153.579 39.898C153.292 40.3114 153.115 40.8447 153.049 41.498H153.079C153.232 41.1514 153.462 40.8847 153.769 40.698C154.082 40.5047 154.415 40.408 154.769 40.408C155.382 40.408 155.879 40.618 156.259 41.038C156.639 41.458 156.829 42.0447 156.829 42.798C156.829 43.5914 156.632 44.218 156.239 44.678C155.845 45.1314 155.295 45.358 154.589 45.358C154.182 45.358 153.825 45.268 153.519 45.088C153.219 44.9014 152.985 44.6514 152.819 44.338C152.652 44.018 152.529 43.6747 152.449 43.308C152.369 42.9414 152.329 42.5447 152.329 42.118C152.329 40.9914 152.575 40.098 153.069 39.438C153.295 39.1114 153.575 38.8614 153.909 38.688C154.249 38.508 154.665 38.378 155.159 38.298C155.745 38.198 156.145 38.1114 156.359 38.038ZM155.939 42.868V42.858C155.939 42.5647 155.902 42.2914 155.829 42.038C155.755 41.7847 155.612 41.558 155.399 41.358C155.185 41.158 154.915 41.058 154.589 41.058C154.095 41.058 153.729 41.278 153.489 41.718C153.329 42.0047 153.249 42.3447 153.249 42.738C153.249 43.0314 153.292 43.3214 153.379 43.608C153.465 43.8947 153.615 44.148 153.829 44.368C154.049 44.588 154.309 44.698 154.609 44.698C155.062 44.698 155.395 44.518 155.609 44.158C155.829 43.798 155.939 43.368 155.939 42.868Z" fill="#C4C4C4"/>
<path d="M176.702 45.228V38.608C177.122 38.508 177.652 38.458 178.292 38.458C179.126 38.458 179.739 38.6214 180.132 38.948C180.512 39.228 180.702 39.6247 180.702 40.138C180.702 40.4647 180.599 40.7614 180.392 41.028C180.192 41.2947 179.916 41.4914 179.562 41.618V41.648C179.936 41.7347 180.259 41.9214 180.532 42.208C180.812 42.4947 180.952 42.868 180.952 43.328C180.952 43.8614 180.759 44.3114 180.372 44.678C179.926 45.098 179.152 45.308 178.052 45.308C177.539 45.308 177.089 45.2814 176.702 45.228ZM177.572 39.188V41.368H178.362C178.809 41.368 179.162 41.2614 179.422 41.048C179.682 40.8347 179.812 40.5614 179.812 40.228C179.812 39.4947 179.322 39.128 178.342 39.128C178.016 39.128 177.759 39.148 177.572 39.188ZM177.572 42.018V44.588C177.732 44.6147 177.976 44.628 178.302 44.628C178.802 44.628 179.216 44.5247 179.542 44.318C179.869 44.1047 180.032 43.7714 180.032 43.318C180.032 42.8847 179.869 42.5614 179.542 42.348C179.216 42.128 178.799 42.018 178.292 42.018H177.572ZM185.392 44.408L185.542 45.068C185.149 45.2547 184.686 45.348 184.152 45.348C183.426 45.348 182.842 45.1214 182.402 44.668C181.962 44.2147 181.742 43.618 181.742 42.878C181.742 42.1247 181.979 41.508 182.452 41.028C182.932 40.5414 183.562 40.298 184.342 40.298C184.836 40.298 185.242 40.3847 185.562 40.558L185.362 41.228C185.069 41.0747 184.729 40.998 184.342 40.998C183.809 40.998 183.389 41.1747 183.082 41.528C182.782 41.8747 182.632 42.308 182.632 42.828C182.632 43.3747 182.789 43.8147 183.102 44.148C183.422 44.4747 183.826 44.638 184.312 44.638C184.686 44.638 185.046 44.5614 185.392 44.408Z" fill="#C4C4C4"/>
<path d="M7.81805 93.4175H11.918V93.9975L9.08805 99.9175H8.18805L10.998 94.1675V94.1475H7.81805V93.4175Z" fill="black"/>
<path d="M38.7645 93.3075H38.7745C39.3745 93.3075 39.8412 93.4641 40.1745 93.7775C40.5079 94.0908 40.6745 94.4675 40.6745 94.9075C40.6745 95.5875 40.3145 96.0941 39.5945 96.4275V96.4575C40.4679 96.8041 40.9045 97.3641 40.9045 98.1375C40.9045 98.6975 40.6945 99.1541 40.2745 99.5075C39.8545 99.8541 39.3279 100.027 38.6945 100.027C38.0345 100.027 37.5045 99.8608 37.1045 99.5275C36.7112 99.1875 36.5145 98.7708 36.5145 98.2775C36.5145 97.4775 36.9412 96.8941 37.7945 96.5275V96.4975C37.4479 96.3375 37.1879 96.1275 37.0145 95.8675C36.8412 95.6075 36.7545 95.3308 36.7545 95.0375C36.7545 94.5308 36.9445 94.1175 37.3245 93.7975C37.7045 93.4708 38.1845 93.3075 38.7645 93.3075ZM38.7045 99.3875H38.7145C39.1079 99.3875 39.4212 99.2808 39.6545 99.0675C39.8945 98.8475 40.0145 98.5675 40.0145 98.2275C40.0145 97.8541 39.8912 97.5575 39.6445 97.3375C39.4045 97.1175 39.0512 96.9408 38.5845 96.8075C38.2112 96.9141 37.9212 97.0875 37.7145 97.3275C37.5145 97.5675 37.4145 97.8441 37.4145 98.1575C37.4012 98.4975 37.5112 98.7875 37.7445 99.0275C37.9845 99.2675 38.3045 99.3875 38.7045 99.3875ZM38.7345 93.9375H38.7245C38.3712 93.9375 38.0945 94.0375 37.8945 94.2375C37.6945 94.4375 37.5945 94.6841 37.5945 94.9775C37.5879 95.2841 37.6912 95.5341 37.9045 95.7275C38.1245 95.9208 38.4345 96.0708 38.8345 96.1775C39.1345 96.0775 39.3745 95.9275 39.5545 95.7275C39.7345 95.5208 39.8245 95.2775 39.8245 94.9975C39.8245 94.7041 39.7312 94.4541 39.5445 94.2475C39.3645 94.0408 39.0945 93.9375 38.7345 93.9375Z" fill="black"/>
<path d="M65.2198 100.017V99.2975C65.4131 99.3108 65.6498 99.2975 65.9298 99.2575C66.4631 99.1975 66.9164 98.9908 67.2898 98.6375C67.7498 98.2108 68.0364 97.6341 68.1498 96.9075H68.1198C67.7398 97.3741 67.2264 97.6075 66.5798 97.6075C66.0064 97.6075 65.5431 97.4175 65.1898 97.0375C64.8364 96.6575 64.6598 96.1808 64.6598 95.6075C64.6598 94.9808 64.8698 94.4408 65.2898 93.9875C65.7098 93.5341 66.2431 93.3075 66.8898 93.3075C67.5498 93.3075 68.0731 93.5541 68.4598 94.0475C68.8464 94.5408 69.0398 95.2075 69.0398 96.0475C69.0398 97.3608 68.6664 98.3775 67.9198 99.0975C67.4064 99.5908 66.7764 99.8808 66.0298 99.9675C65.6831 100.007 65.4131 100.024 65.2198 100.017ZM66.8198 93.9775H66.8098C66.4431 93.9775 66.1398 94.1275 65.8998 94.4275C65.6598 94.7208 65.5398 95.0975 65.5398 95.5575C65.5398 95.9641 65.6531 96.2975 65.8798 96.5575C66.1064 96.8108 66.4098 96.9375 66.7898 96.9375C67.3698 96.9375 67.7998 96.7108 68.0798 96.2575C68.1264 96.1641 68.1498 96.0575 68.1498 95.9375C68.1564 95.3508 68.0464 94.8775 67.8198 94.5175C67.5931 94.1575 67.2598 93.9775 66.8198 93.9775Z" fill="black"/>
<path d="M92.3932 99.9175V94.2375H92.3732L91.2432 94.8475L91.0732 94.1775L92.4932 93.4175H93.2432V99.9175H92.3932ZM97.6902 100.027H97.6802C97.0335 100.027 96.5135 99.7341 96.1202 99.1475C95.7268 98.5608 95.5268 97.7408 95.5202 96.6875C95.5202 95.6208 95.7268 94.7908 96.1402 94.1975C96.5602 93.6041 97.1102 93.3075 97.7902 93.3075C98.4702 93.3075 98.9968 93.5975 99.3702 94.1775C99.7502 94.7575 99.9402 95.5641 99.9402 96.5975C99.9402 97.6975 99.7435 98.5441 99.3502 99.1375C98.9568 99.7308 98.4035 100.027 97.6902 100.027ZM97.7202 99.3475H97.7302C98.1635 99.3475 98.4902 99.1108 98.7102 98.6375C98.9368 98.1575 99.0502 97.4908 99.0502 96.6375C99.0502 95.8041 98.9402 95.1541 98.7202 94.6875C98.5068 94.2208 98.1768 93.9875 97.7302 93.9875C97.3302 93.9875 97.0102 94.2275 96.7702 94.7075C96.5302 95.1808 96.4102 95.8241 96.4102 96.6375C96.4035 97.4775 96.5168 98.1408 96.7502 98.6275C96.9902 99.1075 97.3135 99.3475 97.7202 99.3475Z" fill="black"/>
<path d="M120.508 99.9175V94.2375H120.488L119.358 94.8475L119.188 94.1775L120.608 93.4175H121.358V99.9175H120.508ZM125.635 99.9175V94.2375H125.615L124.485 94.8475L124.315 94.1775L125.735 93.4175H126.485V99.9175H125.635Z" fill="black"/>
<path d="M149.406 99.9175V94.2375H149.386L148.256 94.8475L148.086 94.1775L149.506 93.4175H150.256V99.9175H149.406ZM156.773 99.9175H152.623V99.3775L153.313 98.7075C154.22 97.8475 154.85 97.1808 155.203 96.7075C155.556 96.2341 155.733 95.7675 155.733 95.3075C155.733 94.9341 155.633 94.6308 155.433 94.3975C155.233 94.1575 154.906 94.0375 154.453 94.0375C153.973 94.0375 153.513 94.2208 153.073 94.5875L152.793 93.9675C153.313 93.5275 153.926 93.3075 154.633 93.3075C155.28 93.3075 155.77 93.4941 156.103 93.8675C156.443 94.2408 156.613 94.6841 156.613 95.1975C156.613 95.7508 156.436 96.2841 156.083 96.7975C155.73 97.3041 155.16 97.9341 154.373 98.6875L153.863 99.1675V99.1875H156.773V99.9175Z" fill="black"/>
<path d="M177.521 99.9175V94.2375H177.501L176.371 94.8475L176.201 94.1775L177.621 93.4175H178.371V99.9175H177.521ZM180.708 99.5875L180.948 98.9175C181.395 99.1841 181.875 99.3175 182.388 99.3175C182.901 99.3175 183.275 99.1908 183.508 98.9375C183.748 98.6775 183.865 98.3841 183.858 98.0575C183.851 97.6308 183.685 97.3075 183.358 97.0875C183.038 96.8675 182.645 96.7575 182.178 96.7575H181.688V96.0975H182.178C182.545 96.0975 182.878 96.0041 183.178 95.8175C183.478 95.6241 183.628 95.3508 183.628 94.9975C183.628 94.7175 183.531 94.4841 183.338 94.2975C183.151 94.1108 182.868 94.0175 182.488 94.0175C182.021 94.0175 181.588 94.1608 181.188 94.4475L180.948 93.8075C181.415 93.4741 181.985 93.3075 182.658 93.3075C183.258 93.3075 183.718 93.4575 184.038 93.7575C184.358 94.0575 184.518 94.4241 184.518 94.8575C184.518 95.2041 184.415 95.5141 184.208 95.7875C184.001 96.0541 183.705 96.2575 183.318 96.3975V96.4175C183.738 96.4975 184.085 96.6841 184.358 96.9775C184.631 97.2708 184.768 97.6375 184.768 98.0775C184.768 98.6241 184.558 99.0875 184.138 99.4675C183.718 99.8408 183.138 100.027 182.398 100.027C181.718 100.027 181.155 99.8808 180.708 99.5875Z" fill="black"/>
<path d="M6.48402 127.252V121.572H6.46402L5.33402 122.182L5.16402 121.512L6.58402 120.752H7.33402V127.252H6.48402ZM13.251 127.252H12.421V125.472H9.40098V124.902L12.301 120.752H13.251V124.792H14.161V125.472H13.251V127.252ZM10.291 124.792H12.421V122.622C12.421 122.282 12.431 121.942 12.451 121.602H12.421C12.2476 121.929 12.0676 122.249 11.881 122.562L10.291 124.772V124.792Z" fill="black"/>
<path d="M8.72402 154.586H4.57402V154.046L5.26402 153.376C6.17069 152.516 6.80069 151.85 7.15402 151.376C7.50736 150.903 7.68402 150.436 7.68402 149.976C7.68402 149.603 7.58402 149.3 7.38402 149.066C7.18402 148.826 6.85736 148.706 6.40402 148.706C5.92402 148.706 5.46402 148.89 5.02402 149.256L4.74402 148.636C5.26402 148.196 5.87736 147.976 6.58402 147.976C7.23069 147.976 7.72069 148.163 8.05402 148.536C8.39402 148.91 8.56402 149.353 8.56402 149.866C8.56402 150.42 8.38736 150.953 8.03402 151.466C7.68069 151.973 7.11069 152.603 6.32402 153.356L5.81402 153.836V153.856H8.72402V154.586ZM11.611 154.586V148.906H11.591L10.461 149.516L10.291 148.846L11.711 148.086H12.461V154.586H11.611Z" fill="black"/>
<path d="M8.72402 181.922H4.57402V181.382L5.26402 180.712C6.17069 179.852 6.80069 179.185 7.15402 178.712C7.50736 178.239 7.68402 177.772 7.68402 177.312C7.68402 176.939 7.58402 176.635 7.38402 176.402C7.18402 176.162 6.85736 176.042 6.40402 176.042C5.92402 176.042 5.46402 176.225 5.02402 176.592L4.74402 175.972C5.26402 175.532 5.87736 175.312 6.58402 175.312C7.23069 175.312 7.72069 175.499 8.05402 175.872C8.39402 176.245 8.56402 176.689 8.56402 177.202C8.56402 177.755 8.38736 178.289 8.03402 178.802C7.68069 179.309 7.11069 179.939 6.32402 180.692L5.81402 181.172V181.192H8.72402V181.922ZM11.871 175.312H11.881C12.481 175.312 12.9476 175.469 13.281 175.782C13.6143 176.095 13.781 176.472 13.781 176.912C13.781 177.592 13.421 178.099 12.701 178.432V178.462C13.5743 178.809 14.011 179.369 14.011 180.142C14.011 180.702 13.801 181.159 13.381 181.512C12.961 181.859 12.4343 182.032 11.801 182.032C11.141 182.032 10.611 181.865 10.211 181.532C9.81764 181.192 9.62098 180.775 9.62098 180.282C9.62098 179.482 10.0476 178.899 10.901 178.532V178.502C10.5543 178.342 10.2943 178.132 10.121 177.872C9.94764 177.612 9.86098 177.335 9.86098 177.042C9.86098 176.535 10.051 176.122 10.431 175.802C10.811 175.475 11.291 175.312 11.871 175.312ZM11.811 181.392H11.821C12.2143 181.392 12.5276 181.285 12.761 181.072C13.001 180.852 13.121 180.572 13.121 180.232C13.121 179.859 12.9976 179.562 12.751 179.342C12.511 179.122 12.1576 178.945 11.691 178.812C11.3176 178.919 11.0276 179.092 10.821 179.332C10.621 179.572 10.521 179.849 10.521 180.162C10.5076 180.502 10.6176 180.792 10.851 181.032C11.091 181.272 11.411 181.392 11.811 181.392ZM11.841 175.942H11.831C11.4776 175.942 11.201 176.042 11.001 176.242C10.801 176.442 10.701 176.689 10.701 176.982C10.6943 177.289 10.7976 177.539 11.011 177.732C11.231 177.925 11.541 178.075 11.941 178.182C12.241 178.082 12.481 177.932 12.661 177.732C12.841 177.525 12.931 177.282 12.931 177.002C12.931 176.709 12.8376 176.459 12.651 176.252C12.471 176.045 12.201 175.942 11.841 175.942Z" fill="#00BAC6"/>
<path d="M35.3805 127.252V121.572H35.3605L34.2305 122.182L34.0605 121.512L35.4805 120.752H36.2305V127.252H35.3805ZM42.4775 120.752V121.492H39.9975L39.7475 123.162C39.9475 123.135 40.1241 123.122 40.2775 123.122C40.8241 123.122 41.2908 123.239 41.6775 123.472C41.9508 123.625 42.1741 123.845 42.3475 124.132C42.5208 124.419 42.6075 124.755 42.6075 125.142C42.6075 125.782 42.3775 126.312 41.9175 126.732C41.4641 127.152 40.8875 127.362 40.1875 127.362C39.5341 127.362 38.9941 127.229 38.5675 126.962L38.7875 126.292C39.1941 126.532 39.6608 126.652 40.1875 126.652C40.6141 126.652 40.9775 126.522 41.2775 126.262C41.5775 126.002 41.7241 125.659 41.7175 125.232C41.7175 124.799 41.5608 124.452 41.2475 124.192C40.9408 123.932 40.4775 123.802 39.8575 123.802C39.5308 123.802 39.2275 123.825 38.9475 123.872L39.3675 120.752H42.4775Z" fill="black"/>
<path d="M37.6205 154.586H33.4705V154.046L34.1605 153.376C35.0672 152.516 35.6972 151.85 36.0505 151.376C36.4038 150.903 36.5805 150.436 36.5805 149.976C36.5805 149.603 36.4805 149.3 36.2805 149.066C36.0805 148.826 35.7538 148.706 35.3005 148.706C34.8205 148.706 34.3605 148.89 33.9205 149.256L33.6405 148.636C34.1605 148.196 34.7738 147.976 35.4805 147.976C36.1272 147.976 36.6172 148.163 36.9505 148.536C37.2905 148.91 37.4605 149.353 37.4605 149.866C37.4605 150.42 37.2838 150.953 36.9305 151.466C36.5772 151.973 36.0072 152.603 35.2205 153.356L34.7105 153.836V153.856H37.6205V154.586ZM42.7475 154.586H38.5975V154.046L39.2875 153.376C40.1941 152.516 40.8241 151.85 41.1775 151.376C41.5308 150.903 41.7075 150.436 41.7075 149.976C41.7075 149.603 41.6075 149.3 41.4075 149.066C41.2075 148.826 40.8808 148.706 40.4275 148.706C39.9475 148.706 39.4875 148.89 39.0475 149.256L38.7675 148.636C39.2875 148.196 39.9008 147.976 40.6075 147.976C41.2541 147.976 41.7441 148.163 42.0775 148.536C42.4175 148.91 42.5875 149.353 42.5875 149.866C42.5875 150.42 42.4108 150.953 42.0575 151.466C41.7041 151.973 41.1341 152.603 40.3475 153.356L39.8375 153.836V153.856H42.7475V154.586Z" fill="black"/>
<path d="M37.6205 181.922H33.4705V181.382L34.1605 180.712C35.0672 179.852 35.6972 179.185 36.0505 178.712C36.4038 178.239 36.5805 177.772 36.5805 177.312C36.5805 176.939 36.4805 176.635 36.2805 176.402C36.0805 176.162 35.7538 176.042 35.3005 176.042C34.8205 176.042 34.3605 176.225 33.9205 176.592L33.6405 175.972C34.1605 175.532 34.7738 175.312 35.4805 175.312C36.1272 175.312 36.6172 175.499 36.9505 175.872C37.2905 176.245 37.4605 176.689 37.4605 177.202C37.4605 177.755 37.2838 178.289 36.9305 178.802C36.5772 179.309 36.0072 179.939 35.2205 180.692L34.7105 181.172V181.192H37.6205V181.922ZM39.1075 182.022V181.302C39.3008 181.315 39.5375 181.302 39.8175 181.262C40.3508 181.202 40.8041 180.995 41.1775 180.642C41.6375 180.215 41.9241 179.639 42.0375 178.912H42.0075C41.6275 179.379 41.1141 179.612 40.4675 179.612C39.8941 179.612 39.4308 179.422 39.0775 179.042C38.7241 178.662 38.5475 178.185 38.5475 177.612C38.5475 176.985 38.7575 176.445 39.1775 175.992C39.5975 175.539 40.1308 175.312 40.7775 175.312C41.4375 175.312 41.9608 175.559 42.3475 176.052C42.7341 176.545 42.9275 177.212 42.9275 178.052C42.9275 179.365 42.5541 180.382 41.8075 181.102C41.2941 181.595 40.6641 181.885 39.9175 181.972C39.5708 182.012 39.3008 182.029 39.1075 182.022ZM40.7075 175.982H40.6975C40.3308 175.982 40.0275 176.132 39.7875 176.432C39.5475 176.725 39.4275 177.102 39.4275 177.562C39.4275 177.969 39.5408 178.302 39.7675 178.562C39.9941 178.815 40.2975 178.942 40.6775 178.942C41.2575 178.942 41.6875 178.715 41.9675 178.262C42.0141 178.169 42.0375 178.062 42.0375 177.942C42.0441 177.355 41.9341 176.882 41.7075 176.522C41.4808 176.162 41.1475 175.982 40.7075 175.982Z" fill="black"/>
<path d="M63.4967 127.252V121.572H63.4767L62.3467 122.182L62.1767 121.512L63.5967 120.752H64.3467V127.252H63.4967ZM70.4237 120.652V121.372C70.2503 121.365 70.0303 121.382 69.7637 121.422C69.1037 121.529 68.5803 121.795 68.1937 122.222C67.8137 122.642 67.5837 123.142 67.5037 123.722H67.5237C67.897 123.215 68.4237 122.962 69.1037 122.962C69.6837 122.962 70.1537 123.155 70.5137 123.542C70.8803 123.929 71.0637 124.435 71.0637 125.062C71.0637 125.689 70.8637 126.229 70.4637 126.682C70.0703 127.135 69.547 127.362 68.8937 127.362C68.2003 127.362 67.6437 127.112 67.2237 126.612C66.8103 126.105 66.6037 125.432 66.6037 124.592C66.6037 123.359 66.9703 122.382 67.7037 121.662C68.2503 121.122 68.9437 120.802 69.7837 120.702C70.0037 120.669 70.217 120.652 70.4237 120.652ZM68.9037 126.682H68.9137C69.287 126.682 69.5903 126.539 69.8237 126.252C70.057 125.965 70.1737 125.589 70.1737 125.122C70.1737 124.662 70.0503 124.299 69.8037 124.032C69.5637 123.765 69.2403 123.632 68.8337 123.632C68.567 123.632 68.317 123.705 68.0837 123.852C67.857 123.999 67.6837 124.192 67.5637 124.432C67.5037 124.552 67.4737 124.679 67.4737 124.812C67.4803 125.365 67.607 125.815 67.8537 126.162C68.107 126.509 68.457 126.682 68.9037 126.682Z" fill="black"/>
<path d="M65.7367 154.586H61.5867V154.046L62.2767 153.376C63.1834 152.516 63.8134 151.85 64.1667 151.376C64.5201 150.903 64.6967 150.436 64.6967 149.976C64.6967 149.603 64.5967 149.3 64.3967 149.066C64.1967 148.826 63.8701 148.706 63.4167 148.706C62.9367 148.706 62.4767 148.89 62.0367 149.256L61.7567 148.636C62.2767 148.196 62.8901 147.976 63.5967 147.976C64.2434 147.976 64.7334 148.163 65.0667 148.536C65.4067 148.91 65.5767 149.353 65.5767 149.866C65.5767 150.42 65.4001 150.953 65.0467 151.466C64.6934 151.973 64.1234 152.603 63.3367 153.356L62.8267 153.836V153.856H65.7367V154.586ZM66.6837 154.256L66.9237 153.586C67.3703 153.853 67.8503 153.986 68.3637 153.986C68.877 153.986 69.2503 153.86 69.4837 153.606C69.7237 153.346 69.8403 153.053 69.8337 152.726C69.827 152.3 69.6603 151.976 69.3337 151.756C69.0137 151.536 68.6203 151.426 68.1537 151.426H67.6637V150.766H68.1537C68.5203 150.766 68.8537 150.673 69.1537 150.486C69.4537 150.293 69.6037 150.02 69.6037 149.666C69.6037 149.386 69.507 149.153 69.3137 148.966C69.127 148.78 68.8437 148.686 68.4637 148.686C67.997 148.686 67.5637 148.83 67.1637 149.116L66.9237 148.476C67.3903 148.143 67.9603 147.976 68.6337 147.976C69.2337 147.976 69.6937 148.126 70.0137 148.426C70.3337 148.726 70.4937 149.093 70.4937 149.526C70.4937 149.873 70.3903 150.183 70.1837 150.456C69.977 150.723 69.6803 150.926 69.2937 151.066V151.086C69.7137 151.166 70.0603 151.353 70.3337 151.646C70.607 151.94 70.7437 152.306 70.7437 152.746C70.7437 153.293 70.5337 153.756 70.1137 154.136C69.6937 154.51 69.1137 154.696 68.3737 154.696C67.6937 154.696 67.1303 154.55 66.6837 154.256Z" fill="black"/>
<path d="M61.5567 181.592L61.7967 180.922C62.2434 181.189 62.7234 181.322 63.2367 181.322C63.7501 181.322 64.1234 181.195 64.3567 180.942C64.5967 180.682 64.7134 180.389 64.7067 180.062C64.7001 179.635 64.5334 179.312 64.2067 179.092C63.8867 178.872 63.4934 178.762 63.0267 178.762H62.5367V178.102H63.0267C63.3934 178.102 63.7267 178.009 64.0267 177.822C64.3267 177.629 64.4767 177.355 64.4767 177.002C64.4767 176.722 64.3801 176.489 64.1867 176.302C64.0001 176.115 63.7167 176.022 63.3367 176.022C62.8701 176.022 62.4367 176.165 62.0367 176.452L61.7967 175.812C62.2634 175.479 62.8334 175.312 63.5067 175.312C64.1067 175.312 64.5667 175.462 64.8867 175.762C65.2067 176.062 65.3667 176.429 65.3667 176.862C65.3667 177.209 65.2634 177.519 65.0567 177.792C64.8501 178.059 64.5534 178.262 64.1667 178.402V178.422C64.5867 178.502 64.9334 178.689 65.2067 178.982C65.4801 179.275 65.6167 179.642 65.6167 180.082C65.6167 180.629 65.4067 181.092 64.9867 181.472C64.5667 181.845 63.9867 182.032 63.2467 182.032C62.5667 182.032 62.0034 181.885 61.5567 181.592ZM68.7937 182.032H68.7837C68.137 182.032 67.617 181.739 67.2237 181.152C66.8303 180.565 66.6303 179.745 66.6237 178.692C66.6237 177.625 66.8303 176.795 67.2437 176.202C67.6637 175.609 68.2137 175.312 68.8937 175.312C69.5737 175.312 70.1003 175.602 70.4737 176.182C70.8537 176.762 71.0437 177.569 71.0437 178.602C71.0437 179.702 70.847 180.549 70.4537 181.142C70.0603 181.735 69.507 182.032 68.7937 182.032ZM68.8237 181.352H68.8337C69.267 181.352 69.5937 181.115 69.8137 180.642C70.0403 180.162 70.1537 179.495 70.1537 178.642C70.1537 177.809 70.0437 177.159 69.8237 176.692C69.6103 176.225 69.2803 175.992 68.8337 175.992C68.4337 175.992 68.1137 176.232 67.8737 176.712C67.6337 177.185 67.5137 177.829 67.5137 178.642C67.507 179.482 67.6203 180.145 67.8537 180.632C68.0937 181.112 68.417 181.352 68.8237 181.352Z" fill="black"/>
<path d="M92.3932 127.252V121.572H92.3732L91.2432 122.182L91.0732 121.512L92.4932 120.752H93.2432V127.252H92.3932ZM95.7302 120.752H99.8302V121.332L97.0002 127.252H96.1002L98.9102 121.502V121.482H95.7302V120.752Z" fill="black"/>
<path d="M94.6332 154.586H90.4832V154.046L91.1732 153.376C92.0799 152.516 92.7099 151.85 93.0632 151.376C93.4165 150.903 93.5932 150.436 93.5932 149.976C93.5932 149.603 93.4932 149.3 93.2932 149.066C93.0932 148.826 92.7665 148.706 92.3132 148.706C91.8332 148.706 91.3732 148.89 90.9332 149.256L90.6532 148.636C91.1732 148.196 91.7865 147.976 92.4932 147.976C93.1399 147.976 93.6299 148.163 93.9632 148.536C94.3032 148.91 94.4732 149.353 94.4732 149.866C94.4732 150.42 94.2965 150.953 93.9432 151.466C93.5899 151.973 93.0199 152.603 92.2332 153.356L91.7232 153.836V153.856H94.6332V154.586ZM99.1602 154.586H98.3302V152.806H95.3102V152.236L98.2102 148.086H99.1602V152.126H100.07V152.806H99.1602V154.586ZM96.2002 152.126H98.3302V149.956C98.3302 149.616 98.3402 149.276 98.3602 148.936H98.3302C98.1568 149.263 97.9768 149.583 97.7902 149.896L96.2002 152.106V152.126Z" fill="black"/>
<path d="M120.508 127.252V121.572H120.488L119.358 122.182L119.188 121.512L120.608 120.752H121.358V127.252H120.508ZM125.895 120.642H125.905C126.505 120.642 126.972 120.799 127.305 121.112C127.639 121.425 127.805 121.802 127.805 122.242C127.805 122.922 127.445 123.429 126.725 123.762V123.792C127.599 124.139 128.035 124.699 128.035 125.472C128.035 126.032 127.825 126.489 127.405 126.842C126.985 127.189 126.459 127.362 125.825 127.362C125.165 127.362 124.635 127.195 124.235 126.862C123.842 126.522 123.645 126.105 123.645 125.612C123.645 124.812 124.072 124.229 124.925 123.862V123.832C124.579 123.672 124.319 123.462 124.145 123.202C123.972 122.942 123.885 122.665 123.885 122.372C123.885 121.865 124.075 121.452 124.455 121.132C124.835 120.805 125.315 120.642 125.895 120.642ZM125.835 126.722H125.845C126.239 126.722 126.552 126.615 126.785 126.402C127.025 126.182 127.145 125.902 127.145 125.562C127.145 125.189 127.022 124.892 126.775 124.672C126.535 124.452 126.182 124.275 125.715 124.142C125.342 124.249 125.052 124.422 124.845 124.662C124.645 124.902 124.545 125.179 124.545 125.492C124.532 125.832 124.642 126.122 124.875 126.362C125.115 126.602 125.435 126.722 125.835 126.722ZM125.865 121.272H125.855C125.502 121.272 125.225 121.372 125.025 121.572C124.825 121.772 124.725 122.019 124.725 122.312C124.719 122.619 124.822 122.869 125.035 123.062C125.255 123.255 125.565 123.405 125.965 123.512C126.265 123.412 126.505 123.262 126.685 123.062C126.865 122.855 126.955 122.612 126.955 122.332C126.955 122.039 126.862 121.789 126.675 121.582C126.495 121.375 126.225 121.272 125.865 121.272Z" fill="black"/>
<path d="M122.748 154.586H118.598V154.046L119.288 153.376C120.195 152.516 120.825 151.85 121.178 151.376C121.532 150.903 121.708 150.436 121.708 149.976C121.708 149.603 121.608 149.3 121.408 149.066C121.208 148.826 120.882 148.706 120.428 148.706C119.948 148.706 119.488 148.89 119.048 149.256L118.768 148.636C119.288 148.196 119.902 147.976 120.608 147.976C121.255 147.976 121.745 148.163 122.078 148.536C122.418 148.91 122.588 149.353 122.588 149.866C122.588 150.42 122.412 150.953 122.058 151.466C121.705 151.973 121.135 152.603 120.348 153.356L119.838 153.836V153.856H122.748V154.586ZM127.605 148.086V148.826H125.125L124.875 150.496C125.075 150.47 125.252 150.456 125.405 150.456C125.952 150.456 126.419 150.573 126.805 150.806C127.079 150.96 127.302 151.18 127.475 151.466C127.649 151.753 127.735 152.09 127.735 152.476C127.735 153.116 127.505 153.646 127.045 154.066C126.592 154.486 126.015 154.696 125.315 154.696C124.662 154.696 124.122 154.563 123.695 154.296L123.915 153.626C124.322 153.866 124.789 153.986 125.315 153.986C125.742 153.986 126.105 153.856 126.405 153.596C126.705 153.336 126.852 152.993 126.845 152.566C126.845 152.133 126.689 151.786 126.375 151.526C126.069 151.266 125.605 151.136 124.985 151.136C124.659 151.136 124.355 151.16 124.075 151.206L124.495 148.086H127.605Z" fill="black"/>
<path d="M149.406 127.252V121.572H149.386L148.256 122.182L148.086 121.512L149.506 120.752H150.256V127.252H149.406ZM153.133 127.352V126.632C153.326 126.645 153.563 126.632 153.843 126.592C154.376 126.532 154.83 126.325 155.203 125.972C155.663 125.545 155.95 124.969 156.063 124.242H156.033C155.653 124.709 155.14 124.942 154.493 124.942C153.92 124.942 153.456 124.752 153.103 124.372C152.75 123.992 152.573 123.515 152.573 122.942C152.573 122.315 152.783 121.775 153.203 121.322C153.623 120.869 154.156 120.642 154.803 120.642C155.463 120.642 155.986 120.889 156.373 121.382C156.76 121.875 156.953 122.542 156.953 123.382C156.953 124.695 156.58 125.712 155.833 126.432C155.32 126.925 154.69 127.215 153.943 127.302C153.596 127.342 153.326 127.359 153.133 127.352ZM154.733 121.312H154.723C154.356 121.312 154.053 121.462 153.813 121.762C153.573 122.055 153.453 122.432 153.453 122.892C153.453 123.299 153.566 123.632 153.793 123.892C154.02 124.145 154.323 124.272 154.703 124.272C155.283 124.272 155.713 124.045 155.993 123.592C156.04 123.499 156.063 123.392 156.063 123.272C156.07 122.685 155.96 122.212 155.733 121.852C155.506 121.492 155.173 121.312 154.733 121.312Z" fill="black"/>
<path d="M151.646 154.586H147.496V154.046L148.186 153.376C149.093 152.516 149.723 151.85 150.076 151.376C150.429 150.903 150.606 150.436 150.606 149.976C150.606 149.603 150.506 149.3 150.306 149.066C150.106 148.826 149.779 148.706 149.326 148.706C148.846 148.706 148.386 148.89 147.946 149.256L147.666 148.636C148.186 148.196 148.799 147.976 149.506 147.976C150.153 147.976 150.643 148.163 150.976 148.536C151.316 148.91 151.486 149.353 151.486 149.866C151.486 150.42 151.309 150.953 150.956 151.466C150.603 151.973 150.033 152.603 149.246 153.356L148.736 153.836V153.856H151.646V154.586ZM156.333 147.986V148.706C156.16 148.7 155.94 148.716 155.673 148.756C155.013 148.863 154.49 149.13 154.103 149.556C153.723 149.976 153.493 150.476 153.413 151.056H153.433C153.806 150.55 154.333 150.296 155.013 150.296C155.593 150.296 156.063 150.49 156.423 150.876C156.79 151.263 156.973 151.77 156.973 152.396C156.973 153.023 156.773 153.563 156.373 154.016C155.98 154.47 155.456 154.696 154.803 154.696C154.11 154.696 153.553 154.446 153.133 153.946C152.72 153.44 152.513 152.766 152.513 151.926C152.513 150.693 152.88 149.716 153.613 148.996C154.16 148.456 154.853 148.136 155.693 148.036C155.913 148.003 156.126 147.986 156.333 147.986ZM154.813 154.016H154.823C155.196 154.016 155.5 153.873 155.733 153.586C155.966 153.3 156.083 152.923 156.083 152.456C156.083 151.996 155.96 151.633 155.713 151.366C155.473 151.1 155.15 150.966 154.743 150.966C154.476 150.966 154.226 151.04 153.993 151.186C153.766 151.333 153.593 151.526 153.473 151.766C153.413 151.886 153.383 152.013 153.383 152.146C153.39 152.7 153.516 153.15 153.763 153.496C154.016 153.843 154.366 154.016 154.813 154.016Z" fill="black"/>
<path d="M179.761 127.252H175.611V126.712L176.301 126.042C177.208 125.182 177.838 124.515 178.191 124.042C178.544 123.569 178.721 123.102 178.721 122.642C178.721 122.269 178.621 121.965 178.421 121.732C178.221 121.492 177.894 121.372 177.441 121.372C176.961 121.372 176.501 121.555 176.061 121.922L175.781 121.302C176.301 120.862 176.914 120.642 177.621 120.642C178.268 120.642 178.758 120.829 179.091 121.202C179.431 121.575 179.601 122.019 179.601 122.532C179.601 123.085 179.424 123.619 179.071 124.132C178.718 124.639 178.148 125.269 177.361 126.022L176.851 126.502V126.522H179.761V127.252ZM182.818 127.362H182.808C182.161 127.362 181.641 127.069 181.248 126.482C180.855 125.895 180.655 125.075 180.648 124.022C180.648 122.955 180.855 122.125 181.268 121.532C181.688 120.939 182.238 120.642 182.918 120.642C183.598 120.642 184.125 120.932 184.498 121.512C184.878 122.092 185.068 122.899 185.068 123.932C185.068 125.032 184.871 125.879 184.478 126.472C184.085 127.065 183.531 127.362 182.818 127.362ZM182.848 126.682H182.858C183.291 126.682 183.618 126.445 183.838 125.972C184.065 125.492 184.178 124.825 184.178 123.972C184.178 123.139 184.068 122.489 183.848 122.022C183.635 121.555 183.305 121.322 182.858 121.322C182.458 121.322 182.138 121.562 181.898 122.042C181.658 122.515 181.538 123.159 181.538 123.972C181.531 124.812 181.645 125.475 181.878 125.962C182.118 126.442 182.441 126.682 182.848 126.682Z" fill="black"/>
<path d="M179.761 154.586H175.611V154.046L176.301 153.376C177.208 152.516 177.838 151.85 178.191 151.376C178.544 150.903 178.721 150.436 178.721 149.976C178.721 149.603 178.621 149.3 178.421 149.066C178.221 148.826 177.894 148.706 177.441 148.706C176.961 148.706 176.501 148.89 176.061 149.256L175.781 148.636C176.301 148.196 176.914 147.976 177.621 147.976C178.268 147.976 178.758 148.163 179.091 148.536C179.431 148.91 179.601 149.353 179.601 149.866C179.601 150.42 179.424 150.953 179.071 151.466C178.718 151.973 178.148 152.603 177.361 153.356L176.851 153.836V153.856H179.761V154.586ZM180.858 148.086H184.958V148.666L182.128 154.586H181.228L184.038 148.836V148.816H180.858V148.086Z" fill="black"/>
<path d="M38.5045 72.5825V66.9025H38.4845L37.3545 67.5125L37.1845 66.8425L38.6045 66.0825H39.3545V72.5825H38.5045Z" fill="#C4C4C4"/>
<path d="M68.8598 72.5825H64.7098V72.0425L65.3998 71.3725C66.3064 70.5125 66.9364 69.8459 67.2898 69.3725C67.6431 68.8992 67.8198 68.4325 67.8198 67.9725C67.8198 67.5992 67.7198 67.2959 67.5198 67.0625C67.3198 66.8225 66.9931 66.7025 66.5398 66.7025C66.0598 66.7025 65.5998 66.8859 65.1598 67.2525L64.8798 66.6325C65.3998 66.1925 66.0131 65.9725 66.7198 65.9725C67.3664 65.9725 67.8564 66.1592 68.1898 66.5325C68.5298 66.9059 68.6998 67.3492 68.6998 67.8625C68.6998 68.4159 68.5231 68.9492 68.1698 69.4625C67.8164 69.9692 67.2464 70.5992 66.4598 71.3525L65.9498 71.8325V71.8525H68.8598V72.5825Z" fill="#C4C4C4"/>
<path d="M93.5772 72.2525L93.8172 71.5825C94.2639 71.8492 94.7439 71.9825 95.2572 71.9825C95.7706 71.9825 96.1439 71.8559 96.3772 71.6025C96.6172 71.3425 96.7339 71.0492 96.7272 70.7225C96.7206 70.2959 96.5539 69.9725 96.2272 69.7525C95.9072 69.5325 95.5139 69.4225 95.0472 69.4225H94.5572V68.7625H95.0472C95.4139 68.7625 95.7472 68.6692 96.0472 68.4825C96.3472 68.2892 96.4972 68.0159 96.4972 67.6625C96.4972 67.3825 96.4006 67.1492 96.2072 66.9625C96.0206 66.7759 95.7372 66.6825 95.3572 66.6825C94.8906 66.6825 94.4572 66.8259 94.0572 67.1125L93.8172 66.4725C94.2839 66.1392 94.8539 65.9725 95.5272 65.9725C96.1272 65.9725 96.5872 66.1225 96.9072 66.4225C97.2272 66.7225 97.3872 67.0892 97.3872 67.5225C97.3872 67.8692 97.2839 68.1792 97.0772 68.4525C96.8706 68.7192 96.5739 68.9225 96.1872 69.0625V69.0825C96.6072 69.1625 96.9539 69.3492 97.2272 69.6425C97.5006 69.9359 97.6372 70.3025 97.6372 70.7425C97.6372 71.2892 97.4272 71.7525 97.0072 72.1325C96.5872 72.5059 96.0072 72.6925 95.2672 72.6925C94.5872 72.6925 94.0239 72.5459 93.5772 72.2525Z" fill="#C4C4C4"/>
<path d="M125.272 72.5825H124.442V70.8025H121.422V70.2325L124.322 66.0825H125.272V70.1225H126.182V70.8025H125.272V72.5825ZM122.312 70.1225H124.442V67.9525C124.442 67.6125 124.452 67.2725 124.472 66.9325H124.442C124.269 67.2592 124.089 67.5792 123.902 67.8925L122.312 70.1025V70.1225Z" fill="#C4C4C4"/>
<path d="M182.445 65.9825V66.7025C182.272 66.6959 182.052 66.7125 181.785 66.7525C181.125 66.8592 180.602 67.1259 180.215 67.5525C179.835 67.9725 179.605 68.4725 179.525 69.0525H179.545C179.918 68.5459 180.445 68.2925 181.125 68.2925C181.705 68.2925 182.175 68.4859 182.535 68.8725C182.902 69.2592 183.085 69.7659 183.085 70.3925C183.085 71.0192 182.885 71.5592 182.485 72.0125C182.092 72.4659 181.568 72.6925 180.915 72.6925C180.222 72.6925 179.665 72.4425 179.245 71.9425C178.832 71.4359 178.625 70.7625 178.625 69.9225C178.625 68.6892 178.992 67.7125 179.725 66.9925C180.272 66.4525 180.965 66.1325 181.805 66.0325C182.025 65.9992 182.238 65.9825 182.445 65.9825ZM180.925 72.0125H180.935C181.308 72.0125 181.612 71.8692 181.845 71.5825C182.078 71.2959 182.195 70.9192 182.195 70.4525C182.195 69.9925 182.072 69.6292 181.825 69.3625C181.585 69.0959 181.262 68.9625 180.855 68.9625C180.588 68.9625 180.338 69.0359 180.105 69.1825C179.878 69.3292 179.705 69.5225 179.585 69.7625C179.525 69.8825 179.495 70.0092 179.495 70.1425C179.502 70.6959 179.628 71.1459 179.875 71.4925C180.128 71.8392 180.478 72.0125 180.925 72.0125Z" fill="black"/>
<path d="M154.5 66.0825V66.8225H152.02L151.77 68.4925C151.97 68.4659 152.147 68.4525 152.3 68.4525C152.847 68.4525 153.313 68.5692 153.7 68.8025C153.973 68.9559 154.197 69.1759 154.37 69.4625C154.543 69.7492 154.63 70.0859 154.63 70.4725C154.63 71.1125 154.4 71.6425 153.94 72.0625C153.487 72.4825 152.91 72.6925 152.21 72.6925C151.557 72.6925 151.017 72.5592 150.59 72.2925L150.81 71.6225C151.217 71.8625 151.683 71.9825 152.21 71.9825C152.637 71.9825 153 71.8525 153.3 71.5925C153.6 71.3325 153.747 70.9892 153.74 70.5625C153.74 70.1292 153.583 69.7825 153.27 69.5225C152.963 69.2625 152.5 69.1325 151.88 69.1325C151.553 69.1325 151.25 69.1559 150.97 69.2025L151.39 66.0825H154.5Z" fill="black"/>
<circle cx="152.5" cy="69.5" r="8.5" stroke="black"/>
<circle cx="66.5" cy="123.5" r="8.5" stroke="black"/>
<circle cx="152.422" cy="123.5" r="8.5" stroke="black"/>
<circle cx="180.5" cy="69.5" r="8.5" stroke="black"/>
<circle cx="9.5" cy="178.5" r="8.5" stroke="#00BAC6"/>
</svg>
