<svg width="29" height="31" viewBox="0 0 29 31" fill="none" xmlns="http://www.w3.org/2000/svg">
<path d="M14.565 22.7217C20.5633 22.7217 25.4258 17.8592 25.4258 11.8609C25.4258 5.86258 20.5633 1 14.565 1C8.56668 1 3.7041 5.86258 3.7041 11.8609C3.7041 17.8592 8.56668 22.7217 14.565 22.7217Z" stroke="black" stroke-width="2" stroke-miterlimit="8" stroke-linecap="square"/>
<path d="M5.76226 18.2498L2 24.7095L6.33015 24.4965L8.31776 28.4008L11.7961 22.3669C9.38255 21.7281 7.25297 20.2374 5.76226 18.2498Z" stroke="black" stroke-width="2" stroke-miterlimit="8" stroke-linecap="square"/>
<path d="M23.4381 18.1787C22.0184 20.1663 19.8888 21.657 17.4043 22.3669L20.8826 28.4007L22.8702 24.4965L27.2004 24.7094L23.4381 18.1787Z" stroke="black" stroke-width="2" stroke-miterlimit="8" stroke-linecap="square"/>
<path d="M14.5643 15.5521L10.4471 17.7527L11.2279 13.1386L7.8916 9.8732L12.5057 9.23432L14.5643 5.04614L16.6229 9.23432L21.237 9.8732L17.9006 13.1386L18.6815 17.7527L14.5643 15.5521Z" stroke="black" stroke-width="2" stroke-miterlimit="8" stroke-linecap="square"/>
</svg>
