<svg width="25" height="25" viewBox="0 0 25 25" fill="none" xmlns="http://www.w3.org/2000/svg">
<path d="M5.51172 1H19.0467V11.1513C19.0467 14.8734 16.0014 17.9188 12.2792 17.9188C8.5571 17.9188 5.51172 14.8734 5.51172 11.1513V1Z" stroke="black" stroke-width="2" stroke-miterlimit="8" stroke-linecap="square"/>
<path d="M5.51167 4.38379V11.1513H4.38376C2.52269 11.1513 1 9.62861 1 7.76755C1 5.90648 2.52269 4.38379 4.38376 4.38379H5.51167ZM19.0467 11.1513V4.38379H20.1746C22.0357 4.38379 23.5584 5.90648 23.5584 7.76755C23.5584 9.62861 22.0357 11.1513 20.1746 11.1513H19.0467Z" stroke="black" stroke-width="2" stroke-miterlimit="8" stroke-linecap="square"/>
<path d="M11.2646 18.7083V20.2873C11.2646 21.9228 9.96751 23.2199 8.33203 23.2199H16.2275C14.592 23.2199 13.2949 21.9228 13.2949 20.2873V18.7083" stroke="black" stroke-width="2" stroke-miterlimit="8" stroke-linecap="square"/>
<path d="M8.33177 23.22H6.92188" stroke="black" stroke-width="2" stroke-miterlimit="8" stroke-linecap="square"/>
<path d="M17.6365 23.22H16.2266" stroke="black" stroke-width="2" stroke-miterlimit="8" stroke-linecap="square"/>
</svg>
