<svg width="63" height="29" viewBox="0 0 63 29" fill="none" xmlns="http://www.w3.org/2000/svg">
<path d="M53.9719 6.94079V19.2236H57.7225V13.0693C57.7225 12.4507 57.7869 11.8836 57.9094 11.3551C58.0318 10.8267 58.238 10.3691 58.5151 9.98249C58.8116 9.5765 59.2047 9.26073 59.6751 9.02874C60.152 8.79674 60.732 8.68719 61.4215 8.68719C61.6535 8.68719 61.8855 8.70653 62.1368 8.73875C62.3817 8.75808 62.5944 8.78386 62.7684 8.81608V5.32972C62.4719 5.2395 62.1948 5.20084 61.9499 5.20084C61.4731 5.20084 61.0155 5.27172 60.5773 5.4135C60.1391 5.55527 59.7202 5.75504 59.3336 6.01926C58.9469 6.26414 58.6054 6.57347 58.3025 6.94079C58.006 7.29523 57.7676 7.68188 57.5872 8.10076H57.5356V5.56172L53.9719 6.94079Z" fill="#00BAC6"/>
<path d="M0 7.23582V18.8613H4.15012V10.7222H11.7801V18.8613H15.9303V1.49397L11.7801 3.09215V7.23582H4.15012V5.19943L0 7.23582Z" fill="#00BAC6"/>
<path d="M19.2876 5.20053V18.856H23.0381V5.20053H19.2876ZM23.0381 3.09325V0.676649L21.1628 0L19.2876 0.676649V3.09325H23.0381Z" fill="#00BAC6"/>
<path d="M26.3377 1.95317V18.863H30.0882V14.1586L31.5382 12.7602L35.2888 18.863H39.832L34.103 10.2212L37.9309 6.48994L34.7603 5.25909L30.0882 10.1181V3.45469L26.3377 1.95317Z" fill="#00BAC6"/>
<path d="M2.35216 24.9386C2.31994 24.7388 2.24261 24.5906 2.10728 24.4875C1.97839 24.3844 1.81084 24.3328 1.61107 24.3328C1.52085 24.3328 1.41774 24.3521 1.31463 24.3844C1.21152 24.4166 1.11486 24.4746 1.02464 24.5584C0.93442 24.6421 0.863533 24.7581 0.805535 24.9128C0.747536 25.061 0.715315 25.2608 0.715315 25.5057C0.715315 25.641 0.728203 25.7699 0.760425 25.9052C0.792646 26.0405 0.8442 26.1565 0.908643 26.2597C0.97953 26.3628 1.06975 26.4465 1.1793 26.5174C1.28886 26.5819 1.41774 26.6076 1.57885 26.6076C1.79151 26.6076 1.95906 26.5432 2.09439 26.4143C2.22972 26.2854 2.31994 26.105 2.35216 25.873H3.06748C3.00303 26.2919 2.84193 26.6141 2.58416 26.8396C2.33283 27.0587 1.99773 27.1683 1.57885 27.1683C1.32108 27.1683 1.09553 27.1296 0.902199 27.0459C0.708871 26.9556 0.547764 26.8396 0.412434 26.6979C0.277104 26.5496 0.173996 26.3692 0.103108 26.1694C0.0386657 25.9632 0 25.7441 0 25.5121C0 25.2737 0.0322214 25.0481 0.103108 24.8355C0.173996 24.6228 0.27066 24.4424 0.40599 24.2877C0.541319 24.133 0.708871 24.0106 0.902199 23.9204C1.10197 23.8302 1.34041 23.785 1.60463 23.785C1.79151 23.785 1.97195 23.8108 2.1395 23.8624C2.3135 23.9075 2.46171 23.9784 2.5906 24.075C2.72593 24.1717 2.83548 24.2941 2.91926 24.4359C3.00303 24.5841 3.05459 24.7517 3.06748 24.9515H2.35216V24.9386Z" fill="#00BAC6"/>
<path d="M5.14238 26.6076C5.30348 26.6076 5.43881 26.5754 5.55481 26.511C5.67081 26.4465 5.76747 26.3563 5.8448 26.2468C5.92213 26.1372 5.97369 26.0212 6.00591 25.8859C6.04457 25.7506 6.06391 25.6088 6.06391 25.467C6.06391 25.3317 6.04457 25.1899 6.00591 25.0546C5.97369 24.9192 5.91569 24.7968 5.8448 24.6937C5.76747 24.5841 5.67081 24.5004 5.55481 24.4295C5.43881 24.365 5.29704 24.3328 5.14238 24.3328C4.98771 24.3328 4.84594 24.365 4.72994 24.4295C4.61394 24.4939 4.51728 24.5841 4.43995 24.6937C4.36262 24.7968 4.30462 24.9192 4.2724 25.0546C4.24018 25.1899 4.22084 25.3317 4.22084 25.467C4.22084 25.6088 4.24018 25.7441 4.2724 25.8859C4.31106 26.0212 4.36906 26.1372 4.43995 26.2468C4.51728 26.3563 4.61394 26.4401 4.72994 26.511C4.84594 26.5754 4.98127 26.6076 5.14238 26.6076ZM5.14238 27.1683C4.8846 27.1683 4.65261 27.1296 4.44639 27.0459C4.24662 26.9556 4.07263 26.8396 3.93085 26.6914C3.79552 26.5432 3.68597 26.3628 3.60864 26.1565C3.53775 25.9503 3.49908 25.7183 3.49908 25.4734C3.49908 25.2286 3.53775 25.003 3.60864 24.7968C3.68597 24.5906 3.78908 24.4101 3.93085 24.2619C4.07263 24.1137 4.24662 23.9977 4.44639 23.9139C4.65261 23.8237 4.8846 23.785 5.14238 23.785C5.40015 23.785 5.63214 23.8302 5.83191 23.9139C6.03813 23.9977 6.21213 24.1137 6.34746 24.2619C6.48923 24.4101 6.59878 24.5906 6.66967 24.7968C6.747 25.003 6.78567 25.2286 6.78567 25.4734C6.78567 25.7248 6.747 25.9503 6.66967 26.1565C6.59878 26.3628 6.48923 26.5432 6.34746 26.6914C6.21213 26.8396 6.03813 26.9621 5.83191 27.0459C5.63214 27.1232 5.40659 27.1683 5.14238 27.1683Z" fill="#00BAC6"/>
<path d="M7.38569 23.8628H8.06234V24.3332L8.07522 24.3461C8.18478 24.1657 8.32655 24.0304 8.50055 23.9272C8.67454 23.8241 8.87432 23.7726 9.08698 23.7726C9.44141 23.7726 9.72496 23.8628 9.93118 24.0497C10.1374 24.2301 10.2405 24.5072 10.2405 24.8746V27.0849H9.52519V25.0614C9.51874 24.8101 9.46074 24.6232 9.36408 24.5137C9.26097 24.3977 9.10631 24.3397 8.89365 24.3397C8.77121 24.3397 8.66165 24.3655 8.56499 24.4106C8.46833 24.4492 8.38455 24.5137 8.32011 24.591C8.25566 24.6683 8.19767 24.7521 8.16544 24.8617C8.13322 24.9712 8.10745 25.0743 8.10745 25.1903V27.0914H7.39213V23.8628H7.38569Z" fill="#00BAC6"/>
<path d="M11.5546 25.4734C11.5546 25.6152 11.5675 25.7506 11.5997 25.8923C11.6319 26.0277 11.6835 26.1437 11.7544 26.2532C11.8317 26.3563 11.9219 26.4401 12.0379 26.511C12.1539 26.5754 12.2892 26.6076 12.4503 26.6076C12.7597 26.6076 12.9917 26.5045 13.1334 26.2983C13.2817 26.0857 13.359 25.815 13.359 25.4734C13.359 25.119 13.2817 24.8419 13.127 24.6357C12.9788 24.4295 12.7468 24.3328 12.4503 24.3328C12.3021 24.3328 12.1732 24.365 12.0572 24.4295C11.9412 24.4939 11.851 24.5777 11.7737 24.6872C11.6964 24.7904 11.6384 24.9128 11.6061 25.0481C11.5739 25.1835 11.5546 25.3252 11.5546 25.4734ZM14.055 28.2703H13.3396V26.6656H13.3268C13.2688 26.7559 13.1979 26.8267 13.1205 26.8976C13.0432 26.9621 12.953 27.0136 12.8563 27.0523C12.7597 27.091 12.6566 27.1232 12.5534 27.1425C12.4503 27.1619 12.3408 27.1747 12.2377 27.1747C11.9992 27.1747 11.793 27.1296 11.6126 27.0394C11.4386 26.9427 11.2904 26.8203 11.1744 26.6656C11.0584 26.511 10.9746 26.3241 10.9166 26.1243C10.865 25.9181 10.8328 25.7119 10.8328 25.4928C10.8328 25.2543 10.865 25.0352 10.9295 24.829C10.9939 24.6228 11.0842 24.4424 11.213 24.2877C11.3419 24.133 11.4966 24.0106 11.6835 23.9204C11.8768 23.8302 12.1023 23.785 12.3537 23.785C12.5663 23.785 12.7597 23.8237 12.9401 23.9075C13.1205 23.9848 13.2623 24.1202 13.359 24.307H13.3719V23.8688H14.0485V28.2703H14.055Z" fill="#00BAC6"/>
<path d="M17.6958 27.0799H16.9934V26.6288H16.9805C16.8903 26.7899 16.7614 26.9188 16.5809 27.0219C16.4069 27.1186 16.2329 27.1637 16.0525 27.1637C15.6272 27.1637 15.3114 27.0606 15.1245 26.8544C14.9376 26.6417 14.841 26.3259 14.841 25.9006V23.8578H15.5563V25.8297C15.5563 26.1133 15.6078 26.313 15.7174 26.429C15.827 26.545 15.9816 26.603 16.1749 26.603C16.3232 26.603 16.4521 26.5773 16.5552 26.5321C16.6583 26.487 16.7356 26.429 16.8 26.3517C16.8645 26.2744 16.9096 26.1777 16.9354 26.0746C16.9676 25.9651 16.9805 25.8491 16.9805 25.7266V23.8578H17.6958V27.0799Z" fill="#00BAC6"/>
<path d="M19.0107 25.6541C19.0107 25.7765 19.03 25.899 19.0623 26.015C19.1009 26.131 19.1525 26.2341 19.2234 26.3179C19.2943 26.4016 19.3845 26.4725 19.494 26.5305C19.6036 26.5821 19.7325 26.6079 19.8871 26.6079C20.0998 26.6079 20.2673 26.5627 20.3898 26.479C20.5187 26.3887 20.6153 26.2534 20.6798 26.073H21.3564C21.3178 26.247 21.2533 26.4016 21.1631 26.537C21.0729 26.6723 20.9569 26.7883 20.828 26.885C20.6991 26.9752 20.5509 27.0461 20.3898 27.0912C20.2287 27.1427 20.0611 27.1685 19.8871 27.1685C19.6294 27.1685 19.4038 27.1298 19.2105 27.0461C19.0172 26.9623 18.8432 26.8463 18.7078 26.6981C18.5725 26.5499 18.4694 26.3694 18.3985 26.1632C18.3341 25.957 18.2954 25.725 18.2954 25.4801C18.2954 25.2546 18.3341 25.0354 18.4049 24.8292C18.4823 24.623 18.5854 24.4426 18.7207 24.2879C18.856 24.1332 19.0236 24.0044 19.2169 23.9141C19.4103 23.8239 19.6294 23.7788 19.8742 23.7788C20.132 23.7788 20.3576 23.8304 20.5573 23.9399C20.7636 24.043 20.9311 24.1848 21.0664 24.3588C21.2018 24.5328 21.2984 24.7326 21.3564 24.9646C21.4209 25.1901 21.4338 25.4221 21.408 25.6605H19.0107V25.6541ZM20.6862 25.1837C20.6798 25.0741 20.654 24.9646 20.6089 24.8615C20.5702 24.7583 20.5187 24.6681 20.4478 24.5908C20.3833 24.5135 20.2996 24.449 20.1965 24.4039C20.0998 24.3524 19.9902 24.3266 19.8678 24.3266C19.7389 24.3266 19.6294 24.3524 19.5198 24.3975C19.4167 24.4361 19.3329 24.5006 19.2556 24.5779C19.1847 24.6552 19.1267 24.739 19.0816 24.8486C19.0365 24.9517 19.0172 25.0677 19.0107 25.1837H20.6862Z" fill="#00BAC6"/>
<path d="M21.9493 23.8628H22.6195V24.4879H22.6324C22.6517 24.3977 22.6904 24.3139 22.7548 24.2301C22.8193 24.1463 22.8901 24.0755 22.9739 24.0046C23.0641 23.9337 23.1608 23.8757 23.2639 23.837C23.367 23.7984 23.4766 23.7726 23.5861 23.7726C23.6699 23.7726 23.7279 23.7726 23.7537 23.779C23.7859 23.7855 23.8181 23.7855 23.8568 23.7919V24.475C23.8052 24.4686 23.7537 24.4621 23.7021 24.4557C23.6506 24.4492 23.599 24.4428 23.5539 24.4428C23.4315 24.4428 23.3155 24.4686 23.2059 24.5201C23.1028 24.5652 23.0061 24.6361 22.9288 24.7328C22.8515 24.823 22.787 24.939 22.7419 25.0743C22.6968 25.2097 22.671 25.3708 22.671 25.5448V27.0785H21.9557V23.8628H21.9493Z" fill="#00BAC6"/>
<path d="M25.5845 23.8645H26.1258V22.8978H26.8411V23.8645H27.492V24.3929H26.8411V26.1135C26.8411 26.1908 26.8411 26.2553 26.8475 26.3068C26.854 26.3584 26.8733 26.4035 26.8926 26.4422C26.9184 26.4808 26.9506 26.5066 27.0022 26.5324C27.0473 26.5517 27.1118 26.5582 27.1891 26.5582C27.2406 26.5582 27.2922 26.5582 27.3373 26.5582C27.3889 26.5517 27.4404 26.5453 27.4855 26.5324V27.0801C27.4082 27.0866 27.3309 27.0995 27.2535 27.1059C27.1762 27.1124 27.0989 27.1188 27.0215 27.1188C26.8346 27.1188 26.68 27.0995 26.564 27.0673C26.448 27.0286 26.3578 26.977 26.2933 26.9126C26.2289 26.8417 26.1838 26.7579 26.158 26.6484C26.1387 26.5453 26.1258 26.4293 26.1193 26.2939V24.3929H25.5845V23.8645Z" fill="#00BAC6"/>
<path d="M28.0072 22.6318H28.7225V24.2816H28.7354C28.8256 24.1334 28.9545 24.0174 29.1285 23.9207C29.3025 23.824 29.5023 23.7725 29.715 23.7725C30.0694 23.7725 30.3529 23.8627 30.5592 24.0496C30.7654 24.2365 30.8685 24.5071 30.8685 24.8745V27.0848H30.1532V25.0613C30.1467 24.81 30.0887 24.6231 29.9921 24.5136C29.8889 24.3976 29.7343 24.3396 29.5216 24.3396C29.3992 24.3396 29.2896 24.3654 29.193 24.4105C29.0963 24.4491 29.0125 24.5136 28.9481 24.5909C28.8836 24.6682 28.8256 24.752 28.7934 24.8616C28.7612 24.9711 28.7354 25.0742 28.7354 25.1902V27.0913H28.0201V22.6318H28.0072Z" fill="#00BAC6"/>
<path d="M32.1769 25.6541C32.1769 25.7765 32.1963 25.899 32.2285 26.015C32.2672 26.131 32.3187 26.2341 32.3896 26.3179C32.4605 26.4016 32.5507 26.4725 32.6603 26.5305C32.7698 26.5821 32.8987 26.6079 33.0534 26.6079C33.266 26.6079 33.4336 26.5627 33.556 26.479C33.6849 26.3887 33.7816 26.2534 33.846 26.073H34.5227C34.484 26.247 34.4196 26.4016 34.3293 26.537C34.2391 26.6723 34.1231 26.7883 33.9942 26.885C33.8654 26.9752 33.7171 27.0461 33.556 27.0912C33.3949 27.1427 33.2274 27.1685 33.0534 27.1685C32.7956 27.1685 32.57 27.1298 32.3767 27.0461C32.1834 26.9623 32.0094 26.8463 31.8741 26.6981C31.7387 26.5499 31.6356 26.3694 31.5647 26.1632C31.5003 25.957 31.4616 25.725 31.4616 25.4801C31.4616 25.2546 31.5003 25.0354 31.5712 24.8292C31.6485 24.623 31.7516 24.4426 31.887 24.2879C32.0223 24.1332 32.1898 24.0044 32.3832 23.9141C32.5765 23.8239 32.7956 23.7788 33.0405 23.7788C33.2983 23.7788 33.5238 23.8304 33.7236 23.9399C33.9298 24.043 34.0973 24.1848 34.2327 24.3588C34.368 24.5328 34.4647 24.7326 34.5227 24.9646C34.5871 25.1901 34.6 25.4221 34.5742 25.6605H32.1769V25.6541ZM33.8525 25.1837C33.846 25.0741 33.8202 24.9646 33.7751 24.8615C33.7365 24.7583 33.6849 24.6681 33.614 24.5908C33.5496 24.5135 33.4658 24.449 33.3627 24.4039C33.266 24.3524 33.1565 24.3266 33.034 24.3266C32.9051 24.3266 32.7956 24.3524 32.686 24.3975C32.5829 24.4361 32.4992 24.5006 32.4218 24.5779C32.3509 24.6552 32.2929 24.739 32.2478 24.8486C32.2027 24.9517 32.1834 25.0677 32.1769 25.1837H33.8525Z" fill="#00BAC6"/>
<path d="M37.4225 25.6541C37.4225 25.7765 37.4418 25.899 37.474 26.015C37.5127 26.131 37.5642 26.2341 37.6351 26.3179C37.706 26.4081 37.7962 26.4725 37.9058 26.5305C38.0153 26.5821 38.1442 26.6079 38.2989 26.6079C38.5115 26.6079 38.6791 26.5627 38.8015 26.479C38.9304 26.3887 39.0271 26.2534 39.0915 26.073H39.7682C39.7295 26.247 39.6651 26.4016 39.5748 26.537C39.4846 26.6723 39.3686 26.7883 39.2397 26.885C39.1109 26.9752 38.9626 27.0461 38.8015 27.0912C38.6404 27.1427 38.4729 27.1685 38.2989 27.1685C38.0411 27.1685 37.8156 27.1298 37.6222 27.0461C37.4225 26.9623 37.2549 26.8463 37.1196 26.6981C36.9842 26.5499 36.8811 26.3694 36.8103 26.1632C36.7458 25.957 36.7071 25.725 36.7071 25.4801C36.7071 25.2546 36.7458 25.0354 36.8167 24.8292C36.894 24.623 36.9971 24.4426 37.1325 24.2879C37.2678 24.1332 37.4353 24.0044 37.6287 23.9141C37.822 23.8239 38.0411 23.7788 38.286 23.7788C38.5438 23.7788 38.7693 23.8304 38.9691 23.9399C39.1753 24.043 39.3429 24.1848 39.4782 24.3588C39.6135 24.5328 39.7102 24.7326 39.7682 24.9646C39.8326 25.1901 39.8455 25.4221 39.8197 25.6605H37.4225V25.6541ZM39.098 25.1837C39.0915 25.0741 39.0658 24.9646 39.0206 24.8615C38.982 24.7583 38.9304 24.6681 38.8595 24.5908C38.7951 24.5135 38.7113 24.449 38.6082 24.4039C38.5115 24.3524 38.402 24.3266 38.2795 24.3266C38.1507 24.3266 38.0411 24.3524 37.9316 24.3975C37.8284 24.4361 37.7447 24.5006 37.6673 24.5779C37.5965 24.6552 37.5385 24.739 37.4933 24.8486C37.4482 24.9517 37.4289 25.0677 37.4225 25.1837H39.098Z" fill="#00BAC6"/>
<path d="M41.095 22.6318H40.3797V27.0784H41.095V22.6318Z" fill="#00BAC6"/>
<path d="M42.4352 25.6541C42.4352 25.7765 42.4546 25.899 42.4868 26.015C42.5255 26.131 42.577 26.2341 42.6479 26.3179C42.7188 26.4081 42.809 26.4725 42.9186 26.5305C43.0281 26.5821 43.157 26.6079 43.3117 26.6079C43.5243 26.6079 43.6919 26.5627 43.8143 26.479C43.9432 26.3887 44.0399 26.2534 44.1043 26.073H44.781C44.7423 26.247 44.6779 26.4016 44.5876 26.537C44.4974 26.6723 44.3814 26.7883 44.2525 26.885C44.1237 26.9752 43.9754 27.0461 43.8143 27.0912C43.6532 27.1427 43.4857 27.1685 43.3117 27.1685C43.0539 27.1685 42.8283 27.1298 42.635 27.0461C42.4352 26.9623 42.2677 26.8463 42.1324 26.6981C41.997 26.5499 41.8939 26.3694 41.823 26.1632C41.7586 25.957 41.7199 25.725 41.7199 25.4801C41.7199 25.2546 41.7586 25.0354 41.8295 24.8292C41.9068 24.623 42.0099 24.4426 42.1453 24.2879C42.2806 24.1332 42.4481 24.0044 42.6415 23.9141C42.8348 23.8239 43.0539 23.7788 43.2988 23.7788C43.5566 23.7788 43.7821 23.8304 43.9819 23.9399C44.1881 24.043 44.3556 24.1848 44.491 24.3588C44.6263 24.5328 44.723 24.7326 44.781 24.9646C44.8454 25.1901 44.8583 25.4221 44.8325 25.6605H42.4352V25.6541ZM44.1108 25.1837C44.1043 25.0741 44.0785 24.9646 44.0334 24.8615C43.9948 24.7583 43.9432 24.6681 43.8723 24.5908C43.8079 24.5135 43.7241 24.449 43.621 24.4039C43.5243 24.3524 43.4148 24.3266 43.2923 24.3266C43.1635 24.3266 43.0539 24.3524 42.9443 24.3975C42.8412 24.4361 42.7575 24.5006 42.6801 24.5779C42.6092 24.6552 42.5512 24.739 42.5061 24.8486C42.461 24.9517 42.4417 25.0677 42.4352 25.1837H44.1108Z" fill="#00BAC6"/>
<path d="M45.3749 23.8626H46.0515V24.3137H46.0708C46.1224 24.2364 46.1868 24.159 46.2448 24.0946C46.3028 24.0301 46.3802 23.9721 46.4511 23.927C46.5284 23.8819 46.6186 23.8433 46.7217 23.8239C46.8248 23.7917 46.9408 23.7788 47.0697 23.7788C47.2695 23.7788 47.4499 23.8239 47.6175 23.9077C47.7915 23.9979 47.9139 24.1268 47.9848 24.3137C48.1072 24.1461 48.249 24.0173 48.4037 23.9206C48.5648 23.8239 48.7646 23.7788 49.003 23.7788C49.3445 23.7788 49.6152 23.8626 49.8021 24.0301C49.9954 24.1977 50.0921 24.4748 50.0921 24.8679V27.0912H49.3768V25.1966C49.3768 25.0677 49.3703 24.9517 49.3639 24.8486C49.3574 24.739 49.3316 24.6488 49.2865 24.5715C49.2479 24.4941 49.1899 24.4297 49.1125 24.391C49.0352 24.3524 48.9257 24.3266 48.7839 24.3266C48.539 24.3266 48.365 24.4039 48.2555 24.5521C48.1459 24.7003 48.0943 24.913 48.0943 25.1901V27.0783H47.379V25.0097C47.379 24.7841 47.3339 24.6166 47.2501 24.507C47.1728 24.391 47.0246 24.333 46.8055 24.333C46.7153 24.333 46.625 24.3524 46.5348 24.391C46.4511 24.4297 46.3737 24.4812 46.3093 24.5521C46.2448 24.623 46.1933 24.7068 46.1546 24.8163C46.116 24.9195 46.0966 25.0354 46.0966 25.1708V27.0847H45.3813V23.8626H45.3749Z" fill="#00BAC6"/>
<path d="M51.4063 25.6541C51.4063 25.7765 51.4257 25.899 51.4579 26.015C51.4966 26.131 51.5481 26.2341 51.619 26.3179C51.6899 26.4081 51.7801 26.4725 51.8897 26.5305C51.9992 26.5821 52.1281 26.6079 52.2827 26.6079C52.4954 26.6079 52.663 26.5627 52.7854 26.479C52.9143 26.3887 53.011 26.2534 53.0754 26.073H53.752C53.7134 26.247 53.6489 26.4016 53.5587 26.537C53.4685 26.6723 53.3525 26.7883 53.2236 26.885C53.0947 26.9752 52.9465 27.0461 52.7854 27.0912C52.6243 27.1427 52.4567 27.1685 52.2827 27.1685C52.025 27.1685 51.7994 27.1298 51.6061 27.0461C51.4063 26.9623 51.2388 26.8463 51.1034 26.6981C50.9681 26.5499 50.865 26.3694 50.7941 26.1632C50.7297 25.957 50.691 25.725 50.691 25.4801C50.691 25.2546 50.7297 25.0354 50.8006 24.8292C50.8779 24.623 50.981 24.4426 51.1163 24.2879C51.2517 24.1332 51.4192 24.0044 51.6125 23.9141C51.8059 23.8239 52.025 23.7788 52.2699 23.7788C52.5276 23.7788 52.7532 23.8304 52.953 23.9399C53.1592 24.043 53.3267 24.1848 53.4621 24.3588C53.5974 24.5328 53.694 24.7326 53.752 24.9646C53.8165 25.1901 53.8294 25.4221 53.8036 25.6605H51.4063V25.6541ZM53.0818 25.1837C53.0754 25.0741 53.0496 24.9646 53.0045 24.8615C52.9658 24.7583 52.9143 24.6681 52.8434 24.5908C52.779 24.5135 52.6952 24.449 52.5921 24.4039C52.4954 24.3524 52.3859 24.3266 52.2634 24.3266C52.1345 24.3266 52.025 24.3524 51.9154 24.3975C51.8123 24.4361 51.7285 24.5006 51.6512 24.5779C51.5803 24.6552 51.5223 24.739 51.4772 24.8486C51.4321 24.9517 51.4128 25.0677 51.4063 25.1837H53.0818Z" fill="#00BAC6"/>
<path d="M54.3449 23.8628H55.0215V24.3332L55.0344 24.3461C55.144 24.1657 55.2858 24.0304 55.4598 23.9272C55.6338 23.8241 55.8335 23.7726 56.0462 23.7726C56.4006 23.7726 56.6842 23.8628 56.8904 24.0497C57.0966 24.2366 57.1997 24.5072 57.1997 24.8746V27.0849H56.4844V25.0614C56.478 24.8101 56.42 24.6232 56.3233 24.5137C56.2202 24.3977 56.0655 24.3397 55.8529 24.3397C55.7304 24.3397 55.6209 24.3655 55.5242 24.4106C55.4275 24.4492 55.3438 24.5137 55.2793 24.591C55.2149 24.6683 55.1569 24.7521 55.1247 24.8617C55.086 24.9648 55.0667 25.0743 55.0667 25.1903V27.0914H54.3513V23.8628H54.3449Z" fill="#00BAC6"/>
<path d="M58.1653 23.8645V22.8978H58.8806V23.8645H59.5315V24.3929H58.8806V26.1135C58.8806 26.1908 58.8806 26.2553 58.887 26.3068C58.8935 26.3584 58.9128 26.4035 58.9321 26.4422C58.9579 26.4808 58.9901 26.5066 59.0417 26.5324C59.0868 26.5517 59.1512 26.5582 59.2286 26.5582C59.2801 26.5582 59.3317 26.5582 59.3768 26.5582C59.4283 26.5517 59.4799 26.5453 59.525 26.5324V27.0801C59.4477 27.0866 59.3703 27.0995 59.293 27.1059C59.2157 27.1124 59.1384 27.1188 59.061 27.1188C58.8741 27.1188 58.7195 27.0995 58.6035 27.0673C58.4875 27.0286 58.3973 26.977 58.3328 26.9126C58.2684 26.8417 58.2233 26.7579 58.1975 26.6484C58.1782 26.5453 58.1653 26.4293 58.1588 26.2939V24.3929H57.6175V23.8645H58.1653Z" fill="#00BAC6"/>
<path d="M60.5894 26.0474C60.6087 26.2536 60.6925 26.4018 60.8278 26.4856C60.9631 26.5694 61.1307 26.6081 61.324 26.6081C61.3884 26.6081 61.4658 26.6016 61.5495 26.5952C61.6398 26.5823 61.7171 26.563 61.7944 26.5307C61.8718 26.4985 61.9298 26.4598 61.9749 26.4083C62.0264 26.3503 62.0458 26.273 62.0458 26.1827C62.0393 26.0925 62.0071 26.0152 61.9426 25.9572C61.8782 25.8992 61.8009 25.8541 61.6978 25.8219C61.6011 25.7832 61.4916 25.751 61.3627 25.7316C61.2338 25.7059 61.1113 25.6801 60.976 25.6479C60.8407 25.6156 60.7118 25.5834 60.5829 25.5448C60.4605 25.5061 60.3509 25.4481 60.2478 25.3772C60.1511 25.3063 60.0738 25.2161 60.0158 25.1065C59.9578 24.997 59.9256 24.8552 59.9256 24.6941C59.9256 24.5201 59.9707 24.3719 60.0545 24.2559C60.1447 24.1335 60.2542 24.0368 60.3831 23.9724C60.5185 23.895 60.6667 23.8435 60.8213 23.8177C60.9825 23.7855 61.1371 23.7726 61.2853 23.7726C61.4529 23.7726 61.614 23.7919 61.7622 23.8306C61.9169 23.8628 62.0586 23.9208 62.1746 23.9981C62.3035 24.0755 62.4002 24.1786 62.484 24.3075C62.5677 24.4299 62.6193 24.5846 62.6386 24.765H61.8911C61.8589 24.5974 61.7751 24.4815 61.6527 24.4235C61.5302 24.3655 61.3884 24.3332 61.2338 24.3332C61.1822 24.3332 61.1242 24.3397 61.0533 24.3461C60.9889 24.3526 60.918 24.3719 60.86 24.3977C60.802 24.417 60.7505 24.4492 60.7118 24.4943C60.6667 24.533 60.6473 24.591 60.6473 24.6619C60.6473 24.7521 60.6796 24.8166 60.7376 24.8746C60.802 24.9261 60.8793 24.9712 60.976 25.0099C61.0791 25.0421 61.1887 25.0743 61.3176 25.1001C61.4464 25.1259 61.5753 25.1517 61.7107 25.1839C61.8395 25.2161 61.9684 25.2483 62.0973 25.287C62.2262 25.3257 62.3358 25.3837 62.4324 25.4545C62.5355 25.5254 62.6129 25.6156 62.6709 25.7252C62.7353 25.8348 62.7675 25.9636 62.7675 26.1247C62.7675 26.3181 62.7224 26.4792 62.6386 26.6081C62.5484 26.7434 62.4324 26.8465 62.2906 26.9303C62.1553 27.0141 61.9942 27.0721 61.8267 27.1107C61.6527 27.1494 61.4851 27.1687 61.3176 27.1687C61.1113 27.1687 60.918 27.1429 60.744 27.0978C60.57 27.0527 60.4218 26.9818 60.2929 26.8916C60.164 26.7949 60.0674 26.679 59.99 26.5436C59.9191 26.4018 59.8805 26.2343 59.874 26.0474H60.5894Z" fill="#00BAC6"/>
<path d="M46.0835 4.28545L41.9204 0L46.0835 1.2953L50.2593 0L46.0835 4.28545Z" fill="#00BAC6"/>
<path fill-rule="evenodd" clip-rule="evenodd" d="M43.1953 11.5806L46.0888 8.57108L48.9887 11.5806L46.0888 10.6655L43.1953 11.5806ZM52.0111 13.5912H43.1631C43.2082 14.6803 43.4853 15.4665 43.9944 15.9562C44.5035 16.446 45.2253 16.6909 46.179 16.6909C46.8621 16.6909 47.4421 16.5233 47.9319 16.1947C48.4216 15.8467 48.7245 15.4858 48.8341 15.1056H51.7984C51.3215 16.5684 50.5933 17.6188 49.6138 18.2504C48.6343 18.8819 47.4485 19.1977 46.0566 19.1977C45.0899 19.1977 44.22 19.0495 43.4466 18.7466C42.6733 18.4308 42.016 17.9926 41.4747 17.4255C40.9398 16.8584 40.5209 16.1818 40.2181 15.3956C39.9345 14.6094 39.7927 13.7394 39.7927 12.7985C39.7927 11.8834 39.941 11.0328 40.2438 10.2466C40.5467 9.46039 40.972 8.78374 41.5262 8.21665C42.0805 7.63666 42.7378 7.17912 43.4982 6.84401C44.2715 6.51536 45.1286 6.34781 46.063 6.34781C47.107 6.34781 48.0156 6.55402 48.7889 6.96001C49.5623 7.35311 50.1938 7.88799 50.6836 8.56464C51.1927 9.24129 51.5535 10.0146 51.7726 10.8781C51.9982 11.7417 52.0755 12.6503 52.0111 13.5912Z" fill="#00BAC6"/>
</svg>
