<svg width="30" height="30" viewBox="0 0 30 30" fill="none" xmlns="http://www.w3.org/2000/svg">
<path d="M29.6 29.5998V18.6998C29.6 13.3998 28.5 9.2998 22.3 9.2998C19.3 9.2998 17.3 10.8998 16.5 12.4998H16.4V9.7998H10.5V29.4998H16.6V19.6998C16.6 17.0998 17.1 14.5998 20.3 14.5998C23.4 14.5998 23.5 17.4998 23.5 19.7998V29.3998L29.6 29.5998Z" fill="black"/>
<path d="M0.5 9.7998H6.6V29.4998H0.5V9.7998Z" fill="black"/>
<path d="M3.6 0C1.6 0 0 1.6 0 3.6C0 5.6 1.6 7.2 3.6 7.2C5.6 7.2 7.2 5.6 7.2 3.6C7.1 1.6 5.5 0 3.6 0Z" fill="black"/>
</svg>
