<svg width="36" height="36" viewBox="0 0 36 36" fill="none" xmlns="http://www.w3.org/2000/svg">
<path fill-rule="evenodd" clip-rule="evenodd" d="M7.2 2C4.35229 2 2 4.35228 2 7.2V28.8C2 31.6477 4.35229 34 7.2 34H28.8C31.6477 34 34 31.6477 34 28.8V7.2C34 4.35228 31.6477 2 28.8 2H7.2ZM0 7.2C0 3.24771 3.24772 0 7.2 0H28.8C32.7523 0 36 3.24772 36 7.2V28.8C36 32.7523 32.7523 36 28.8 36H7.2C3.24772 36 0 32.7523 0 28.8V7.2Z" fill="black"/>
<path fill-rule="evenodd" clip-rule="evenodd" d="M18.0004 9.8999C13.5527 9.8999 9.90039 13.5522 9.90039 17.9999C9.90039 22.4476 13.5527 26.0999 18.0004 26.0999C22.4481 26.0999 26.1004 22.4476 26.1004 17.9999C26.1004 13.5522 22.4481 9.8999 18.0004 9.8999ZM7.90039 17.9999C7.90039 12.4476 12.4481 7.8999 18.0004 7.8999C23.5527 7.8999 28.1004 12.4476 28.1004 17.9999C28.1004 23.5522 23.5527 28.0999 18.0004 28.0999C12.4481 28.0999 7.90039 23.5522 7.90039 17.9999Z" fill="black"/>
<path fill-rule="evenodd" clip-rule="evenodd" d="M28.9357 7.04038C28.8558 7.12408 28.7998 7.24968 28.7998 7.3999C28.7998 7.57729 28.8634 7.69071 28.9403 7.76405C29.024 7.84394 29.1496 7.8999 29.2998 7.8999C29.45 7.8999 29.5756 7.84394 29.6593 7.76405C29.7362 7.69071 29.7998 7.57729 29.7998 7.3999C29.7998 7.22251 29.7362 7.1091 29.6593 7.03576C29.5756 6.95586 29.45 6.8999 29.2998 6.8999C29.1224 6.8999 29.009 6.96355 28.9357 7.04038ZM26.7998 7.3999C26.7998 6.09197 27.8042 4.8999 29.2998 4.8999C30.6077 4.8999 31.7998 5.90429 31.7998 7.3999C31.7998 8.89552 30.6077 9.8999 29.2998 9.8999C27.9919 9.8999 26.7998 8.89552 26.7998 7.3999Z" fill="black"/>
</svg>
