<svg width="70" height="70" viewBox="0 0 70 70" fill="none" xmlns="http://www.w3.org/2000/svg">
<path d="M70 70H0V0H70V70ZM1.04283 68.9572H68.9572V1.04283H1.04283V68.9572Z" fill="black"/>
<path d="M9.18957 23.9205C9.51545 23.9857 9.77616 23.9857 10.102 23.9857C10.4279 23.9857 10.6886 23.9857 11.0145 23.9205V17.1421H8.27709C8.21191 17.4028 8.21191 17.5983 8.21191 17.859C8.21191 17.9894 8.21191 18.1197 8.21191 18.2501C8.21191 18.3805 8.27709 18.5108 8.27709 18.6412H9.18957V23.9205Z" fill="black"/>
<path d="M9.3847 16.0339C9.58023 16.0339 9.71058 16.0339 9.84093 16.0339C9.97129 16.0339 10.1668 16.0339 10.2972 16.0339C10.4927 16.0339 10.6231 16.0339 10.7534 15.9687C10.7534 15.8384 10.8186 15.6429 10.8186 15.5125C10.8186 15.3822 10.8186 15.1866 10.8186 15.0563C10.8186 14.9259 10.8186 14.7304 10.8186 14.6C10.8186 14.4697 10.8186 14.3393 10.7534 14.1438C10.6231 14.1438 10.4275 14.0786 10.2972 14.0786C10.1016 14.0786 9.97129 14.0786 9.84093 14.0786C9.71058 14.0786 9.51505 14.0786 9.3847 14.0786C9.18917 14.0786 9.05881 14.1438 8.92846 14.1438C8.86328 14.4697 8.86328 14.7304 8.86328 15.0563C8.86328 15.317 8.86328 15.6429 8.92846 15.9036C9.05881 16.0339 9.18917 16.0339 9.3847 16.0339Z" fill="black"/>
<path d="M13.8826 23.9207V20.336C13.8826 19.9449 13.9477 19.6842 14.0129 19.4235C14.0781 19.1628 14.2085 19.0324 14.3388 18.9021C14.4692 18.7717 14.5995 18.7066 14.795 18.6414C14.9254 18.5762 15.1209 18.5762 15.2513 18.5762C15.6423 18.5762 15.8379 18.7066 16.0334 18.9673C16.1638 19.228 16.2289 19.5539 16.2289 20.0753V23.9207C16.5548 23.9859 16.8807 23.9859 17.1414 23.9859C17.4673 23.9859 17.728 23.9859 18.0539 23.9207V19.5539C18.0539 18.6414 17.8584 17.9896 17.4673 17.5985C17.0762 17.2075 16.4896 16.9468 15.7075 16.9468C15.4468 16.9468 15.2513 17.012 15.0558 17.0771C14.8602 17.1423 14.6647 17.2075 14.5343 17.3378C14.404 17.4682 14.2085 17.5334 14.0781 17.6637C13.9477 17.7941 13.8174 17.9244 13.7522 18.0548C13.7522 17.9896 13.7522 17.9244 13.7522 17.8593C13.7522 17.7941 13.7522 17.6637 13.687 17.5985C13.687 17.5334 13.6219 17.403 13.6219 17.3378C13.6219 17.2727 13.5567 17.2075 13.5567 17.1423C13.4263 17.1423 13.296 17.0771 13.2308 17.0771C13.1004 17.0771 12.9701 17.0771 12.8397 17.0771C12.7094 17.0771 12.579 17.0771 12.4487 17.0771C12.3183 17.0771 12.188 17.1423 12.0576 17.1423V23.9207C12.3835 23.9859 12.7094 23.9859 12.9701 23.9859C13.296 23.9859 13.6219 23.9859 13.8826 23.9207Z" fill="black"/>
<path d="M21.3126 23.9852C21.5081 23.9852 21.6385 23.9852 21.7688 23.9852C21.8992 23.9852 22.0295 23.9852 22.2251 23.9852C22.4206 23.9852 22.551 23.9852 22.7465 23.92L25.3536 17.1416C25.158 17.0764 24.9625 17.0764 24.767 17.0764C24.5714 17.0764 24.4411 17.0764 24.3107 17.0764C24.1152 17.0764 23.9848 17.0764 23.7893 17.0764C23.5938 17.0764 23.4634 17.1416 23.3331 17.1416L21.834 22.1602L20.3349 17.0764C20.2046 17.0112 20.0091 17.0112 19.8787 17.0112C19.6832 17.0112 19.5528 17.0112 19.3573 17.0112C19.2269 17.0112 19.0966 17.0112 18.901 17.0112C18.7055 17.0112 18.51 17.0764 18.3145 17.0764L20.8564 23.92C20.9867 23.92 21.1171 23.9852 21.3126 23.9852Z" fill="black"/>
<path d="M25.4186 21.9649C25.549 22.4211 25.7445 22.747 26.0704 23.0729C26.3311 23.3988 26.7222 23.5943 27.1784 23.7898C27.6346 23.9854 28.156 24.0506 28.8078 24.0506C29.6551 24.0506 30.4372 23.9202 31.1542 23.6595C31.1542 23.3988 31.089 23.1381 31.0238 22.8774C30.9587 22.6167 30.8935 22.4211 30.7631 22.2256C30.5024 22.356 30.1765 22.4211 29.8506 22.4863C29.5248 22.5515 29.2641 22.5515 28.9382 22.5515C28.4168 22.5515 27.9605 22.4211 27.6346 22.1604C27.3088 21.8997 27.1132 21.5738 27.1132 20.9872H31.4801C31.4801 20.9221 31.5452 20.7917 31.5452 20.5962C31.5452 20.4658 31.5452 20.2703 31.5452 20.0748C31.5452 19.6185 31.4801 19.1623 31.3497 18.7712C31.2194 18.3802 31.0238 18.0543 30.7631 17.7284C30.5024 17.4677 30.1765 17.207 29.8506 17.0766C29.4596 16.8811 29.0685 16.8159 28.6123 16.8159C28.0909 16.8159 27.5695 16.8811 27.1784 17.0766C26.7873 17.2722 26.4614 17.5329 26.1356 17.8587C25.8749 18.1846 25.6793 18.5757 25.4838 19.0319C25.3534 19.4882 25.2883 19.9444 25.2883 20.4658C25.2231 21.0524 25.2883 21.5738 25.4186 21.9649ZM27.5043 18.7712C27.6998 18.5105 28.0909 18.3802 28.4819 18.3802C28.873 18.3802 29.1989 18.5105 29.3944 18.7712C29.5899 19.0319 29.7203 19.3578 29.7203 19.8141H27.048C27.1132 19.3578 27.2436 19.0319 27.5043 18.7712Z" fill="black"/>
<path d="M36.2375 18.9673C36.3679 19.228 36.433 19.5539 36.433 20.0753V23.9207C36.7589 23.9859 37.0848 23.9859 37.3455 23.9859C37.6714 23.9859 37.9321 23.9859 38.258 23.9207V19.5539C38.258 18.6414 38.0625 17.9896 37.6714 17.5985C37.2803 17.2075 36.6937 16.9468 35.9116 16.9468C35.6509 16.9468 35.4554 17.012 35.2599 17.0771C35.0643 17.1423 34.8688 17.2075 34.7384 17.3378C34.5429 17.4682 34.4126 17.5334 34.2822 17.6637C34.1518 17.7941 34.0215 17.9244 33.9563 18.0548C33.9563 17.9896 33.9563 17.9244 33.9563 17.8593C33.9563 17.7941 33.9563 17.6637 33.8911 17.5985C33.8911 17.5334 33.826 17.403 33.826 17.3378C33.826 17.2727 33.7608 17.2075 33.7608 17.1423C33.6304 17.1423 33.5001 17.0771 33.4349 17.0771C33.3045 17.0771 33.1742 17.0771 33.0438 17.0771C32.9135 17.0771 32.7831 17.0771 32.6528 17.0771C32.5224 17.0771 32.3921 17.1423 32.2617 17.1423V23.9207C32.5876 23.9859 32.9135 23.9859 33.1742 23.9859C33.5001 23.9859 33.7608 23.9859 34.0867 23.9207V20.336C34.0867 19.9449 34.1518 19.6842 34.217 19.4235C34.2822 19.1628 34.4126 19.0324 34.5429 18.9021C34.6733 18.7717 34.8036 18.7066 34.9991 18.6414C35.1295 18.5762 35.325 18.5762 35.4554 18.5762C35.8464 18.6414 36.1072 18.7717 36.2375 18.9673Z" fill="black"/>
<path d="M42.7556 22.4214C42.6253 22.4214 42.5601 22.4866 42.4297 22.4866C42.2994 22.4866 42.169 22.4866 42.0387 22.4866C41.8432 22.4866 41.7128 22.4866 41.5824 22.4214C41.4521 22.3562 41.3869 22.2911 41.2566 22.2259C41.1914 22.0955 41.1262 22.0304 41.061 21.8348C41.061 21.7045 41.061 21.5089 41.061 21.2482V18.576H42.6253C42.6253 18.4456 42.6905 18.3153 42.6905 18.1849C42.6905 18.0546 42.6905 17.9242 42.6905 17.859C42.6905 17.7287 42.6905 17.6635 42.6905 17.5331C42.6905 17.4028 42.6905 17.3376 42.6253 17.2073H41.061V15.252H40.7351L39.2361 16.0993C39.2361 16.0993 39.1709 16.0993 39.1709 16.1644V21.7696C39.1709 22.6169 39.3664 23.2035 39.8227 23.5946C40.2789 23.9857 40.8655 24.1812 41.6476 24.1812C42.1039 24.1812 42.4949 24.116 42.886 24.0508C42.886 23.9857 42.886 23.9205 42.886 23.8553C42.886 23.7901 42.886 23.725 42.886 23.5946C42.886 23.4642 42.886 23.2687 42.8208 23.1384C42.886 22.7473 42.8208 22.6169 42.7556 22.4214Z" fill="black"/>
<path d="M44.581 16.0339C44.7765 16.0339 44.9069 16.0339 45.0372 16.0339C45.1676 16.0339 45.3631 16.0339 45.4935 16.0339C45.689 16.0339 45.8193 16.0339 45.9497 15.9687C45.9497 15.8384 46.0149 15.6429 46.0149 15.5125C46.0149 15.3822 46.0149 15.1866 46.0149 15.0563C46.0149 14.9259 46.0149 14.7304 46.0149 14.6C46.0149 14.4697 46.0149 14.3393 45.9497 14.1438C45.8193 14.1438 45.6238 14.0786 45.4935 14.0786C45.2979 14.0786 45.1676 14.0786 45.0372 14.0786C44.9069 14.0786 44.7113 14.0786 44.581 14.0786C44.3855 14.0786 44.2551 14.1438 44.1247 14.1438C44.0596 14.4697 44.0596 14.7304 44.0596 15.0563C44.0596 15.317 44.0596 15.6429 44.1247 15.9036C44.2551 16.0339 44.3855 16.0339 44.581 16.0339Z" fill="black"/>
<path d="M43.4072 17.7939C43.4072 17.9242 43.4072 18.0546 43.4072 18.1849C43.4072 18.3153 43.4724 18.4456 43.4724 18.576H44.3849V23.9857C44.7108 24.0508 44.9715 24.0508 45.2974 24.0508C45.6232 24.0508 45.8839 24.0508 46.2098 23.9857V17.1421H43.4724C43.4072 17.3376 43.4072 17.5983 43.4072 17.7939Z" fill="black"/>
<path d="M53.2487 17.0767C53.0531 17.0767 52.9228 17.0767 52.7924 17.0767C52.5969 17.0767 52.4665 17.0767 52.271 17.0767C52.0755 17.0767 51.9451 17.1418 51.8148 17.1418L50.3809 22.1605L48.8818 17.1418C48.7515 17.0767 48.5559 17.0767 48.4256 17.0767C48.23 17.0767 48.0997 17.0767 47.9042 17.0767C47.7738 17.0767 47.6435 17.0767 47.4479 17.0767C47.2524 17.0767 47.0569 17.1418 46.8613 17.1418L49.4032 23.9202C49.5336 23.9854 49.7291 23.9854 49.8595 23.9854C50.055 23.9854 50.1853 23.9854 50.3157 23.9854C50.4461 23.9854 50.5764 23.9854 50.7719 23.9854C50.9675 23.9854 51.0978 23.9854 51.2934 23.9202L53.9004 17.1418C53.6397 17.0767 53.4442 17.0767 53.2487 17.0767Z" fill="black"/>
<path d="M59.7665 18.9665C59.6362 18.5755 59.4407 18.2496 59.1799 17.9237C58.9192 17.663 58.5933 17.4023 58.2675 17.2719C57.8764 17.0764 57.4853 17.0112 57.0291 17.0112C56.5077 17.0112 55.9863 17.0764 55.5952 17.2719C55.2041 17.4675 54.8783 17.7282 54.5524 18.0541C54.2917 18.3799 54.0961 18.771 53.9006 19.2272C53.7703 19.6835 53.7051 20.1397 53.7051 20.6611C53.7051 21.1826 53.7703 21.6388 53.9006 22.095C54.031 22.5513 54.2265 22.8771 54.5524 23.203C54.8131 23.5289 55.2041 23.7245 55.6604 23.92C56.1166 24.1155 56.638 24.1807 57.2898 24.1807C58.1371 24.1807 58.9192 24.0503 59.571 23.7896C59.571 23.5289 59.5058 23.2682 59.4406 23.0075C59.3755 22.7468 59.3103 22.5513 59.1799 22.3557C58.9192 22.4861 58.5933 22.5513 58.2675 22.6164C57.9416 22.6816 57.6809 22.6816 57.355 22.6816C56.8336 22.6816 56.3773 22.5513 56.0514 22.2906C55.7256 22.0299 55.53 21.704 55.53 21.1174H59.8969C59.8969 21.0522 59.8969 20.9218 59.9621 20.7263C59.9621 20.596 59.9621 20.4004 59.9621 20.2049C59.9621 19.7487 59.8969 19.3576 59.7665 18.9665ZM55.53 19.8138C55.5952 19.3576 55.7256 19.0317 55.9211 18.771C56.1166 18.5103 56.5077 18.3799 56.8988 18.3799C57.2898 18.3799 57.6157 18.5103 57.8112 18.771C58.0068 19.0317 58.1371 19.3576 58.1371 19.8138H55.53Z" fill="black"/>
<path d="M10.8838 32.2633C10.8838 32.1981 10.8838 32.0678 10.8186 32.0026C10.8186 31.9374 10.7534 31.8071 10.7534 31.7419C10.7534 31.6767 10.6883 31.6115 10.6883 31.5464C10.5579 31.5464 10.4276 31.4812 10.2972 31.4812C10.1669 31.4812 10.0365 31.4812 9.90615 31.4812C9.77579 31.4812 9.64544 31.4812 9.51508 31.4812C9.38473 31.4812 9.25438 31.4812 9.12402 31.5464V38.3899C9.31955 38.3899 9.44991 38.4551 9.58026 38.4551C9.71062 38.4551 9.90615 38.4551 10.0365 38.4551C10.1669 38.4551 10.3624 38.4551 10.4927 38.4551C10.6231 38.4551 10.8186 38.4551 10.949 38.3899V35.1311C10.949 34.6749 11.0142 34.2838 11.1445 34.0231C11.2749 33.7624 11.4052 33.5669 11.5356 33.4365C11.7311 33.3061 11.8615 33.241 12.057 33.1758C12.2525 33.1758 12.3829 33.1106 12.5784 33.1106H12.7739C12.9043 33.1106 12.9695 33.1106 13.0998 33.1106C13.0998 32.9803 13.165 32.7847 13.165 32.5892C13.165 32.3937 13.165 32.2633 13.165 32.133C13.165 32.0026 13.165 31.8723 13.165 31.8071C13.165 31.6767 13.165 31.6115 13.0998 31.4812C13.0346 31.4812 12.9695 31.4812 12.8391 31.416C12.7088 31.416 12.6436 31.416 12.5132 31.416C12.1222 31.416 11.7311 31.5464 11.4704 31.7419C11.2097 31.9374 10.949 32.1981 10.7534 32.4588C10.8838 32.3937 10.8838 32.3285 10.8838 32.2633Z" fill="black"/>
<path d="M15.3813 31.6113C14.9903 31.8068 14.5992 32.0675 14.3385 32.3934C14.0778 32.7193 13.8823 33.1104 13.6867 33.5666C13.5564 34.0228 13.4912 34.4791 13.4912 35.0005C13.4912 35.5219 13.5564 35.9781 13.6867 36.4344C13.8171 36.8906 14.0126 37.2165 14.3385 37.5424C14.5992 37.8683 14.9903 38.129 15.4465 38.2593C15.9028 38.4549 16.4242 38.52 17.0759 38.52C17.9232 38.52 18.7054 38.3897 19.4223 38.129C19.4223 37.8683 19.3571 37.6076 19.292 37.3469C19.2268 37.0862 19.1616 36.8906 19.0312 36.6951C18.7705 36.8254 18.4447 36.8906 18.1188 36.9558C17.7929 37.021 17.5322 37.021 17.2063 37.021C16.6849 37.021 16.2286 36.8906 15.9028 36.6951C15.5769 36.4344 15.3813 36.1085 15.3162 35.5219H19.683C19.683 35.3916 19.7482 35.3264 19.7482 35.1308C19.7482 35.0005 19.7482 34.805 19.7482 34.6094C19.7482 34.1532 19.683 33.697 19.5527 33.3059C19.4223 32.9148 19.2268 32.5889 18.9661 32.2631C18.7054 32.0024 18.3795 31.7416 18.0536 31.6113C17.6625 31.4158 17.2715 31.3506 16.8152 31.3506C16.2938 31.3506 15.8376 31.4158 15.3813 31.6113ZM18.0536 34.1532H15.3813C15.4465 33.697 15.5769 33.3711 15.7724 33.1104C16.0331 32.8497 16.359 32.7193 16.7501 32.7193C17.1411 32.7193 17.467 32.8497 17.6625 33.1104C17.9232 33.3711 18.0536 33.7621 18.0536 34.1532Z" fill="black"/>
<path d="M23.2028 38.3895C23.659 38.3895 24.0501 38.3243 24.4411 38.2591C24.4411 38.1939 24.4411 38.1288 24.4411 38.0636C24.4411 37.9984 24.4411 37.9332 24.4411 37.8029C24.4411 37.6725 24.4411 37.477 24.376 37.3466C24.376 37.1511 24.3108 37.0208 24.2456 36.8252C24.1804 36.8252 24.0501 36.8904 23.9197 36.8904C23.7894 36.8904 23.659 36.9556 23.5287 36.9556C23.3331 36.9556 23.2028 36.9556 23.0724 36.8904C22.9421 36.8252 22.8769 36.76 22.7465 36.6949C22.6814 36.6297 22.6162 36.4993 22.551 36.3038C22.4858 36.1083 22.4858 35.9127 22.4858 35.652V32.9798H24.0501C24.0501 32.8494 24.1153 32.7191 24.1153 32.5887C24.1153 32.4584 24.1153 32.328 24.1153 32.2628C24.1153 32.1325 24.1153 32.0673 24.1153 31.937C24.1153 31.8066 24.1153 31.7414 24.0501 31.6111H22.4858V29.6558H22.16L20.6609 30.5031C20.6609 30.5031 20.5957 30.5031 20.5957 30.5682V36.1735C20.5957 37.0208 20.7912 37.6073 21.2475 37.9984C21.8341 38.1939 22.4207 38.3895 23.2028 38.3895Z" fill="black"/>
<path d="M30.7627 38.0638V34.088C30.7627 33.1104 30.502 32.3934 29.9805 32.0024C29.4591 31.5461 28.7422 31.3506 27.8297 31.3506C27.5038 31.3506 27.1128 31.3506 26.7217 31.4158C26.3306 31.4809 25.9396 31.5461 25.5485 31.6765C25.5485 31.9372 25.5485 32.1979 25.6137 32.3934C25.6789 32.5889 25.744 32.7845 25.8744 33.0452C26.3958 32.8497 26.9172 32.7845 27.3735 32.7845C27.569 32.7845 27.7645 32.7845 27.9601 32.8497C28.1556 32.8497 28.2859 32.9148 28.4163 32.98C28.5466 33.0452 28.6118 33.1755 28.677 33.3059C28.7422 33.4362 28.8074 33.6318 28.8074 33.8273V33.9577C28.4815 33.9577 28.2208 33.8925 27.9601 33.8925C27.6342 33.8925 27.2431 33.9577 26.9172 34.0228C26.5913 34.088 26.2655 34.2184 25.9396 34.4139C25.6789 34.6094 25.4182 34.805 25.2226 35.1308C25.0271 35.3916 24.9619 35.7826 24.9619 36.1737C24.9619 36.5647 25.0271 36.9558 25.1574 37.2165C25.2878 37.4772 25.4833 37.7379 25.744 37.9335C26.0047 38.129 26.3306 38.2593 26.7217 38.3245C27.1128 38.3897 27.5038 38.4549 27.9601 38.4549C28.5466 38.4549 29.0029 38.3897 29.4591 38.3245C30.0457 38.2593 30.4368 38.129 30.7627 38.0638ZM28.9377 36.8906C28.8725 36.8906 28.7422 36.9558 28.6118 36.9558C28.4815 36.9558 28.3511 37.021 28.2208 37.021C28.0904 37.021 27.9601 37.021 27.8297 37.021C27.6993 37.021 27.5038 36.9558 27.3735 36.8906C27.2431 36.8254 27.1128 36.7603 27.0476 36.6299C26.9172 36.4996 26.9172 36.304 26.9172 36.1085C26.9172 35.7826 27.0476 35.5219 27.3083 35.3916C27.569 35.2612 27.8949 35.1308 28.3511 35.1308C28.4815 35.1308 28.5466 35.1308 28.677 35.1308C28.8074 35.1308 28.9377 35.1308 29.0029 35.196V36.8906H28.9377Z" fill="black"/>
<path d="M33.1091 38.3892C33.435 38.3892 33.6957 38.3892 34.0216 38.324V31.4805H31.2842C31.2842 31.7412 31.2842 31.9367 31.2842 32.1974C31.2842 32.3278 31.2842 32.4581 31.2842 32.5885C31.2842 32.7188 31.2842 32.8492 31.3494 32.9795H32.2618V38.3892C32.5225 38.324 32.8484 38.3892 33.1091 38.3892Z" fill="black"/>
<path d="M32.4579 30.3728C32.6535 30.3728 32.7838 30.3728 32.9142 30.3728C33.0445 30.3728 33.2401 30.3728 33.3704 30.3728C33.5659 30.3728 33.6963 30.3728 33.8267 30.3076C33.8267 30.1773 33.8918 29.9817 33.8918 29.8514C33.8918 29.721 33.8918 29.5255 33.8918 29.3951C33.8918 29.2648 33.8918 29.0693 33.8918 28.9389C33.8918 28.8085 33.8918 28.6782 33.8267 28.4827C33.6963 28.4827 33.5008 28.4175 33.3704 28.4175C33.1749 28.4175 33.0445 28.4175 32.9142 28.4175C32.7838 28.4175 32.5883 28.4175 32.4579 28.4175C32.2624 28.4175 32.1321 28.4827 32.0017 28.4827C31.9365 28.8085 31.9365 29.0692 31.9365 29.3951C31.9365 29.6558 31.9365 29.9817 32.0017 30.2424C32.1321 30.3728 32.2624 30.3728 32.4579 30.3728Z" fill="black"/>
<path d="M37.5419 38.3898C37.7375 38.3898 37.8678 38.3898 38.0634 38.3898C38.2589 38.3898 38.4544 38.3246 38.5848 38.3246C38.5848 38.2595 38.5848 38.1943 38.5848 38.1291V37.9336C38.5848 37.6077 38.5196 37.2166 38.4544 36.8907C38.3892 36.8907 38.3241 36.8908 38.1937 36.9559C38.1285 36.9559 38.0634 36.9559 37.933 36.9559C37.8027 36.9559 37.6723 36.9559 37.5419 36.8907C37.4116 36.8256 37.3464 36.7604 37.2812 36.6952C37.2161 36.63 37.1509 36.4997 37.1509 36.3042C37.1509 36.1086 37.0857 35.9131 37.0857 35.6524V28.6785C36.7598 28.6133 36.4339 28.6133 36.1732 28.6133C35.8473 28.6133 35.5215 28.6133 35.2607 28.6785V35.9783C35.2607 36.8256 35.4563 37.4122 35.8473 37.8032C36.3688 38.1943 36.8902 38.3898 37.5419 38.3898Z" fill="black"/>
<path d="M15.7069 45.7544C15.2506 45.7544 14.9247 45.8196 14.7292 45.9499C14.4685 46.0803 14.273 46.2106 14.1426 46.4713C13.8819 46.2758 13.6212 46.0803 13.2301 45.9499C12.8391 45.8196 12.448 45.7544 11.9918 45.7544C11.5355 45.7544 11.1445 45.8196 10.7534 45.9499C10.3623 46.0803 10.1016 46.2106 9.84093 46.4713C9.58023 46.6669 9.3847 46.9276 9.25434 47.2535C9.12399 47.5793 9.05881 47.8401 9.05881 48.2311C9.05881 48.6222 9.12399 48.9481 9.31952 49.2739C9.51505 49.5998 9.71058 49.8605 10.0365 50.0561C9.77576 50.2516 9.58023 50.4471 9.44987 50.6427C9.31952 50.8382 9.25434 51.0989 9.25434 51.49C9.25434 51.7507 9.31952 52.0114 9.44987 52.2069C9.58023 52.4024 9.71058 52.5328 9.90611 52.6631C9.58023 52.8587 9.31952 53.0542 9.12399 53.3149C8.92846 53.5756 8.86328 53.9015 8.86328 54.2926C8.86328 54.5533 8.92846 54.814 8.99363 55.0095C9.12399 55.205 9.25434 55.4006 9.51505 55.5309C9.77576 55.6613 10.0365 55.7916 10.4275 55.8568C10.8186 55.922 11.2748 55.9872 11.7962 55.9872C12.3177 55.9872 12.8391 55.922 13.2953 55.7916C13.7515 55.6613 14.1426 55.5309 14.4685 55.3354C14.7944 55.1399 15.0551 54.8792 15.2506 54.5533C15.4461 54.2274 15.5113 53.9015 15.5113 53.5756C15.5113 52.9239 15.3158 52.4676 14.9247 52.1417C14.5337 51.8158 13.9471 51.6203 13.165 51.6203H11.34C11.0793 51.6203 10.8838 51.5551 10.7534 51.49C10.6882 51.4248 10.6231 51.2944 10.6231 51.1641C10.6231 51.0989 10.6231 50.9685 10.6882 50.8382C10.7534 50.7078 10.8186 50.6427 10.9489 50.5123C11.2748 50.5775 11.6007 50.6427 11.9918 50.6427C12.448 50.6427 12.8391 50.5775 13.165 50.4471C13.4908 50.3168 13.8167 50.1864 14.0774 49.9257C14.3381 49.7302 14.5337 49.4695 14.664 49.1436C14.7944 48.8177 14.8596 48.557 14.8596 48.1659C14.8596 47.9704 14.8596 47.7749 14.7944 47.7097C14.7292 47.5793 14.7292 47.449 14.664 47.3838H15.7069C15.7069 47.2535 15.772 47.0579 15.772 46.9276C15.772 46.7972 15.772 46.6669 15.772 46.5365C15.772 46.4062 15.772 46.2758 15.772 46.2106C15.772 45.9499 15.7069 45.8196 15.7069 45.7544ZM10.6231 53.1194C10.6882 53.0542 10.8186 52.989 10.9489 52.9239C11.0793 52.8587 11.2096 52.8587 11.4052 52.8587H12.7739C12.9694 52.8587 13.0998 52.8587 13.2301 52.9239C13.3605 52.989 13.4257 53.0542 13.4908 53.1194C13.556 53.1846 13.6212 53.2497 13.6212 53.3149C13.6212 53.3801 13.6864 53.4453 13.6864 53.5756C13.6864 53.9015 13.4908 54.097 13.165 54.2926C12.8391 54.4881 12.3828 54.5533 11.8614 54.5533C11.4704 54.5533 11.0793 54.4881 10.8838 54.3577C10.6231 54.2274 10.4927 54.0319 10.4927 53.706C10.4927 53.6408 10.4927 53.5104 10.5579 53.3801C10.4927 53.3149 10.5579 53.1846 10.6231 53.1194ZM12.7739 48.9481C12.6435 49.1436 12.3177 49.2739 11.9918 49.2739C11.6007 49.2739 11.34 49.1436 11.1445 48.9481C10.9489 48.7525 10.8838 48.4267 10.8838 48.1008C10.8838 47.7097 10.9489 47.449 11.1445 47.2535C11.34 47.0579 11.6007 46.9276 11.9918 46.9276C12.3828 46.9276 12.6435 47.0579 12.7739 47.2535C12.9042 47.449 13.0346 47.7749 13.0346 48.1008C13.0346 48.4267 12.9042 48.7525 12.7739 48.9481Z" fill="black"/>
<path d="M20.6606 45.7541C20.5954 45.7541 20.5302 45.7541 20.3999 45.689C20.2695 45.689 20.2043 45.689 20.074 45.689C19.6829 45.689 19.2919 45.8193 19.0312 46.0148C18.7704 46.2104 18.5097 46.4711 18.3142 46.7318C18.3142 46.6666 18.3142 46.6014 18.249 46.4711C18.249 46.4059 18.249 46.2756 18.1839 46.2104C18.1839 46.1452 18.1187 46.0149 18.1187 45.9497C18.1187 45.8845 18.0535 45.8193 18.0535 45.7541C17.9232 45.7541 17.7928 45.689 17.6624 45.689C17.5321 45.689 17.4017 45.689 17.2714 45.689C17.141 45.689 17.0107 45.689 16.8803 45.689C16.75 45.689 16.6196 45.7541 16.4893 45.7541V52.5977C16.6848 52.5977 16.8151 52.6629 16.9455 52.6629C17.0759 52.6629 17.2714 52.6629 17.4017 52.6629C17.5321 52.6629 17.7276 52.6629 17.858 52.6629C17.9883 52.6629 18.1839 52.6629 18.3142 52.5977V49.3389C18.3142 48.8826 18.3794 48.4916 18.5097 48.2309C18.6401 47.9702 18.7704 47.7746 18.9008 47.6443C19.0963 47.5139 19.2267 47.4487 19.4222 47.3836C19.6177 47.3836 19.7481 47.3184 19.9436 47.3184H20.1392C20.2695 47.3184 20.3347 47.3184 20.465 47.3184C20.465 47.188 20.5302 46.9925 20.5302 46.797C20.5302 46.6014 20.5302 46.4711 20.5302 46.3407C20.5302 46.2104 20.5302 46.08 20.5302 46.0148C20.6606 45.9497 20.6606 45.8845 20.6606 45.7541Z" fill="black"/>
<path d="M26.7219 46.6673C26.4612 46.3415 26.1353 46.0808 25.6791 45.8852C25.288 45.7549 24.7666 45.6245 24.2452 45.6245C23.7238 45.6245 23.2023 45.6897 22.8113 45.8852C22.4202 46.0808 22.0943 46.3415 21.7685 46.6673C21.5077 46.9932 21.3122 47.3843 21.1819 47.7753C21.0515 48.2316 20.9863 48.6878 20.9863 49.2092C20.9863 49.7307 21.0515 50.1869 21.1819 50.578C21.3122 51.0342 21.5077 51.3601 21.7685 51.686C22.0292 52.0118 22.355 52.2726 22.8113 52.4029C23.2023 52.5984 23.7238 52.6636 24.2452 52.6636C24.8318 52.6636 25.288 52.5984 25.6791 52.4029C26.0701 52.2074 26.4612 51.9467 26.7219 51.686C26.9826 51.3601 27.1781 50.969 27.3085 50.578C27.4388 50.1217 27.504 49.6655 27.504 49.2092C27.504 48.6878 27.4388 48.2316 27.3085 47.7753C27.1781 47.3843 26.9826 46.9932 26.7219 46.6673ZM25.288 50.7735C25.0925 51.1645 24.7014 51.2949 24.2452 51.2949C23.7889 51.2949 23.3979 51.0994 23.2023 50.7735C23.0068 50.3824 22.8765 49.861 22.8765 49.2092C22.8765 48.4923 23.0068 47.9709 23.2023 47.645C23.3979 47.2539 23.7889 47.1236 24.2452 47.1236C24.7666 47.1236 25.0925 47.3191 25.288 47.645C25.4835 48.0361 25.6139 48.5575 25.6139 49.2092C25.6139 49.9262 25.4835 50.4476 25.288 50.7735Z" fill="black"/>
<path d="M32.458 45.8197V51.1642C32.2624 51.2293 31.9365 51.2293 31.6107 51.2293C31.35 51.2293 31.1544 51.2293 31.0241 51.1642C30.8285 51.099 30.6982 51.0338 30.5678 50.9035C30.4375 50.7731 30.3723 50.5776 30.3071 50.382C30.2419 50.1213 30.2419 49.8606 30.2419 49.4696V45.8848C29.9161 45.8197 29.5902 45.8197 29.3295 45.8197C29.0036 45.8197 28.7429 45.8197 28.417 45.8848V49.5347C28.417 50.2517 28.4822 50.8383 28.6777 51.2945C28.8732 51.7508 29.1339 52.0766 29.3946 52.2722C29.7205 52.5329 30.0464 52.6632 30.5027 52.7284C30.8937 52.7936 31.35 52.8588 31.8062 52.8588C32.3276 52.8588 32.7838 52.7936 33.2401 52.7284C33.6963 52.6632 34.0874 52.5329 34.3481 52.4677V45.95C34.0222 45.8848 33.6963 45.8848 33.4356 45.8848C33.0445 45.7545 32.7838 45.7545 32.458 45.8197Z" fill="black"/>
<path d="M41.0608 46.4718C40.8001 46.2111 40.5394 45.9504 40.2135 45.82C39.8876 45.6897 39.4966 45.6245 39.1707 45.6245C38.91 45.6245 38.7144 45.6245 38.5189 45.7549C38.3234 45.82 38.1278 45.8852 37.9975 46.0156C37.8671 46.1459 37.6716 46.2111 37.6064 46.4066C37.4761 46.537 37.4109 46.6673 37.3457 46.7977C37.3457 46.7325 37.3457 46.6673 37.3457 46.537C37.3457 46.4718 37.3457 46.3415 37.2805 46.2763C37.2805 46.2111 37.2154 46.0807 37.2154 46.0156C37.2154 45.9504 37.1502 45.8852 37.1502 45.82C36.8895 45.7549 36.6288 45.7549 36.3681 45.7549C36.2377 45.7549 36.1074 45.7549 35.977 45.7549C35.8466 45.7549 35.7163 45.7549 35.5859 45.82V55.7269C35.7815 55.7269 35.9118 55.7921 36.0422 55.7921C36.1725 55.7921 36.3681 55.7921 36.4984 55.7921C36.6288 55.7921 36.8243 55.7921 36.9547 55.7921C37.085 55.7921 37.2805 55.7921 37.4109 55.7269V52.7288C37.4761 52.7288 37.6064 52.794 37.802 52.794C37.9323 52.794 38.0627 52.794 38.2582 52.794C38.8448 52.794 39.3662 52.7288 39.8224 52.5333C40.2787 52.3377 40.6697 52.1422 40.9956 51.8163C41.3215 51.4904 41.5822 51.0994 41.7126 50.6431C41.9081 50.1869 41.9733 49.6655 41.9733 49.0789C41.9733 48.4923 41.9081 47.9709 41.7777 47.5798C41.517 47.1236 41.3215 46.7977 41.0608 46.4718ZM39.4314 50.7083C39.1707 51.0342 38.7144 51.2297 38.193 51.2297C37.8671 51.2297 37.6064 51.1645 37.3457 51.0994V48.8182C37.3457 48.6226 37.3457 48.3619 37.4109 48.1664C37.4761 47.9709 37.5412 47.7753 37.6064 47.645C37.6716 47.5146 37.802 47.3843 37.9975 47.3191C38.1278 47.2539 38.3234 47.1888 38.5841 47.1888C38.8448 47.1888 39.0403 47.2539 39.1707 47.3191C39.3662 47.3843 39.4314 47.5146 39.5617 47.7102C39.6921 47.9057 39.7573 48.1012 39.7573 48.2968C39.8224 48.5575 39.8224 48.753 39.8224 49.0789C39.8876 49.861 39.6921 50.3824 39.4314 50.7083Z" fill="black"/>
</svg>
