<svg width="33" height="33" viewBox="0 0 33 33" fill="none" xmlns="http://www.w3.org/2000/svg">
<path d="M0 0V32.3879H32.3879V0H0ZM30.9999 14.6517C30.6914 16.194 30.2287 17.582 29.6118 18.8159C28.5322 21.1293 26.99 22.8258 24.0596 22.8258C22.6716 22.98 21.4377 22.3631 20.5124 21.4377C19.4328 22.3631 18.0447 22.8258 16.6567 22.8258C15.5771 22.8258 14.6517 22.5173 13.8805 21.9004C12.9552 22.5173 11.8756 22.8258 10.6418 22.8258C9.71638 22.8258 8.79101 22.5173 7.86564 22.0546C6.94027 22.6716 5.86068 22.8258 4.78108 22.8258C3.08457 23.1342 1.38805 21.592 1.38805 19.8955V19.7412C1.38805 17.2736 3.39302 12.6467 4.47262 10.9502C5.08953 9.71638 6.32336 9.09947 7.71142 9.09947C9.2537 9.09947 9.71638 9.56215 10.0248 10.0248C11.1044 9.2537 12.4925 8.94524 13.8805 8.94524C14.8059 8.94524 15.7313 9.2537 16.5024 9.71638C17.4278 9.09947 18.5074 8.94524 19.7412 8.94524C20.975 8.79101 22.3631 9.2537 23.2885 10.1791C24.2138 9.40793 25.4477 8.94524 26.8357 8.94524C28.2238 8.79101 29.6118 9.40793 30.383 10.4875C31.1541 11.7214 31.3083 13.2636 30.9999 14.6517Z" fill="#00BAC6"/>
<path d="M26.6811 8.94531C25.4473 8.94531 24.2135 9.25377 23.1339 10.1791C22.2085 9.25377 20.8205 8.94531 19.5866 8.94531C18.507 8.94531 17.4274 9.25377 16.3478 9.71645C15.7309 9.25377 14.8056 8.94531 13.8802 8.94531C12.4921 8.94531 11.1041 9.25377 10.0245 10.0249C9.71602 9.408 9.25334 9.09954 7.71106 9.09954C6.323 9.09954 5.08917 9.87068 4.47226 10.9503C3.39266 12.4926 1.3877 17.1194 1.3877 19.7413V19.8955C1.3877 21.592 3.08421 23.1343 4.93495 22.9801C6.01454 22.9801 7.09414 22.8259 8.01951 22.2089C8.79065 22.8259 9.71602 22.9801 10.7956 22.9801C11.8752 22.9801 13.109 22.6716 14.0344 22.0547C14.8056 22.6716 15.8852 22.9801 16.8105 22.9801C18.1986 22.9801 19.5866 22.5174 20.6662 21.592C21.5916 22.6716 22.8254 23.1343 24.2135 22.9801C27.1438 22.9801 28.6861 21.2836 29.7657 18.9702C30.3826 17.5821 30.8453 16.194 31.1538 14.806C31.4622 13.4179 31.308 11.8756 30.5368 10.6418C29.4572 9.408 28.0692 8.94531 26.6811 8.94531ZM30.2284 13.5722C30.0742 14.6518 29.9199 15.7314 29.6115 16.6567C28.5319 20.0497 26.9896 22.2089 23.905 22.2089C22.517 22.3632 21.2831 21.592 20.6662 20.3582C19.7409 21.592 18.1986 22.3632 16.6563 22.3632C15.5767 22.3632 14.4971 22.0547 13.8802 21.1293C12.9548 21.9005 11.8752 22.3632 10.6414 22.3632C9.71602 22.3632 8.63643 22.0547 8.01951 21.2836C7.24837 22.0547 6.01454 22.3632 4.93495 22.3632H4.78072C3.39266 22.3632 2.31307 21.2836 2.31307 19.8955C2.15884 17.5821 4.47226 12.9552 5.2434 11.5672C5.70609 10.6418 6.78569 10.0249 7.86528 10.0249C8.4822 10.0249 9.09911 10.1791 9.5618 10.4876C9.87025 10.7961 10.0245 11.2587 10.0245 11.7214C10.6414 10.1791 12.1837 9.56223 13.8802 9.71645C14.8056 9.56223 15.8852 10.0249 16.3478 10.7961C17.2732 10.0249 18.3528 9.71645 19.5866 9.71645C20.6662 9.56223 21.9001 10.0249 22.6712 10.7961C22.8254 10.9503 22.9797 11.1045 22.9797 11.413C23.905 10.3334 25.1389 9.87068 26.5269 9.87068C26.8354 9.87068 27.1438 9.87068 27.4523 9.87068C29.303 10.1791 30.5368 11.8756 30.2284 13.5722Z" fill="white"/>
<path d="M27.6069 9.8703C27.2984 9.8703 26.99 9.8703 26.6815 9.8703C25.2935 9.8703 23.9054 10.333 23.1343 11.4126C22.98 11.2584 22.98 10.9499 22.8258 10.7957C22.0547 10.0245 20.8208 9.56185 19.7412 9.71607C18.5074 9.71607 17.4278 10.0245 16.5024 10.7957C15.8855 10.0245 14.9602 9.56185 14.0348 9.71607C12.4925 9.56185 10.796 10.1788 9.87063 11.5668C9.87063 11.1041 9.7164 10.6414 9.40795 10.333C8.79103 10.0245 8.32835 9.71607 7.71143 9.8703C6.63184 9.8703 5.70647 10.4872 5.08955 11.4126C4.16418 12.8006 2.00499 17.4275 2.15922 19.7409C2.15922 21.129 3.23881 22.2086 4.62687 22.2086H4.7811C5.86069 22.3628 7.09452 21.9001 7.86566 21.129C8.6368 21.9001 9.56217 22.2086 10.4875 22.2086C11.7214 22.2086 12.801 21.9001 13.7263 20.9747C14.4975 21.7459 15.4228 22.2086 16.5024 22.2086C18.0447 22.2086 19.587 21.4374 20.5124 20.2036C21.1293 21.4374 22.3631 22.2086 23.7512 22.0543C26.8357 22.0543 28.2238 19.8951 29.4576 16.5021C29.7661 15.5767 30.0745 14.4971 30.0745 13.4176C30.5372 11.8753 29.3034 10.1788 27.6069 9.8703ZM7.86566 19.124C7.71143 20.8205 6.16915 21.129 4.93532 21.129C4.00995 21.129 3.08459 20.6663 3.08459 19.5867C3.08459 17.7359 4.93532 13.4176 5.86069 11.8753C6.32338 11.2584 6.94029 10.7957 7.71143 10.7957C8.48258 10.7957 8.6368 11.2584 8.6368 11.721C8.6368 12.9549 6.47761 16.8106 5.86069 18.3529C7.40298 18.0444 7.86566 18.6613 7.86566 19.124ZM11.1045 16.9648C10.9502 17.4275 10.796 18.0444 10.6418 18.5071C11.1045 18.3529 11.7214 18.3529 12.3383 18.3529C13.1094 18.3529 13.5721 18.6613 13.5721 19.2782C13.5721 20.8205 11.8756 21.2832 10.6418 21.2832H10.4875C9.25372 21.2832 8.17412 20.3578 8.17412 19.124C8.32835 16.9648 8.94526 14.9598 10.0249 13.1091C10.6418 11.5668 12.1841 10.4872 13.8806 10.7957C14.6517 10.7957 15.5771 11.1041 15.5771 11.8753C15.5771 12.9549 14.6517 13.4176 13.7263 13.4176C13.2637 13.4176 12.801 13.4176 12.3383 13.4176C12.3383 13.726 12.1841 14.1887 11.8756 14.6514C13.5721 14.3429 14.189 14.8056 14.0348 15.731C13.5721 17.119 12.4925 17.119 11.1045 16.9648ZM19.2786 12.8006C18.8159 12.8006 18.5074 13.1091 18.3532 13.4176C17.582 14.8056 16.9651 16.3479 16.6567 17.8902C16.5024 18.6613 16.6567 18.8155 17.2736 18.8155C17.8905 18.8155 18.5074 18.1986 18.6616 17.2733C18.6616 17.2733 17.582 17.2733 17.8905 16.1937C18.0447 15.2683 18.6616 14.9598 19.587 14.9598C21.4378 14.9598 21.2835 16.1937 21.1293 16.9648C20.8208 19.2782 18.9701 20.9747 16.6567 21.129C16.5024 21.129 16.3482 21.129 16.194 21.129C14.9602 21.129 13.8806 20.0494 14.0348 18.6613C14.189 17.2733 14.4975 15.8852 15.1144 14.6514C16.0398 12.338 17.1194 10.7957 19.7412 10.7957C21.2835 10.7957 22.5173 11.2584 22.3631 12.8006C22.2089 13.8802 21.592 14.4971 20.6666 14.6514C20.3582 14.6514 19.2786 14.6514 19.587 13.5718C19.7412 13.1091 19.8955 12.8006 19.2786 12.8006ZM29.1492 14.8056C28.8407 16.3479 28.378 17.7359 27.6069 18.9698C26.99 20.3578 25.6019 21.2832 24.0596 21.2832C22.8258 21.2832 21.592 20.8205 21.592 18.9698C21.7462 17.4275 22.0547 16.0394 22.6716 14.6514C23.2885 12.4922 24.2139 10.7957 26.8357 10.7957C29.9203 10.7957 29.3034 13.5718 29.1492 14.8056Z" fill="#00BAC6"/>
<path d="M26.5272 12.9551C26.2187 12.9551 25.9102 13.1093 25.756 13.2635C24.9849 14.8058 24.368 16.6566 23.9053 18.3531C23.9053 18.6615 24.2137 18.8158 24.368 18.8158C24.6764 18.8158 24.9849 18.5073 25.1391 18.1988C25.9102 16.6566 26.5272 14.96 26.8356 13.2635C26.9898 13.1093 26.9898 12.9551 26.5272 12.9551Z" fill="#00BAC6"/>
</svg>
