<svg width="16" height="14" viewBox="0 0 16 14" fill="none" xmlns="http://www.w3.org/2000/svg">
<path d="M14.0382 1.3708C13.249 0.48562 12.165 0 10.9887 0C10.1072 0 9.30319 0.28584 8.59444 0.854446C8.23708 1.14029 7.91248 1.49067 7.6266 1.89945C7.34071 1.49067 7.01611 1.14029 6.65875 0.854446C5.94404 0.28584 5.13999 0 4.2585 0C3.0822 0 1.99822 0.48562 1.20906 1.3708C0.428828 2.24369 0 3.43622 0 4.73019C0 6.06103 0.479454 7.27816 1.51281 8.5629C2.43598 9.7124 3.76118 10.8804 5.29782 12.2296C5.82194 12.6907 6.41754 13.2132 7.03398 13.7726C7.19777 13.9201 7.40622 14 7.62362 14C7.84101 14 8.04947 13.9201 8.21326 13.7726C8.8297 13.2162 9.42529 12.6907 9.94942 12.2296C11.4861 10.8804 12.8112 9.7124 13.7344 8.5629C14.7648 7.27816 15.2472 6.06103 15.2472 4.73019C15.2472 3.43622 14.8184 2.24369 14.0382 1.3708Z" fill="#C4C4C4"/>
</svg>
