<svg width="67" height="67" viewBox="0 0 67 67" fill="none" xmlns="http://www.w3.org/2000/svg">
<path d="M20.292 53.8086L20.5143 53.1419C20.9588 53.4086 21.4033 53.5419 21.9367 53.5419C22.3368 53.5419 22.648 53.453 22.8702 53.2752C23.0925 53.0974 23.2258 52.8307 23.2258 52.5195C23.2258 52.2528 23.1369 51.9861 22.9591 51.8083C22.7813 51.6305 22.4702 51.4527 22.0701 51.2749C20.9588 50.9193 20.4253 50.2969 20.4253 49.5412C20.4253 49.0523 20.6032 48.6522 21.0032 48.341C21.3588 48.0299 21.8478 47.8521 22.4701 47.8521C23.0036 47.8521 23.4926 47.941 23.8482 48.1632L23.6259 48.83C23.3147 48.6522 22.9147 48.5188 22.4701 48.5188C22.0701 48.5188 21.8034 48.6077 21.5811 48.7855C21.4033 48.9634 21.2699 49.1856 21.2699 49.4523C21.2699 49.719 21.3588 49.9413 21.5367 50.1191C21.7145 50.2969 22.0256 50.4747 22.4701 50.6525C23.0036 50.8748 23.4036 51.0971 23.6704 51.4082C23.9371 51.6749 24.026 52.0306 24.026 52.4751C24.026 52.9641 23.8482 53.4086 23.4481 53.7642C23.0925 54.1198 22.5591 54.2532 21.8478 54.2532C21.5367 54.2532 21.2699 54.2087 20.9588 54.1198C20.6921 54.0309 20.4698 53.942 20.292 53.8086Z" fill="black"/>
<path d="M26.1152 54.1205V48.0306C26.5598 47.9417 27.0932 47.8972 27.6711 47.8972C28.4712 47.8972 29.0491 48.075 29.4047 48.4306C29.7603 48.7418 29.9381 49.1863 29.9381 49.7198C29.9381 50.2976 29.7603 50.6977 29.4492 51.0533C29.0046 51.4978 28.3823 51.7201 27.5377 51.7201C27.271 51.7201 27.0487 51.7201 26.9154 51.6757V54.165H26.1152V54.1205ZM26.9154 48.6085V51.0089C27.0932 51.0533 27.3154 51.0533 27.5822 51.0533C28.0711 51.0533 28.4268 50.92 28.7379 50.6977C29.0046 50.4754 29.138 50.1643 29.138 49.7198C29.138 49.3197 29.0046 49.0085 28.7379 48.8307C28.4712 48.6529 28.1156 48.5195 27.6711 48.5195C27.3154 48.5195 27.0932 48.564 26.9154 48.6085Z" fill="black"/>
<path d="M34.4283 52.1646H32.2501L31.6278 54.1205H30.7832L32.8725 47.9417H33.8504L35.9841 54.1205H35.1395L34.4283 52.1646ZM32.3835 51.5423H34.2505L33.6281 49.7642C33.5392 49.4975 33.4503 49.1419 33.317 48.6529H33.2725C33.1836 49.053 33.0947 49.453 32.9614 49.7642L32.3835 51.5423Z" fill="black"/>
<path d="M41.8515 53.276L42.0293 53.8983C41.6293 54.0761 41.0958 54.2095 40.3846 54.2095C39.4955 54.2095 38.7399 53.9428 38.162 53.3649C37.5841 52.8315 37.3174 52.0313 37.3174 51.0534C37.3174 50.0754 37.6285 49.3197 38.2064 48.6974C38.7843 48.1195 39.5844 47.8083 40.5624 47.8083C41.1847 47.8083 41.6737 47.8973 42.0293 48.0751L41.8071 48.7418C41.4514 48.564 41.0514 48.4751 40.5624 48.4751C39.8067 48.4751 39.2288 48.6974 38.7843 49.1419C38.3398 49.5864 38.1175 50.2088 38.1175 51.0089C38.1175 51.7646 38.3398 52.3869 38.7399 52.8315C39.1399 53.276 39.7178 53.4982 40.4735 53.4982C41.0514 53.5427 41.4959 53.4538 41.8515 53.276Z" fill="black"/>
<path d="M47.1854 50.5643V51.2311H44.785V53.4537H47.4522V54.1205H43.9404V47.9417H47.2743V48.6084H44.7406V50.5643H47.1854Z" fill="black"/>
<path d="M22.6037 40.8293C23.4927 40.9626 24.3373 41.0515 25.1374 41.0515C25.982 41.0515 26.8266 40.9626 27.7157 40.8293V21.8037H20.1588C20.0254 22.426 19.9365 23.0928 19.9365 23.7596C19.9365 24.0708 19.9365 24.4264 19.981 24.782C20.0254 25.1376 20.0699 25.4932 20.1588 25.8044H22.6481V40.8293H22.6037Z" fill="black"/>
<path d="M23.2258 18.7366C23.7148 18.781 24.1593 18.781 24.5594 18.781C24.9594 18.781 25.4039 18.781 25.8929 18.7366C26.3819 18.6921 26.8264 18.6477 27.2265 18.6032C27.3154 18.2032 27.3598 17.7586 27.4043 17.3586C27.4043 16.9585 27.4487 16.514 27.4487 16.1584C27.4487 15.7583 27.4487 15.3138 27.4043 14.9137C27.3598 14.5136 27.3154 14.1136 27.2265 13.669C26.8264 13.5801 26.3374 13.5357 25.8485 13.4912C25.3595 13.4468 24.915 13.4468 24.4704 13.4468C24.0704 13.4468 23.6259 13.4468 23.1369 13.4912C22.6479 13.5357 22.2034 13.5801 21.8033 13.669C21.67 14.5136 21.5811 15.3582 21.5811 16.1584C21.5811 16.9585 21.67 17.8031 21.8033 18.6032C22.2478 18.6921 22.6924 18.7366 23.2258 18.7366Z" fill="black"/>
<path d="M35.8508 40.8292V30.8719C35.8508 29.8495 35.9397 29.0049 36.162 28.3826C36.3843 27.7603 36.6954 27.2268 37.0066 26.8712C37.3622 26.5156 37.7623 26.2933 38.2068 26.16C38.6513 26.0266 39.0958 25.9822 39.4959 25.9822C40.5183 25.9822 41.2296 26.3378 41.6296 27.049C42.0297 27.7603 42.252 28.7827 42.252 30.1162V40.8737C43.141 41.007 43.9856 41.0959 44.8746 41.0959C45.7192 41.0959 46.6083 41.007 47.4973 40.8737V28.6937C47.4973 26.16 46.9639 24.293 45.8526 23.1372C44.7857 21.937 43.141 21.3591 40.9628 21.3591C40.2961 21.3591 39.6737 21.448 39.0958 21.6258C38.518 21.8037 38.029 22.0704 37.5845 22.3371C37.1399 22.6038 36.7399 22.9594 36.3843 23.315C36.0286 23.6706 35.7619 24.0707 35.4952 24.4263C35.4952 24.2485 35.4508 24.0707 35.4063 23.804C35.3619 23.5817 35.3174 23.315 35.273 23.0483C35.2285 22.7816 35.184 22.5593 35.0951 22.2926C35.0062 22.0704 34.9618 21.8926 34.8729 21.7592C34.5173 21.6703 34.2061 21.6258 33.8949 21.5814C33.5838 21.5369 33.2282 21.5369 32.7836 21.5369C32.3391 21.5369 31.9835 21.5369 31.6279 21.5814C31.2723 21.6258 30.9611 21.6703 30.6055 21.7592V40.7848C31.4945 40.9181 32.3391 41.007 33.2282 41.007C34.0727 41.0515 34.9618 41.007 35.8508 40.8292Z" fill="black"/>
<path d="M66.3892 1H1V66.3892H66.3892V1Z" stroke="black" stroke-miterlimit="10"/>
</svg>
