<svg width="32" height="31" viewBox="0 0 32 31" fill="none" xmlns="http://www.w3.org/2000/svg">
<path d="M28.6625 3.23926C25.6438 0.326953 21.3063 0 16 0C10.6875 0 6.34375 0.326953 3.325 3.25137C0.30625 6.16973 0 10.3777 0 15.5121C0 20.6525 0.30625 24.8605 3.325 27.7789C6.34375 30.7033 10.6875 31 16 31C21.3125 31 25.6562 30.7033 28.675 27.785C31.6937 24.8605 32 20.6586 32 15.5182C32 10.3717 31.6875 6.15762 28.6625 3.23926ZM14.8125 21.2641C14.8125 21.367 14.725 21.4518 14.6125 21.4518H11.8875C11.775 21.4518 11.6875 21.367 11.6875 21.2641V14.3617C11.6875 14.2588 11.775 14.174 11.8875 14.174H14.6125C14.725 14.174 14.8125 14.2588 14.8125 14.3617V21.2641ZM20.1437 21.2641C20.1437 21.367 20.0563 21.4518 19.9438 21.4518H17.35C17.2375 21.4518 17.15 21.367 17.15 21.2641V15.3123C17.15 14.2709 17.0875 13.2053 16.5312 12.6664C16.0563 12.2062 15.1687 12.0973 14.2437 12.073H9.54375C9.43125 12.073 9.34375 12.1578 9.34375 12.2607V21.258C9.34375 21.3609 9.25 21.4457 9.14375 21.4457H6.55C6.4375 21.4457 6.35 21.3609 6.35 21.258V9.79648C6.35 9.69355 6.4375 9.60273 6.55 9.60273H14.0375C15.9938 9.60273 18.0375 9.6875 19.05 10.6684C20.0437 11.6311 20.15 13.5443 20.1562 15.4092V21.2641H20.1437ZM25.4875 21.2641C25.4875 21.367 25.3938 21.4518 25.2875 21.4518H22.6938C22.5813 21.4518 22.4937 21.367 22.4937 21.2641V9.79648C22.4937 9.69355 22.5813 9.60273 22.6938 9.60273H25.2875C25.4 9.60273 25.4875 9.6875 25.4875 9.79648V21.2641Z" fill="#00BAC6"/>
</svg>
