<svg width="30" height="30" viewBox="0 0 30 30" fill="none" xmlns="http://www.w3.org/2000/svg">
<path d="M28.0076 0H1.16214C0.464856 0 0 0.464856 0 1.16214V28.1238C0 28.7049 0.464856 29.2859 1.16214 29.2859H28.1238C28.7049 29.2859 29.2859 28.8211 29.2859 28.1238V1.16214C29.1697 0.464856 28.7049 0 28.0076 0ZM13.597 19.8726C13.597 19.9888 13.4808 19.9888 13.3646 19.9888H11.0403C10.9241 19.9888 10.8079 19.8726 10.8079 19.8726V13.597C10.8079 13.4808 10.9241 13.3646 11.0403 13.3646H13.4808C13.597 13.3646 13.7133 13.4808 13.7133 13.597V19.8726H13.597ZM18.3618 19.8726C18.3618 19.9888 18.2456 19.9888 18.1294 19.9888H15.8051C15.6889 19.9888 15.5727 19.8726 15.5727 19.8726V13.2484C15.5727 12.5511 15.224 11.5052 13.8295 11.5052H8.94848C8.83227 11.5052 8.71606 11.6214 8.71606 11.6214V19.8726C8.71606 19.9888 8.59984 19.9888 8.48363 19.9888H6.15935C6.04313 19.9888 5.92692 19.8726 5.92692 19.8726V9.29713C5.92692 9.18091 6.04313 9.18091 6.15935 9.18091H14.8754C15.6889 9.18091 16.5024 9.29713 17.3159 10.1106C18.1294 10.9241 18.1294 11.7376 18.1294 12.4349V19.8726H18.3618ZM23.0104 19.8726C23.0104 19.9888 22.8942 19.9888 22.778 19.9888H20.4537C20.3375 19.9888 20.2213 19.8726 20.2213 19.8726V9.29713C20.2213 9.18091 20.3375 9.18091 20.4537 9.18091H22.778C22.8942 9.18091 23.0104 9.29713 23.0104 9.29713V19.8726Z" fill="#00BAC6"/>
</svg>
