<svg width="95" height="24" viewBox="0 0 95 24" fill="none" xmlns="http://www.w3.org/2000/svg">
<path d="M8.96767 6.72186C8.96767 7.01818 8.90529 7.3145 8.79612 7.57963C8.68695 7.84476 8.51539 8.0943 8.31264 8.31264C8.1099 8.51539 7.86036 8.68695 7.57963 8.79612C7.3145 8.90529 7.01818 8.96767 6.72186 8.96767C6.42553 8.96767 6.12921 8.90529 5.86408 8.79612C5.59895 8.68695 5.34941 8.51539 5.13107 8.31264C4.92832 8.1099 4.75677 7.86036 4.64759 7.57963C4.53842 7.3145 4.47604 7.01818 4.47604 6.72186C4.47604 6.12921 4.70998 5.55216 5.13107 5.13107C5.55216 4.70998 6.12921 4.47604 6.72186 4.47604C7.01818 4.47604 7.3145 4.53842 7.57963 4.64759C7.84476 4.75677 8.0943 4.92832 8.31264 5.13107C8.51539 5.33382 8.68695 5.58335 8.79612 5.86408C8.90529 6.14481 8.96767 6.44113 8.96767 6.72186ZM13.4437 4.49163C12.8511 4.49163 12.274 4.72557 11.8529 5.14666C11.4318 5.56776 11.1979 6.14481 11.1979 6.73745C11.1979 7.03378 11.2603 7.3301 11.3695 7.59523C11.4786 7.86036 11.6502 8.1099 11.8529 8.32824C12.0557 8.53099 12.3052 8.70254 12.5859 8.81171C12.8511 8.92088 13.1474 8.98327 13.4437 8.98327C13.74 8.98327 14.0364 8.92088 14.3015 8.81171C14.5666 8.70254 14.8162 8.53099 15.0345 8.32824C15.2372 8.12549 15.4088 7.87596 15.518 7.59523C15.6271 7.3301 15.6895 7.03378 15.6895 6.73745C15.6895 6.14481 15.4556 5.56776 15.0345 5.14666C14.6134 4.72557 14.0364 4.49163 13.4437 4.49163ZM6.72186 11.2135C6.42553 11.2135 6.12921 11.2759 5.86408 11.385C5.59895 11.4942 5.34941 11.6658 5.13107 11.8685C4.92832 12.0713 4.75677 12.3208 4.64759 12.6015C4.53842 12.8667 4.47604 13.163 4.47604 13.4593C4.47604 14.052 4.70998 14.629 5.13107 15.0501C5.55216 15.4712 6.12921 15.7051 6.72186 15.7051C7.01818 15.7051 7.3145 15.6427 7.57963 15.5336C7.84476 15.4244 8.0943 15.2528 8.31264 15.0501C8.51539 14.8473 8.68695 14.5978 8.79612 14.3171C8.90529 14.052 8.96767 13.7556 8.96767 13.4593C8.96767 13.163 8.90529 12.8667 8.79612 12.6015C8.68695 12.3364 8.51539 12.0869 8.31264 11.8685C8.1099 11.6658 7.86036 11.4942 7.57963 11.385C7.3145 11.2759 7.01818 11.2135 6.72186 11.2135ZM13.4437 11.2135C13.1474 11.2135 12.8511 11.2759 12.5859 11.385C12.3208 11.4942 12.0713 11.6658 11.8529 11.8685C11.6502 12.0713 11.4786 12.3208 11.3695 12.6015C11.2603 12.8667 11.1979 13.163 11.1979 13.4593C11.1979 14.052 11.4318 14.629 11.8529 15.0501C12.274 15.4712 12.8355 15.7051 13.4437 15.7051C14.0364 15.7051 14.6134 15.4712 15.0345 15.0501C15.4556 14.629 15.6895 14.052 15.6895 13.4593C15.6895 13.163 15.6271 12.8667 15.518 12.6015C15.4088 12.3364 15.2372 12.0869 15.0345 11.8685C14.8318 11.6658 14.5822 11.4942 14.3015 11.385C14.0364 11.2759 13.74 11.2135 13.4437 11.2135ZM0 2.24582V17.9353C0 18.2317 0.0623838 18.528 0.171555 18.7931C0.280727 19.0583 0.452283 19.3078 0.65503 19.5261C0.857777 19.7289 1.10731 19.9004 1.38804 20.0096C1.65317 20.1188 1.94949 20.1812 2.24582 20.1812H17.9353L15.7051 17.9353H2.24582V2.24582H17.9353V20.1812C18.528 20.1812 19.105 19.9472 19.5261 19.5261C19.9472 19.105 20.1812 18.528 20.1812 17.9353V2.24582C20.1812 1.65317 19.9472 1.07612 19.5261 0.65503C19.0894 0.233939 18.528 0 17.9353 0H2.24582C1.94949 0 1.65317 0.0623838 1.38804 0.171555C1.10731 0.280727 0.857777 0.452283 0.65503 0.65503C0.452283 0.873373 0.280727 1.10731 0.171555 1.38804C0.0623838 1.65317 0 1.94949 0 2.24582Z" fill="#00BAC6"/>
<path d="M29.8353 2.88525L26.3418 0H24.6575V7.59523H26.451V2.26141L29.8665 5.06868L33.2664 2.23022V7.59523H35.06V0H33.3756L29.8353 2.88525Z" fill="#00BAC6"/>
<path d="M38.2254 5.24024V0H36.4319V7.59523H38.4126L43.606 2.37058V7.59523H45.3996V0H43.4189L38.2254 5.24024Z" fill="#00BAC6"/>
<path d="M51.9816 0H46.7726V9.35757C47.3652 9.2484 47.9735 9.21721 48.5661 9.2484V7.61083H51.9816C55.3192 7.61083 55.7558 7.18973 55.7558 3.80541C55.7558 0.436687 55.3348 0 51.9816 0ZM51.9816 5.7861H48.5661V1.80913H51.9816C52.6522 1.80913 53.666 1.80913 53.8531 1.9183C53.9467 2.10545 53.9467 3.13479 53.9467 3.80541C53.9467 4.49163 53.9467 5.50537 53.8531 5.69252C53.666 5.7861 52.6522 5.7861 51.9816 5.7861Z" fill="#00BAC6"/>
<path d="M34.0614 12.5859H31.7688L29.4918 15.4555H26.435V12.5859H24.6414V20.1811H26.435V17.2647H29.4918L31.8 20.1811H34.0926L31.067 16.3601L34.0614 12.5859Z" fill="#00BAC6"/>
<path d="M74.8607 12.5859H72.5681L70.2911 15.4555H67.2343V12.5859H65.4408V20.1811H67.2343V17.2647H70.2911L72.5993 20.1811H74.8919L71.8663 16.3601L74.8607 12.5859Z" fill="#00BAC6"/>
<path d="M56.8786 17.8105V12.5859H55.0851V20.1811H57.0658L62.2436 14.9565V20.1811H64.0372V12.5859H62.0565L56.8786 17.8105Z" fill="#00BAC6"/>
<path d="M80.9897 12.5859H78.4164C75.7807 12.5859 75.3752 12.9914 75.3752 15.6583V17.1087C75.3752 19.7756 75.7807 20.1811 78.4164 20.1811H80.9897C83.6254 20.1811 84.0309 19.7756 84.0309 17.1087V15.6583C84.0309 12.9914 83.641 12.5859 80.9897 12.5859ZM82.2374 15.6583V17.1087C82.253 17.5142 82.2374 17.9353 82.2062 18.3408C81.8007 18.372 81.3952 18.3876 80.9897 18.372H78.4164C78.0109 18.3876 77.6054 18.372 77.1999 18.3408C77.1687 17.9353 77.1531 17.5298 77.1687 17.1087V15.6583C77.1531 15.2528 77.1687 14.8317 77.1999 14.4262C77.6054 14.395 78.0109 14.3794 78.4164 14.395H80.9897C81.3952 14.3794 81.8007 14.395 82.2062 14.4262C82.2374 14.8317 82.253 15.2528 82.2374 15.6583Z" fill="#00BAC6"/>
<path d="M50.5002 12.5864H46.7571C46.7727 11.8689 46.8195 11.9157 46.8507 11.8689C47.0379 11.7598 48.0516 11.7598 48.7222 11.7598H52.8863L53.2294 9.91945H48.7222C47.1782 9.91945 46.2893 9.99742 45.7278 10.4341C45.1352 10.902 44.9948 11.4946 44.9636 12.7579V13.023C44.9636 13.179 44.9636 13.335 44.9636 13.4909V16.7505C44.9636 18.2633 44.9636 19.0275 45.5406 19.6045C46.1177 20.1816 46.8663 20.1816 48.3635 20.1816H50.5158C53.4946 20.1816 53.9157 19.7605 53.9157 16.7505V16.0175C53.9001 12.9918 53.4946 12.5864 50.5002 12.5864ZM52.1065 16.0175V16.7505C52.1065 17.2963 52.1065 18.1073 52.0442 18.3101C51.8258 18.3725 51.0304 18.3725 50.4846 18.3725H48.3479C47.8021 18.3725 47.0067 18.3725 46.8039 18.3101C46.7415 18.0917 46.7415 17.2651 46.7415 16.8129V14.3955H50.5002C51.046 14.3955 51.8414 14.3955 52.0442 14.4579C52.1065 14.6606 52.1065 15.4716 52.1065 16.0175Z" fill="#00BAC6"/>
<path d="M41.9375 12.5859V18.3564H38.1789C37.6331 18.3564 36.8377 18.3564 36.6349 18.294C36.5725 18.0756 36.5725 17.2647 36.5725 16.7188V12.5859H34.779V16.7344C34.779 19.76 35.1845 20.1655 38.1789 20.1655H41.9375C41.9219 20.8829 41.8752 21.0857 41.844 21.1481C41.6568 21.2572 40.6431 21.2572 39.9725 21.2572H35.668L36.0111 23.0975H39.9569C42.8733 23.0975 43.6063 22.8012 43.6999 20.1811L43.7155 20.2123V19.3857C43.7155 19.3545 43.7155 19.3233 43.7155 19.2765V12.5859H41.9375Z" fill="#00BAC6"/>
<path d="M93.247 15.4881C93.0598 15.3634 92.8571 15.2698 92.6387 15.2074C92.6699 14.9891 92.6855 14.7863 92.6855 14.568C92.6855 13.8038 92.514 13.2735 92.1864 12.946C91.7498 12.5249 91.1103 12.5561 90.658 12.5873C90.5489 12.5873 90.4553 12.6029 90.3773 12.6029H85.1995V20.1981H91.8121C92.3892 20.1981 93.0442 20.1513 93.5277 19.6678C93.9488 19.2468 94.1515 18.5761 94.1515 17.6248C94.1515 16.8762 94.0424 16.0496 93.247 15.4881ZM92.358 17.6092C92.358 18.0147 92.358 18.2954 92.28 18.3578C92.202 18.4358 91.9057 18.4358 91.4534 18.4358H86.993V16.845H91.4846C91.9213 16.845 92.202 16.845 92.28 16.923C92.3736 16.9853 92.358 17.2349 92.358 17.6092ZM90.8764 15.2074C90.8452 15.2386 90.5957 15.2386 90.3773 15.2386H86.993V14.3184H90.4397C90.6425 14.3184 90.8452 14.3184 90.8764 14.3496C90.9076 14.3808 90.9076 14.5836 90.9076 14.7707C90.9076 14.9579 90.9076 15.1762 90.8764 15.2074Z" fill="#00BAC6"/>
</svg>
