<svg width="123" height="123" viewBox="0 0 123 123" fill="none" xmlns="http://www.w3.org/2000/svg">
<path d="M8.48276 29.6897H12.7241H16.9655H21.2069H25.4483H29.6897V25.4483V21.2069V16.9655V12.7241V8.48276V4.24138V0H25.4483H21.2069H16.9655H12.7241H8.48276H4.24138H0V4.24138V8.48276V12.7241V16.9655V21.2069V25.4483V29.6897H4.24138H8.48276ZM4.24138 21.2069V16.9655V12.7241V8.48276V4.24138H8.48276H12.7241H16.9655H21.2069H25.4483V8.48276V12.7241V16.9655V21.2069V25.4483H21.2069H16.9655H12.7241H8.48276H4.24138V21.2069Z" fill="black"/>
<path d="M16.9652 21.207H21.2066V16.9657V12.7243V8.48291H16.9652H12.7238H8.48242V12.7243V16.9657V21.207H12.7238H16.9652Z" fill="black"/>
<path d="M12.7238 101.793H8.48242V106.035V110.276V114.517H12.7238H16.9652H21.2066V110.276V106.035V101.793H16.9652H12.7238Z" fill="black"/>
<path d="M21.2069 93.3103H16.9655H12.7241H8.48276H4.24138H0V97.5517V101.793V106.034V110.276V114.517V118.759V123H4.24138H8.48276H12.7241H16.9655H21.2069H25.4483H29.6897V118.759V114.517V110.276V106.034V101.793V97.5517V93.3103H25.4483H21.2069ZM25.4483 101.793V106.034V110.276V114.517V118.759H21.2069H16.9655H12.7241H8.48276H4.24138V114.517V110.276V106.034V101.793V97.5517H8.48276H12.7241H16.9655H21.2069H25.4483V101.793Z" fill="black"/>
<path d="M33.9308 42.4137V46.6551H38.1722V42.4137H42.4136H46.655V38.1724H42.4136H38.1722H33.9308H29.6895V42.4137H33.9308Z" fill="black"/>
<path d="M38.172 21.2068H33.9307V25.4482V29.6895H38.172V25.4482V21.2068Z" fill="black"/>
<path d="M42.4134 16.9655V12.7241H38.172V8.48276H42.4134V12.7241H46.6548V16.9655H50.8962V12.7241V8.48276H46.6548V4.24138V0H42.4134H38.172H33.9307V4.24138V8.48276V12.7241V16.9655H38.172H42.4134Z" fill="black"/>
<path d="M42.4142 29.6897H38.1729V33.9311H42.4142V29.6897Z" fill="black"/>
<path d="M38.172 72.1035H33.9307V76.3449H38.172H42.4134V72.1035H38.172Z" fill="black"/>
<path d="M42.4138 89.0691H46.6552V84.8277H50.8966V80.5863H55.1379H59.3793V76.3449V72.1036H55.1379H50.8966V76.3449H46.6552H42.4138V80.5863H38.1724H33.931V84.8277H29.6897H25.4483V80.5863H29.6897V76.3449H25.4483V72.1036H29.6897H33.931V67.8622H29.6897H25.4483V63.6208H29.6897H33.931H38.1724V59.3794V55.138H33.931V50.8967H29.6897H25.4483V46.6553H29.6897V42.4139H25.4483H21.2069V38.1725H25.4483H29.6897V33.9312H25.4483H21.2069H16.9655V38.1725V42.4139H12.7241V38.1725H8.48276V33.9312H4.24138H0V38.1725H4.24138V42.4139H0V46.6553V50.8967H4.24138V46.6553H8.48276V50.8967H12.7241V55.138H16.9655V50.8967H21.2069V55.138H16.9655V59.3794H21.2069V63.6208H16.9655V59.3794H12.7241V55.138H8.48276V59.3794V63.6208H12.7241V67.8622H8.48276V63.6208H4.24138V59.3794V55.138H0V59.3794V63.6208V67.8622V72.1036H4.24138H8.48276H12.7241V76.3449H8.48276H4.24138H0V80.5863V84.8277H4.24138H8.48276V80.5863H12.7241H16.9655V84.8277H12.7241V89.0691H16.9655H21.2069H25.4483H29.6897H33.931V93.3105H38.1724V89.0691H42.4138ZM25.4483 55.138H29.6897V59.3794H25.4483V55.138ZM16.9655 67.8622H21.2069V72.1036H16.9655V67.8622Z" fill="black"/>
<path d="M46.6554 25.4482H42.4141V29.6896H46.6554V25.4482Z" fill="black"/>
<path d="M42.4141 46.6551V50.8965V55.1379H46.6554V50.8965H50.8968V46.6551H55.1382H59.3796V42.4137V38.1724H55.1382H50.8968V42.4137H46.6554V46.6551H42.4141Z" fill="black"/>
<path d="M46.6554 123H50.8968V118.759H46.6554H42.4141V123H46.6554Z" fill="black"/>
<path d="M50.8967 33.9312H46.6553V38.1725H50.8967V33.9312Z" fill="black"/>
<path d="M46.6554 67.8621H42.4141V72.1034H46.6554H50.8968V67.8621H46.6554Z" fill="black"/>
<path d="M55.1379 0H50.8965V4.24138H55.1379V0Z" fill="black"/>
<path d="M55.138 29.6895V25.4481H59.3794V29.6895V33.9309V38.1722H63.6208V33.9309H67.8622V38.1722H63.6208V42.4136V46.655V50.8964H67.8622V46.655H72.1036V42.4136H76.3449V38.1722H80.5863H84.8277V33.9309V29.6895H80.5863V33.9309H76.3449V29.6895H72.1036V25.4481V21.2067V16.9653H67.8622H63.6208V21.2067H67.8622V25.4481V29.6895H63.6208V25.4481V21.2067H59.3794H55.138H50.8967H46.6553V25.4481H50.8967V29.6895V33.9309H55.138V29.6895Z" fill="black"/>
<path d="M55.1379 50.8965H50.8965V55.1379H55.1379V50.8965Z" fill="black"/>
<path d="M55.1379 63.6206H50.8965V67.862H55.1379V63.6206Z" fill="black"/>
<path d="M55.1379 84.8276H50.8965V89.069H55.1379V84.8276Z" fill="black"/>
<path d="M59.3791 12.7244H55.1377V16.9657H59.3791V12.7244Z" fill="black"/>
<path d="M59.3791 55.1379H55.1377V59.3793H59.3791V55.1379Z" fill="black"/>
<path d="M55.1376 110.276V106.034V101.793V97.5517H50.8962V101.793H46.6548V106.034H50.8962V110.276H46.6548V106.034H42.4134V101.793H46.6548V97.5517V93.3103H42.4134H38.172V97.5517H33.9307V101.793V106.034H38.172V110.276V114.517H33.9307V118.759V123H38.172V118.759H42.4134V114.517H46.6548H50.8962H55.1376H59.3789V110.276H55.1376Z" fill="black"/>
<path d="M63.6203 50.8965H59.3789V55.1379H63.6203V50.8965Z" fill="black"/>
<path d="M67.8625 110.276H63.6211V114.517H67.8625V110.276Z" fill="black"/>
<path d="M76.3449 46.655H72.1035V50.8964H76.3449V46.655Z" fill="black"/>
<path d="M76.3444 114.517H72.103H67.8617V118.758H63.6203V114.517H59.3789V118.758V123H63.6203H67.8617H72.103H76.3444H80.5858V118.758H76.3444V114.517Z" fill="black"/>
<path d="M80.586 16.9655V12.7241V8.48276H84.8273V12.7241V16.9655H89.0687V12.7241V8.48276V4.24138V0H84.8273V4.24138H80.586H76.3446V0H72.1032H67.8618H63.6205H59.3791V4.24138H55.1377V8.48276H59.3791V12.7241H63.6205H67.8618H72.1032V16.9655H76.3446H80.586ZM63.6205 8.48276V4.24138H67.8618V8.48276H63.6205Z" fill="black"/>
<path d="M80.5861 25.4482H76.3447V29.6896H80.5861V25.4482Z" fill="black"/>
<path d="M84.8273 21.2068H80.5859V25.4482H84.8273V21.2068Z" fill="black"/>
<path d="M84.8273 67.8621H80.5859V72.1034H84.8273V67.8621Z" fill="black"/>
<path d="M89.0685 25.4482H84.8271V29.6896H89.0685V25.4482Z" fill="black"/>
<path d="M89.0685 63.6208H93.3099V59.3794H89.0685H84.8271V63.6208V67.8621H89.0685V63.6208Z" fill="black"/>
<path d="M89.0687 76.3448H84.8274V80.5862H80.586V84.8276V89.069H76.3446V93.3104H80.586H84.8274V97.5517H80.586H76.3446V93.3104H72.1032H67.8618V89.069H72.1032V84.8276H76.3446V80.5862V76.3448H72.1032V72.1035V67.8621H76.3446H80.586V63.6207V59.3793H76.3446V63.6207H72.1032V59.3793V55.1379H67.8618H63.6205V59.3793H59.3791V63.6207H63.6205V67.8621H67.8618V72.1035H63.6205V76.3448V80.5862H67.8618V84.8276H63.6205V80.5862H59.3791V84.8276V89.069H63.6205V93.3104H59.3791V89.069H55.1377V93.3104V97.5517H59.3791V101.793V106.034H63.6205V101.793H67.8618V106.034V110.276H72.1032V106.034H76.3446H80.586H84.8274H89.0687V110.276H84.8274H80.586V114.517V118.759H84.8274V114.517H89.0687H93.3101V110.276V106.034H97.5515V110.276H101.793V106.034H106.034V110.276V114.517H101.793H97.5515H93.3101V118.759H97.5515V123H101.793V118.759H106.034V123H110.276V118.759V114.517V110.276V106.034H114.517H118.758V110.276H114.517V114.517V118.759V123H118.758V118.759H123V114.517V110.276V106.034V101.793V97.5517V93.3104H118.758V97.5517H114.517V101.793H110.276V97.5517H106.034V93.3104H110.276V89.069H106.034V84.8276H101.793H97.5515H93.3101V80.5862H89.0687V76.3448ZM97.5515 89.069H101.793V93.3104V97.5517V101.793H97.5515H93.3101H89.0687V97.5517V93.3104V89.069H93.3101H97.5515Z" fill="black"/>
<path d="M84.8271 118.759V123H89.0685H93.3099V118.759H89.0685H84.8271Z" fill="black"/>
<path d="M97.5519 59.3793H101.793H106.035H110.276V55.1379H106.035H101.793H97.5519H93.3105V59.3793H97.5519Z" fill="black"/>
<path d="M97.5519 63.6206H93.3105V67.862H97.5519V63.6206Z" fill="black"/>
<path d="M97.5519 93.3103H93.3105V97.5517H97.5519V93.3103Z" fill="black"/>
<path d="M106.034 8.48291H101.793V12.7243V16.9657V21.207H106.034H110.276H114.517V16.9657V12.7243V8.48291H110.276H106.034Z" fill="black"/>
<path d="M110.276 63.6206H106.034V67.862H110.276V63.6206Z" fill="black"/>
<path d="M106.035 72.1034H101.793H97.5521H93.3107V67.8621H89.0693V72.1034V76.3448H93.3107V80.5862H97.5521H101.793H106.035H110.276H114.518V76.3448V72.1034V67.8621H110.276V72.1034H106.035Z" fill="black"/>
<path d="M114.518 59.3794H110.276V63.6208H114.518V59.3794Z" fill="black"/>
<path d="M114.518 93.3103H110.276V97.5517H114.518V93.3103Z" fill="black"/>
<path d="M114.517 33.9312H110.276H106.034V38.1725H101.793V33.9312H97.5515V38.1725H93.3101H89.0687V42.4139H93.3101V46.6553H89.0687V42.4139H84.8273V46.6553V50.8967H80.5859V55.1381H84.8273H89.0687H93.3101V50.8967H97.5515V46.6553H101.793V50.8967H106.034V46.6553H110.276V42.4139V38.1725H114.517H118.758H123V33.9312H118.758H114.517Z" fill="black"/>
<path d="M114.518 50.8964V55.1378H118.759V50.8964V46.655H114.518V50.8964Z" fill="black"/>
<path d="M118.759 89.069V84.8276H114.518V89.069V93.3104H118.759V89.069Z" fill="black"/>
<path d="M118.759 0H114.517H110.276H106.035H101.793H97.5519H93.3105V4.24138V8.48276V12.7241V16.9655V21.2069V25.4483V29.6897H97.5519H101.793H106.035H110.276H114.517H118.759H123V25.4483V21.2069V16.9655V12.7241V8.48276V4.24138V0H118.759ZM118.759 8.48276V12.7241V16.9655V21.2069V25.4483H114.517H110.276H106.035H101.793H97.5519V21.2069V16.9655V12.7241V8.48276V4.24138H101.793H106.035H110.276H114.517H118.759V8.48276Z" fill="black"/>
<path d="M123 42.4138H118.759V46.6552H123V42.4138Z" fill="black"/>
<path d="M118.759 63.6208V67.8622V72.1035H123V67.8622V63.6208V59.3794H118.759V63.6208Z" fill="black"/>
<path d="M123 76.345H118.759V80.5863H123V76.345Z" fill="black"/>
</svg>
