<svg width="109" height="15" viewBox="0 0 109 15" fill="none" xmlns="http://www.w3.org/2000/svg">
<path d="M61.2832 0.179688H62.1601L71.9612 11.8333V0.179688H73.182V14.1063H72.305L62.504 2.45269V14.1063H61.2832V0.179688Z" fill="#00BAC6"/>
<path d="M76.758 0.179733H86.7309V1.33427H78.0132V6.52971H85.94V7.64818H78.0132V12.9699H86.9201V14.1244H76.758V0.179733Z" fill="#00BAC6"/>
<path d="M88.416 0.179688H89.7572L93.798 12.122L97.8731 0.179688H99.0424L103.118 12.122L107.158 0.179688H108.499L103.702 14.1063H102.567L98.475 2.12798L94.3826 14.1063H93.2477L88.416 0.179688Z" fill="#00BAC6"/>
<path d="M14.1689 0.162109H24.1419V1.31665H15.4242V6.49405H23.351V7.61251H15.4242V12.9342H24.3311V14.0888H14.1689V0.162109Z" fill="#00BAC6"/>
<path d="M30.8991 3.76953H25.8955V4.94211H30.8991V3.76953Z" fill="#00BAC6"/>
<path d="M30.8991 8.85742H25.8955V10.03H30.8991V8.85742Z" fill="#00BAC6"/>
<path d="M59.1842 3.33735C57.0521 1.62357 54.0086 0.703549 51.5842 2.23692C50.3977 2.97655 49.5552 4.22129 49.0909 5.62839C48.6266 7.01745 48.6095 8.8575 47.8529 10.0842C46.4773 12.285 45.6863 6.54842 45.5832 5.86291C45.3253 4.20325 45.0501 1.42514 43.3307 0.811787C42.1442 0.396874 41.2329 1.24474 40.803 2.39928C40.4935 3.22911 40.3216 4.13109 39.8573 4.88876C39.565 5.37584 39.1867 5.64643 38.7741 5.89899C38.241 2.56164 35.6102 0 32.4464 0H30.7441V1.17258H32.4464C35.3867 1.17258 37.7768 3.82442 37.7768 7.07157C37.7768 10.3187 35.3867 12.9886 32.4464 12.9886H30.7441V14.1612H32.4464C35.9197 14.1612 38.7569 11.0764 38.8428 7.25197C39.8745 6.63862 40.6139 6.06134 41.1641 4.83464C41.5252 4.00482 41.8519 1.46122 43.0727 2.03849C43.7605 2.38124 44.0013 3.64402 44.156 4.34757C44.4139 5.48407 44.5343 6.65665 44.7406 7.8112C44.9986 9.27241 45.394 11.5995 47.0447 11.798C49.4176 12.0866 49.6068 7.88336 50.1226 6.2237C51.4638 1.87613 55.7625 2.12869 58.634 4.41973C59.2186 4.9068 59.7689 3.80638 59.1842 3.33735Z" fill="#00BAC6"/>
<path d="M0 14.1063V0.179688H7.15302C9.71504 0.179688 11.4001 1.83934 11.4001 4.13039C11.4001 5.93436 10.3341 7.35949 8.63177 7.86461C8.80372 8.00892 8.95847 8.20736 9.06164 8.42384L11.9676 14.1244H10.6608L7.8752 8.71247C7.72045 8.4058 7.39375 8.20736 7.01546 8.20736H1.25522V14.1063H0ZM1.25522 1.33423V7.03478H7.15302C8.97567 7.03478 10.1449 5.82612 10.1449 4.16646C10.1449 2.50681 8.97567 1.33423 7.15302 1.33423H1.25522Z" fill="#00BAC6"/>
</svg>
