<svg width="109" height="23" viewBox="0 0 109 23" fill="none" xmlns="http://www.w3.org/2000/svg">
<path d="M4.61751 6.54817C3.63266 6.54817 2.68009 6.73237 1.95356 7.08403C1.24318 7.45242 0 8.55762 0 10.6675V16.5117H2.3249V11.2201C2.3249 10.9355 2.35719 10.1149 2.40563 9.89725C2.61551 8.82554 3.37433 8.55762 4.48835 8.55762C4.60136 8.55762 4.73053 8.55762 4.87583 8.57436L5.42477 6.59841C5.21488 6.56492 4.84354 6.54817 4.61751 6.54817Z" fill="#00BAC6"/>
<path d="M7.31318 10.55C7.41005 9.562 8.02357 8.20563 9.46049 8.20563C11.0104 8.20563 11.3818 9.66248 11.3656 10.5332L7.31318 10.55ZM13.5452 11.2198C13.5452 9.10988 12.5926 6.56458 9.5735 6.56458C6.61894 6.56458 5.06901 9.05964 5.06901 11.7054C5.06901 14.6358 6.82883 16.5616 9.81568 16.5616C11.1396 16.5616 12.2374 16.2936 13.0286 15.9587L12.6895 14.2842C11.9953 14.5521 11.2203 14.7196 10.1386 14.7196C8.66937 14.7196 7.36162 13.9828 7.29704 12.2413H13.4645C13.5129 12.0068 13.5452 11.6719 13.5452 11.2198Z" fill="#00BAC6"/>
<path d="M49.9686 6.54817C48.9837 6.54817 48.0311 6.73237 47.3046 7.08403C46.6104 7.43568 45.351 8.54087 45.351 10.6508V16.4949H47.6759V11.2201C47.6759 10.9355 47.7082 10.1149 47.7567 9.89725C47.9666 8.82554 48.7254 8.55762 49.8394 8.55762C49.9524 8.55762 50.0816 8.55762 50.2269 8.57436L50.7597 6.59841C50.5659 6.56492 50.1946 6.54817 49.9686 6.54817Z" fill="#00BAC6"/>
<path d="M52.6481 10.55C52.745 9.562 53.3585 8.20563 54.7954 8.20563C56.3453 8.20563 56.7167 9.66248 56.7005 10.5332L52.6481 10.55ZM58.8963 11.2198C58.8963 9.10988 57.9276 6.56458 54.9246 6.56458C51.97 6.56458 50.4201 9.05964 50.4201 11.7054C50.4201 14.6358 52.1799 16.5616 55.1667 16.5616C56.4906 16.5616 57.5885 16.2936 58.3958 15.9587L58.0567 14.2842C57.3625 14.5521 56.5875 14.7196 55.5058 14.7196C54.0204 14.7196 52.7288 13.9828 52.6642 12.2413H58.8317C58.864 12.0068 58.8963 11.6719 58.8963 11.2198Z" fill="#00BAC6"/>
<path d="M25.218 8.64091C23.5228 7.95435 22.7801 7.48548 22.7801 6.46401C22.7801 5.69372 23.4259 4.8732 24.8951 4.8732C26.0898 4.8732 26.9778 5.2416 27.4299 5.49278L28.0111 3.55032C27.3492 3.19866 26.332 2.8805 24.9435 2.8805C22.1827 2.8805 20.439 4.53829 20.439 6.69844C20.439 8.60741 21.7791 9.76284 23.8941 10.5499C25.5086 11.1527 26.1544 11.7388 26.1544 12.7435C26.1544 13.832 25.3149 14.552 23.8295 14.552C22.6348 14.552 21.5046 14.1669 20.7458 13.698L20.2292 15.7074C20.9395 16.1428 22.328 16.5447 23.6681 16.5447C26.9617 16.5447 28.5278 14.6692 28.5278 12.5593C28.5116 10.6503 27.446 9.49492 25.218 8.64091Z" fill="#00BAC6"/>
<path d="M33.3564 14.5687C32.4684 14.5687 32.1617 13.9658 32.1617 12.7937V8.57383H33.7762L34.2767 6.76533H32.1617V4.05258L29.8852 5.22476V13.0783C29.8852 14.3342 30.1113 15.205 30.6118 15.7576C31.0477 16.2432 31.7742 16.5614 32.6137 16.5614C33.3564 16.5614 33.9538 16.4441 34.309 16.3102L34.2605 14.4682C34.0022 14.5352 33.7923 14.5687 33.3564 14.5687Z" fill="#00BAC6"/>
<path d="M39.5549 14.8036C38.1342 14.8036 37.2623 13.4138 37.2623 11.5718C37.2623 9.98097 37.9243 8.33993 39.5711 8.33993C41.1533 8.33993 41.7991 10.048 41.7991 11.5383C41.7991 13.4473 40.8788 14.8036 39.5549 14.8036ZM39.6357 6.54817C36.8587 6.54817 34.8567 8.47389 34.8567 11.622C34.8567 14.6864 36.8749 16.5619 39.4742 16.5619C41.8314 16.5619 44.2047 14.9878 44.2047 11.4713C44.2047 8.55762 42.3803 6.54817 39.6357 6.54817Z" fill="#00BAC6"/>
<path d="M16.791 9.9139H16.8071C17.6789 9.9139 18.244 9.26083 18.244 8.39007C18.2279 7.48583 17.6628 6.83276 16.8071 6.83276C15.9676 6.83276 15.3702 7.48583 15.3702 8.39007C15.3863 9.26083 15.9676 9.9139 16.791 9.9139Z" fill="#00BAC6"/>
<path d="M16.824 13.2623C15.9844 13.2623 15.3871 13.9154 15.3871 14.8196C15.3871 15.6904 15.9683 16.3602 16.8078 16.3602H16.824C17.6958 16.3602 18.2609 15.6904 18.2609 14.8196C18.2286 13.8819 17.6635 13.2623 16.824 13.2623Z" fill="#00BAC6"/>
<path d="M99.5098 6.72094C98.5247 6.72094 97.5678 6.89919 96.8266 7.24631C96.1136 7.58405 94.8659 8.66294 94.8659 10.7081V16.3747H97.2113V11.2429C97.2113 10.9708 97.2488 10.1734 97.2863 9.95761C97.5021 8.91625 98.262 8.66294 99.3784 8.66294C99.491 8.66294 99.6224 8.67233 99.7631 8.68171L100.307 6.77723C100.11 6.7397 99.7349 6.72094 99.5098 6.72094Z" fill="#00BAC6"/>
<path d="M102.213 10.5862C102.307 9.62926 102.916 8.31582 104.361 8.31582C105.918 8.31582 106.303 9.72307 106.284 10.5862H102.213ZM108.498 11.2335C108.498 9.1977 107.532 6.72094 104.502 6.72094C101.537 6.72094 99.9799 9.14141 99.9799 11.712C99.9799 14.5453 101.753 16.4122 104.755 16.4122C106.087 16.4122 107.185 16.1401 107.992 15.8212L107.654 14.2075C106.95 14.4796 106.172 14.6297 105.084 14.6297C103.592 14.6297 102.288 13.8979 102.231 12.228H108.433C108.461 12.0122 108.498 11.6745 108.498 11.2335Z" fill="#00BAC6"/>
<path d="M90.8425 10.2767C90.9551 9.3198 90.4297 8.67246 89.4634 8.56926C88.5628 8.46606 87.6997 8.60679 86.8834 8.99144C86.7521 9.04773 86.6301 9.1134 86.4613 9.18845C86.3018 8.68184 86.1611 8.21276 86.0016 7.69677C87.7372 6.87118 89.4916 6.57097 91.2928 7.25583C92.8033 7.83749 93.2161 9.15093 93.2536 10.6238C93.2817 11.9185 93.2536 13.2132 93.263 14.4985C93.2724 15.0426 93.3193 15.7931 93.3474 16.3654C92.6626 16.3654 92.0058 16.403 91.2928 16.403C91.2272 16.1027 91.1615 15.5492 91.0864 15.174C90.4016 15.8682 89.6323 16.281 88.7035 16.3842C86.9397 16.5718 85.5419 15.5586 85.3542 13.945C85.2041 12.6878 85.8796 11.5433 87.1274 10.9334C88.0562 10.4831 89.0412 10.333 90.0545 10.2673C90.3171 10.258 90.5892 10.2767 90.8425 10.2767ZM90.9457 11.6652C90.167 11.7966 89.454 11.881 88.7692 12.0686C88.469 12.1437 88.1781 12.3782 87.9717 12.6128C87.3338 13.3352 87.7184 14.5172 88.6191 14.7236C89.8199 14.9957 90.9176 14.142 90.9457 12.913C90.9457 12.5471 90.9457 12.1906 90.9457 11.6652Z" fill="#00BAC6"/>
<path d="M79.5456 13.3159C79.2172 12.8374 79.0483 12.2088 79.0389 11.5802C79.0483 10.9517 79.2078 10.3231 79.5456 9.84464C80.662 8.24976 82.2287 8.44677 83.8424 8.90648C83.9831 8.34357 84.1238 7.79944 84.2739 7.18025C84.0206 7.09581 83.8142 7.01138 83.5891 6.96447C83.2138 6.88003 82.8291 6.7956 82.4445 6.76745C79.4893 6.55168 77.05 8.0246 76.6091 10.9892C76.6091 11.008 76.5809 11.3551 76.5809 11.5709C76.5809 11.7866 76.6091 12.1431 76.6091 12.1619C77.0594 15.1265 79.4986 16.5994 82.4445 16.3837C82.8291 16.3555 83.2138 16.2711 83.5891 16.1867C83.8048 16.1397 84.0206 16.0553 84.2739 15.9709C84.1238 15.3517 83.9831 14.8075 83.8424 14.2446C82.2287 14.7137 80.662 14.9107 79.5456 13.3159Z" fill="#00BAC6"/>
<path d="M68.3918 0H67.5474V22.2439H68.3918V0Z" fill="#00BAC6"/>
</svg>
