<svg width="62" height="15" viewBox="0 0 62 15" fill="none" xmlns="http://www.w3.org/2000/svg">
<path d="M4.80907 3.81982C3.78336 3.81982 2.79128 4.01166 2.0346 4.37791C1.29475 4.76159 0 5.91263 0 8.11007V14.1966H2.42135V8.68559C2.42135 8.38911 2.45498 7.53455 2.50542 7.30783C2.72402 6.19167 3.51432 5.91263 4.67455 5.91263C4.79225 5.91263 4.92677 5.91263 5.0781 5.93007L5.64981 3.87214C5.43122 3.83726 5.04447 3.81982 4.80907 3.81982Z" fill="#00BAC6"/>
<path d="M7.61657 7.98764C7.71746 6.95868 8.35643 5.54604 9.85295 5.54604C11.4672 5.54604 11.8539 7.06332 11.8371 7.9702L7.61657 7.98764ZM14.1071 8.68524C14.1071 6.4878 13.115 3.83691 9.97066 3.83691C6.89353 3.83691 5.2793 6.43548 5.2793 9.191C5.2793 12.243 7.11212 14.2486 10.2229 14.2486C11.6017 14.2486 12.7451 13.9696 13.569 13.6208L13.2159 11.8768C12.4929 12.1558 11.6858 12.3302 10.5592 12.3302C9.02902 12.3302 7.66701 11.5628 7.59975 9.74909H14.0231C14.0735 9.50493 14.1071 9.15612 14.1071 8.68524Z" fill="#00BAC6"/>
<path d="M52.0415 3.81982C51.0158 3.81982 50.0237 4.01166 49.267 4.37791C48.544 4.74415 47.2324 5.89519 47.2324 8.09263V14.1792H49.6538V8.68559C49.6538 8.38911 49.6874 7.53455 49.7378 7.30783C49.9564 6.19167 50.7467 5.91263 51.907 5.91263C52.0247 5.91263 52.1592 5.91263 52.3105 5.93007L52.8654 3.87214C52.6636 3.83726 52.2769 3.81982 52.0415 3.81982Z" fill="#00BAC6"/>
<path d="M54.8332 7.98764C54.934 6.95868 55.573 5.54604 57.0695 5.54604C58.6838 5.54604 59.0705 7.06332 59.0537 7.9702L54.8332 7.98764ZM61.3405 8.68524C61.3405 6.4878 60.3316 3.83691 57.2041 3.83691C54.1269 3.83691 52.5127 6.43548 52.5127 9.191C52.5127 12.243 54.3455 14.2486 57.4563 14.2486C58.8351 14.2486 59.9785 13.9696 60.8193 13.6208L60.4662 11.8768C59.7431 12.1558 58.936 12.3302 57.8094 12.3302C56.2624 12.3302 54.9172 11.5628 54.85 9.74909H61.2733C61.3069 9.50493 61.3405 9.15612 61.3405 8.68524Z" fill="#00BAC6"/>
<path d="M26.2651 5.99937C24.4996 5.28433 23.7261 4.79601 23.7261 3.73217C23.7261 2.92992 24.3987 2.07536 25.9288 2.07536C27.1731 2.07536 28.098 2.45904 28.5688 2.72064L29.1741 0.697601C28.4847 0.331361 27.4254 0 25.9793 0C23.1039 0 21.2879 1.72656 21.2879 3.97633C21.2879 5.96449 22.6836 7.16785 24.8863 7.98753C26.5678 8.61537 27.2404 9.22578 27.2404 10.2722C27.2404 11.4058 26.366 12.1557 24.8191 12.1557C23.5748 12.1557 22.3977 11.7546 21.6074 11.2663L21.0693 13.3591C21.8092 13.8125 23.2553 14.2311 24.6509 14.2311C28.0812 14.2311 29.7122 12.2778 29.7122 10.0803C29.6954 8.09217 28.5856 6.88881 26.2651 5.99937Z" fill="#00BAC6"/>
<path d="M34.7392 12.173C33.8144 12.173 33.4949 11.5452 33.4949 10.3244V5.92951H35.1764L35.6977 4.04599H33.4949V1.2207L31.124 2.44151V10.6209C31.124 11.9289 31.3594 12.8358 31.8807 13.4113C32.3347 13.917 33.0914 14.2484 33.9657 14.2484C34.7392 14.2484 35.3614 14.1263 35.7313 13.9868L35.6809 12.0684C35.4118 12.1382 35.1932 12.173 34.7392 12.173Z" fill="#00BAC6"/>
<path d="M41.1969 12.4178C39.7171 12.4178 38.8091 10.9702 38.8091 9.05183C38.8091 7.39503 39.4985 5.68591 41.2137 5.68591C42.8615 5.68591 43.5341 7.46479 43.5341 9.01695C43.5341 11.0051 42.5757 12.4178 41.1969 12.4178ZM41.2809 3.81982C38.3888 3.81982 36.3037 5.82543 36.3037 9.10415C36.3037 12.2957 38.4056 14.249 41.1128 14.249C43.5678 14.249 46.0395 12.6096 46.0395 8.94719C46.0395 5.91263 44.1395 3.81982 41.2809 3.81982Z" fill="#00BAC6"/>
<path d="M17.4875 7.32517H17.5043C18.4123 7.32517 19.0009 6.64501 19.0009 5.73813C18.9841 4.79637 18.3955 4.11621 17.5043 4.11621C16.63 4.11621 16.0078 4.79637 16.0078 5.73813C16.0246 6.64501 16.63 7.32517 17.4875 7.32517Z" fill="#00BAC6"/>
<path d="M17.5209 10.8125C16.6466 10.8125 16.0244 11.4927 16.0244 12.4344C16.0244 13.3413 16.6298 14.0389 17.5041 14.0389H17.5209C18.429 14.0389 19.0175 13.3413 19.0175 12.4344C18.9838 11.4578 18.3953 10.8125 17.5209 10.8125Z" fill="#00BAC6"/>
</svg>
