<svg width="67" height="11" viewBox="0 0 67 11" fill="none" xmlns="http://www.w3.org/2000/svg">
<path d="M4.42789 7.1877C4.51304 7.44749 4.51304 7.70729 4.42789 7.88049C4.34274 8.22688 4.08728 8.57328 3.49122 8.57328C2.89516 8.57328 2.55455 8.22688 2.55455 7.70729V6.7547H0V7.53409C0 9.69906 1.70303 10.3053 3.40607 10.3053C5.10911 10.3053 6.55668 9.69906 6.72699 8.14028C6.81214 7.2743 6.72699 6.7547 6.72699 6.58151C6.30123 4.58974 2.72486 3.98354 2.4694 2.85776C2.38425 2.68456 2.4694 2.42477 2.4694 2.33817C2.55455 1.99177 2.81001 1.64538 3.40607 1.64538C3.91698 1.64538 4.25759 1.99177 4.25759 2.51136V3.11756H6.64184V2.42477C6.64184 0.346395 4.7685 0 3.40607 0C1.70303 0 0.340607 0.606191 0.0851518 2.16497C0.0851518 2.59796 0 2.94436 0.170304 3.46395C0.510911 5.36912 3.91698 5.97532 4.42789 7.1877Z" fill="#00BAC6"/>
<path d="M35.1671 7.1877C35.2523 7.4475 35.2523 7.70729 35.1671 7.88049C35.082 8.22688 34.9117 8.48668 34.2305 8.48668C33.6344 8.48668 33.2938 8.14029 33.2938 7.62069V6.75471H30.7393V7.4475C30.7393 9.61246 32.3571 10.2187 34.1453 10.2187C35.8484 10.2187 37.2108 9.61246 37.4662 8.05369C37.5514 7.1877 37.4662 6.66811 37.4662 6.49491C37.0405 4.50314 33.5493 3.89695 33.2938 2.77116C33.2087 2.59796 33.2938 2.33817 33.2938 2.25157C33.379 1.90517 33.5493 1.64538 34.1453 1.64538C34.6562 1.64538 34.9968 1.99177 34.9968 2.51136V3.11756H37.2959V2.42477C37.2959 0.346395 35.5078 0 34.1453 0C32.4423 0 31.0799 0.519593 30.8244 2.07837C30.7393 2.51136 30.7393 2.85776 30.8244 3.37735C31.3353 5.36912 34.7414 5.97532 35.1671 7.1877Z" fill="#00BAC6"/>
<path d="M54.8372 8.05397L54.6669 0.34668H57.0511V9.87255H53.6451L51.2608 1.81886L51.4311 9.87255H49.0469V0.34668H52.6232L54.8372 8.05397Z" fill="#00BAC6"/>
<path d="M12.2617 1.03947L10.9844 9.95914H8.34473L10.1329 0.34668H14.3905L16.0935 9.95914H13.539L12.2617 1.03947Z" fill="#00BAC6"/>
<path d="M26.0562 1.03947L24.4383 9.95914H22.0541L20.4362 1.03947L20.351 9.95914H17.9668L18.2223 0.34668H22.0541L23.2462 7.88077L24.4383 0.34668H28.2702L28.5256 9.95914H26.1414L26.0562 1.03947Z" fill="#00BAC6"/>
<path d="M43.0865 8.48697C43.7678 8.48697 43.9381 8.05397 44.0232 7.79417C44.0232 7.70758 44.0232 7.53438 44.0232 7.44778V0.34668H46.4075V7.27458C46.4075 7.44778 46.4075 7.79418 46.4075 7.88077C46.2372 9.69935 44.8747 10.3055 43.0865 10.3055C41.3835 10.3055 39.9359 9.69935 39.7656 7.88077C39.7656 7.79418 39.7656 7.44778 39.7656 7.27458V0.34668H42.1499V7.44778C42.1499 7.53438 42.1499 7.70758 42.1499 7.79417C42.235 8.05397 42.4905 8.48697 43.0865 8.48697Z" fill="#00BAC6"/>
<path d="M62.8424 8.4004C63.5236 8.4004 63.7791 7.9674 63.7791 7.70761C63.7791 7.62101 63.7791 7.44781 63.7791 7.36121V5.97563H62.8424V4.50345H66.1633V7.10141C66.1633 7.27461 66.1633 7.44781 66.1633 7.70761C65.993 9.43958 64.5454 10.1324 62.8424 10.1324C61.1394 10.1324 59.6918 9.52618 59.5215 7.70761C59.5215 7.36121 59.5215 7.27461 59.5215 7.10141V3.03127C59.5215 2.85808 59.5215 2.59828 59.6066 2.42508C59.7769 0.606507 61.2245 0.0869141 62.9276 0.0869141C64.6306 0.0869141 66.0782 0.693106 66.2485 2.42508C66.2485 2.77148 66.2485 3.03127 66.2485 3.03127V3.37767H63.8642V2.85807C63.8642 2.85807 63.8642 2.59828 63.8642 2.51168C63.8642 2.33848 63.6088 1.81889 62.9276 1.81889C62.2463 1.81889 61.9909 2.25188 61.9909 2.51168C61.9909 2.68488 61.9909 2.77148 61.9909 2.94467V7.36121C61.9909 7.44781 61.9909 7.62101 61.9909 7.70761C61.9909 7.9674 62.1612 8.4004 62.8424 8.4004Z" fill="#00BAC6"/>
</svg>
