<svg width="53" height="20" viewBox="0 0 53 20" fill="none" xmlns="http://www.w3.org/2000/svg">
<path d="M9.27821 6.63095C9.27821 9.08177 6.78717 9.81472 4.59698 9.81472C2.15408 9.81472 0.012034 8.73819 0 6.39045H3.79071C3.79071 6.83709 4.22393 6.96307 4.65715 6.96307C5.06631 6.96307 5.43936 6.86 5.43936 6.51643C5.43936 6.20721 5.19868 6.06978 4.50071 6.00107C2.3707 5.82928 0.06017 5.48571 0.06017 3.02344C0.06017 1.11088 2.19019 0 4.59698 0C7.12412 0 9.07363 1.01927 9.12177 3.16087H5.43936C5.42733 2.8631 5.05428 2.72568 4.66919 2.72568C4.33224 2.72568 3.89901 2.8631 3.89901 3.24103C3.89901 3.5617 4.16376 3.69913 4.50071 3.73349C6.54649 3.88237 9.27821 4.11142 9.27821 6.63095ZM9.59109 3.18377H11.673V9.56277H15.4757V3.18377H17.5456V0.274858H9.59109V3.18377ZM21.8176 9.56277H18.0149V0.274858H22.2268C24.6576 0.28631 27.0043 0.927646 27.0043 3.69913C27.0043 5.05052 26.4387 5.898 25.5722 6.4019L27.1607 9.26501V9.55132H23.3339L22.0944 7.08905H21.8297V9.56277H21.8176ZM21.7695 4.30611H22.299C22.9248 4.29466 23.2136 4.14578 23.2136 3.69913C23.2136 3.26394 22.9248 3.0578 22.299 3.0578H21.7695V4.30611ZM44.1768 0.274858V3.18377H46.2587V9.56277H50.0614V3.18377H52.1433V0.274858H44.1768ZM9.21804 16.5946C9.14583 18.1864 7.84616 19.2859 6.1253 19.2859H0V10.0094H6.1614C7.60548 10.0094 8.76075 11.1776 8.72464 12.5518C8.71261 13.2963 8.29142 13.9834 7.52124 14.2354C8.67651 14.6591 9.29024 15.3691 9.21804 16.5946ZM3.80274 13.4566H4.51275C5.16258 13.4566 5.21072 12.4831 4.51275 12.4831H3.80274V13.4566ZM5.4514 16.1594C5.4514 15.8616 5.25885 15.5753 4.75343 15.5753H3.80274V16.7434H4.75343C5.23479 16.732 5.4514 16.4457 5.4514 16.1594ZM35.4281 6.65385H31.3967V6.20721V5.76057H35.4281V4.06561H31.3967V3.61896V3.17232H35.4281V0.274858H27.618V9.56277H35.4281V6.65385ZM35.8974 9.56277H43.7075V6.65385H39.6761V6.20721V5.76057H43.7075V4.06561H39.6761V3.61896V3.17232H43.7075V0.274858H35.8974V9.56277ZM27.5458 12.9069H29.6157V19.2859H33.4184V12.9069H35.5003V9.99796H27.5458V12.9069ZM25.6324 10.0094L29.1824 18.9308V19.2859H25.4639L25.0548 18.2208H22.1425L21.7334 19.2859H18.0149V18.9308L21.5649 10.0094H25.6324ZM24.1402 15.8501L23.5866 13.5482L23.0331 15.8501H24.1402ZM9.72346 19.2859H17.5335V16.377H13.5021V15.9303V15.4837H17.5335V13.7887H13.5021V13.3421V12.8954H17.5335V9.99796H9.72346V19.2859Z" fill="#00BAC6"/>
</svg>
