<svg width="51" height="30" viewBox="0 0 51 30" fill="none" xmlns="http://www.w3.org/2000/svg">
<path d="M3.34476 25.8795V26.5805V29.1802H0V19.833H3.34476V23.0461L5.83867 19.833H9.30079L6.01471 24.1853L9.44749 29.1802H5.45725L3.34476 25.8795Z" fill="#00BAC6"/>
<path d="M18.6607 26.1423C18.9541 26.1423 19.2475 26.0547 19.4529 25.9087C19.6876 25.7626 19.8637 25.5581 19.981 25.3245C20.0984 25.0908 20.1571 24.7987 20.1571 24.5066C20.1571 24.01 20.0397 23.6303 19.7756 23.3382C19.5116 23.0461 19.1595 22.9 18.6607 22.9H17.7512V26.1423H18.6607ZM14.2891 19.833H18.4847C19.4822 19.833 20.3624 20.0083 21.1546 20.388C21.9468 20.7677 22.5336 21.2935 22.9737 21.9945C23.4138 22.6956 23.6485 23.5427 23.6485 24.5066C23.6485 25.4705 23.4138 26.3176 22.9737 27.0186C22.5336 27.7197 21.9175 28.2747 21.1546 28.6252C20.3624 29.0049 19.4822 29.1802 18.514 29.1802H14.2891V19.833Z" fill="#00BAC6"/>
<path d="M27.9908 23.3375C27.668 23.3083 27.404 23.1622 27.404 22.8409C27.404 22.4612 27.8147 22.3152 28.1375 22.3152C28.4895 22.3152 28.871 22.4612 28.871 22.7533H32.4211C32.3624 20.621 30.4847 19.5986 28.0788 19.5986C25.7609 19.5986 23.7071 20.7086 23.7071 22.6073C23.7071 25.0901 25.937 25.4406 27.9614 25.6159C28.6362 25.6743 28.871 25.8203 28.871 26.1417C28.871 26.4922 28.5189 26.5798 28.1081 26.5798C27.6974 26.5798 27.2866 26.463 27.2866 25.9956H23.6484C23.6484 28.3616 25.7316 29.4424 28.0494 29.4424C30.1619 29.4424 32.5385 28.7121 32.5385 26.2585C32.5678 23.7172 29.9565 23.4836 27.9908 23.3375Z" fill="#00BAC6"/>
<path d="M13.5552 19.833H9.91699V29.2094H13.5552V19.833Z" fill="#00BAC6"/>
<path d="M4.31298 3.73887C3.99024 3.70966 3.72618 3.56361 3.72618 3.2423C3.72618 2.86257 4.13694 2.71652 4.45968 2.71652C4.81177 2.71652 5.19319 2.86257 5.19319 3.15467H8.74333C8.71399 1.02235 6.83623 0 4.401 0C2.11248 0 0.0586801 1.10998 0.0586801 3.00862C0.0586801 5.49146 2.28852 5.84198 4.31298 6.01724C4.98781 6.07566 5.22253 6.22171 5.22253 6.54302C5.22253 6.89354 4.87045 6.98117 4.45968 6.98117C4.04892 6.98117 3.63816 6.86433 3.63816 6.39697H0C0 8.76297 2.08314 9.84374 4.401 9.84374C6.51349 9.84374 8.89003 9.11349 8.89003 6.65986C8.91937 4.1186 6.27877 3.91413 4.31298 3.73887Z" fill="#00BAC6"/>
<path d="M9.21289 3.18328H11.208V9.60946H14.8462V3.18328H16.8413V0.291504H9.21289V3.18328Z" fill="#00BAC6"/>
<path d="M20.9488 7.12662H21.2128L22.4158 9.60946H26.0833V9.31736L24.5576 6.42558C25.3791 5.92901 25.9366 5.05272 25.9366 3.70906C25.9072 0.934122 23.648 0.291504 21.3302 0.291504H17.2812V9.60946H20.9194V7.12662H20.9488ZM20.9194 3.06644H21.4182C22.005 3.06644 22.2984 3.27091 22.2984 3.70906C22.2984 4.17642 22.005 4.29326 21.4182 4.32247H20.9194V3.06644Z" fill="#00BAC6"/>
<path d="M42.4258 0.291504V3.18328H44.4209V9.60946H48.0591V3.18328H50.0542V0.291504H42.4258Z" fill="#00BAC6"/>
<path d="M7.21765 14.2822C7.95115 14.0193 8.36191 13.3475 8.36191 12.588C8.39125 11.2152 7.30567 10.0176 5.89735 10.0176H0V19.3355H5.89735C7.54039 19.3355 8.80201 18.2256 8.86069 16.619C8.91937 15.4506 8.33257 14.7204 7.21765 14.2822ZM3.63816 12.5296H4.31298C4.98781 12.5296 4.92913 13.4936 4.31298 13.4936H3.63816V12.5296ZM4.54771 16.8235H3.63816V15.6551H4.54771C5.01715 15.6551 5.22253 15.9472 5.22253 16.2393C5.22253 16.5314 5.01715 16.8235 4.54771 16.8235Z" fill="#00BAC6"/>
<path d="M34.0051 6.68847H30.1616V6.25032V5.78296H34.0051V4.08879H30.1616V3.65064V3.18328H34.0051V0.291504H26.5234V9.60946H34.0051V6.68847Z" fill="#00BAC6"/>
<path d="M41.9563 6.68847H38.1128V6.25032V5.78296H41.9563V4.08879H38.1128V3.65064V3.18328H41.9563V0.291504H34.4746V9.60946H41.9563V6.68847Z" fill="#00BAC6"/>
<path d="M26.4355 12.9698H28.4307V19.3668H32.0982V12.9698H34.0933V10.0488H26.4355V12.9698Z" fill="#00BAC6"/>
<path d="M24.6163 10.0488H20.6847L17.2812 19.0163V19.3668H20.8607L21.2422 18.3152H24.0588L24.4402 19.3668H28.0197V19.0163L24.6163 10.0488ZM22.1224 15.92L22.6505 13.6124L23.1786 15.92H22.1224Z" fill="#00BAC6"/>
<path d="M16.8411 19.3668V16.4458H12.9682V16.0076V15.5695H16.8411V13.8461H12.9682V13.408V12.9698H16.8411V10.0488H9.33008V19.3668H16.8411Z" fill="#00BAC6"/>
</svg>
