<svg width="24" height="9" viewBox="0 0 24 9" fill="none" xmlns="http://www.w3.org/2000/svg">
<path d="M6 7L6.3 8.4C5.8 8.6 5.1 8.8 4.2 8.8C2.8 8.8 1.8 8.4 1.1 7.7C0.4 6.9 0 5.9 0 4.7C0 3.4 0.4 2.3 1.3 1.6C2.1 0.8 3.2 0.5 4.5 0.5C5.3 0.5 6 0.6 6.5 0.8L6 2.2C5.6 2 5 1.9 4.5 1.9C3.7 1.9 3.1 2.1 2.6 2.6C2.1 3.1 1.9 3.7 1.9 4.6C1.9 5.4 2.1 6 2.6 6.5C3.1 7 3.7 7.2 4.5 7.2C5.1 7.2 5.6 7.1 6 7Z" fill="black"/>
<path d="M8.6001 0.600098H15.1001V8.7001H13.3001V2.1001H10.4001V8.7001H8.6001V0.600098Z" fill="black"/>
<path d="M22.8999 0L22.7999 1.4C22.4999 1.5 21.9999 1.6 21.3999 1.6C20.4999 1.7 19.8999 1.9 19.5999 2.4C19.1999 2.8 18.9999 3.3 18.9999 3.9C19.1999 3.6 19.3999 3.3 19.7999 3.1C20.0999 2.9 20.4999 2.8 20.8999 2.8C21.6999 2.8 22.2999 3.1 22.7999 3.6C23.2999 4.1 23.4999 4.8 23.4999 5.7C23.4999 6.6 23.1999 7.4 22.6999 7.9C22.0999 8.5 21.3999 8.7 20.4999 8.7C19.4999 8.7 18.6999 8.3 18.1999 7.6C17.6999 6.9 17.3999 6 17.3999 4.8C17.3999 3.2 17.7999 2 18.6999 1.2C19.2999 0.6 20.0999 0.2 21.0999 0.1C21.9999 0.2 22.5999 0.1 22.8999 0ZM21.6999 5.8C21.6999 5.3 21.5999 4.9 21.3999 4.6C21.1999 4.2 20.8999 4 20.4999 4C20.0999 4 19.8999 4.2 19.5999 4.5C19.3999 4.8 19.2999 5.2 19.2999 5.7C19.2999 6.2 19.3999 6.6 19.5999 6.9C19.7999 7.3 20.0999 7.5 20.4999 7.5C20.8999 7.5 21.1999 7.3 21.3999 7C21.5999 6.6 21.6999 6.2 21.6999 5.8Z" fill="black"/>
</svg>
