<svg width="39" height="39" viewBox="0 0 39 39" fill="none" xmlns="http://www.w3.org/2000/svg">
<path fill-rule="evenodd" clip-rule="evenodd" d="M19.5 2C9.83502 2 2 9.83502 2 19.5C2 29.165 9.83502 37 19.5 37C29.165 37 37 29.165 37 19.5C37 9.83502 29.165 2 19.5 2ZM0 19.5C0 8.73045 8.73045 0 19.5 0C30.2696 0 39 8.73045 39 19.5C39 30.2696 30.2696 39 19.5 39C8.73045 39 0 30.2696 0 19.5Z" fill="black"/>
<path d="M16 22.7L24.4 29L28.6 11L7 19.5L13.6 21.6L25.5 13.6L16 22.7Z" fill="black"/>
<path d="M18.7004 24.7002L15.4004 28.1002L16.0004 22.7002L18.7004 24.7002Z" fill="black"/>
</svg>
