<svg width="22" height="22" viewBox="0 0 22 22" fill="none" xmlns="http://www.w3.org/2000/svg">
<path d="M11.2805 21.6787C10.5589 21.6787 9.84173 21.4411 9.26973 21.0055L4.39453 17.3271V17.5559C4.39453 20.0111 6.42293 21.9999 8.92213 21.9999H13.6433C16.1425 21.9999 18.1709 20.0111 18.1709 17.5559V17.3271L13.2913 21.0099C12.7193 21.4411 12.0065 21.6787 11.2805 21.6787Z" fill="#9BE2DE"/>
<path d="M5.66622 17.2872L9.76262 20.3848C10.0002 20.5652 10.273 20.6928 10.559 20.7764L8.26222 17.2916L2.26062 8.18359C2.08462 8.21879 1.81182 8.31119 1.62262 8.55319C1.35422 8.90079 1.31462 9.48159 1.50822 10.2472C1.53462 10.3572 1.51702 10.4716 1.45102 10.564C1.42902 10.5948 0.892219 11.4264 1.16502 12.7156C1.35862 13.622 1.92182 14.4712 2.74462 15.0916L5.66622 17.2872Z" fill="#9BE2DE"/>
<path d="M12.8823 17.2874L12.5127 18.4534L19.8035 7.39184C19.8123 7.37864 19.8211 7.36544 19.8299 7.35224C20.0895 6.06744 18.8487 5.60544 18.6947 5.55704C18.5319 5.50424 18.4219 5.35024 18.4219 5.18304C18.4219 4.46584 18.2547 3.96424 17.9379 3.73984C17.7091 3.57704 17.4275 3.56384 17.2251 3.58584L12.8823 17.2874Z" fill="#9BE2DE"/>
<path d="M10.5236 17.2877L9.24759 2.23088C8.64039 2.00208 7.008 1.60608 6.0752 3.41888L10.5456 17.5253L10.5236 17.2877Z" fill="#9BE2DE"/>
<path d="M11.9805 17.2876L11.9585 17.5252L12.0333 17.2876L16.4553 3.34837C15.4829 1.55317 13.8065 2.03277 13.2609 2.25277L11.9805 17.2876Z" fill="#9BE2DE"/>
<path d="M9.22605 17.2876L9.99165 18.4536L5.27926 3.57715C5.25286 3.57715 5.22646 3.57275 5.19566 3.57275C5.01526 3.57275 4.80406 3.60795 4.62806 3.73555C4.31126 3.96435 4.14406 4.46155 4.14406 5.17875C4.14406 5.35035 4.03406 5.49995 3.86686 5.55715C3.71286 5.60995 2.39726 6.09835 2.76686 7.47995L9.22605 17.2876Z" fill="#9BE2DE"/>
<path d="M12.4683 2.02413C12.4683 2.00653 12.4727 1.98893 12.4771 1.97133C12.3363 1.44773 11.8435 1.07373 11.2847 1.07373C10.6995 1.07373 10.1891 1.48293 10.0747 2.04613C10.0703 2.07253 10.0615 2.09893 10.0527 2.12093L11.2583 16.3197L12.4683 2.02413Z" fill="#9BE2DE"/>
<path d="M21.1149 10.5552C21.0533 10.4628 21.0313 10.3484 21.0577 10.2384C21.2513 9.47281 21.2117 8.88321 20.9345 8.54001C20.7233 8.27601 20.4153 8.19241 20.2525 8.17041L14.2465 17.2872L11.9365 20.7896C12.2489 20.7104 12.5437 20.574 12.7989 20.3804L16.8953 17.2828L19.8125 15.0784C20.6397 14.4536 21.1985 13.6088 21.3921 12.7024C21.6737 11.4 21.1193 10.564 21.1149 10.5552Z" fill="#9BE2DE"/>
<path d="M21.0926 9.8692C21.2906 9.0684 21.3654 8.0476 20.6526 7.4624C20.371 7.2336 19.9882 7.084 19.6186 7.084C19.6714 7.1544 19.7286 7.2248 19.7814 7.2952C20.0322 6.534 19.9354 5.7376 19.3546 5.148C19.0818 4.8708 18.7254 4.6376 18.3514 4.5144C18.391 4.5672 18.435 4.62 18.4746 4.6728C18.4702 3.8676 18.2722 2.904 17.4054 2.596C17.0622 2.4728 16.6398 2.4684 16.2922 2.5828C16.3538 2.6092 16.4198 2.6356 16.4814 2.6576C16.0722 1.8656 15.4034 1.2144 14.497 1.0296C13.8986 0.9064 13.265 0.9724 12.6886 1.166C12.5962 1.1968 12.5038 1.232 12.4114 1.2716C12.3894 1.2804 12.3586 1.2892 12.3366 1.3024C12.2838 1.3376 12.407 1.2892 12.3674 1.2892C12.4202 1.3288 12.4774 1.3684 12.5302 1.4124C12.3498 0.5984 11.615 0 10.7614 0C9.90776 0 9.17736 0.5984 8.99256 1.408C9.04536 1.3684 9.10256 1.3288 9.15536 1.2848C9.09816 1.2848 9.23896 1.3288 9.19496 1.3024C9.17736 1.2936 9.15536 1.2848 9.13776 1.276C9.06296 1.2408 8.98816 1.2144 8.91336 1.188C8.67576 1.1044 8.43376 1.0428 8.18296 1.0076C7.46576 0.902 6.71776 1.0032 6.10616 1.4124C5.63976 1.7248 5.29656 2.1692 5.04136 2.6576C5.10296 2.6312 5.16896 2.6048 5.23056 2.5828C4.88296 2.4684 4.46056 2.4728 4.11736 2.596C3.25496 2.904 3.05696 3.872 3.05256 4.6728C3.09216 4.62 3.13616 4.5672 3.17576 4.5144C2.80176 4.6376 2.44536 4.8708 2.17256 5.148C1.59176 5.7376 1.49496 6.534 1.74576 7.2952C1.79856 7.2248 1.85576 7.1544 1.90856 7.084C1.53896 7.084 1.15616 7.2336 0.874558 7.4624C0.157358 8.0476 0.236558 9.0684 0.434558 9.8692C0.438958 9.8252 0.447758 9.7856 0.452158 9.7416C0.174958 10.1552 0.0517584 10.7008 0.0121584 11.1892C-0.0670416 12.1572 0.245358 13.1384 0.812958 13.926C1.31016 14.6212 1.99656 15.1008 2.66976 15.6112C4.44736 16.9532 6.22056 18.2952 7.99816 19.6372C8.63176 20.1168 9.24336 20.6668 10.0398 20.856C10.933 21.0672 11.8834 20.8692 12.6182 20.3236C12.7766 20.2092 12.9306 20.086 13.0846 19.9716C14.8314 18.6516 16.5782 17.3316 18.325 16.016C18.8002 15.6596 19.2798 15.3076 19.7462 14.9424C21.163 13.8248 21.977 11.8712 21.2774 10.1464C21.2202 10.01 21.163 9.8692 21.0794 9.746C20.9606 9.57 20.6702 9.7328 20.789 9.9132C21.1366 10.4324 21.229 11.1364 21.185 11.7392C21.1058 12.8436 20.5162 13.8512 19.6758 14.5728C19.1346 15.0348 18.5406 15.444 17.973 15.8708C16.1822 17.2216 14.3914 18.5768 12.6006 19.9276C12.1386 20.2796 11.6326 20.5436 11.0342 20.5964C10.2862 20.6668 9.59536 20.4248 9.00576 19.9804C8.30616 19.4524 7.60216 18.92 6.90256 18.392C5.29216 17.1776 3.67296 15.9764 2.07576 14.7488C0.650158 13.6532 -0.199042 11.6336 0.711758 9.966C0.746958 9.9044 0.768958 9.8604 0.760158 9.7856C0.738158 9.5304 0.650158 9.2796 0.636958 9.02C0.619358 8.6944 0.654558 8.3512 0.812958 8.0608C1.00656 7.7132 1.34976 7.5108 1.73696 7.4404C1.79856 7.4272 1.82496 7.4228 1.90856 7.4228C2.01416 7.4228 2.10656 7.3172 2.07136 7.2116C1.85136 6.534 1.92616 5.8432 2.46296 5.3328C2.68736 5.1216 2.99976 4.9236 3.26376 4.8356C3.33416 4.8136 3.38696 4.752 3.38696 4.6772C3.39136 4.0084 3.52776 3.1152 4.28896 2.8908C4.57056 2.8072 4.87856 2.816 5.14256 2.904C5.20856 2.926 5.30096 2.8908 5.33176 2.8292C5.60456 2.3056 5.98296 1.8348 6.52416 1.5576C6.90696 1.364 7.33816 1.2892 7.76496 1.3068C8.09056 1.32 8.41176 1.3816 8.72416 1.4828C8.88696 1.5356 8.99256 1.628 9.15976 1.628C9.23016 1.628 9.30496 1.5752 9.32256 1.5048C9.47216 0.836 10.0574 0.3388 10.7658 0.3388C11.4742 0.3388 12.055 0.8272 12.2046 1.496C12.2222 1.5664 12.297 1.6192 12.3674 1.6192C12.5346 1.6192 12.6402 1.5268 12.803 1.474C13.111 1.3728 13.4366 1.3112 13.7622 1.298C14.189 1.2804 14.6202 1.3552 15.003 1.5488C15.5442 1.826 15.9226 2.2968 16.1954 2.8204C16.2262 2.882 16.3186 2.9172 16.3846 2.8952C16.653 2.8072 16.9566 2.8028 17.2382 2.882C17.9994 3.1064 18.1358 3.9996 18.1402 4.6684C18.1402 4.7432 18.193 4.8048 18.2634 4.8268C18.5274 4.9148 18.8398 5.1084 19.0642 5.324C19.601 5.8344 19.6802 6.5208 19.4558 7.2028C19.4206 7.3084 19.513 7.414 19.6186 7.414C19.8562 7.414 20.1686 7.5152 20.3974 7.6824C21.0442 8.1664 20.9386 9.0992 20.7714 9.7812C20.7186 9.988 21.0398 10.076 21.0926 9.8692Z" fill="black"/>
<path d="M1.73226 7.3522C2.02706 7.801 2.32186 8.2498 2.62106 8.6986C3.32506 9.7722 4.03346 10.8414 4.73746 11.915C5.59106 13.213 6.44466 14.5066 7.29826 15.8046C8.04186 16.931 8.78106 18.0574 9.52466 19.1838C9.88106 19.7294 10.2155 20.3014 10.6027 20.825C10.6071 20.8338 10.6115 20.8426 10.6203 20.847C10.7391 21.023 11.0295 20.8602 10.9107 20.6798C10.6159 20.231 10.3211 19.7822 10.0219 19.3334C9.31346 18.2598 8.60946 17.1906 7.90546 16.117C7.05186 14.819 6.19826 13.5254 5.34466 12.2274C4.60106 11.101 3.86186 9.9746 3.11826 8.8482C2.76186 8.3026 2.42746 7.7306 2.04026 7.207C2.03586 7.1982 2.03146 7.1894 2.02266 7.1806C1.90826 7.0046 1.61786 7.1718 1.73226 7.3522Z" fill="black"/>
<path d="M5.03661 2.7721C5.22141 3.3705 5.40621 3.9645 5.59101 4.5629C6.03541 5.9973 6.47541 7.4317 6.91981 8.8617C7.45661 10.6041 7.99781 12.3465 8.53461 14.0889C8.99661 15.5893 9.46301 17.0897 9.92501 18.5901C10.1494 19.3161 10.3342 20.0685 10.6026 20.7769C10.607 20.7857 10.607 20.7989 10.6114 20.8077C10.673 21.0101 10.9986 20.9221 10.937 20.7197C10.7522 20.1213 10.5674 19.5273 10.3826 18.9289C9.93821 17.4945 9.49821 16.0601 9.05381 14.6301C8.51701 12.8877 7.97581 11.1453 7.43901 9.4029C6.97701 7.9025 6.51061 6.4021 6.04861 4.9017C5.82421 4.1757 5.63941 3.4233 5.37101 2.7149C5.36661 2.7061 5.36661 2.6929 5.36221 2.6841C5.29621 2.4817 4.97061 2.5697 5.03661 2.7721Z" fill="black"/>
<path d="M9.00164 1.44753C9.05444 2.08993 9.10724 2.73673 9.16004 3.37913C9.28764 4.91033 9.41524 6.44153 9.53844 7.96833C9.69244 9.83393 9.84644 11.6995 10.0004 13.5651C10.1324 15.1711 10.2688 16.7771 10.4008 18.3831C10.4668 19.1619 10.4976 19.9539 10.5944 20.7283C10.5944 20.7371 10.5944 20.7503 10.5988 20.7635C10.6164 20.9747 10.9552 20.9747 10.9376 20.7635C10.8848 20.1211 10.832 19.4743 10.7792 18.8319C10.6516 17.3007 10.524 15.7695 10.4008 14.2383C10.2468 12.3727 10.0928 10.5071 9.93884 8.64153C9.80684 7.03553 9.67044 5.42953 9.53844 3.82353C9.47244 3.04473 9.44164 2.25273 9.34484 1.47833C9.34484 1.46953 9.34484 1.45633 9.34044 1.44313C9.32284 1.23633 8.98404 1.23633 9.00164 1.44753Z" fill="black"/>
<path d="M12.2615 1.44753C12.2043 2.08993 12.1515 2.73673 12.0943 3.37913C11.9623 4.91033 11.8303 6.44153 11.6983 7.96833C11.5399 9.83393 11.3771 11.6995 11.2187 13.5651C11.0823 15.1711 10.9415 16.7771 10.8051 18.3831C10.7611 18.9155 10.7127 19.4435 10.6687 19.9759C10.6467 20.2223 10.6027 20.4819 10.6027 20.7283C10.6027 20.7371 10.6027 20.7503 10.5983 20.7635C10.5807 20.9747 10.9195 20.9747 10.9371 20.7635C10.9943 20.1211 11.0471 19.4743 11.1043 18.8319C11.2363 17.3007 11.3683 15.7695 11.5003 14.2383C11.6587 12.3727 11.8215 10.5071 11.9799 8.64153C12.1163 7.03553 12.2571 5.42953 12.3935 3.82353C12.4375 3.29113 12.4859 2.76313 12.5299 2.23073C12.5519 1.98433 12.5959 1.72473 12.5959 1.47833C12.5959 1.46953 12.5959 1.45633 12.6003 1.44313C12.6135 1.23633 12.2791 1.23633 12.2615 1.44753Z" fill="black"/>
<path d="M16.1777 2.6841C15.9929 3.2825 15.8081 3.8765 15.6233 4.4749C15.1789 5.9093 14.7389 7.3437 14.2945 8.7737C13.7577 10.5161 13.2165 12.2585 12.6797 14.0009C12.2177 15.5013 11.7513 17.0017 11.2893 18.5021C11.1353 18.9949 10.9857 19.4921 10.8317 19.9849C10.7613 20.2181 10.6645 20.4513 10.6161 20.6889C10.6117 20.6977 10.6117 20.7109 10.6073 20.7197C10.5457 20.9221 10.8713 21.0101 10.9329 20.8077C11.1177 20.2093 11.3025 19.6153 11.4873 19.0169C11.9317 17.5825 12.3717 16.1481 12.8161 14.7181C13.3529 12.9757 13.8941 11.2333 14.4309 9.4909C14.8929 7.9905 15.3593 6.4901 15.8213 4.9897C15.9753 4.4969 16.1249 3.9997 16.2789 3.5069C16.3493 3.2737 16.4461 3.0405 16.4989 2.8029C16.4989 2.7941 16.5033 2.7809 16.5077 2.7721C16.5649 2.5697 16.2393 2.4817 16.1777 2.6841Z" fill="black"/>
<path d="M19.4557 7.18546C19.1609 7.63426 18.8705 8.08306 18.5757 8.53186C17.8761 9.60106 17.1765 10.6747 16.4725 11.7439C15.6189 13.0463 14.7697 14.3443 13.9205 15.6467C13.1857 16.7731 12.4465 17.8995 11.7117 19.0215C11.4697 19.3911 11.2277 19.7607 10.9857 20.1303C10.8713 20.3063 10.7349 20.4779 10.6381 20.6627C10.6337 20.6715 10.6293 20.6803 10.6249 20.6847C10.5061 20.8651 10.8009 21.0323 10.9153 20.8519C11.2101 20.4031 11.5005 19.9543 11.7953 19.5055C12.4949 18.4363 13.1945 17.3627 13.8985 16.2935C14.7521 14.9911 15.6013 13.6931 16.4505 12.3907C17.1853 11.2643 17.9245 10.1379 18.6593 9.01586C18.9013 8.64626 19.1433 8.27666 19.3853 7.90706C19.4997 7.73106 19.6361 7.55946 19.7329 7.37466C19.7373 7.36586 19.7417 7.35706 19.7461 7.35266C19.8649 7.17226 19.5701 7.00506 19.4557 7.18546Z" fill="black"/>
<path d="M17.0405 16.9404C17.2429 16.9404 17.4453 16.9404 17.6521 16.9404C17.5949 16.8876 17.5377 16.8304 17.4849 16.7732C17.4849 17.4772 17.4013 18.1504 17.1021 18.7972C16.7765 19.5012 16.2573 20.1216 15.6061 20.5616C14.9505 21.006 14.1717 21.2744 13.3753 21.314C13.0937 21.3272 12.8121 21.3184 12.5305 21.3184C11.4657 21.3184 10.4009 21.3184 9.3317 21.3184C9.0281 21.3184 8.7245 21.3184 8.4165 21.3184C7.7037 21.314 7.0041 21.1556 6.3749 20.83C5.5961 20.4252 4.9537 19.796 4.5401 19.0304C4.1573 18.322 4.0429 17.5652 4.0429 16.7688C3.9857 16.8216 3.9285 16.8788 3.8757 16.936C4.0429 16.936 4.2057 16.936 4.3729 16.936C4.5885 16.936 4.5885 16.606 4.3729 16.606C4.2057 16.606 4.0429 16.606 3.8757 16.606C3.7833 16.606 3.7085 16.6808 3.7085 16.7732C3.7085 17.508 3.8009 18.2032 4.1001 18.8852C4.4169 19.6068 4.9273 20.236 5.5609 20.7112C6.2253 21.2084 7.0129 21.5208 7.8401 21.6176C8.1921 21.6616 8.5485 21.6528 8.9049 21.6528C10.0313 21.6528 11.1577 21.6528 12.2841 21.6528C12.5657 21.6528 12.8429 21.6528 13.1245 21.6528C13.9385 21.6484 14.7437 21.446 15.4521 21.0456C16.2397 20.6056 16.8909 19.9368 17.3045 19.1448C17.6961 18.3968 17.8237 17.6048 17.8237 16.7688C17.8237 16.6808 17.7445 16.6016 17.6565 16.6016C17.4541 16.6016 17.2517 16.6016 17.0449 16.6016C16.8249 16.6104 16.8249 16.9404 17.0405 16.9404Z" fill="black"/>
</svg>
