<svg width="22" height="22" viewBox="0 0 22 22" fill="none" xmlns="http://www.w3.org/2000/svg">
<path d="M14.2284 19.1981V17.7725H8.46855V19.1981H6.72607V21.297H15.9709V19.1981H14.2284Z" fill="#9BE2DE"/>
<path d="M17.568 1.72488C17.6384 0.677631 17.6384 0 17.6384 0H16.5647H6.52789H5.05822C5.05822 0 5.05822 0.677631 5.12862 1.72488C5.12862 1.72488 0.746026 -0.123205 0.697624 3.86337C0.649221 7.77955 2.68651 10.0149 4.42019 11.0577C6.27707 12.1753 8.14276 11.8277 8.14276 11.8277C8.51678 12.2545 8.93919 12.611 9.41002 12.875C9.92044 13.161 10.2329 13.7066 10.2329 14.2918H10.1977C9.78403 14.2918 9.44962 14.6263 9.44962 15.0399C9.44962 15.4535 9.78403 15.7879 10.1977 15.7879H10.2329V17.768H12.4638V15.7879H12.499C12.9126 15.7879 13.247 15.4535 13.247 15.0399C13.247 14.6263 12.9126 14.2918 12.499 14.2918H12.4638C12.4638 13.7066 12.7762 13.1566 13.2866 12.875C13.7618 12.611 14.1842 12.2546 14.5582 11.8233L14.5538 11.8277C14.5538 11.8277 16.4195 12.1753 18.2764 11.0577C20.0057 10.0193 22.043 7.78395 21.999 3.86337C21.9506 -0.123205 17.568 1.72488 17.568 1.72488ZM17.4492 3.08014C18.602 2.66652 21.0661 2.05489 20.7185 4.57181C20.3665 7.12832 19.2533 8.8928 17.7704 9.84764C16.9432 10.3801 16.0323 10.4549 15.5043 10.4417C16.6879 8.25917 17.4492 3.08014 17.4492 3.08014ZM4.92621 9.84324C3.44335 8.8928 2.3301 7.12392 1.97808 4.56741C1.63047 2.05049 4.09458 2.66212 5.24743 3.08014C5.48064 5.29344 6.00866 8.25917 7.19232 10.4417C6.66429 10.4505 5.75345 10.3757 4.92621 9.84324Z" fill="#FCC659"/>
<path d="M13.2605 11.119C13.1329 11.0002 13.1241 10.8066 13.2341 10.6746C13.2825 10.613 13.3309 10.5514 13.3793 10.4854C13.4849 10.3446 13.6785 10.3094 13.8237 10.4062C13.9777 10.5074 14.0173 10.723 13.9073 10.8726C13.8501 10.9474 13.7929 11.0222 13.7357 11.0926C13.6125 11.2334 13.3969 11.2466 13.2605 11.119Z" fill="white"/>
<path d="M14.0616 10.0153C13.9076 9.92729 13.8548 9.73808 13.934 9.58407C14.308 8.85364 14.6292 7.9648 14.8844 6.93075C14.9284 6.75915 15.1 6.64914 15.276 6.68874C15.452 6.72834 15.5621 6.90875 15.5181 7.08476C15.2496 8.17161 14.9152 9.10885 14.5148 9.88329C14.4268 10.0461 14.22 10.1077 14.0616 10.0153Z" fill="white"/>
<path d="M13.8851 19.4357C13.8851 18.9604 13.8851 18.4852 13.8851 18.0056C13.8851 17.9088 13.8015 17.8296 13.7091 17.8296C12.0282 17.8296 10.343 17.8296 8.66209 17.8296C8.42447 17.8296 8.18686 17.8296 7.94925 17.8296C7.85245 17.8296 7.76885 17.9132 7.76885 18.0056C7.76885 18.4808 7.76885 18.956 7.76885 19.4357C7.83045 19.3741 7.88765 19.3169 7.94925 19.2597C7.36843 19.2597 6.7876 19.2597 6.20678 19.2597C6.10997 19.2597 6.02637 19.3433 6.02637 19.4357C6.02637 20.1353 6.02637 20.8349 6.02637 21.5346C6.02637 21.6314 6.10997 21.7106 6.20678 21.7106C7.24962 21.7106 8.29247 21.7106 9.33532 21.7106C10.9942 21.7106 12.6531 21.7106 14.3119 21.7106C14.6904 21.7106 15.0688 21.7106 15.4516 21.7106C15.5484 21.7106 15.6276 21.627 15.6276 21.5346C15.6276 20.8349 15.6276 20.1353 15.6276 19.4357C15.6276 19.3389 15.544 19.2597 15.4516 19.2597C14.8708 19.2597 14.2899 19.2597 13.7091 19.2597C13.4803 19.2597 13.4803 19.6161 13.7091 19.6161C14.2899 19.6161 14.8708 19.6161 15.4516 19.6161C15.39 19.5545 15.3328 19.4973 15.2756 19.4401C15.2756 20.1397 15.2756 20.8393 15.2756 21.539C15.3372 21.4774 15.3944 21.4202 15.4516 21.3629C14.4087 21.3629 13.3659 21.3629 12.3231 21.3629C10.6642 21.3629 9.0053 21.3629 7.34643 21.3629C6.96801 21.3629 6.58959 21.3629 6.20678 21.3629C6.26838 21.4246 6.32558 21.4818 6.38718 21.539C6.38718 20.8393 6.38718 20.1397 6.38718 19.4401C6.32558 19.5017 6.26838 19.5589 6.20678 19.6161C6.7876 19.6161 7.36843 19.6161 7.94925 19.6161C8.04606 19.6161 8.12966 19.5325 8.12966 19.4401C8.12966 18.9648 8.12966 18.4896 8.12966 18.01C8.06806 18.0716 8.01086 18.1288 7.94925 18.186C9.63013 18.186 11.3154 18.186 12.9963 18.186C13.2339 18.186 13.4715 18.186 13.7091 18.186C13.6475 18.1244 13.5903 18.0672 13.5331 18.01C13.5331 18.4852 13.5331 18.9604 13.5331 19.4401C13.5287 19.6645 13.8851 19.6645 13.8851 19.4357Z" fill="black"/>
<path d="M17.2251 1.96241C17.2647 1.39039 17.2955 0.813963 17.2955 0.237537C17.2955 0.140733 17.2119 0.0571289 17.1195 0.0571289C15.9314 0.0571289 14.7434 0.0571289 13.5553 0.0571289C11.5356 0.0571289 9.51594 0.0571289 7.49625 0.0571289C6.99903 0.0571289 6.5018 0.0571289 6.00898 0.0571289C6.07059 0.114331 6.12779 0.175934 6.18939 0.237537C6.18939 0.140733 6.10579 0.0571289 6.00898 0.0571289C5.52056 0.0571289 5.02774 0.0571289 4.53932 0.0571289C4.44251 0.0571289 4.35891 0.140733 4.35891 0.237537C4.35891 0.813963 4.39411 1.39039 4.42931 1.96241C4.50411 1.90521 4.57892 1.84801 4.65372 1.79081C3.32486 1.23198 1.23037 0.97677 0.385529 2.44204C0.0115124 3.09327 -0.0192889 3.8677 0.00711226 4.59813C0.0379136 5.55738 0.200721 6.52102 0.530736 7.42306C1.04116 8.83552 1.9432 10.0764 3.13565 10.9872C4.38531 11.9421 6.08819 12.5273 7.67226 12.2369C7.61505 12.2193 7.55785 12.2061 7.50065 12.1929C7.87027 12.6065 8.28829 12.9673 8.76791 13.2489C9.24313 13.5261 9.52474 13.9794 9.53794 14.5338C9.59954 14.4722 9.65675 14.415 9.71835 14.3578C9.20353 14.3578 8.75471 14.7538 8.75471 15.2818C8.75911 15.8142 9.19913 16.2059 9.71835 16.2059C9.65675 16.1443 9.59954 16.087 9.53794 16.0298C9.53794 16.6899 9.53794 17.3499 9.53794 18.0099C9.53794 18.1067 9.62154 18.1859 9.71835 18.1859C10.462 18.1859 11.2056 18.1859 11.9536 18.1859C12.0505 18.1859 12.1297 18.1023 12.1297 18.0099C12.1297 17.3499 12.1297 16.6899 12.1297 16.0298C12.0681 16.0914 12.0109 16.1487 11.9536 16.2059C12.4685 16.2059 12.9173 15.8098 12.9173 15.2818C12.9173 14.7494 12.4729 14.3578 11.9536 14.3578C12.0153 14.4194 12.0725 14.4766 12.1297 14.5338C12.1429 13.9794 12.4245 13.5261 12.8997 13.2489C13.3837 12.9673 13.8017 12.6065 14.1757 12.1885C14.0921 12.1049 14.0085 12.0213 13.9249 11.9377C13.8941 11.9773 13.8677 12.0169 13.8677 12.0697C13.8677 12.1401 13.9205 12.2281 13.9997 12.2413C15.4342 12.5053 17.0139 12.0433 18.1931 11.238C19.39 10.424 20.3448 9.27554 20.9257 7.94668C21.2997 7.09305 21.5197 6.191 21.6121 5.26696C21.6957 4.44413 21.7397 3.53329 21.4273 2.75005C21.0225 1.7468 20.0544 1.33319 19.0248 1.35959C18.5407 1.37279 18.0523 1.46079 17.5859 1.5972C17.3879 1.6544 17.0975 1.7028 16.9303 1.83921C16.7543 1.98442 17.0051 2.23523 17.1811 2.09002C17.0535 2.19563 17.1547 2.11202 17.2295 2.08562C17.3395 2.04602 17.4495 2.00642 17.5595 1.97562C17.9115 1.86561 18.2723 1.78201 18.642 1.7424C19.5 1.65 20.468 1.78201 20.9477 2.58724C21.3173 3.19887 21.3261 3.9469 21.2997 4.64213C21.2645 5.55738 21.1017 6.46822 20.7892 7.33066C20.3096 8.65071 19.4604 9.82557 18.3515 10.6836C17.1855 11.5856 15.553 12.1665 14.0921 11.8981C14.1361 11.9553 14.1801 12.0125 14.2242 12.0697C14.2066 12.1137 14.189 12.1533 14.1713 12.1973L14.1757 12.1929C14.321 12.0213 14.0789 11.7661 13.9249 11.9421C13.7137 12.1797 13.4849 12.4085 13.2341 12.6065C12.9877 12.8001 12.6973 12.9365 12.4509 13.1301C12.0197 13.4733 11.7908 13.9926 11.7776 14.5382C11.7776 14.635 11.8612 14.7142 11.9536 14.7142C12.2793 14.7142 12.5609 14.943 12.5609 15.2818C12.5609 15.6206 12.2793 15.8494 11.9536 15.8494C11.8568 15.8494 11.7776 15.933 11.7776 16.0254C11.7776 16.6855 11.7776 17.3455 11.7776 18.0055C11.8392 17.9439 11.8964 17.8867 11.9536 17.8295C11.21 17.8295 10.4664 17.8295 9.72275 17.8295C9.78435 17.8911 9.84155 17.9483 9.90316 18.0055C9.90316 17.3455 9.90316 16.6855 9.90316 16.0254C9.90316 15.9286 9.81955 15.8494 9.72275 15.8494C9.39713 15.8494 9.11552 15.6206 9.11552 15.2818C9.11552 14.943 9.39713 14.7142 9.72275 14.7142C9.81955 14.7142 9.90316 14.6306 9.90316 14.5382C9.89436 14.063 9.71835 13.6053 9.38393 13.2665C9.20793 13.0905 9.00112 12.9805 8.79431 12.8485C8.5435 12.6901 8.31029 12.5009 8.09468 12.2985C7.94947 12.1577 7.80866 11.8893 7.58865 11.9025C7.53585 11.9069 7.51825 11.9113 7.47865 11.9201C7.17503 11.9553 6.86702 11.9553 6.56341 11.9377C4.78573 11.8277 3.21926 10.8596 2.11041 9.49995C0.860751 7.98188 0.323927 6.0282 0.354728 4.10091C0.363528 3.44968 0.486734 2.73685 0.966355 2.25723C1.31837 1.90521 1.81119 1.7512 2.29962 1.7204C3.05205 1.672 3.85729 1.84361 4.55692 2.13402C4.66252 2.17802 4.79013 2.06802 4.78133 1.96241C4.74172 1.39039 4.71092 0.813963 4.71092 0.237537C4.65372 0.29914 4.59212 0.356342 4.53052 0.417945C5.01894 0.417945 5.51176 0.417945 6.00018 0.417945C5.93858 0.356342 5.88138 0.29914 5.81977 0.237537C5.81977 0.334341 5.90338 0.417945 6.00018 0.417945C7.33344 0.417945 8.6711 0.417945 10.0044 0.417945C11.848 0.417945 13.6917 0.417945 15.5354 0.417945C16.059 0.417945 16.5871 0.417945 17.1107 0.417945C17.0491 0.356342 16.9919 0.29914 16.9347 0.237537C16.9347 0.813963 16.8995 1.39039 16.8643 1.96241C16.8511 2.19122 17.2075 2.19122 17.2251 1.96241Z" fill="black"/>
<path d="M16.9745 3.48938C17.8281 3.18577 19.6762 2.62694 20.0018 3.9118C20.1163 4.36942 20.0194 4.86224 19.9314 5.31546C19.8302 5.85229 19.685 6.38471 19.4914 6.89513C19.157 7.77957 18.651 8.61121 17.969 9.27564C17.1461 10.0721 16.1297 10.5121 14.9768 10.4945C15.0296 10.5825 15.078 10.6749 15.1308 10.7629C15.7029 9.69366 16.0241 8.48801 16.3145 7.31755C16.5829 6.2307 16.8029 5.13065 16.9877 4.02621C17.0273 3.8062 17.0625 3.58179 17.0933 3.36178C17.1285 3.13737 16.7809 3.04056 16.7501 3.26497C16.4773 5.12185 16.0989 6.98754 15.54 8.77842C15.3464 9.39445 15.1308 10.0105 14.8228 10.5825C14.7568 10.7013 14.8404 10.8509 14.9768 10.8509C16.0945 10.8685 17.1153 10.4901 17.9602 9.75966C18.7346 9.09523 19.311 8.22399 19.707 7.29115C19.9446 6.73673 20.1163 6.1559 20.2395 5.56187C20.3451 5.05585 20.4507 4.51903 20.3759 3.9998C20.2747 3.29577 19.7686 2.86015 19.0778 2.77215C18.3386 2.67974 17.5641 2.89095 16.8733 3.13737C16.6665 3.22097 16.7589 3.56418 16.9745 3.48938Z" fill="black"/>
<path d="M4.49564 9.92688C3.09637 9.02044 2.25594 7.51117 1.85552 5.9227C1.73231 5.45628 1.62671 4.96785 1.60471 4.48823C1.59151 4.18902 1.61791 3.87221 1.77192 3.60819C2.02713 3.18137 2.55515 3.09777 3.01277 3.11537C3.5848 3.13737 4.14802 3.29578 4.68045 3.48939C4.63644 3.43219 4.59244 3.37498 4.54844 3.31778C4.82125 5.85669 5.29647 8.49681 6.51533 10.7673C6.56813 10.6793 6.61653 10.5869 6.66934 10.4989C5.9037 10.5077 5.14687 10.3361 4.49564 9.92688C4.30203 9.80367 4.12162 10.1117 4.31523 10.2349C5.01926 10.6749 5.8465 10.8685 6.66934 10.8553C6.80574 10.8509 6.88935 10.7057 6.82334 10.5869C5.63529 8.37361 5.16887 5.79069 4.90486 3.31778C4.89606 3.23418 4.85645 3.17697 4.77285 3.14617C3.86641 2.82056 2.35274 2.38054 1.60031 3.24298C1.08548 3.837 1.23949 4.71704 1.3759 5.41667C1.56071 6.38912 1.88192 7.34396 2.38354 8.1976C2.86316 9.01604 3.51439 9.72447 4.31523 10.2437C4.50884 10.3581 4.68485 10.0501 4.49564 9.92688Z" fill="black"/>
<path d="M15.3987 10.8071C15.6275 10.8071 15.6275 10.4507 15.3987 10.4507C15.1698 10.4507 15.1698 10.8071 15.3987 10.8071Z" fill="black"/>
</svg>
