<svg width="21" height="22" viewBox="0 0 21 22" fill="none" xmlns="http://www.w3.org/2000/svg">
<path d="M20.7608 8.75614C21.0775 9.0729 21.0775 9.59203 20.7608 9.90879L10.5453 20.1287C8.31921 22.3548 4.69849 22.4251 2.45038 20.221C0.197874 18.0037 0.162679 14.383 2.37999 12.1261C2.38879 12.1173 2.40199 12.1041 2.41078 12.0953L8.33241 6.17368L10.5761 3.92997L13.251 1.25512C13.5765 0.925164 14.1045 0.925164 14.4344 1.25072C14.7644 1.57628 14.7644 2.10421 14.4388 2.43417L14.4344 2.43857L12.833 4.03996C12.5207 4.35232 12.5207 4.85825 12.833 5.17061C13.1454 5.48297 13.6513 5.48297 13.9593 5.17061L18.7107 0.41923C19.0362 0.0936731 19.5641 0.0892736 19.8941 0.414831C20.2241 0.740388 20.2241 1.26832 19.8985 1.59828L19.8941 1.60268L12.3843 9.09929C12.0719 9.41165 12.0719 9.91759 12.3843 10.2255C12.6966 10.5335 13.2026 10.5379 13.5105 10.2255L15.5035 8.23261C15.8334 7.90705 16.3614 7.91145 16.6869 8.23701C17.0081 8.56256 17.0081 9.0861 16.6869 9.41165L12.7714 13.3271C12.4591 13.6395 12.4591 14.141 12.767 14.4578C13.0794 14.7702 13.5809 14.7702 13.8977 14.4622L13.9021 14.4578L19.6037 8.75614C19.9249 8.43938 20.4396 8.43938 20.7608 8.75614Z" fill="#F16953"/>
<path d="M9.73565 6.86532C9.59046 6.86532 9.47168 6.74653 9.47168 6.60135C9.47168 6.53096 9.49808 6.46497 9.55087 6.41218L9.97321 5.98983C10.0788 5.88425 10.246 5.88425 10.3472 5.98983C10.4528 6.09542 10.4528 6.2626 10.3472 6.36379L9.92482 6.78613C9.87643 6.83452 9.80604 6.86532 9.73565 6.86532Z" fill="white"/>
<path d="M6.31768 10.2832C6.1725 10.2832 6.05371 10.1645 6.05371 10.0193C6.05371 9.94888 6.08011 9.88289 6.1329 9.8301L8.64057 7.32242C8.74176 7.21684 8.90894 7.21684 9.01452 7.31802C9.12011 7.41921 9.12011 7.58639 9.01892 7.69198L9.01452 7.69637L6.50685 10.204C6.45406 10.2568 6.38807 10.2832 6.31768 10.2832Z" fill="white"/>
<path d="M5.40655 11.1944C5.33616 11.1944 5.27017 11.168 5.21737 11.1153C5.20417 11.1021 5.19538 11.0889 5.18218 11.0757C5.17338 11.0625 5.16458 11.0449 5.15578 11.0273C5.15138 11.0097 5.14258 10.9965 5.14258 10.9789C5.14258 10.9613 5.13818 10.9437 5.13818 10.9261C5.13818 10.7809 5.25697 10.6621 5.40215 10.6621C5.54733 10.6621 5.66611 10.7809 5.66611 10.9261C5.66611 10.9437 5.66611 10.9613 5.66171 10.9789C5.65732 10.9965 5.65292 11.0141 5.64852 11.0273C5.64412 11.0449 5.63532 11.0581 5.62212 11.0757C5.61332 11.0889 5.60012 11.1021 5.58692 11.1153C5.54733 11.1636 5.47694 11.1944 5.40655 11.1944Z" fill="white"/>
<path d="M10.5755 11.6957C10.4303 11.6957 10.3115 11.577 10.3115 11.4318C10.3115 11.3614 10.3379 11.2954 10.3907 11.2426L11.0594 10.5783C11.1606 10.4727 11.3278 10.4727 11.4334 10.5739C11.539 10.6751 11.539 10.8422 11.4378 10.9478C11.4378 10.9478 11.4378 10.9522 11.4334 10.9522L10.7603 11.6165C10.7119 11.6649 10.6459 11.6957 10.5755 11.6957Z" fill="white"/>
<path d="M9.89824 12.3732C9.75306 12.3732 9.63428 12.2544 9.63428 12.1093C9.63428 12.0389 9.66067 11.9729 9.71347 11.9201L9.72227 11.9113C9.82785 11.8101 9.99503 11.8101 10.0962 11.9157C10.1974 12.0213 10.1974 12.1841 10.0962 12.2852L10.0874 12.294C10.0346 12.3424 9.96863 12.3732 9.89824 12.3732Z" fill="white"/>
<path d="M12.2737 7.07629C12.1286 7.07629 12.0098 6.9575 12.0098 6.81232C12.0098 6.74193 12.0362 6.67594 12.089 6.62314L12.0978 6.61435C12.2033 6.50876 12.3705 6.50876 12.4717 6.61435C12.5729 6.71993 12.5773 6.88711 12.4717 6.9883L12.4629 6.9971C12.4145 7.04989 12.3441 7.07629 12.2737 7.07629Z" fill="white"/>
<path d="M8.45098 10.9034C8.3058 10.9034 8.18701 10.7846 8.18701 10.6394C8.18701 10.569 8.21341 10.503 8.2662 10.4502L11.2402 7.47623C11.3458 7.37504 11.513 7.37504 11.6142 7.48063C11.7153 7.58181 11.7153 7.74899 11.6142 7.85018L8.63575 10.8242C8.58736 10.8726 8.52137 10.9034 8.45098 10.9034Z" fill="white"/>
<path d="M12.3929 16.5441C12.2477 16.5441 12.1289 16.4253 12.1289 16.2801C12.1289 16.2097 12.1553 16.1437 12.2081 16.0909L12.5996 15.6994C12.7008 15.5938 12.868 15.5938 12.9736 15.695C13.0792 15.7962 13.0792 15.9633 12.978 16.0689L12.9736 16.0733L12.582 16.4649C12.5293 16.5177 12.4633 16.5441 12.3929 16.5441Z" fill="white"/>
<path d="M11.7415 17.195C11.5963 17.195 11.4775 17.0762 11.4775 16.931C11.4775 16.8606 11.5039 16.7946 11.5567 16.7418L11.5787 16.7198C11.6843 16.6142 11.8515 16.6142 11.9527 16.7198C12.0583 16.8254 12.0583 16.9926 11.9527 17.0938L11.9307 17.1158C11.8779 17.1642 11.8119 17.195 11.7415 17.195Z" fill="white"/>
<path d="M6.44912 20.4368C8.8254 20.4368 10.7518 18.5105 10.7518 16.1342C10.7518 13.7579 8.8254 11.8315 6.44912 11.8315C4.07284 11.8315 2.14648 13.7579 2.14648 16.1342C2.14648 18.5105 4.07284 20.4368 6.44912 20.4368Z" fill="#FCC659"/>
<path d="M20.0655 8.87539C20.3383 9.17015 20.2943 9.5661 20.0215 9.83887C19.9247 9.93565 19.8279 10.0324 19.7311 10.1292C19.3176 10.5428 18.9085 10.9519 18.4949 11.3655C17.1795 12.6809 15.864 13.9963 14.5486 15.3118C13.3124 16.548 12.0805 17.7798 10.8443 19.0161C10.5407 19.3196 10.2372 19.6232 9.92923 19.9311C9.26491 20.5955 8.48182 21.1146 7.57993 21.4006C6.22491 21.8361 4.72031 21.7525 3.43568 21.1322C2.12465 20.4987 1.09518 19.346 0.620044 17.969C0.158104 16.6228 0.219696 15.1138 0.818018 13.8247C1.15677 13.0944 1.65391 12.5005 2.21704 11.9418C3.44007 10.7188 4.66751 9.49131 5.89495 8.26387C6.66925 7.48957 7.43915 6.71968 8.20905 5.94978C9.19892 4.95991 10.1888 3.97003 11.1787 2.98016C11.7066 2.45223 12.2257 1.89791 12.7713 1.38757C12.9868 1.1852 13.2904 1.11481 13.5631 1.25559C13.9063 1.43157 14.0295 1.88471 13.8183 2.21026C13.6467 2.47423 13.3608 2.6898 13.1408 2.90977C12.8328 3.21773 12.5205 3.53009 12.2125 3.83805C11.8694 4.18121 11.711 4.66514 11.9838 5.11388C12.3137 5.65061 13.044 5.70781 13.4884 5.28986C13.6071 5.17988 13.7171 5.06109 13.8315 4.94671C15.0854 3.69287 16.3348 2.44343 17.5886 1.1896C17.9714 0.806849 18.5653 -0.0202431 19.1636 0.512087C19.4892 0.802449 19.4188 1.25119 19.1372 1.53275C19.0184 1.65154 18.8997 1.77032 18.7809 1.89351C17.5886 3.08575 16.392 4.28239 15.1997 5.47464C14.0955 6.57889 12.9912 7.68755 11.8826 8.7918C11.8166 8.8578 11.7462 8.92379 11.6802 8.99418C11.2315 9.47371 11.3458 10.2744 11.9662 10.5516C12.4149 10.7539 12.8328 10.5692 13.154 10.248C13.4488 9.95325 13.7479 9.65409 14.0427 9.35933C14.3374 9.06457 14.6322 8.76981 14.927 8.47505C15.015 8.39146 15.0942 8.29907 15.2041 8.24188C15.5693 8.0527 16.0312 8.24627 16.15 8.64222C16.2644 9.00738 16.0444 9.25374 15.8113 9.48251C15.5737 9.72008 15.3361 9.95765 15.0985 10.1952C14.4166 10.8771 13.7347 11.559 13.0528 12.241C12.7977 12.4961 12.5425 12.7513 12.2873 13.0065C12.1201 13.1736 11.9442 13.3276 11.8562 13.5476C11.5966 14.1899 12.1113 14.9114 12.8064 14.8674C13.1056 14.8498 13.33 14.6914 13.528 14.4891C13.9723 14.0447 14.4166 13.6004 14.861 13.156C16.1324 11.8846 17.4082 10.6088 18.6797 9.33733C18.8161 9.20095 18.9524 9.06457 19.0888 8.92819C19.1372 8.87979 19.1856 8.827 19.2472 8.7918C19.3968 8.69942 19.586 8.66862 19.7575 8.71261C19.8631 8.73901 19.9423 8.7962 20.0303 8.8622C20.0743 8.89299 20.1139 8.94138 20.1711 8.93259C20.3823 8.90619 20.3823 8.57623 20.1711 8.60263C20.2107 8.62023 20.2503 8.63342 20.2899 8.65102C19.8807 8.27267 19.2912 8.28147 18.8865 8.66422C18.7633 8.783 18.6445 8.90619 18.5257 9.02497C17.9538 9.5969 17.3819 10.1688 16.8099 10.7407C15.6441 11.9066 14.4738 13.0768 13.308 14.2427C13.0792 14.4715 12.7977 14.6298 12.4677 14.4671C12.1113 14.2867 12.0146 13.8071 12.2653 13.4992C12.3049 13.4508 12.3489 13.4112 12.3929 13.3672C12.934 12.8261 13.4752 12.2849 14.0163 11.7438C14.6498 11.1103 15.2877 10.4724 15.9212 9.83887C16.0576 9.70249 16.2204 9.5661 16.3348 9.40332C16.7483 8.8138 16.392 7.96031 15.6793 7.84153C15.2393 7.77114 14.927 8.00431 14.6366 8.29027C14.3155 8.61143 13.9943 8.93259 13.6731 9.25374C13.4048 9.52211 13.1364 9.79487 12.8636 10.0632C12.7097 10.2172 12.5293 10.3184 12.3005 10.292C11.9002 10.2524 11.6318 9.83007 11.7726 9.44732C11.8298 9.28454 11.9574 9.17455 12.0761 9.06017C12.2433 8.89299 12.4105 8.72581 12.5821 8.55423C13.154 7.98231 13.7259 7.41039 14.2979 6.83406C15.6485 5.48344 16.9991 4.13281 18.3497 2.78219C18.6929 2.43904 19.036 2.09588 19.3792 1.75272C19.6256 1.50636 19.7663 1.1896 19.7047 0.833245C19.5904 0.142536 18.7765 -0.227016 18.1869 0.151334C18.0286 0.252521 17.901 0.402102 17.769 0.534084C17.527 0.776053 17.2851 1.01802 17.0431 1.25999C16.3656 1.9507 15.6749 2.64141 14.9798 3.33212C14.4562 3.85565 13.9283 4.38358 13.4048 4.90711C13.1716 5.14028 12.8856 5.33826 12.5381 5.16228C12.1641 4.9731 12.0849 4.48477 12.3533 4.17241C12.4193 4.09322 12.5029 4.02283 12.5733 3.94804C12.9076 3.61368 13.242 3.27933 13.5763 2.94497C13.8139 2.7074 14.1175 2.46983 14.2231 2.13547C14.4386 1.46676 13.8711 0.776053 13.176 0.842044C12.8152 0.87724 12.5865 1.10161 12.3489 1.33918C11.3634 2.32465 10.378 3.31012 9.3925 4.29559C8.55221 5.13588 7.71192 5.97617 6.87163 6.81646C5.543 8.14509 4.21437 9.47371 2.88575 10.8023C2.503 11.1851 2.12025 11.5634 1.7419 11.9462C0.897208 12.8041 0.303285 13.8951 0.092113 15.0874C-0.154255 16.4688 0.0965123 17.9162 0.809219 19.1261C1.54392 20.3711 2.73617 21.317 4.11759 21.7437C5.46381 22.1573 6.94202 22.0649 8.23545 21.5061C8.99215 21.1806 9.64326 20.6922 10.2196 20.1115C11.1435 19.1876 12.0673 18.2638 12.9956 17.3355C14.4034 15.9277 15.8113 14.5199 17.2147 13.112C18.1781 12.1486 19.146 11.1807 20.1095 10.2172C20.1711 10.1556 20.2327 10.0984 20.2943 10.0324C20.6726 9.63209 20.6726 9.04257 20.2987 8.63782C20.1535 8.48384 19.9203 8.71701 20.0655 8.87539Z" fill="black"/>
<path d="M10.0568 16.1341C10.0436 17.8542 8.96133 19.438 7.33355 20.0232C5.69256 20.6127 3.836 20.098 2.72295 18.7561C1.61869 17.4231 1.48671 15.4742 2.37979 13.9916C3.26848 12.5177 5.03705 11.7346 6.73082 12.0734C8.64897 12.465 10.0392 14.1851 10.0568 16.1341C10.0568 16.3496 10.3911 16.3496 10.3867 16.1341C10.3735 14.2687 9.1989 12.5793 7.44793 11.9326C5.68376 11.2859 3.62923 11.8534 2.45018 13.3184C1.28434 14.7659 1.12596 16.8424 2.08943 18.4394C3.0617 20.0452 4.97545 20.8811 6.81441 20.5115C8.87774 20.098 10.3691 18.2238 10.3867 16.1341C10.3867 15.9229 10.0568 15.9229 10.0568 16.1341Z" fill="black"/>
</svg>
