<svg width="22" height="16" viewBox="0 0 22 16" fill="none" xmlns="http://www.w3.org/2000/svg">
<path d="M21.6303 11.1463C21.8547 10.9923 21.9999 10.7327 21.9999 10.4423C21.9999 10.1343 21.8371 9.86594 21.5951 9.71194C21.5951 8.54154 21.5951 7.36674 21.5951 6.19634C21.5951 5.61554 20.6931 5.61554 20.6931 6.19634C20.6931 7.36674 20.6931 8.54154 20.6931 9.71194C20.4511 9.86154 20.2883 10.1343 20.2883 10.4423C20.2883 10.7371 20.4335 10.9923 20.6579 11.1463L20.3499 12.5103C20.2883 12.7919 20.4995 13.0603 20.7899 13.0603H21.4983C21.7887 13.0603 22.0043 12.7919 21.9383 12.5103L21.6303 11.1463Z" fill="#F16953"/>
<path d="M10.8852 12.5409C10.6608 12.5409 10.432 12.4881 10.2296 12.3913L5.05957 9.91409V12.4265C5.05957 12.4309 5.05957 12.4353 5.05957 12.4441C5.05957 14.0281 7.67757 15.3129 10.9116 15.3129C14.1456 15.3129 16.7636 14.0281 16.7636 12.4441C16.7636 12.4397 16.7636 12.4353 16.7636 12.4265V9.89209L11.5452 12.3869C11.3384 12.4881 11.1096 12.5409 10.8852 12.5409Z" fill="#9BE2DE"/>
<path d="M10.6216 11.5777L0.519233 6.74212C0.0528337 6.51772 0.0528337 5.85772 0.519233 5.63772L10.6216 0.762525C10.7888 0.683325 10.9868 0.683325 11.154 0.762525L21.2564 5.63772C21.7184 5.86212 21.7184 6.52212 21.2564 6.74212L11.1496 11.5777C10.9824 11.6569 10.7888 11.6569 10.6216 11.5777Z" fill="#9BE2DE"/>
<path d="M10.8858 11.8282C10.525 11.8194 10.2434 11.6654 9.931 11.5158C9.535 11.3266 9.139 11.1374 8.743 10.9482C7.775 10.4862 6.8114 10.0242 5.8434 9.56221C5.6102 9.45221 5.377 9.34221 5.1482 9.22781C5.0338 9.17501 4.893 9.23661 4.893 9.37301C4.893 10.209 4.893 11.0494 4.893 11.8854C4.893 11.9778 4.9722 12.057 5.0602 12.057C5.003 11.9998 4.9458 11.9426 4.893 11.8854C4.8754 12.629 5.4078 13.2406 5.9754 13.6498C6.7938 14.2438 7.8146 14.565 8.8002 14.7498C10.0454 14.9786 11.3302 15.0006 12.5842 14.8202C13.6226 14.6706 14.683 14.3846 15.5806 13.8302C16.2538 13.4122 16.9534 12.7434 16.927 11.8854C16.8698 11.9426 16.8126 11.9998 16.7554 12.057C16.8478 12.057 16.927 11.9778 16.927 11.8854C16.927 11.0406 16.927 10.1958 16.927 9.35101C16.927 9.21461 16.7862 9.15301 16.6718 9.20581C15.101 9.95821 13.5258 10.7106 11.955 11.463C11.6118 11.6302 11.2862 11.8194 10.8858 11.8282C10.6702 11.8326 10.6658 12.1714 10.8858 12.167C11.2818 12.1582 11.603 12.0086 11.9462 11.8414C12.3466 11.6478 12.7514 11.4586 13.1518 11.265C14.1418 10.7898 15.1362 10.3146 16.1262 9.84381C16.3682 9.72941 16.6058 9.61501 16.8434 9.50061C16.7598 9.45221 16.6718 9.40381 16.5882 9.35541C16.5882 10.2002 16.5882 11.045 16.5882 11.8898C16.6454 11.8326 16.7026 11.7754 16.7598 11.7182C16.6718 11.7182 16.5882 11.7974 16.5882 11.8898C16.6058 12.563 16.0646 13.1042 15.5454 13.4518C14.749 13.9842 13.7942 14.2702 12.857 14.4374C11.6954 14.6442 10.4898 14.6574 9.3238 14.4946C8.3646 14.3582 7.3966 14.103 6.5518 13.6234C5.9314 13.267 5.2054 12.6774 5.2274 11.8854C5.2318 11.793 5.1482 11.7138 5.0602 11.7138C5.1174 11.771 5.1746 11.8282 5.2274 11.8854C5.2274 11.0494 5.2274 10.209 5.2274 9.37301C5.1438 9.42141 5.0558 9.46981 4.9722 9.51821C6.5562 10.275 8.1402 11.0318 9.7242 11.793C10.1026 11.9734 10.4502 12.1538 10.8858 12.167C11.1058 12.1714 11.1058 11.8326 10.8858 11.8282Z" fill="black"/>
<path d="M10.7052 10.8866C9.504 10.3102 8.3028 9.73824 7.1016 9.16184C5.2624 8.28184 3.42761 7.40625 1.59281 6.52625C1.34641 6.40745 1.09561 6.28865 0.84921 6.16985C0.72601 6.10825 0.55881 6.05545 0.462011 5.95425C0.237611 5.72545 0.338811 5.37785 0.60281 5.23705C0.63361 5.21945 0.66441 5.20625 0.69961 5.19305C0.89321 5.10065 1.08681 5.00825 1.28041 4.91145C3.04041 4.06225 4.80041 3.21305 6.5648 2.36385C7.4624 1.93265 8.36 1.49705 9.2576 1.06585C9.724 0.841452 10.1904 0.595052 10.6656 0.388252C11.0088 0.238652 11.4004 0.529052 11.704 0.674252C12.4608 1.03945 13.2132 1.40025 13.97 1.76545C15.8664 2.68065 17.7628 3.59585 19.6636 4.51105C20.1476 4.74425 20.636 4.97745 21.12 5.21505C21.4764 5.39105 21.5644 5.84865 21.1728 6.05545C21.0672 6.11265 20.9572 6.16105 20.8472 6.20945C19.2236 6.98385 17.6 7.76264 15.9808 8.53704C14.4188 9.28504 12.8524 10.033 11.2904 10.781C11.0792 10.8822 10.9296 10.9702 10.6744 10.869C10.472 10.7854 10.384 11.1154 10.582 11.1946C11.0748 11.3926 11.682 10.9658 12.1176 10.759C12.9624 10.3542 13.8072 9.94944 14.6476 9.54904C16.5396 8.64264 18.436 7.73624 20.328 6.82985C20.5876 6.70665 20.8472 6.58345 21.1024 6.46025C21.2432 6.39425 21.3972 6.33265 21.5116 6.23145C21.934 5.85745 21.8064 5.19305 21.3268 4.94225C21.1904 4.87185 21.0496 4.80585 20.9088 4.73985C19.1708 3.90385 17.4372 3.06345 15.6992 2.22745C14.2384 1.52345 12.7776 0.806252 11.308 0.106653C11.044 -0.0165472 10.7888 -0.0429472 10.516 0.0802526C10.3708 0.146253 10.2256 0.221053 10.0848 0.287052C9.3544 0.639052 8.624 0.991052 7.8936 1.34745C5.94 2.29345 3.98641 3.23505 2.03281 4.17665C1.51801 4.42305 1.00321 4.66945 0.488411 4.92025C0.132011 5.09625 -0.0835889 5.46145 0.030811 5.86185C0.110011 6.14345 0.325611 6.29305 0.56761 6.41185C2.12521 7.15545 3.68281 7.90344 5.24041 8.64704C6.908 9.44784 8.58 10.2442 10.2476 11.045C10.3444 11.089 10.4412 11.1374 10.5336 11.1814C10.7316 11.2738 10.9032 10.9834 10.7052 10.8866Z" fill="black"/>
</svg>
