<svg width="19" height="22" viewBox="0 0 19 22" fill="none" xmlns="http://www.w3.org/2000/svg">
<path d="M10.4064 0.713595L12.8043 5.56659L18.1633 6.34535C18.8761 6.45095 19.1621 7.32651 18.6473 7.82809L14.771 11.6075L15.6818 16.9401C15.805 17.6529 15.057 18.194 14.4191 17.8597L9.62766 15.343L4.83187 17.8597C4.19389 18.194 3.44593 17.6529 3.56912 16.9401L4.48428 11.6075L0.608048 7.82809C0.0888707 7.32651 0.374858 6.44655 1.09203 6.34535L6.451 5.56659L8.84889 0.713595C9.16568 0.0668226 10.0896 0.0668226 10.4064 0.713595Z" fill="#FCC659"/>
<path d="M4.90703 3.3228L2.93151 0.203338C2.78192 -0.0342521 2.44753 -0.0694505 2.24954 0.128541L1.10559 1.27249C0.9076 1.47048 0.942799 1.80487 1.18039 1.95446L4.29985 3.92558C4.69584 4.18077 5.15782 3.71879 4.90703 3.3228Z" fill="#FCC659"/>
<path d="M14.349 3.3228L16.3201 0.207732C16.4697 -0.0298575 16.8041 -0.065056 17.0021 0.132935L18.146 1.27689C18.344 1.47488 18.3088 1.80926 18.0712 1.95886L14.9518 3.92997C14.5558 4.18076 14.0982 3.71878 14.349 3.3228Z" fill="#FCC659"/>
<path d="M10.0547 17.8642L10.8643 21.4632C10.9259 21.736 10.7147 22 10.4331 22H8.81399C8.53241 22 8.32122 21.7404 8.38281 21.4632L9.19238 17.8642C9.30237 17.4066 9.95355 17.4066 10.0547 17.8642Z" fill="#FCC659"/>
<path d="M10.0898 1.5892C10.5298 2.48236 10.9741 3.37552 11.4141 4.27308C11.6869 4.82746 11.9641 5.38184 12.2369 5.94061C12.3205 6.11221 12.4129 6.47299 12.6197 6.52579C13.0069 6.62698 13.438 6.64458 13.834 6.70178C14.5248 6.80298 15.22 6.90417 15.9107 7.00537C16.4783 7.08896 17.0459 7.17256 17.6135 7.25176C17.7235 7.26936 17.8291 7.27815 17.939 7.30015C18.3086 7.36175 18.5902 7.65214 18.5726 8.03932C18.555 8.41771 18.1634 8.69489 17.9126 8.94128C17.4639 9.38126 17.0107 9.82125 16.5575 10.2612C16.0779 10.7276 15.6027 11.1896 15.1232 11.656C14.9604 11.8144 14.802 11.9684 14.6392 12.1267C14.5776 12.1883 14.4588 12.2719 14.4324 12.3599C14.4104 12.4435 14.4544 12.5755 14.4676 12.6547C14.5028 12.8703 14.5424 13.0859 14.5776 13.3059C14.6876 13.9615 14.802 14.6126 14.912 15.2682C15.0176 15.893 15.1276 16.5178 15.2332 17.1425C15.2948 17.4989 15.4532 17.9609 15.2288 18.2865C15.0176 18.5945 14.626 18.6693 14.3048 18.5065C14.1904 18.4493 14.0804 18.3877 13.966 18.3305C13.4336 18.0533 12.9057 17.7717 12.3733 17.4945C11.7661 17.1777 11.1589 16.8565 10.5518 16.5354C10.2218 16.3638 9.8918 16.1526 9.54861 16.0074C9.33742 15.9194 8.99424 16.1966 8.81824 16.289C8.25947 16.5838 7.70069 16.8741 7.14631 17.1689C6.55674 17.4769 5.96716 17.7893 5.37319 18.0973C5.0784 18.2513 4.77042 18.4713 4.44923 18.5681C3.99605 18.7089 3.52087 18.3349 3.54287 17.8597C3.54727 17.7541 3.57367 17.6441 3.59127 17.5429C3.68366 17.0149 3.77166 16.4826 3.86406 15.9546C4.05765 14.8194 4.25564 13.6799 4.44923 12.5447C4.46683 12.4435 4.48003 12.3687 4.40523 12.2807C4.32604 12.1839 4.22044 12.1003 4.13244 12.0124C3.70126 11.5944 3.27448 11.1764 2.8433 10.7584C2.08213 10.0148 1.29897 9.29327 0.555398 8.5321C0.317809 8.28571 0.251811 7.93373 0.441003 7.63454C0.572998 7.42335 0.784188 7.33975 1.01738 7.30455C1.44856 7.23856 1.88414 7.17696 2.31532 7.11536C3.55607 6.93497 4.80122 6.75458 6.04196 6.57418C6.12116 6.56099 6.23115 6.56539 6.31035 6.53459C6.41595 6.49499 6.44674 6.38059 6.49514 6.2838C6.72393 5.82182 6.95272 5.35984 7.18151 4.89786C7.70509 3.8375 8.22867 2.77715 8.75224 1.71679C8.82704 1.5628 8.90624 1.41761 9.05143 1.31641C9.42102 1.05682 9.8918 1.21522 10.0898 1.5892C10.191 1.77839 10.4726 1.6112 10.3758 1.42201C10.0062 0.722437 8.98983 0.66084 8.56745 1.35161C8.41786 1.5936 8.31226 1.86199 8.18467 2.11718C7.64789 3.20393 7.11112 4.29068 6.57434 5.37304C6.42475 5.67222 6.27515 5.97581 6.12996 6.275C6.16516 6.2486 6.19595 6.2266 6.22675 6.2002C4.51083 6.45099 2.7949 6.69738 1.07458 6.94817C0.696192 7.00097 0.348607 7.11536 0.141816 7.47175C-0.122172 7.92053 0.00102223 8.43531 0.357407 8.78289C0.995379 9.41206 1.63775 10.0324 2.28012 10.6572C2.9137 11.2776 3.55167 11.898 4.18964 12.5139C4.17644 12.4611 4.16324 12.4083 4.14564 12.3555C3.85526 14.0583 3.56047 15.761 3.27008 17.4637C3.20408 17.8465 3.18209 18.2161 3.45047 18.5417C3.79806 18.9597 4.34364 18.9993 4.80122 18.7573C5.59758 18.3437 6.39395 17.9213 7.19031 17.5033C7.96908 17.0941 8.74784 16.685 9.53101 16.2758C9.47381 16.2758 9.42102 16.2758 9.36382 16.2758C10.895 17.0809 12.4261 17.8817 13.9528 18.6869C14.3004 18.8673 14.648 18.9993 15.0396 18.8365C15.5456 18.6253 15.7347 18.1237 15.6511 17.6133C15.5016 16.7289 15.3476 15.8402 15.1936 14.9558C15.044 14.0891 14.8944 13.2223 14.7492 12.3555C14.736 12.4083 14.7228 12.4611 14.7052 12.5139C15.9459 11.304 17.1911 10.094 18.4318 8.88409C18.7046 8.6157 18.9246 8.32531 18.8894 7.91613C18.8454 7.40575 18.4538 7.04496 17.961 6.97017C17.0767 6.83817 16.1879 6.71058 15.3036 6.58299C14.4236 6.45539 13.5436 6.3278 12.6681 6.2002C12.7033 6.2266 12.7341 6.2486 12.7649 6.275C12.0653 4.85826 11.3657 3.44592 10.6706 2.02918C10.5694 1.82679 10.4682 1.6244 10.3714 1.42201C10.279 1.22842 9.99299 1.39561 10.0898 1.5892Z" fill="black"/>
</svg>
