<svg width="23" height="22" viewBox="0 0 23 22" fill="none" xmlns="http://www.w3.org/2000/svg">
<path d="M10.3355 7.91064C10.4807 7.91064 10.6258 7.96343 10.7358 8.07781C10.9558 8.29777 10.9558 8.65409 10.7358 8.87405L7.72683 11.8786C7.50687 12.0986 7.15055 12.0986 6.93059 11.8786C6.71064 11.6587 6.71064 11.3023 6.93059 11.0824L9.93518 8.07781C10.0452 7.96343 10.1903 7.91064 10.3355 7.91064Z" fill="#9BE2DE"/>
<path d="M5.44389 12.8027C5.58906 12.8027 5.73423 12.8555 5.8442 12.9699C6.06416 13.1899 6.06416 13.5462 5.8442 13.7661L0.961203 18.6491C0.741248 18.8691 0.384921 18.8691 0.164966 18.6491C-0.0549887 18.4292 -0.0549887 18.0729 0.164966 17.8529L5.04797 12.9699C5.15355 12.8555 5.29872 12.8027 5.44389 12.8027Z" fill="#9BE2DE"/>
<path d="M12.4164 12.7629C12.3064 12.6529 12.1612 12.5957 12.0205 12.5957C11.8753 12.5957 11.7301 12.6485 11.6201 12.7629L8.24163 16.1458C8.02167 16.3657 8.02167 16.7221 8.24163 16.942C8.46158 17.162 8.81791 17.162 9.03786 16.942L12.4164 13.5635C12.6363 13.3392 12.6363 12.9828 12.4164 12.7629Z" fill="#9BE2DE"/>
<path d="M7.12836 17.4917C6.98319 17.4917 6.83802 17.5445 6.72805 17.6589L3.34954 21.0374C3.12958 21.2573 3.12958 21.6137 3.34954 21.8336C3.56949 22.0536 3.92582 22.0536 4.14577 21.8336L7.52428 18.4551C7.74424 18.2351 7.74424 17.8788 7.52428 17.6589C7.4143 17.5445 7.27353 17.4917 7.12836 17.4917Z" fill="#9BE2DE"/>
<path d="M4.05398 18.7371L8.55865 14.2281C8.77861 14.0081 8.77861 13.6518 8.55865 13.4318C8.44868 13.3218 8.30351 13.2646 8.15834 13.2646C8.08795 13.2646 8.01317 13.2778 7.94718 13.3042C7.88119 13.3306 7.81521 13.3746 7.76242 13.4274L3.25774 17.9409C3.03778 18.1608 3.03778 18.5172 3.25774 18.7371C3.47769 18.9571 3.83402 18.9571 4.05398 18.7371Z" fill="#9BE2DE"/>
<path d="M9.2755 12.7189C9.49546 12.9388 9.85179 12.9388 10.0717 12.7189L11.5762 11.2188C11.7962 10.9988 11.7962 10.6425 11.5762 10.4225C11.4663 10.3126 11.3211 10.2554 11.1759 10.2554C11.0307 10.2554 10.8856 10.3082 10.7756 10.4225L9.2755 11.9226C9.26231 11.9358 9.24911 11.949 9.24031 11.9622C9.24031 11.9622 9.24031 11.9622 9.23591 11.9666C9.05555 12.1866 9.06875 12.5121 9.2755 12.7189Z" fill="#9BE2DE"/>
<path d="M21.0341 2.39001L20.1235 5.08226L21.8215 7.36099C22.0459 7.66453 21.8259 8.09564 21.4476 8.09124L18.6058 8.05165L16.9649 10.37C16.745 10.6779 16.2699 10.6031 16.1555 10.2424L15.3108 7.52815L12.5966 6.68353C12.2359 6.56915 12.1611 6.09405 12.469 5.87409L14.7874 4.23323L14.7522 1.39141C14.7478 1.01309 15.1789 0.793134 15.4824 1.01749L17.7611 2.71554L20.4534 1.80933C20.8097 1.68615 21.1529 2.02928 21.0341 2.39001Z" fill="#9BE2DE"/>
<path d="M20.7969 1.56277C20.6341 2.04667 20.467 2.53057 20.3042 3.01447C20.1986 3.32681 20.093 3.63474 19.9875 3.94708C19.9479 4.07025 19.8379 4.25941 19.8995 4.38699C19.9787 4.54536 20.1238 4.69053 20.2294 4.8313C20.4406 5.11284 20.6517 5.39878 20.8629 5.68472C21.052 5.93987 21.2412 6.19502 21.4348 6.45017C21.5579 6.61293 21.7603 6.81089 21.6151 7.02205C21.4963 7.19361 21.2236 7.14522 21.0432 7.14522C20.7089 7.14083 20.3746 7.13643 20.0358 7.13203C19.6883 7.12763 19.3408 7.12323 18.9977 7.11883C18.8437 7.11883 18.6545 7.08364 18.505 7.11443C18.3598 7.14522 18.2454 7.38717 18.1706 7.49715C17.9771 7.7699 17.7835 8.04264 17.5899 8.31538C17.392 8.59693 17.194 8.87407 16.9961 9.15561C16.9037 9.28319 16.8113 9.48115 16.6793 9.57353C16.3978 9.76269 16.2526 9.46795 16.1822 9.24799C16.0943 8.96645 16.0063 8.68051 15.9183 8.39897C15.7467 7.84908 15.606 7.2728 15.3992 6.73611C15.342 6.59094 15.2144 6.57774 15.0781 6.53375C14.7877 6.44577 14.5018 6.35339 14.2114 6.2654C13.6704 6.09824 13.1073 5.96187 12.5794 5.75951C12.3022 5.65393 12.3154 5.36359 12.531 5.20522C12.7333 5.05565 12.9401 4.91488 13.1469 4.76971C13.666 4.40459 14.185 4.03506 14.7041 3.66994C14.8185 3.59075 14.8757 3.52477 14.8757 3.3796C14.8757 3.11125 14.8713 2.8473 14.8669 2.57896C14.8581 1.95429 14.8449 1.32961 14.8449 0.704943C14.8449 0.4234 15.0605 0.212244 15.3332 0.397006C15.5004 0.506983 15.6543 0.634557 15.8127 0.753333C16.345 1.15365 16.8817 1.54957 17.414 1.94989C17.524 2.02907 17.6075 2.13025 17.7527 2.09506C17.9639 2.04667 18.1706 1.95429 18.3774 1.8839C19.0021 1.67274 19.6223 1.46159 20.247 1.25043C20.2998 1.23283 20.357 1.21084 20.4142 1.19324C20.6561 1.12286 20.8629 1.30762 20.7969 1.56277C20.7397 1.76952 21.0608 1.85751 21.1136 1.65075C21.25 1.14485 20.8013 0.731337 20.313 0.876508C20.0446 0.955692 19.7807 1.05687 19.5168 1.14485C18.8921 1.35601 18.2674 1.56717 17.6427 1.77832C17.6867 1.78272 17.7263 1.78712 17.7703 1.79592C17.0357 1.24603 16.301 0.691746 15.562 0.146257C15.1221 -0.174877 14.5282 0.0582753 14.515 0.630158C14.5062 1.08766 14.5282 1.54957 14.5326 2.00708C14.537 2.48658 14.5458 2.97048 14.5502 3.44998C14.5766 3.40159 14.603 3.3532 14.6338 3.30921C13.8815 3.8415 13.1249 4.36939 12.377 4.90608C12.1967 5.03366 12.0559 5.18762 12.0427 5.42078C12.0207 5.72871 12.2186 5.96627 12.4958 6.06305C12.9313 6.21262 13.3756 6.33579 13.8199 6.47216C14.2774 6.61293 14.7393 6.7581 15.1968 6.89888C15.1572 6.85928 15.1177 6.81969 15.0825 6.7845C15.3552 7.66432 15.6236 8.54854 15.9051 9.42396C15.9711 9.63511 16.0811 9.81108 16.2966 9.89466C16.5826 10.0046 16.8685 9.89026 17.0489 9.65271C17.3216 9.28319 17.5811 8.90047 17.8495 8.52214C18.1266 8.13062 18.4038 7.7347 18.6809 7.34318C18.6325 7.36958 18.5841 7.39597 18.5402 7.42677C19.4596 7.43996 20.379 7.45756 21.2984 7.46196C21.5139 7.46196 21.7119 7.41797 21.8615 7.2464C22.0594 7.01765 22.0506 6.70531 21.8879 6.46776C21.6283 6.08944 21.338 5.72871 21.0652 5.36359C20.7793 4.97647 20.489 4.59375 20.203 4.20663C20.2074 4.25062 20.2118 4.29021 20.2206 4.3342C20.5241 3.43678 20.8277 2.53937 21.1312 1.64195C21.1796 1.44839 20.8629 1.36041 20.7969 1.56277Z" fill="black"/>
</svg>
