<svg width="22" height="22" viewBox="0 0 22 22" fill="none" xmlns="http://www.w3.org/2000/svg">
<path d="M13.1351 2.74296C13.1351 1.81475 12.3357 1.0625 11.3493 1.0625C10.3629 1.0625 9.56348 1.81475 9.56348 2.74296C9.56348 3.0069 9.62893 3.26205 9.7458 3.48201H12.9481C13.0697 3.26205 13.1351 3.0069 13.1351 2.74296Z" fill="#F16953"/>
<path d="M9.03935 2.74317C9.03935 2.13169 9.31049 1.5774 9.74059 1.18588L7.23015 0.0949068C6.51021 -0.21743 5.69678 0.279669 5.69678 1.02312V3.48222H9.18427C9.09077 3.25346 9.03935 3.00271 9.03935 2.74317Z" fill="#F16953"/>
<path d="M17.0853 1.02361C17.0853 0.280159 16.2671 -0.212541 15.5519 0.0997954L12.9854 1.20837C13.4014 1.60429 13.6632 2.14538 13.6632 2.74366C13.6632 3.0032 13.6165 3.25395 13.523 3.48271H17.0853V1.02361Z" fill="#F16953"/>
<path d="M20.9138 21.2679H1.86812C1.55957 21.2679 1.30713 21.0304 1.30713 20.74V10.1822C1.30713 9.89185 1.55957 9.6543 1.86812 9.6543H20.9184C21.227 9.6543 21.4794 9.89185 21.4794 10.1822V20.74C21.4748 21.0304 21.2223 21.2679 20.9138 21.2679Z" fill="#FCC659"/>
<path d="M13.565 9.6543H9.21729V21.2679H13.565V9.6543Z" fill="#F16953"/>
<path d="M21.4326 9.1132H1.34908C1.04053 9.1132 0.788086 8.87565 0.788086 8.58531V4.55133C0.788086 4.26099 1.04053 4.02344 1.34908 4.02344H21.4326C21.7411 4.02344 21.9935 4.26099 21.9935 4.55133V8.58531C21.9935 8.87565 21.7411 9.1132 21.4326 9.1132Z" fill="#FCC659"/>
<path d="M14.0927 4.02734H8.68848V9.11711H14.0927V4.02734Z" fill="#F16953"/>
<path d="M20.7876 9.47454C19.8058 9.47454 18.8194 9.47454 17.8377 9.47454C15.6545 9.47454 13.4713 9.47454 11.2881 9.47454C9.02547 9.47454 6.75813 9.47454 4.49546 9.47454C3.29868 9.47454 2.09723 9.49654 0.900448 9.47454C0.605927 9.47014 0.414256 9.30298 0.404906 9.02143C0.395556 8.66511 0.404906 8.30878 0.404906 7.95245C0.404906 7.04184 0.381531 6.12682 0.404906 5.21621C0.41893 4.68832 0.928497 4.7543 1.31184 4.7543C1.92893 4.7543 2.54602 4.7543 3.16311 4.7543C5.26683 4.7543 7.37522 4.7543 9.47893 4.7543C11.7883 4.7543 14.0931 4.7543 16.4025 4.7543C17.7909 4.7543 19.1794 4.7543 20.5725 4.7543C20.6427 4.7543 20.7175 4.7499 20.7876 4.7543C21.2925 4.7895 21.2177 5.269 21.2177 5.60773C21.2177 6.61072 21.2177 7.61812 21.2177 8.62112C21.2177 8.95545 21.2925 9.44815 20.7876 9.47454C20.5351 9.48774 20.5351 9.85726 20.7876 9.84407C21.1662 9.82647 21.5028 9.60212 21.5917 9.24139C21.6197 9.12701 21.615 9.00824 21.615 8.89386C21.615 8.43635 21.615 7.98325 21.615 7.52574C21.615 6.97585 21.615 6.42596 21.615 5.87168C21.615 5.59013 21.6618 5.2602 21.5917 4.98306C21.4327 4.35838 20.8203 4.38038 20.2967 4.38038C19.6422 4.38038 18.9924 4.38038 18.3379 4.38038C16.136 4.38038 13.9341 4.38038 11.7276 4.38038C9.37141 4.38038 7.01525 4.38038 4.65909 4.38038C3.40153 4.38038 2.14398 4.36278 0.891098 4.38038C0.479704 4.38918 0.110385 4.62233 0.0309117 5.01825C-0.0251874 5.29979 0.0122121 5.61213 0.0122121 5.89807C0.0122121 6.90107 0.0122121 7.90406 0.0122121 8.90706C0.0122121 9.39096 0.264658 9.82207 0.839674 9.84407C0.914472 9.84847 0.993946 9.84407 1.06874 9.84407C1.61104 9.84407 2.15333 9.84407 2.69562 9.84407C4.79466 9.84407 6.8937 9.84407 8.98807 9.84407C11.3863 9.84407 13.7845 9.84407 16.1781 9.84407C17.6414 9.84407 19.1046 9.84407 20.5679 9.84407C20.638 9.84407 20.7128 9.84407 20.7829 9.84407C21.04 9.84407 21.04 9.47454 20.7876 9.47454Z" fill="black"/>
<path d="M20.2687 21.6288C18.7681 21.6288 17.2721 21.6288 15.7714 21.6288C12.8823 21.6288 9.99323 21.6288 7.10412 21.6288C5.23415 21.6288 3.36418 21.6288 1.49421 21.6288C1.20437 21.6288 0.947245 21.5276 0.923871 21.2065C0.909846 20.9821 0.923871 20.7534 0.923871 20.529C0.923871 19.4116 0.923871 18.2943 0.923871 17.1769C0.923871 15.822 0.923871 14.467 0.923871 13.1121C0.923871 12.3555 0.905171 11.5944 0.923871 10.8378C0.94257 10.2527 1.68588 10.3847 2.1113 10.3847C3.06031 10.3847 4.00932 10.3847 4.95366 10.3847C7.79601 10.3847 10.6384 10.3847 13.4807 10.3847C15.6031 10.3847 17.7255 10.3847 19.848 10.3847C19.9835 10.3847 20.1285 10.3759 20.264 10.3847C20.6848 10.4111 20.7035 10.7366 20.7035 11.0357C20.7035 11.9727 20.7035 12.9142 20.7035 13.8512C20.7035 16.2047 20.7035 18.5538 20.7035 20.9073C20.7035 21.2153 20.7315 21.6024 20.2687 21.6288C20.0163 21.642 20.0163 22.0115 20.2687 21.9983C20.8391 21.9675 21.0962 21.5496 21.0962 21.0657C21.0962 20.7182 21.0962 20.375 21.0962 20.0275C21.0962 18.7518 21.0962 17.476 21.0962 16.2047C21.0962 14.8893 21.0962 13.574 21.0962 12.2587C21.0962 11.8628 21.0962 11.4668 21.0962 11.0709C21.0962 10.7234 21.0868 10.3803 20.7409 10.1559C20.5165 10.0107 20.2827 10.0151 20.0303 10.0151C19.7358 10.0151 19.4459 10.0151 19.1514 10.0151C18.0762 10.0151 17.0056 10.0151 15.9304 10.0151C12.9712 10.0151 10.0119 10.0151 7.0527 10.0151C5.18273 10.0151 3.30808 10.0019 1.43811 10.0151C0.947245 10.0195 0.549877 10.3099 0.526502 10.7938C0.517152 10.9917 0.526502 11.1897 0.526502 11.3833C0.526502 12.5182 0.526502 13.6532 0.526502 14.7882C0.526502 16.1739 0.526502 17.5596 0.526502 18.9453C0.526502 19.6976 0.503127 20.4542 0.526502 21.2021C0.540527 21.6684 0.905171 21.9895 1.39604 21.9983C1.58771 22.0027 1.77938 21.9983 1.96638 21.9983C2.89669 21.9983 3.827 21.9983 4.76198 21.9983C7.66511 21.9983 10.5729 21.9983 13.476 21.9983C15.6265 21.9983 17.777 21.9983 19.9228 21.9983C20.035 21.9983 20.1472 21.9983 20.264 21.9983C20.5212 21.9983 20.5212 21.6288 20.2687 21.6288Z" fill="black"/>
<path d="M12.7563 3.28431C12.7329 2.12294 11.6203 1.24312 10.4001 1.45428C9.1005 1.67863 8.46939 3.02916 9.007 4.12014C9.03505 4.17733 9.11453 4.21252 9.1753 4.21252C10.2412 4.21252 11.3117 4.21252 12.3776 4.21252C12.4431 4.21252 12.5179 4.17733 12.5459 4.12014C12.6768 3.85179 12.7469 3.58345 12.7563 3.28431C12.761 3.04676 12.3683 3.04676 12.3636 3.28431C12.3589 3.51306 12.3122 3.72422 12.2093 3.93098C12.2654 3.90018 12.3215 3.86939 12.3776 3.83859C11.3117 3.83859 10.2412 3.83859 9.1753 3.83859C9.2314 3.86939 9.2875 3.90018 9.3436 3.93098C8.90883 3.04236 9.4745 1.98217 10.503 1.81061C11.4754 1.64784 12.3449 2.37369 12.3636 3.28431C12.3683 3.52186 12.761 3.52626 12.7563 3.28431Z" fill="black"/>
<path d="M8.66081 3.28456C8.67016 2.73907 8.89455 2.24198 9.30595 1.85485C9.3901 1.77567 9.38542 1.6129 9.26387 1.56451C8.43174 1.20819 7.60427 0.838661 6.76746 0.486733C6.06622 0.191993 5.22941 0.491132 4.98164 1.19939C4.84139 1.59971 4.92087 2.1144 4.92087 2.52792C4.92087 3.02942 4.92087 3.52651 4.92087 4.02801C4.92087 4.12919 5.00969 4.21277 5.11721 4.21277C6.28127 4.21277 7.44065 4.21277 8.60471 4.21277C8.72626 4.21277 8.83378 4.094 8.79638 3.97962C8.70756 3.75087 8.66548 3.52651 8.66081 3.28456C8.65613 3.04701 8.26344 3.04701 8.26811 3.28456C8.27279 3.55731 8.31954 3.81685 8.41304 4.0764C8.47848 3.99722 8.53926 3.91803 8.60471 3.84325C7.44065 3.84325 6.28127 3.84325 5.11721 3.84325C5.18266 3.90484 5.24811 3.96642 5.31356 4.02801C5.31356 3.21858 5.29486 2.40914 5.31356 1.59971C5.32759 0.975033 5.9587 0.565917 6.58047 0.812266C6.99653 0.979432 7.39858 1.16859 7.80997 1.34456C8.23071 1.52492 8.64678 1.70528 9.06753 1.89005C9.0535 1.79327 9.03948 1.69649 9.02545 1.59971C8.54393 2.05721 8.27746 2.64669 8.26344 3.28896C8.26344 3.52651 8.65613 3.52651 8.66081 3.28456Z" fill="black"/>
<path d="M16.7067 1.56913C16.6834 0.935663 16.1831 0.40777 15.5006 0.363779C15.1313 0.341784 14.8087 0.50895 14.4815 0.649721C13.7569 0.962057 13.0322 1.27439 12.3076 1.59113C12.1908 1.64392 12.1861 1.80229 12.2656 1.88147C12.8452 2.44895 13.0229 3.23639 12.7517 3.97984C12.7097 4.09422 12.8219 4.213 12.9434 4.213C14.1309 4.213 15.3183 4.213 16.5057 4.213C16.6132 4.213 16.7021 4.12941 16.7021 4.02823C16.7067 3.2056 16.7067 2.38737 16.7067 1.56913C16.7067 1.33158 16.314 1.33158 16.314 1.56913C16.314 2.38737 16.314 3.21 16.314 4.02823C16.3795 3.96665 16.4449 3.90506 16.5104 3.84347C15.323 3.84347 14.1355 3.84347 12.9481 3.84347C13.0135 3.92265 13.0743 4.00184 13.1398 4.07662C13.4577 3.21 13.2239 2.27739 12.5507 1.62192C12.5367 1.7187 12.5227 1.81548 12.5087 1.91226C13.1257 1.64392 13.7475 1.37557 14.3693 1.10723C14.603 1.00605 14.8368 0.891672 15.0705 0.80369C15.6642 0.579335 16.2953 0.966456 16.314 1.56913C16.3187 1.80669 16.7114 1.80669 16.7067 1.56913Z" fill="black"/>
<path d="M12.9898 10.0151C11.5406 10.0151 10.0914 10.0151 8.64215 10.0151C8.53462 10.0151 8.4458 10.0987 8.4458 10.1999C8.4458 11.5064 8.4458 12.813 8.4458 14.1195C8.4458 16.2047 8.4458 18.2855 8.4458 20.3706C8.4458 20.8501 8.4458 21.334 8.4458 21.8135C8.4458 21.9147 8.53462 21.9983 8.64215 21.9983C10.0914 21.9983 11.5406 21.9983 12.9898 21.9983C13.0974 21.9983 13.1862 21.9147 13.1862 21.8135C13.1862 20.507 13.1862 19.2005 13.1862 17.8939C13.1862 15.8088 13.1862 13.728 13.1862 11.6428C13.1862 11.1633 13.1862 10.6794 13.1862 10.1999C13.1862 9.96235 12.7935 9.96235 12.7935 10.1999C12.7935 11.5064 12.7935 12.813 12.7935 14.1195C12.7935 16.2047 12.7935 18.2855 12.7935 20.3706C12.7935 20.8501 12.7935 21.334 12.7935 21.8135C12.8589 21.7519 12.9244 21.6904 12.9898 21.6288C11.5406 21.6288 10.0914 21.6288 8.64215 21.6288C8.7076 21.6904 8.77305 21.7519 8.83849 21.8135C8.83849 20.507 8.83849 19.2005 8.83849 17.8939C8.83849 15.8088 8.83849 13.728 8.83849 11.6428C8.83849 11.1633 8.83849 10.6794 8.83849 10.1999C8.77305 10.2615 8.7076 10.3231 8.64215 10.3847C10.0914 10.3847 11.5406 10.3847 12.9898 10.3847C13.2423 10.3847 13.2423 10.0151 12.9898 10.0151Z" fill="black"/>
<path d="M13.5185 4.38428C11.9384 4.38428 10.3583 4.38428 8.77816 4.38428C8.55376 4.38428 8.33404 4.38428 8.11432 4.38428C8.00679 4.38428 7.91797 4.46786 7.91797 4.56904C7.91797 6.05594 7.91797 7.54283 7.91797 9.02973C7.91797 9.24089 7.91797 9.44765 7.91797 9.6544C7.91797 9.75558 8.00679 9.83917 8.11432 9.83917C9.69444 9.83917 11.2746 9.83917 12.8547 9.83917C13.0791 9.83917 13.2988 9.83917 13.5185 9.83917C13.6261 9.83917 13.7149 9.75558 13.7149 9.6544C13.7149 8.16751 13.7149 6.68061 13.7149 5.19371C13.7149 4.98256 13.7149 4.7758 13.7149 4.56904C13.7149 4.33149 13.3222 4.33149 13.3222 4.56904C13.3222 6.05594 13.3222 7.54283 13.3222 9.02973C13.3222 9.24089 13.3222 9.44765 13.3222 9.6544C13.3876 9.59282 13.4531 9.53123 13.5185 9.46964C11.9384 9.46964 10.3583 9.46964 8.77816 9.46964C8.55376 9.46964 8.33404 9.46964 8.11432 9.46964C8.17977 9.53123 8.24521 9.59282 8.31066 9.6544C8.31066 8.16751 8.31066 6.68061 8.31066 5.19371C8.31066 4.98256 8.31066 4.7758 8.31066 4.56904C8.24521 4.63063 8.17977 4.69221 8.11432 4.7538C9.69444 4.7538 11.2746 4.7538 12.8547 4.7538C13.0791 4.7538 13.2988 4.7538 13.5185 4.7538C13.771 4.7538 13.771 4.38428 13.5185 4.38428Z" fill="black"/>
</svg>
