<svg width="18" height="18" viewBox="0 0 18 18" fill="none" xmlns="http://www.w3.org/2000/svg">
<path d="M11.6883 10.0545C11.6636 10.0874 11.6184 10.0915 11.5896 10.0668C11.215 9.77048 9.00887 8.19819 6.53108 10.0339C6.48581 10.0668 6.41995 10.038 6.41584 9.98039L6.11949 4.91368C6.11949 4.90134 6.11537 4.88899 6.10714 4.87664C6.07833 4.83548 5.9919 4.72435 5.87253 4.56383C5.83549 4.51444 5.87253 4.44447 5.93839 4.44858C5.9425 4.44858 5.9425 4.44858 5.94662 4.44858C6.01248 4.44858 6.91798 4.43624 7.17317 4.11108C7.19786 4.07815 7.24725 4.07403 7.27607 4.10285L7.81525 4.60087C8.05398 4.80255 8.40795 4.77374 8.61786 4.54325L10.1119 2.86807C10.293 2.66639 10.3095 2.36592 10.149 2.14366L8.51084 0.0280761C8.49026 0.0033805 8.45322 -0.00896729 8.42441 0.00749643L3.57996 2.21775C3.57996 2.21775 3.39886 2.29595 3.34947 2.44001C3.04489 3.35786 0.591797 12.2606 0.591797 12.8739V13.5859C0.591797 13.7177 0.64942 13.8411 0.756434 13.9235C0.888144 14.0263 1.55081 14.2116 1.82246 14.4091C2.97904 15.257 4.78593 16.7387 6.73276 17.1709C9.35049 17.7513 12.5239 16.9569 12.8449 16.8705C12.8614 16.8663 12.882 16.8663 12.8943 16.8746C12.8984 16.8787 12.9067 16.8828 12.9149 16.8869C15.1169 18.0682 17.7799 16.4589 17.7799 13.9605V11.2728C17.7799 9.15309 15.6479 7.66724 13.6763 8.44927C13.0178 8.71268 12.3345 9.2066 11.6883 10.0545Z" fill="#FCC659"/>
<path d="M3.1479 13.0962C3.09439 13.0962 3.04089 13.1085 2.9915 13.1415C2.84744 13.2279 2.79805 13.4172 2.88448 13.5613C2.89683 13.5819 3.26726 14.1951 4.05341 14.8043C4.83955 15.4176 6.05786 16.0308 7.72481 16.0308H7.72893C8.23107 16.0308 8.77026 15.9773 9.35061 15.8497C9.51524 15.8127 9.62226 15.6522 9.58521 15.4834C9.55229 15.3394 9.42881 15.2406 9.28475 15.2406C9.26417 15.2406 9.24359 15.2447 9.2189 15.2488C8.67971 15.3641 8.18168 15.4135 7.72481 15.4135C6.20604 15.4135 5.13178 14.866 4.42795 14.3186C4.07399 14.047 3.8188 13.7712 3.65004 13.5695C3.56361 13.4666 3.50187 13.3843 3.46483 13.3267C3.44425 13.2979 3.4319 13.2773 3.41955 13.2608L3.41132 13.2444V13.2402C3.3537 13.1497 3.2508 13.0962 3.1479 13.0962Z" fill="white"/>
<path d="M11.1946 10.359C11.1782 10.3672 11.1617 10.3796 11.1494 10.3878C11.1905 10.3837 11.2358 10.3755 11.2811 10.3714C11.3099 10.3796 11.2646 10.3672 11.2317 10.3467C11.2152 10.3343 11.1987 10.322 11.1864 10.3137C11.1411 10.2808 11.0917 10.2479 11.0423 10.2149C10.9189 10.1326 10.7913 10.0544 10.6596 9.98446C10.285 9.78278 9.87753 9.62637 9.46183 9.53994C8.9391 9.42881 8.40403 9.41646 7.88131 9.51524C7.58908 9.56875 7.30508 9.6593 7.03343 9.77454C6.86467 9.84451 6.70004 9.92683 6.54363 10.0174C6.46955 10.0585 6.39957 10.1038 6.3296 10.145C6.24317 10.2026 6.13204 10.3137 6.03326 10.3384C6.07853 10.3425 6.11969 10.3508 6.16497 10.3549C6.20613 10.3755 6.17731 10.4825 6.18143 10.3796C6.18143 10.3261 6.1732 10.2685 6.1732 10.2108C6.16085 10.0215 6.15262 9.83217 6.14027 9.64283C6.10734 9.06249 6.0703 8.48214 6.03737 7.9018C6.00445 7.32557 5.97152 6.75345 5.93447 6.17722C5.91801 5.9138 5.92624 5.63392 5.8892 5.3705C5.87685 5.29641 5.85216 5.25114 5.81511 5.19351C5.7863 5.15236 5.74926 5.0865 5.71221 5.05769C5.69575 5.03711 5.6834 5.02065 5.66694 5.00007C5.527 5.04946 5.48584 5.07415 5.54346 5.07415C5.59285 5.1112 5.81923 5.06181 5.87685 5.05357C6.06618 5.03299 6.26375 5.00418 6.44485 4.94656C6.53128 4.91775 6.62183 4.88482 6.70004 4.83955C6.77412 4.79427 6.83175 4.7243 6.90583 4.68314C6.86056 4.68726 6.8194 4.69549 6.77412 4.6996C6.73708 4.68726 6.76589 4.67902 6.79059 4.70784C6.81528 4.74076 6.85644 4.76546 6.88525 4.79427C6.97169 4.87659 7.06224 4.95479 7.14867 5.03711C7.30919 5.18528 7.45737 5.31699 7.67963 5.3458C8.10769 5.40343 8.34229 5.09885 8.59336 4.81897C8.90206 4.47323 9.20664 4.13161 9.51533 3.78587C9.76229 3.5101 10.0669 3.24668 10.0134 2.83509C9.9722 2.53463 9.7129 2.28355 9.53591 2.05306C9.25191 1.68263 8.9638 1.31219 8.6798 0.941761C8.56867 0.797703 8.45754 0.653646 8.35052 0.509588C8.29702 0.439617 8.23939 0.340835 8.15708 0.303792C7.99655 0.229705 7.76195 0.390226 7.61789 0.456081C6.15262 1.12286 4.69146 1.79376 3.23031 2.46054C3.02451 2.5552 2.85576 2.6581 2.77756 2.88859C2.70759 3.09028 2.65408 3.30019 2.59234 3.50598C2.36596 4.28801 2.14782 5.07415 1.92968 5.86029C1.39461 7.79478 0.863651 9.73338 0.377971 11.6843C0.250378 12.1988 0.0775086 12.738 0.0281175 13.269C-0.000694017 13.5406 -0.0171577 13.8575 0.0281175 14.1251C0.0733927 14.4173 0.283305 14.549 0.538493 14.6478C0.81426 14.7589 1.11061 14.8454 1.35345 15.0182C2.57588 15.8826 3.73245 16.821 5.12775 17.4055C6.6136 18.027 8.26409 18.0805 9.85284 17.9282C10.4743 17.8706 11.0958 17.7759 11.7091 17.6565C11.8985 17.6195 12.0919 17.5783 12.2812 17.5331C12.3347 17.5207 12.3882 17.5043 12.4418 17.4919C12.4953 17.4837 12.4623 17.4919 12.4294 17.4796C12.5117 17.5125 12.594 17.5619 12.6764 17.5989C13.8082 18.0928 15.1377 17.9488 16.1296 17.212C17.0434 16.537 17.5496 15.4875 17.5496 14.3597C17.5496 13.5612 17.5496 12.7668 17.5496 11.9683C17.5496 11.565 17.529 11.1657 17.4097 10.7747C17.2286 10.182 16.8705 9.64283 16.3889 9.25182C15.3805 8.42452 14.0223 8.30516 12.8698 8.89785C12.1907 9.24359 11.6309 9.78277 11.1658 10.3837C11.0341 10.5525 11.2728 10.7953 11.4045 10.6224C11.9725 9.88979 12.7011 9.21889 13.6148 8.95959C14.3557 8.74968 15.1542 8.86492 15.8168 9.26005C16.4795 9.6593 16.961 10.3137 17.138 11.0711C17.2368 11.4991 17.2121 11.9436 17.2121 12.3799C17.2121 12.9232 17.2121 13.4665 17.2121 14.0098C17.2121 14.5079 17.1998 14.9853 17.0351 15.4628C16.5495 16.8622 15.0471 17.7677 13.5819 17.529C13.4008 17.5001 13.2238 17.4549 13.0509 17.3931C12.878 17.3314 12.7134 17.2161 12.5364 17.1668C12.3924 17.1256 12.1907 17.212 12.0507 17.245C11.4045 17.3931 10.746 17.5001 10.0833 17.5742C9.12844 17.6771 8.16119 17.7101 7.2063 17.5989C6.21436 17.4878 5.29239 17.1709 4.41981 16.6975C3.60074 16.2571 2.84341 15.7138 2.09843 15.1582C1.82266 14.9524 1.55513 14.7137 1.2382 14.5696C1.06945 14.4914 0.892462 14.4255 0.719593 14.3597C0.546724 14.2938 0.382087 14.2486 0.357392 14.0386C0.332696 13.8246 0.353276 13.5941 0.357392 13.3801C0.357392 13.2731 0.357392 13.2813 0.36974 13.2031C0.423247 12.9026 0.493217 12.6063 0.567304 12.31C1.11061 10.0462 1.73623 7.80301 2.35773 5.56395C2.58411 4.75311 2.80637 3.94227 3.04921 3.13967C3.09448 2.99561 3.11095 2.89683 3.25501 2.81862C3.30851 2.78981 3.36202 2.76923 3.41553 2.74454C3.76538 2.58402 4.11935 2.42349 4.4692 2.26297C5.46526 1.81022 6.4572 1.35335 7.45325 0.900601C7.60966 0.83063 7.76606 0.756544 7.91835 0.686573C7.94716 0.674225 8.0871 0.633066 8.10357 0.600138C8.02948 0.756544 7.95951 0.501356 7.97186 0.571327C7.97598 0.583675 8.00067 0.60837 8.0089 0.620718C8.04595 0.686573 8.10357 0.744196 8.14884 0.805935C8.30525 1.00762 8.45754 1.2093 8.61394 1.41098C8.91441 1.80199 9.21075 2.18889 9.51122 2.5799C9.65527 2.76923 9.74994 2.98326 9.58119 3.20141C9.49887 3.30842 9.40009 3.4072 9.30954 3.50598C8.95557 3.90523 8.6016 4.30036 8.24763 4.6996C8.12003 4.83955 8.00479 5.01241 7.79487 5.01653C7.5438 5.02476 7.34624 4.76134 7.1816 4.60905C7.11986 4.55143 7.05812 4.48146 6.99227 4.43207C6.82763 4.31271 6.73296 4.39091 6.59714 4.49792C6.36253 4.67902 6.00445 4.70784 5.72045 4.7243C5.53935 4.73665 5.26769 4.72842 5.29651 4.99595C5.30474 5.0865 5.37471 5.15236 5.4241 5.22233C5.4488 5.25937 5.47761 5.30876 5.51053 5.33757C5.51465 5.34169 5.57639 5.42401 5.55169 5.36227C5.55993 5.37873 5.55169 5.40343 5.55581 5.42401C5.61343 5.7574 5.59697 6.1196 5.61755 6.4571C5.65048 7.01275 5.6834 7.56429 5.71633 8.11994C5.74926 8.64678 5.77807 9.17362 5.811 9.70457C5.82334 9.9433 5.81511 10.1944 5.85216 10.429C5.94271 10.9558 6.54363 10.4002 6.75354 10.2808C7.17337 10.0462 7.63024 9.87744 8.10769 9.81159C8.84444 9.70457 9.60177 9.84451 10.2727 10.1573C10.4785 10.252 10.676 10.3631 10.8654 10.4907C11.03 10.5977 11.1658 10.7706 11.3757 10.6512C11.5527 10.5401 11.384 10.2479 11.1946 10.359Z" fill="black"/>
</svg>
