<svg width="45" height="21" viewBox="0 0 45 21" fill="none" xmlns="http://www.w3.org/2000/svg">
<path d="M14.8722 1.12404H12.9532V0H18.1345V1.12404H16.2155V6.42309H14.8722V1.12404ZM19.9255 3.5327H22.4202V6.42309H23.7635V0H22.4202V2.44077H19.9255V0H18.5822V6.42309H19.9255V3.5327ZM24.3392 6.42309H28.9448V5.29905H25.5866V3.62904H28.529V2.47289H25.5866V1.12404H28.9448V0H24.3392V6.42309ZM3.96592 11.5294L1.40726 7.0654H0V13.4885H1.24734V8.92809H1.27933L3.86997 13.4885H5.21326V7.0654H3.96592V11.5294ZM8.89133 13.6491C8.05977 13.6491 5.82094 13.2958 5.82094 10.2769C5.82094 7.25809 8.05977 6.90482 8.89133 6.90482C9.72289 6.90482 11.9617 7.25809 11.9617 10.2769C11.9617 13.2958 9.72289 13.6491 8.89133 13.6491ZM8.89133 12.525C9.62694 12.525 10.6184 12.0754 10.6184 10.2769C10.6184 8.47847 9.59496 8.02886 8.89133 8.02886C8.1877 8.02886 7.16424 8.47847 7.16424 10.2769C7.13225 12.0754 8.15572 12.525 8.89133 12.525ZM21.3648 13.4885V8.18944H23.2838V7.0654H18.1025V8.18944H20.0215V13.4885H21.3648ZM25.1068 10.5981H27.6015V13.4885H28.9448V7.0654H27.6015V9.50617H25.1068V7.0654H23.7635V13.4885H25.1068V10.5981ZM13.8167 13.4885H12.5054V7.0654H15.7357C17.4308 7.0654 17.7507 8.3179 17.7507 8.89598C17.7507 9.60251 17.3989 10.2127 16.7592 10.4375C17.2709 10.6623 17.5588 10.855 17.5588 12.0754C17.5588 13.0068 17.5588 13.2316 17.8466 13.36V13.4885H16.3754C16.2794 13.1994 16.2475 12.8462 16.2475 12.2039C16.2475 11.3367 16.1835 10.9835 15.192 10.9835H13.8167V13.4885ZM13.8167 9.89155H15.3839C16.0875 9.89155 16.4074 9.63463 16.4074 9.02444C16.4074 8.67117 16.2475 8.18944 15.4799 8.18944H13.8167V9.89155ZM12.6973 16.7321H9.88281V15.2869H13.0811V14.1308H8.5715V20.5539H9.91479V17.8562H12.7293V16.7321H12.6973ZM16.1195 14.1308L18.3584 20.5539H16.9191L16.5033 19.2371H14.1366L13.6888 20.5539H12.2815L14.5524 14.1308H16.1195ZM16.1195 18.1131L15.3519 15.576L14.5204 18.1131H16.1195ZM21.0449 15.1585C22.1324 15.1585 22.3563 15.8971 22.4522 16.2504H23.7955C23.7315 15.3191 22.9639 13.9702 21.0449 13.9702C19.3818 13.9702 18.1025 15.1264 18.1025 17.3423C18.1025 19.5583 19.3179 20.7145 21.013 20.7145C22.6121 20.7145 23.5077 19.751 23.7955 18.3379H22.4522C22.2923 19.1087 21.7806 19.5583 21.0449 19.5583C19.9255 19.5583 19.4458 18.5306 19.4458 17.3744C19.4458 15.576 20.4053 15.1585 21.0449 15.1585ZM24.3392 20.5539H28.9448V19.4298H25.5866V17.7598H28.529V16.6358H25.5866V15.2869H28.9448V14.1308H24.3392V20.5539ZM30.1921 0H29.9043V6.42309H30.1921C34.9576 6.42309 38.7956 10.2769 38.8596 15.03V20.5539H45.0004V14.8694C45.0004 6.64789 38.3798 0 30.1921 0ZM30.1921 14.1308H29.9043V20.5539H32.9747V16.9248C32.9747 15.3833 31.7273 14.1308 30.1921 14.1308ZM30.2241 7.0654H29.9363V8.35001V13.4885H30.2241C32.1111 13.4885 33.6463 15.03 33.6463 16.9248V20.5539H38.2519V15.0943C38.1879 10.6623 34.6378 7.0654 30.2241 7.0654Z" fill="#00BAC6"/>
</svg>
