<svg width="58" height="18" viewBox="0 0 58 18" fill="none" xmlns="http://www.w3.org/2000/svg">
<path d="M10.9209 0.267578V0.636917L10.988 0.650597C11.6186 0.746351 12.1016 0.910502 12.4102 1.14305C12.7187 1.3756 12.9468 1.67654 13.081 2.04588C13.1346 2.16899 13.1749 2.34682 13.2017 2.56569C13.2286 2.78456 13.242 3.03078 13.2554 3.29069C13.2688 3.55059 13.2822 3.82418 13.2822 4.11144C13.2822 4.39871 13.2956 4.68597 13.2956 4.95956V8.46144C13.2956 8.92653 13.2822 9.40531 13.242 9.88408C13.2151 10.3629 13.1346 10.8416 13.0407 11.3067C12.9468 11.7581 12.7858 12.1959 12.5846 12.6062C12.3833 13.0029 12.1016 13.3586 11.7528 13.6732C11.4039 13.9742 10.9612 14.2204 10.4514 14.3982C9.92812 14.5761 9.28414 14.6581 8.53282 14.6581C7.87542 14.6581 7.2851 14.5487 6.77527 14.3298C6.26545 14.111 5.82271 13.7963 5.47388 13.386C5.12506 12.9756 4.84331 12.4695 4.64207 11.8949C4.44082 11.3067 4.33349 10.6501 4.32008 9.9388C4.32008 9.61049 4.32008 9.29587 4.30666 8.99493C4.30666 8.70767 4.29324 8.40672 4.29324 8.07842V3.94729C4.29324 3.67371 4.29324 3.4138 4.30666 3.1539C4.32008 2.88031 4.32008 2.56569 4.33349 2.21003C4.34691 1.90909 4.41399 1.66286 4.52132 1.47135C4.64207 1.27984 4.77623 1.12937 4.93723 1.01994C5.09823 0.910502 5.28606 0.828427 5.50072 0.77371C5.71538 0.718993 5.91663 0.677955 6.09104 0.650597L6.15812 0.636917V0.267578H0V0.636917L0.0670819 0.650597C0.415908 0.677955 0.724485 0.746351 0.992812 0.855785C1.24772 0.95154 1.4758 1.11569 1.65022 1.33456C1.7173 1.41663 1.77096 1.53975 1.81121 1.7039C1.85146 1.86805 1.87829 2.05956 1.90513 2.26475C1.91854 2.46993 1.93196 2.70248 1.93196 2.94871V6.42323C1.93196 7.16191 1.93196 7.85955 1.91854 8.47512C1.91854 9.077 1.90513 9.58314 1.90513 9.97983C1.90513 10.144 1.91854 10.4039 1.93196 10.7322C1.95879 11.0742 2.02587 11.4572 2.1332 11.8676C2.25395 12.2779 2.42837 12.702 2.66986 13.1261C2.91136 13.5501 3.24676 13.9468 3.68951 14.3025C4.13225 14.6581 4.68232 14.9454 5.36655 15.1506C6.03737 15.3558 6.86919 15.4652 7.84858 15.4652C8.82798 15.4652 9.67321 15.3558 10.3574 15.1369C11.0417 14.918 11.6052 14.6308 12.0345 14.2614C12.4772 13.8921 12.8126 13.4817 13.0541 13.0166C13.2956 12.5652 13.47 12.1138 13.5774 11.6624C13.6847 11.211 13.7518 10.7869 13.7652 10.3765L13.7786 10.1987C13.792 9.88408 13.8055 9.61049 13.8189 9.39163C13.8457 8.47512 13.8725 7.65436 13.886 6.92936C13.8994 6.20437 13.9262 5.54776 13.9396 4.94588C13.9396 4.63125 13.953 4.30295 13.9665 3.98833C13.9799 3.67371 13.9933 3.35908 14.0201 3.07182C14.047 2.78456 14.0738 2.53833 14.114 2.31946C14.1409 2.11427 14.1811 1.95012 14.2214 1.86805C14.3689 1.48503 14.597 1.19777 14.8654 1.01994C15.1471 0.842106 15.5228 0.705314 16.0057 0.636917L16.0728 0.623238V0.267578H10.9209Z" fill="#00BAC6"/>
<path d="M28.2954 0.267578V0.636917L28.3625 0.650597C28.9931 0.746351 29.4895 0.910502 29.8249 1.14305C30.1603 1.3756 30.3884 1.67654 30.5226 2.04588C30.6299 2.31946 30.6836 2.71616 30.697 3.20861C30.7104 3.71474 30.7238 4.24823 30.7238 4.7954V11.6213L21.2116 0.308616L21.1848 0.267578H16.9318V0.636917L16.9988 0.650597C17.2135 0.677955 17.4416 0.718993 17.6697 0.787389C17.8977 0.842106 18.1124 0.95154 18.3002 1.08833C18.4881 1.22512 18.6625 1.41663 18.8101 1.66286C18.9576 1.90909 19.0381 2.22371 19.0784 2.60673C19.0918 3.0171 19.1052 3.34541 19.1052 3.61899V6.14965C19.1052 7.06616 19.1052 7.94163 19.0784 8.7487C19.065 9.55578 19.0381 10.2671 19.0113 10.8553C18.9845 11.635 18.9442 12.319 18.8906 12.8798C18.8369 13.427 18.7161 13.8511 18.5417 14.1246C18.3673 14.4119 18.1124 14.6171 17.8038 14.7402C17.4818 14.8633 17.1598 14.9591 16.8513 15.0001L16.7842 15.0138V15.3831H21.9629V15.0138L21.8958 15.0001C21.3458 14.9317 20.9164 14.8223 20.6079 14.6718C20.3127 14.5213 20.0846 14.2888 19.937 13.9878C19.8029 13.7279 19.7224 13.3039 19.6955 12.7567C19.6553 12.1959 19.6419 11.5529 19.6419 10.8553V2.31946C20.5139 3.30437 21.3458 4.27559 22.1239 5.20578C22.9423 6.17701 23.7875 7.18927 24.6596 8.22889C25.5183 9.25483 26.4306 10.3355 27.3831 11.4709C28.3223 12.5926 29.3822 13.8511 30.536 15.2053C30.6836 15.3558 30.8311 15.4378 30.9653 15.4378C31.0592 15.4378 31.1263 15.4105 31.18 15.3558C31.2336 15.3011 31.2605 15.2327 31.2605 15.1643V13.81C31.2605 13.3176 31.2605 12.8114 31.247 12.3053C31.247 11.8128 31.2336 11.3204 31.2336 10.8279V9.50106C31.2336 8.58455 31.247 7.70908 31.2605 6.90201C31.2873 6.09493 31.3007 5.38361 31.3275 4.7954C31.3544 4.15248 31.3812 3.55059 31.408 3.00342C31.4349 2.45626 31.4885 2.07324 31.5825 1.88173C31.7435 1.49871 31.9581 1.21145 32.2533 1.03362C32.5484 0.842106 32.9375 0.718993 33.4339 0.650597L33.501 0.636917V0.267578H28.2954Z" fill="#00BAC6"/>
<path d="M43.8854 0.445801C41.1618 -0.990519 37.2577 1.15712 35.1647 5.26089C33.0718 9.36466 33.5816 13.8514 36.3051 15.3014C37.8346 16.1085 39.7397 15.7939 41.4838 14.6175C41.3899 14.2345 41.3497 13.8514 41.3765 13.4684C41.4033 13.1265 41.4838 12.8255 41.6046 12.5519C40.7459 13.017 39.8068 13.2359 38.7469 13.3316C34.6281 13.7147 34.722 9.3373 35.3257 7.2991C36.0904 4.7274 38.2237 2.36089 42.0473 2.2925C45.1599 2.2241 45.9515 6.76561 44.5025 9.46041C44.8379 9.44674 45.2002 9.4057 45.5758 9.26891C46.998 5.5208 46.3406 1.74533 43.8854 0.445801Z" fill="#00BAC6"/>
<path d="M45.1192 14.303C45.1192 14.3578 45.1192 14.4125 45.1326 14.4398C45.146 14.4809 45.1595 14.5082 45.1863 14.5356C45.2131 14.563 45.2534 14.5903 45.2936 14.604C45.3473 14.6177 45.4009 14.6313 45.4814 14.645C45.5351 14.6587 45.5754 14.6861 45.5754 14.7408C45.5754 14.7681 45.5754 14.7955 45.5619 14.8365C45.5083 14.8365 45.4278 14.8365 45.3339 14.8502C45.24 14.8502 45.1595 14.8639 45.0924 14.8776C44.985 14.8913 44.9045 14.9186 44.824 14.9323C44.7435 14.946 44.6899 14.9596 44.6496 14.9596C44.5825 14.9596 44.5557 14.9186 44.5557 14.8502V14.3304C44.4886 14.4125 44.435 14.5082 44.3679 14.5766C44.3008 14.6587 44.2337 14.7271 44.1532 14.7955C44.0727 14.8639 43.9788 14.9049 43.8581 14.946C43.7507 14.987 43.6166 15.0007 43.469 15.0007C43.3214 15.0007 43.1738 14.9733 43.0262 14.9049C42.8921 14.8365 42.7579 14.7408 42.6506 14.6177C42.5433 14.4946 42.4628 14.3304 42.3957 14.1526C42.3286 13.9747 42.3018 13.7559 42.3018 13.5233C42.3018 13.2634 42.3554 13.0446 42.4493 12.8394C42.5433 12.6342 42.664 12.47 42.7982 12.3332C42.9323 12.1964 43.0933 12.1007 43.2543 12.0186C43.4153 11.9502 43.5763 11.9092 43.7105 11.9092C43.8849 11.9092 44.0325 11.9229 44.1666 11.9639C44.3008 12.0049 44.435 12.046 44.5691 12.1007V10.8012C44.5691 10.6644 44.5423 10.5686 44.5021 10.5139C44.4484 10.4592 44.3545 10.4181 44.1935 10.4045C44.1398 10.3908 44.0996 10.3634 44.0996 10.3087C44.0996 10.2814 44.0996 10.254 44.113 10.213C44.1666 10.213 44.2606 10.213 44.3545 10.1993C44.4618 10.1993 44.5423 10.1856 44.6094 10.1719C44.7167 10.1582 44.8106 10.1446 44.8911 10.1172C44.9716 10.0898 45.0387 10.0898 45.0655 10.0898C45.1326 10.0898 45.1595 10.1309 45.1595 10.1993C45.1595 10.2814 45.146 10.3634 45.1326 10.4729C45.1192 10.5686 45.1058 10.6917 45.1058 10.8422L45.1192 14.303ZM44.5557 12.5521C44.4484 12.429 44.3142 12.3332 44.1801 12.2648C44.0459 12.1964 43.8849 12.1554 43.7239 12.1554C43.4556 12.1554 43.2677 12.2648 43.1336 12.4837C42.9994 12.7026 42.9323 12.9898 42.9323 13.3318C42.9323 13.5097 42.9457 13.6738 42.986 13.838C43.0262 14.0021 43.0799 14.1389 43.147 14.262C43.2141 14.3851 43.308 14.4809 43.4153 14.5493C43.5227 14.6177 43.6434 14.6587 43.7641 14.6587C43.8581 14.6587 43.9386 14.6313 44.0325 14.5766C44.1264 14.5219 44.2069 14.4535 44.274 14.3714C44.3545 14.2894 44.4081 14.1936 44.4618 14.0842C44.5155 13.9747 44.5289 13.8653 44.5289 13.7696L44.5557 12.5521Z" fill="#00BAC6"/>
<path d="M48.1513 14.2757C48.1781 14.2483 48.2184 14.2346 48.2586 14.2346C48.2989 14.2346 48.3391 14.2757 48.3794 14.3577C48.3257 14.4398 48.2586 14.5219 48.1781 14.604C48.0976 14.686 48.0037 14.7544 47.9098 14.8092C47.8025 14.8639 47.6817 14.9186 47.5475 14.9596C47.4134 15.0007 47.2524 15.0143 47.078 15.0143C46.9036 15.0143 46.7291 14.987 46.5681 14.9186C46.4071 14.8639 46.2596 14.7681 46.1388 14.645C46.0181 14.5219 45.9242 14.3714 45.8437 14.1799C45.7766 14.0021 45.7363 13.7832 45.7363 13.537C45.7363 13.3044 45.7766 13.0856 45.8705 12.8941C45.9644 12.7026 46.0717 12.5247 46.2193 12.3879C46.3535 12.2511 46.5145 12.1417 46.6755 12.0596C46.8499 11.9776 47.0109 11.9502 47.1585 11.9502C47.5744 11.9502 47.8829 12.0733 48.0708 12.3195C48.2586 12.5658 48.3525 12.8941 48.3525 13.2908C48.3525 13.3181 48.3391 13.3318 48.3123 13.3318L46.3669 13.4139C46.3669 13.5917 46.3937 13.7559 46.434 13.9063C46.4876 14.0568 46.5547 14.1936 46.6352 14.303C46.7291 14.4125 46.8365 14.4945 46.9572 14.5629C47.078 14.6313 47.2255 14.6587 47.3865 14.6587C47.5341 14.6587 47.6683 14.6313 47.8024 14.5629C47.95 14.4672 48.0574 14.3714 48.1513 14.2757ZM47.0645 12.1691C46.8365 12.1691 46.6621 12.2511 46.5413 12.429C46.4206 12.6068 46.3535 12.8393 46.3535 13.1266L47.6146 13.0719C47.6817 13.0719 47.7085 13.0445 47.722 12.9898C47.722 12.9077 47.7085 12.812 47.6817 12.7162C47.6549 12.6205 47.6146 12.5247 47.561 12.4563C47.5073 12.3743 47.4402 12.3059 47.3597 12.2511C47.2792 12.1964 47.1853 12.1691 47.0645 12.1691Z" fill="#00BAC6"/>
<path d="M50.1097 13.1266C50.5659 13.1266 50.9013 13.2497 51.1026 13.4823C51.3038 13.7148 51.4111 14.0158 51.4111 14.3714C51.4111 14.5629 51.3709 14.7818 51.3038 15.0143C51.2367 15.2469 51.1026 15.4794 50.9147 15.712C50.7135 15.9582 50.4452 16.2044 50.1232 16.4233C49.8683 16.6011 49.7743 16.6285 49.4926 16.7379C49.4121 16.7653 49.3316 16.7926 49.2108 16.8474C49.1438 16.861 49.1169 16.9021 49.1169 16.9705C49.1169 17.0252 49.1438 17.1073 49.2108 17.1757C50.472 16.8337 50.9684 16.6558 51.599 16.1224C52.2295 15.5752 52.5381 14.9459 52.5515 14.262C52.5515 13.7422 52.3905 13.3318 52.0685 13.0172C51.7465 12.7026 51.3172 12.5521 50.7671 12.5384H50.7537C50.5659 12.5384 50.3915 12.5521 50.2171 12.5794C50.0427 12.6068 49.8548 12.6478 49.667 12.7162H49.6536V12.7026L49.8548 10.9653C49.8548 10.9516 49.8683 10.9516 49.8683 10.9516L52.0954 10.9653C52.2027 10.9653 52.2832 10.9243 52.31 10.8559C52.3503 10.7738 52.3637 10.678 52.3771 10.5686L52.3905 10.1719L49.3718 10.1309L49.1035 13.2497C49.1035 13.2634 49.1169 13.2771 49.1304 13.2771C49.506 13.1813 49.828 13.1266 50.1097 13.1266Z" fill="#00BAC6"/>
<path d="M55.1541 10.1309C54.8321 10.1309 54.5235 10.1993 54.2552 10.3224C53.9734 10.4455 53.7319 10.6233 53.5307 10.8422C53.3295 11.061 53.1685 11.321 53.0611 11.6219C52.9538 11.9228 52.8867 12.2375 52.8867 12.5794C52.8867 12.9351 52.9404 13.2634 53.0477 13.5643C53.155 13.8516 53.3026 14.1115 53.5039 14.3304C53.6917 14.5356 53.9332 14.7134 54.2149 14.8228C54.4967 14.9323 54.8053 15.0007 55.1541 15.0007C55.5029 15.0007 55.8115 14.9323 56.0932 14.8228C56.375 14.6997 56.6165 14.5219 56.8043 14.3167C57.0055 14.0978 57.1531 13.8379 57.2605 13.5507C57.3678 13.2634 57.4215 12.9351 57.4215 12.6068C57.4215 12.2511 57.3678 11.9228 57.247 11.6219C57.1397 11.321 56.9787 11.061 56.7775 10.8559C56.5762 10.637 56.3347 10.4728 56.0664 10.3497C55.7847 10.1993 55.4761 10.1309 55.1541 10.1309ZM55.1675 14.5766C54.9797 14.5766 54.8053 14.5356 54.6443 14.4535C54.4833 14.3714 54.3357 14.2483 54.2149 14.0842C54.0942 13.92 54.0003 13.7011 53.9332 13.4686C53.8661 13.2224 53.8259 12.9351 53.8259 12.5931C53.8259 12.2511 53.8661 11.9365 53.9332 11.6903C54.0003 11.4304 54.0942 11.2252 54.2149 11.061C54.3357 10.8969 54.4833 10.7738 54.6443 10.6917C54.8053 10.6096 54.9797 10.5686 55.1541 10.5686C55.3285 10.5686 55.5029 10.6096 55.6639 10.6917C55.8249 10.7738 55.9591 10.8969 56.0798 11.061C56.2006 11.2252 56.2945 11.4441 56.3616 11.6903C56.4286 11.9502 56.4689 12.2511 56.4689 12.5931C56.4689 12.9351 56.4286 13.236 56.3616 13.4823C56.2945 13.7285 56.2006 13.9337 56.0798 14.0978C55.9591 14.262 55.8249 14.3851 55.6639 14.4672C55.5029 14.5356 55.3419 14.5766 55.1675 14.5766Z" fill="#00BAC6"/>
</svg>
