<svg width="19" height="25" viewBox="0 0 19 25" fill="none" xmlns="http://www.w3.org/2000/svg">
<path d="M11.5153 8.4174C11.5153 9.02716 11.3798 9.56916 11.1766 10.0434C11.5153 10.1112 11.8541 10.1789 12.1928 10.1789C14.4964 10.1789 16.3934 8.2819 16.3934 5.97838C16.3934 3.67485 14.4964 1.77783 12.1928 1.77783C10.4313 1.77783 8.94081 2.86184 8.33105 4.35236C10.1603 4.82661 11.5153 6.45263 11.5153 8.4174Z" stroke="white" stroke-width="2" stroke-miterlimit="8" stroke-linecap="square"/>
<path d="M8.33106 4.3523C7.99231 4.28455 7.65355 4.2168 7.3148 4.2168C5.01128 4.2168 3.11426 6.11382 3.11426 8.41734C3.11426 10.7209 5.01128 12.6179 7.3148 12.6179C9.07632 12.6179 10.5668 11.5339 11.1766 10.0434C11.3798 9.5691 11.5153 8.95935 11.5153 8.41734C11.5153 6.45257 10.1603 4.82655 8.33106 4.3523Z" stroke="white" stroke-width="2" stroke-miterlimit="8" stroke-linecap="square"/>
<path d="M12.1924 11.7373C10.2276 11.7373 8.53384 12.6858 7.51758 14.1763C10.5664 14.2441 13.0731 16.8186 13.0731 19.9351V21.5612H17.9512V17.4961C17.9512 14.3118 15.3767 11.7373 12.1924 11.7373Z" stroke="white" stroke-width="2" stroke-miterlimit="8" stroke-linecap="square"/>
<path d="M7.51773 14.1763C7.44997 14.1763 7.38222 14.1763 7.31447 14.1763C4.13019 14.1763 1.55566 16.7508 1.55566 19.9351V24.0001H13.0055V21.5611V19.9351C13.0733 16.8185 10.5665 14.3118 7.51773 14.1763Z" stroke="white" stroke-width="2" stroke-miterlimit="8" stroke-linecap="square"/>
</svg>
