<svg width="39" height="39" viewBox="0 0 39 39" fill="none" xmlns="http://www.w3.org/2000/svg">
<path fill-rule="evenodd" clip-rule="evenodd" d="M29.4901 15C29.6722 14.4545 29.4901 14.0909 28.7616 14.0909H26.394C25.7566 14.0909 25.4834 14.4545 25.3013 14.7273C25.3013 14.7273 24.1175 17.7273 22.2964 19.6364C21.75 20.1818 21.4768 20.3636 21.2036 20.3636C21.0215 20.3636 20.8394 20.1818 20.8394 19.6364V14.9091C20.8394 14.2727 20.6573 14 20.1109 14H16.2864C15.9222 14 15.649 14.2727 15.649 14.5455C15.649 15.0909 16.5596 15.2727 16.6507 16.9091V20.4545C16.6507 21.2727 16.4685 21.3636 16.1954 21.3636C15.3758 21.3636 13.3725 18.3636 12.1887 14.9091C11.9156 14.2727 11.7334 14 11.096 14H8.81954C8.09106 14 8 14.3636 8 14.6364C8 15.2727 8.81954 18.4545 11.8245 22.6364C13.8278 25.4545 16.6507 27 19.2003 27C20.7483 27 20.9305 26.6364 20.9305 26.0909V23.9091C20.9305 23.1818 21.1126 23.0909 21.5679 23.0909C21.9321 23.0909 22.5695 23.2727 23.9354 24.6364C25.5745 26.2727 25.8477 27 26.7583 27H29.1258C29.8543 27 30.1275 26.6364 29.9454 26C29.7632 25.3636 28.9437 24.3636 27.9421 23.1818C27.3957 22.5455 26.5762 21.8182 26.303 21.4545C25.9387 21 26.0298 20.8182 26.303 20.3636C26.303 20.5455 29.2169 16.3636 29.4901 15Z" fill="black"/>
<path fill-rule="evenodd" clip-rule="evenodd" d="M19.5 2C9.85229 2 2 9.85229 2 19.5C2 29.1477 9.85229 37 19.5 37C29.1477 37 37 29.1477 37 19.5C37 9.85229 29.1477 2 19.5 2ZM0 19.5C0 8.74771 8.74771 0 19.5 0C30.2523 0 39 8.74771 39 19.5C39 30.2523 30.2523 39 19.5 39C8.74771 39 0 30.2523 0 19.5Z" fill="black"/>
</svg>
