<svg width="41" height="29" viewBox="0 0 41 29" fill="currentColor" xmlns="http://www.w3.org/2000/svg">
<path fill-rule="evenodd" clip-rule="evenodd" d="M20.2998 0C20.2999 0 20.3 0 20.3 1L20.2999 2L20.1656 2.00019C20.077 2.00039 19.9464 2.00077 19.7789 2.00155C19.4439 2.00311 18.9615 2.00622 18.3731 2.01244C17.1959 2.0249 15.5963 2.04981 13.9044 2.09957C12.2109 2.14938 10.4331 2.22386 8.8971 2.3349C7.33283 2.44798 6.10387 2.59391 5.45766 2.76623L5.45011 2.76825L5.44254 2.77014C4.20082 3.08057 3.08057 4.20082 2.77014 5.44254L2.76831 5.44988C2.39617 6.89189 2.19871 9.12578 2.09867 11.064C2.04935 12.0197 2.02465 12.8806 2.0123 13.5027C2.00613 13.8135 2.00306 14.0641 2.00152 14.2364C2.00076 14.3226 2.00038 14.3892 2.00019 14.4338L2.00002 14.4842V14.5161L2.00019 14.5673C2.00038 14.6127 2.00076 14.6803 2.00152 14.7678C2.00306 14.9427 2.00614 15.1969 2.01231 15.5116C2.02466 16.1416 2.04936 17.0119 2.09869 17.9738C2.19889 19.9277 2.3965 22.1558 2.76623 23.5423L2.77004 23.5566L2.77342 23.571C3.08153 24.8804 4.17882 25.9139 5.44254 26.2299L5.44988 26.2317C6.12593 26.4062 7.37241 26.5522 8.93907 26.6651C10.48 26.7761 12.2549 26.8506 13.942 26.9004C15.6276 26.9502 17.2179 26.9751 18.3872 26.9876C18.9717 26.9938 19.4505 26.9969 19.783 26.9984C19.9492 26.9992 20.0788 26.9996 20.1667 26.9998L20.2996 27L20.3 28C20.3 29 20.2999 29 20.2998 29L20.1623 28.9998C20.0729 28.9996 19.9416 28.9992 19.7736 28.9984C19.4377 28.9969 18.9549 28.9937 18.3659 28.9874C17.1884 28.9749 15.5849 28.9498 13.883 28.8996C12.1826 28.8494 10.3763 28.7739 8.7953 28.6599C7.24227 28.548 5.82804 28.3942 4.9538 28.1692C3.02357 27.6852 1.32615 26.1256 0.830064 24.0437C0.402342 22.4303 0.200827 20.0168 0.101312 18.0762C0.0506383 17.0881 0.0253403 16.1959 0.0126921 15.5509C0.00636369 15.2281 0.00319147 14.9667 0.00160092 14.7853C0.000805497 14.6947 0.000405312 14.624 0.000203907 14.5757L2.64049e-05 14.5202L0 14.5005L2.64645e-05 14.4801L0.000204206 14.4254C0.000405788 14.3777 0.000806272 14.3081 0.00160205 14.2186C0.00319338 14.0398 0.00636679 13.7818 0.0126969 13.463C0.0253487 12.8256 0.0506518 11.9428 0.101329 10.961C0.201218 9.0256 0.403565 6.61156 0.830806 4.95367C1.32096 2.99955 2.99608 1.32347 4.94984 0.831769C5.80437 0.605187 7.2092 0.451696 8.7529 0.340103C10.3294 0.226139 12.139 0.150625 13.8456 0.100432C15.5537 0.0501926 17.1666 0.025099 18.3519 0.012556C18.9448 0.00628239 19.4311 0.00314373 19.7696 0.00157326C19.9388 0.000787973 20.0711 0.000394702 20.1612 0.000197709L20.2998 0ZM40.6 14.5202L40.5998 14.5757C40.5996 14.624 40.5992 14.6947 40.5984 14.7853C40.5968 14.9667 40.5936 15.2281 40.5873 15.5509C40.5747 16.1959 40.5494 17.0881 40.4987 18.0762C40.399 20.0194 40.1971 22.4369 39.7682 24.0504C39.283 25.979 37.7239 27.6744 35.6434 28.17C34.7883 28.3956 33.3867 28.5486 31.8471 28.6599C30.2706 28.7739 28.461 28.8494 26.7544 28.8996C25.0463 28.9498 23.4334 28.9749 22.2481 28.9874C21.6552 28.9937 21.1689 28.9969 20.8304 28.9984C20.6612 28.9992 20.5289 28.9996 20.4388 28.9998L20.2998 29C20.2999 29 20.3 29 20.3 28L20.2996 27L20.4344 26.9998C20.523 26.9996 20.6536 26.9992 20.8211 26.9984C21.1561 26.9969 21.6385 26.9938 22.2269 26.9876C23.4041 26.9751 25.0037 26.9502 26.6956 26.9004C28.3891 26.8506 30.1669 26.7761 31.7029 26.6651C33.2672 26.552 34.4961 26.4061 35.1423 26.2338L35.1566 26.23L35.171 26.2266C36.4804 25.9185 37.5139 24.8212 37.8299 23.5575L37.8318 23.5499L37.8338 23.5423C38.2035 22.1558 38.4011 19.9277 38.5013 17.9738C38.5506 17.0119 38.5753 16.1416 38.5877 15.5116C38.5939 15.1969 38.5969 14.9427 38.5985 14.7678C38.5992 14.6803 38.5996 14.6127 38.5998 14.5673L38.6 14.5161L38.6 14.5007V14.4919L38.6001 14.4839L38.6004 14.4682L38.601 14.418C38.6015 14.3734 38.6022 14.3069 38.6028 14.2209C38.6039 14.0487 38.6047 13.7983 38.6031 13.4878C38.6001 12.8662 38.5877 12.006 38.5507 11.0512C38.4757 9.11285 38.3021 6.88493 37.9317 5.44988L37.929 5.43949L37.9266 5.42904C37.6185 4.11956 36.5212 3.08607 35.2575 2.77014L35.2501 2.76831C34.5745 2.59394 33.3222 2.44788 31.7457 2.33494C30.1954 2.22387 28.4079 2.14938 26.7082 2.09957C25.0101 2.04981 23.4072 2.0249 22.2285 2.01244C21.6393 2.00622 21.1565 2.00311 20.8213 2.00155C20.6537 2.00077 20.5231 2.00039 20.4345 2.00019L20.2999 2L20.3 1C20.3 0 20.2999 0 20.2998 0L20.4388 0.000197709C20.529 0.000394702 20.6613 0.000787973 20.8306 0.00157326C21.1692 0.00314367 21.656 0.00628233 22.2496 0.0125558C23.4365 0.0250987 25.0524 0.0501918 26.7668 0.100429C28.4796 0.150621 30.2984 0.226128 31.8886 0.340056C33.4506 0.451961 34.8716 0.605662 35.7463 0.830791C37.6777 1.3151 39.376 2.87639 39.8709 4.96017C40.2986 6.6248 40.4744 9.04104 40.5493 10.9738C40.5873 11.9565 40.5999 12.84 40.6031 13.4778C40.6047 13.797 40.6039 14.0552 40.6027 14.2342C40.6021 14.3237 40.6014 14.3935 40.6009 14.4412L40.6002 14.4961L40.6 14.5056L40.6 14.5202Z" fill="white"/>
<path d="M16.5 20.3002L26.6 14.5002L16.5 8.7002V20.3002Z" fill="white"/>
</svg>
