<svg width="11" height="10" viewBox="0 0 11 10" fill="none" xmlns="http://www.w3.org/2000/svg">
<path d="M5.20513 7.13377C6.29271 7.13377 7.17436 6.25212 7.17436 5.16454C7.17436 4.07697 6.29271 3.19531 5.20513 3.19531C4.11756 3.19531 3.2359 4.07697 3.2359 5.16454C3.2359 6.25212 4.11756 7.13377 5.20513 7.13377Z" stroke="white" stroke-miterlimit="8" stroke-linecap="square"/>
<path d="M5.20512 1.71801V0.733398V1.71801ZM5.20512 9.59494V8.61032V9.59494ZM1.75897 5.16417H0.282043H1.75897ZM10.1282 5.16417H8.65127H10.1282ZM7.64204 2.72724L8.67589 1.6934L7.64204 2.72724ZM1.73435 8.63494L2.7682 7.60109L1.73435 8.63494ZM7.64204 7.60109L8.67589 8.63494L7.64204 7.60109ZM1.73435 1.6934L2.7682 2.72724L1.73435 1.6934Z" stroke="white" stroke-miterlimit="8" stroke-linecap="square"/>
</svg>
